<?xml version="1.0" encoding="utf-8" standalone="no"?>
<!DOCTYPE svg PUBLIC "-//W3C//DTD SVG 1.1//EN"
  "http://www.w3.org/Graphics/SVG/1.1/DTD/svg11.dtd">
<svg xmlns:xlink="http://www.w3.org/1999/xlink" width="288pt" height="216pt" viewBox="0 0 288 216" xmlns="http://www.w3.org/2000/svg" version="1.1">
 <metadata>
  <rdf:RDF xmlns:dc="http://purl.org/dc/elements/1.1/" xmlns:cc="http://creativecommons.org/ns#" xmlns:rdf="http://www.w3.org/1999/02/22-rdf-syntax-ns#">
   <cc:Work>
    <dc:type rdf:resource="http://purl.org/dc/dcmitype/StillImage"/>
    <dc:date>2026-04-25T18:15:10.196039</dc:date>
    <dc:format>image/svg+xml</dc:format>
    <dc:creator>
     <cc:Agent>
      <dc:title>Matplotlib v3.10.9, https://matplotlib.org/</dc:title>
     </cc:Agent>
    </dc:creator>
   </cc:Work>
  </rdf:RDF>
 </metadata>
 <defs>
  <style type="text/css">*{stroke-linejoin: round; stroke-linecap: butt}</style>
 </defs>
 <g id="figure_1">
  <g id="patch_1">
   <path d="M 0 216 
L 288 216 
L 288 0 
L 0 0 
z
" style="fill: #ffffff"/>
  </g>
  <g id="axes_1">
   <g id="patch_2">
    <path d="M 54.83 174.04 
L 277.2 174.04 
L 277.2 10.8 
L 54.83 10.8 
z
" style="fill: #ffffff"/>
   </g>
   <g id="matplotlib.axis_1">
    <g id="xtick_1">
     <g id="line2d_1">
      <defs>
       <path id="m28e1559cc6" d="M 0 0 
L 0 3.5 
" style="stroke: #000000; stroke-width: 0.8"/>
      </defs>
      <g>
       <use xlink:href="#m28e1559cc6" x="64.937727" y="174.04" style="stroke: #000000; stroke-width: 0.8"/>
      </g>
     </g>
     <g id="text_1">
      <!-- 0 -->
      <g transform="translate(61.756477 188.638438) scale(0.1 -0.1)">
       <defs>
        <path id="DejaVuSans-30" d="M 2034 4250 
Q 1547 4250 1301 3770 
Q 1056 3291 1056 2328 
Q 1056 1369 1301 889 
Q 1547 409 2034 409 
Q 2525 409 2770 889 
Q 3016 1369 3016 2328 
Q 3016 3291 2770 3770 
Q 2525 4250 2034 4250 
z
M 2034 4750 
Q 2819 4750 3233 4129 
Q 3647 3509 3647 2328 
Q 3647 1150 3233 529 
Q 2819 -91 2034 -91 
Q 1250 -91 836 529 
Q 422 1150 422 2328 
Q 422 3509 836 4129 
Q 1250 4750 2034 4750 
z
" transform="scale(0.015625)"/>
       </defs>
       <use xlink:href="#DejaVuSans-30"/>
      </g>
     </g>
    </g>
    <g id="xtick_2">
     <g id="line2d_2">
      <g>
       <use xlink:href="#m28e1559cc6" x="101.353222" y="174.04" style="stroke: #000000; stroke-width: 0.8"/>
      </g>
     </g>
     <g id="text_2">
      <!-- 2500 -->
      <g transform="translate(88.628222 188.638438) scale(0.1 -0.1)">
       <defs>
        <path id="DejaVuSans-32" d="M 1228 531 
L 3431 531 
L 3431 0 
L 469 0 
L 469 531 
Q 828 903 1448 1529 
Q 2069 2156 2228 2338 
Q 2531 2678 2651 2914 
Q 2772 3150 2772 3378 
Q 2772 3750 2511 3984 
Q 2250 4219 1831 4219 
Q 1534 4219 1204 4116 
Q 875 4013 500 3803 
L 500 4441 
Q 881 4594 1212 4672 
Q 1544 4750 1819 4750 
Q 2544 4750 2975 4387 
Q 3406 4025 3406 3419 
Q 3406 3131 3298 2873 
Q 3191 2616 2906 2266 
Q 2828 2175 2409 1742 
Q 1991 1309 1228 531 
z
" transform="scale(0.015625)"/>
        <path id="DejaVuSans-35" d="M 691 4666 
L 3169 4666 
L 3169 4134 
L 1269 4134 
L 1269 2991 
Q 1406 3038 1543 3061 
Q 1681 3084 1819 3084 
Q 2600 3084 3056 2656 
Q 3513 2228 3513 1497 
Q 3513 744 3044 326 
Q 2575 -91 1722 -91 
Q 1428 -91 1123 -41 
Q 819 9 494 109 
L 494 744 
Q 775 591 1075 516 
Q 1375 441 1709 441 
Q 2250 441 2565 725 
Q 2881 1009 2881 1497 
Q 2881 1984 2565 2268 
Q 2250 2553 1709 2553 
Q 1456 2553 1204 2497 
Q 953 2441 691 2322 
L 691 4666 
z
" transform="scale(0.015625)"/>
       </defs>
       <use xlink:href="#DejaVuSans-32"/>
       <use xlink:href="#DejaVuSans-35" transform="translate(63.623047 0)"/>
       <use xlink:href="#DejaVuSans-30" transform="translate(127.246094 0)"/>
       <use xlink:href="#DejaVuSans-30" transform="translate(190.869141 0)"/>
      </g>
     </g>
    </g>
    <g id="xtick_3">
     <g id="line2d_3">
      <g>
       <use xlink:href="#m28e1559cc6" x="137.768717" y="174.04" style="stroke: #000000; stroke-width: 0.8"/>
      </g>
     </g>
     <g id="text_3">
      <!-- 5000 -->
      <g transform="translate(125.043717 188.638438) scale(0.1 -0.1)">
       <use xlink:href="#DejaVuSans-35"/>
       <use xlink:href="#DejaVuSans-30" transform="translate(63.623047 0)"/>
       <use xlink:href="#DejaVuSans-30" transform="translate(127.246094 0)"/>
       <use xlink:href="#DejaVuSans-30" transform="translate(190.869141 0)"/>
      </g>
     </g>
    </g>
    <g id="xtick_4">
     <g id="line2d_4">
      <g>
       <use xlink:href="#m28e1559cc6" x="174.184212" y="174.04" style="stroke: #000000; stroke-width: 0.8"/>
      </g>
     </g>
     <g id="text_4">
      <!-- 7500 -->
      <g transform="translate(161.459212 188.638438) scale(0.1 -0.1)">
       <defs>
        <path id="DejaVuSans-37" d="M 525 4666 
L 3525 4666 
L 3525 4397 
L 1831 0 
L 1172 0 
L 2766 4134 
L 525 4134 
L 525 4666 
z
" transform="scale(0.015625)"/>
       </defs>
       <use xlink:href="#DejaVuSans-37"/>
       <use xlink:href="#DejaVuSans-35" transform="translate(63.623047 0)"/>
       <use xlink:href="#DejaVuSans-30" transform="translate(127.246094 0)"/>
       <use xlink:href="#DejaVuSans-30" transform="translate(190.869141 0)"/>
      </g>
     </g>
    </g>
    <g id="xtick_5">
     <g id="line2d_5">
      <g>
       <use xlink:href="#m28e1559cc6" x="210.599707" y="174.04" style="stroke: #000000; stroke-width: 0.8"/>
      </g>
     </g>
     <g id="text_5">
      <!-- 10000 -->
      <g transform="translate(194.693457 188.638438) scale(0.1 -0.1)">
       <defs>
        <path id="DejaVuSans-31" d="M 794 531 
L 1825 531 
L 1825 4091 
L 703 3866 
L 703 4441 
L 1819 4666 
L 2450 4666 
L 2450 531 
L 3481 531 
L 3481 0 
L 794 0 
L 794 531 
z
" transform="scale(0.015625)"/>
       </defs>
       <use xlink:href="#DejaVuSans-31"/>
       <use xlink:href="#DejaVuSans-30" transform="translate(63.623047 0)"/>
       <use xlink:href="#DejaVuSans-30" transform="translate(127.246094 0)"/>
       <use xlink:href="#DejaVuSans-30" transform="translate(190.869141 0)"/>
       <use xlink:href="#DejaVuSans-30" transform="translate(254.492188 0)"/>
      </g>
     </g>
    </g>
    <g id="xtick_6">
     <g id="line2d_6">
      <g>
       <use xlink:href="#m28e1559cc6" x="247.015202" y="174.04" style="stroke: #000000; stroke-width: 0.8"/>
      </g>
     </g>
     <g id="text_6">
      <!-- 12500 -->
      <g transform="translate(231.108952 188.638438) scale(0.1 -0.1)">
       <use xlink:href="#DejaVuSans-31"/>
       <use xlink:href="#DejaVuSans-32" transform="translate(63.623047 0)"/>
       <use xlink:href="#DejaVuSans-35" transform="translate(127.246094 0)"/>
       <use xlink:href="#DejaVuSans-30" transform="translate(190.869141 0)"/>
       <use xlink:href="#DejaVuSans-30" transform="translate(254.492188 0)"/>
      </g>
     </g>
    </g>
    <g id="text_7">
     <!-- Time (s) -->
     <g transform="translate(145.686094 202.316563) scale(0.1 -0.1)">
      <defs>
       <path id="DejaVuSans-54" d="M -19 4666 
L 3928 4666 
L 3928 4134 
L 2272 4134 
L 2272 0 
L 1638 0 
L 1638 4134 
L -19 4134 
L -19 4666 
z
" transform="scale(0.015625)"/>
       <path id="DejaVuSans-69" d="M 603 3500 
L 1178 3500 
L 1178 0 
L 603 0 
L 603 3500 
z
M 603 4863 
L 1178 4863 
L 1178 4134 
L 603 4134 
L 603 4863 
z
" transform="scale(0.015625)"/>
       <path id="DejaVuSans-6d" d="M 3328 2828 
Q 3544 3216 3844 3400 
Q 4144 3584 4550 3584 
Q 5097 3584 5394 3201 
Q 5691 2819 5691 2113 
L 5691 0 
L 5113 0 
L 5113 2094 
Q 5113 2597 4934 2840 
Q 4756 3084 4391 3084 
Q 3944 3084 3684 2787 
Q 3425 2491 3425 1978 
L 3425 0 
L 2847 0 
L 2847 2094 
Q 2847 2600 2669 2842 
Q 2491 3084 2119 3084 
Q 1678 3084 1418 2786 
Q 1159 2488 1159 1978 
L 1159 0 
L 581 0 
L 581 3500 
L 1159 3500 
L 1159 2956 
Q 1356 3278 1631 3431 
Q 1906 3584 2284 3584 
Q 2666 3584 2933 3390 
Q 3200 3197 3328 2828 
z
" transform="scale(0.015625)"/>
       <path id="DejaVuSans-65" d="M 3597 1894 
L 3597 1613 
L 953 1613 
Q 991 1019 1311 708 
Q 1631 397 2203 397 
Q 2534 397 2845 478 
Q 3156 559 3463 722 
L 3463 178 
Q 3153 47 2828 -22 
Q 2503 -91 2169 -91 
Q 1331 -91 842 396 
Q 353 884 353 1716 
Q 353 2575 817 3079 
Q 1281 3584 2069 3584 
Q 2775 3584 3186 3129 
Q 3597 2675 3597 1894 
z
M 3022 2063 
Q 3016 2534 2758 2815 
Q 2500 3097 2075 3097 
Q 1594 3097 1305 2825 
Q 1016 2553 972 2059 
L 3022 2063 
z
" transform="scale(0.015625)"/>
       <path id="DejaVuSans-20" transform="scale(0.015625)"/>
       <path id="DejaVuSans-28" d="M 1984 4856 
Q 1566 4138 1362 3434 
Q 1159 2731 1159 2009 
Q 1159 1288 1364 580 
Q 1569 -128 1984 -844 
L 1484 -844 
Q 1016 -109 783 600 
Q 550 1309 550 2009 
Q 550 2706 781 3412 
Q 1013 4119 1484 4856 
L 1984 4856 
z
" transform="scale(0.015625)"/>
       <path id="DejaVuSans-73" d="M 2834 3397 
L 2834 2853 
Q 2591 2978 2328 3040 
Q 2066 3103 1784 3103 
Q 1356 3103 1142 2972 
Q 928 2841 928 2578 
Q 928 2378 1081 2264 
Q 1234 2150 1697 2047 
L 1894 2003 
Q 2506 1872 2764 1633 
Q 3022 1394 3022 966 
Q 3022 478 2636 193 
Q 2250 -91 1575 -91 
Q 1294 -91 989 -36 
Q 684 19 347 128 
L 347 722 
Q 666 556 975 473 
Q 1284 391 1588 391 
Q 1994 391 2212 530 
Q 2431 669 2431 922 
Q 2431 1156 2273 1281 
Q 2116 1406 1581 1522 
L 1381 1569 
Q 847 1681 609 1914 
Q 372 2147 372 2553 
Q 372 3047 722 3315 
Q 1072 3584 1716 3584 
Q 2034 3584 2315 3537 
Q 2597 3491 2834 3397 
z
" transform="scale(0.015625)"/>
       <path id="DejaVuSans-29" d="M 513 4856 
L 1013 4856 
Q 1481 4119 1714 3412 
Q 1947 2706 1947 2009 
Q 1947 1309 1714 600 
Q 1481 -109 1013 -844 
L 513 -844 
Q 928 -128 1133 580 
Q 1338 1288 1338 2009 
Q 1338 2731 1133 3434 
Q 928 4138 513 4856 
z
" transform="scale(0.015625)"/>
      </defs>
      <use xlink:href="#DejaVuSans-54"/>
      <use xlink:href="#DejaVuSans-69" transform="translate(57.958984 0)"/>
      <use xlink:href="#DejaVuSans-6d" transform="translate(85.742188 0)"/>
      <use xlink:href="#DejaVuSans-65" transform="translate(183.154297 0)"/>
      <use xlink:href="#DejaVuSans-20" transform="translate(244.677734 0)"/>
      <use xlink:href="#DejaVuSans-28" transform="translate(276.464844 0)"/>
      <use xlink:href="#DejaVuSans-73" transform="translate(315.478516 0)"/>
      <use xlink:href="#DejaVuSans-29" transform="translate(367.578125 0)"/>
     </g>
    </g>
   </g>
   <g id="matplotlib.axis_2">
    <g id="ytick_1">
     <g id="line2d_7">
      <defs>
       <path id="m2bbad0a265" d="M 0 0 
L -3.5 0 
" style="stroke: #000000; stroke-width: 0.8"/>
      </defs>
      <g>
       <use xlink:href="#m2bbad0a265" x="54.83" y="149.755929" style="stroke: #000000; stroke-width: 0.8"/>
      </g>
     </g>
     <g id="text_8">
      <!-- 0.98 -->
      <g transform="translate(25.564375 153.555148) scale(0.1 -0.1)">
       <defs>
        <path id="DejaVuSans-2e" d="M 684 794 
L 1344 794 
L 1344 0 
L 684 0 
L 684 794 
z
" transform="scale(0.015625)"/>
        <path id="DejaVuSans-39" d="M 703 97 
L 703 672 
Q 941 559 1184 500 
Q 1428 441 1663 441 
Q 2288 441 2617 861 
Q 2947 1281 2994 2138 
Q 2813 1869 2534 1725 
Q 2256 1581 1919 1581 
Q 1219 1581 811 2004 
Q 403 2428 403 3163 
Q 403 3881 828 4315 
Q 1253 4750 1959 4750 
Q 2769 4750 3195 4129 
Q 3622 3509 3622 2328 
Q 3622 1225 3098 567 
Q 2575 -91 1691 -91 
Q 1453 -91 1209 -44 
Q 966 3 703 97 
z
M 1959 2075 
Q 2384 2075 2632 2365 
Q 2881 2656 2881 3163 
Q 2881 3666 2632 3958 
Q 2384 4250 1959 4250 
Q 1534 4250 1286 3958 
Q 1038 3666 1038 3163 
Q 1038 2656 1286 2365 
Q 1534 2075 1959 2075 
z
" transform="scale(0.015625)"/>
        <path id="DejaVuSans-38" d="M 2034 2216 
Q 1584 2216 1326 1975 
Q 1069 1734 1069 1313 
Q 1069 891 1326 650 
Q 1584 409 2034 409 
Q 2484 409 2743 651 
Q 3003 894 3003 1313 
Q 3003 1734 2745 1975 
Q 2488 2216 2034 2216 
z
M 1403 2484 
Q 997 2584 770 2862 
Q 544 3141 544 3541 
Q 544 4100 942 4425 
Q 1341 4750 2034 4750 
Q 2731 4750 3128 4425 
Q 3525 4100 3525 3541 
Q 3525 3141 3298 2862 
Q 3072 2584 2669 2484 
Q 3125 2378 3379 2068 
Q 3634 1759 3634 1313 
Q 3634 634 3220 271 
Q 2806 -91 2034 -91 
Q 1263 -91 848 271 
Q 434 634 434 1313 
Q 434 1759 690 2068 
Q 947 2378 1403 2484 
z
M 1172 3481 
Q 1172 3119 1398 2916 
Q 1625 2713 2034 2713 
Q 2441 2713 2670 2916 
Q 2900 3119 2900 3481 
Q 2900 3844 2670 4047 
Q 2441 4250 2034 4250 
Q 1625 4250 1398 4047 
Q 1172 3844 1172 3481 
z
" transform="scale(0.015625)"/>
       </defs>
       <use xlink:href="#DejaVuSans-30"/>
       <use xlink:href="#DejaVuSans-2e" transform="translate(63.623047 0)"/>
       <use xlink:href="#DejaVuSans-39" transform="translate(95.410156 0)"/>
       <use xlink:href="#DejaVuSans-38" transform="translate(159.033203 0)"/>
      </g>
     </g>
    </g>
    <g id="ytick_2">
     <g id="line2d_8">
      <g>
       <use xlink:href="#m2bbad0a265" x="54.83" y="119.883278" style="stroke: #000000; stroke-width: 0.8"/>
      </g>
     </g>
     <g id="text_9">
      <!-- 0.99 -->
      <g transform="translate(25.564375 123.682497) scale(0.1 -0.1)">
       <use xlink:href="#DejaVuSans-30"/>
       <use xlink:href="#DejaVuSans-2e" transform="translate(63.623047 0)"/>
       <use xlink:href="#DejaVuSans-39" transform="translate(95.410156 0)"/>
       <use xlink:href="#DejaVuSans-39" transform="translate(159.033203 0)"/>
      </g>
     </g>
    </g>
    <g id="ytick_3">
     <g id="line2d_9">
      <g>
       <use xlink:href="#m2bbad0a265" x="54.83" y="90.010626" style="stroke: #000000; stroke-width: 0.8"/>
      </g>
     </g>
     <g id="text_10">
      <!-- 1.00 -->
      <g transform="translate(25.564375 93.809845) scale(0.1 -0.1)">
       <use xlink:href="#DejaVuSans-31"/>
       <use xlink:href="#DejaVuSans-2e" transform="translate(63.623047 0)"/>
       <use xlink:href="#DejaVuSans-30" transform="translate(95.410156 0)"/>
       <use xlink:href="#DejaVuSans-30" transform="translate(159.033203 0)"/>
      </g>
     </g>
    </g>
    <g id="ytick_4">
     <g id="line2d_10">
      <g>
       <use xlink:href="#m2bbad0a265" x="54.83" y="60.137975" style="stroke: #000000; stroke-width: 0.8"/>
      </g>
     </g>
     <g id="text_11">
      <!-- 1.01 -->
      <g transform="translate(25.564375 63.937194) scale(0.1 -0.1)">
       <use xlink:href="#DejaVuSans-31"/>
       <use xlink:href="#DejaVuSans-2e" transform="translate(63.623047 0)"/>
       <use xlink:href="#DejaVuSans-30" transform="translate(95.410156 0)"/>
       <use xlink:href="#DejaVuSans-31" transform="translate(159.033203 0)"/>
      </g>
     </g>
    </g>
    <g id="ytick_5">
     <g id="line2d_11">
      <g>
       <use xlink:href="#m2bbad0a265" x="54.83" y="30.265324" style="stroke: #000000; stroke-width: 0.8"/>
      </g>
     </g>
     <g id="text_12">
      <!-- 1.02 -->
      <g transform="translate(25.564375 34.064542) scale(0.1 -0.1)">
       <use xlink:href="#DejaVuSans-31"/>
       <use xlink:href="#DejaVuSans-2e" transform="translate(63.623047 0)"/>
       <use xlink:href="#DejaVuSans-30" transform="translate(95.410156 0)"/>
       <use xlink:href="#DejaVuSans-32" transform="translate(159.033203 0)"/>
      </g>
     </g>
    </g>
    <g id="text_13">
     <!-- $\Delta R/R$ -->
     <g transform="translate(19.484687 104.42) rotate(-90) scale(0.1 -0.1)">
      <defs>
       <path id="DejaVuSans-394" d="M 2188 4044 
L 906 525 
L 3472 525 
L 2188 4044 
z
M 50 0 
L 1831 4666 
L 2547 4666 
L 4325 0 
L 50 0 
z
" transform="scale(0.015625)"/>
       <path id="DejaVuSans-Oblique-52" d="M 1613 4147 
L 1294 2491 
L 2106 2491 
Q 2584 2491 2879 2755 
Q 3175 3019 3175 3444 
Q 3175 3784 2976 3965 
Q 2778 4147 2406 4147 
L 1613 4147 
z
M 2772 2241 
Q 2972 2194 3105 2009 
Q 3238 1825 3413 1275 
L 3809 0 
L 3144 0 
L 2778 1197 
Q 2638 1659 2453 1815 
Q 2269 1972 1888 1972 
L 1191 1972 
L 806 0 
L 172 0 
L 1081 4666 
L 2503 4666 
Q 3150 4666 3495 4373 
Q 3841 4081 3841 3531 
Q 3841 3044 3547 2687 
Q 3253 2331 2772 2241 
z
" transform="scale(0.015625)"/>
       <path id="DejaVuSans-2f" d="M 1625 4666 
L 2156 4666 
L 531 -594 
L 0 -594 
L 1625 4666 
z
" transform="scale(0.015625)"/>
      </defs>
      <use xlink:href="#DejaVuSans-394" transform="translate(0 0.09375)"/>
      <use xlink:href="#DejaVuSans-Oblique-52" transform="translate(68.408203 0.09375)"/>
      <use xlink:href="#DejaVuSans-2f" transform="translate(137.890625 0.09375)"/>
      <use xlink:href="#DejaVuSans-Oblique-52" transform="translate(169.832031 0.09375)"/>
     </g>
    </g>
   </g>
   <g id="line2d_12">
    <path d="M 64.937727 33.343446 
L 65.011176 32.625646 
L 65.025625 34.756158 
L 65.412142 111.120193 
L 65.797468 144.43442 
L 65.805897 145.081207 
L 65.807101 144.959175 
L 65.910656 153.497142 
L 65.944371 151.002018 
L 66.697033 89.489094 
L 66.70185 89.69884 
L 66.778912 85.636624 
L 66.782524 85.648759 
L 66.979998 75.143712 
L 66.981202 75.272148 
L 67.05345 71.25807 
L 67.220824 61.204266 
L 67.222028 61.257865 
L 67.268988 58.532394 
L 67.533897 44.186001 
L 67.535102 44.489796 
L 67.62782 40.19943 
L 67.808438 34.002952 
L 67.816866 34.236361 
L 67.899949 33.430754 
L 67.913194 33.692076 
L 67.973401 33.095608 
L 67.991464 38.479803 
L 68.431113 118.817866 
L 68.487708 124.285067 
L 68.664719 140.03902 
L 68.667127 139.988509 
L 68.691211 141.636169 
L 68.692415 141.593943 
L 68.863399 154.951215 
L 68.864604 154.816418 
L 68.989833 145.888337 
L 68.991037 146.057694 
L 69.053652 139.316544 
L 69.951939 74.878764 
L 69.953143 74.949414 
L 70.004921 71.738303 
L 70.150621 63.329427 
L 70.151825 63.38191 
L 70.391449 50.071186 
L 70.399878 49.472886 
L 70.393857 50.148698 
L 70.405898 49.505588 
L 70.543174 42.819744 
L 70.544378 42.899073 
L 70.605793 39.795554 
L 70.608201 39.908592 
L 70.749089 35.239282 
L 70.767151 34.798631 
L 70.771968 34.846472 
L 70.812908 34.350918 
L 70.880342 34.889871 
L 70.882749 34.865648 
L 70.934526 34.722733 
L 70.944159 36.086669 
L 71.381261 118.997622 
L 71.382465 118.964925 
L 71.406548 121.25353 
L 71.625707 141.675277 
L 71.844869 154.727646 
L 71.900262 152.298472 
L 72.829861 81.484524 
L 72.831065 81.552012 
L 72.88525 78.392145 
L 73.027339 67.885106 
L 73.028543 67.971128 
L 73.088751 64.444406 
L 73.09116 64.603759 
L 73.266963 55.285525 
L 73.482499 44.541371 
L 73.486112 44.544593 
L 73.631804 38.330623 
L 73.633008 38.387636 
L 73.696821 36.308994 
L 73.699228 36.412542 
L 73.835279 33.909832 
L 73.930397 43.604188 
L 74.151925 97.393656 
L 74.15313 97.329794 
L 74.184434 101.512464 
L 74.434858 128.638433 
L 74.436062 128.492905 
L 74.496256 134.524414 
L 74.79001 153.650411 
L 74.808068 154.734446 
L 74.977818 140.080395 
L 75.290828 111.966433 
L 75.292032 112.007658 
L 75.330555 109.593588 
L 75.525583 96.588892 
L 75.526788 96.594522 
L 75.531603 96.129766 
L 75.678477 86.77896 
L 75.679681 86.821392 
L 75.902396 73.962297 
L 75.9036 74.147716 
L 75.983055 69.590061 
L 76.132334 60.575702 
L 76.134742 60.823867 
L 76.217813 56.52644 
L 76.219017 56.625586 
L 76.430897 44.640495 
L 76.432101 44.783281 
L 76.510353 41.105864 
L 76.511557 41.114511 
L 76.643983 36.838 
L 76.794467 33.901455 
L 76.647595 36.893707 
L 76.799282 34.039615 
L 76.805302 33.92961 
L 76.877535 39.023414 
L 77.109882 98.637153 
L 77.111086 98.613823 
L 77.123125 100.181442 
L 77.292871 118.927112 
L 77.442151 133.886515 
L 77.443355 133.874458 
L 77.596246 145.040689 
L 77.633566 147.113728 
L 77.63477 147.074152 
L 77.767197 155.876785 
L 77.782846 155.405944 
L 78.395625 101.650732 
L 78.396828 101.747081 
L 78.452209 97.411598 
L 78.66409 84.653847 
L 79.11555 58.070281 
L 79.116754 58.156795 
L 79.117958 58.326609 
L 79.192599 53.75708 
L 79.193803 53.781367 
L 79.333455 46.131696 
L 79.196211 53.899195 
L 79.337067 46.180872 
L 79.698233 32.957437 
L 79.341883 46.202351 
L 79.731943 33.365715 
L 79.841497 41.833747 
L 80.050975 96.544461 
L 80.131638 106.382049 
L 80.471139 140.544717 
L 80.472343 140.521864 
L 80.492809 142.243167 
L 80.494013 142.219512 
L 80.699879 155.537145 
L 80.701082 155.535542 
L 80.73118 156.933068 
L 80.779335 154.529453 
L 82.185487 54.679687 
L 82.186691 54.755559 
L 82.246888 51.892875 
L 82.250499 51.911492 
L 82.42627 42.010804 
L 82.427474 42.049041 
L 82.428678 42.089679 
L 82.472017 39.966887 
L 82.474424 40.110021 
L 82.606848 36.007773 
L 82.609256 36.191547 
L 82.671858 34.898335 
L 82.711585 35.294706 
L 82.712789 35.200216 
L 82.78623 37.945592 
L 83.043872 100.950888 
L 83.281043 128.513072 
L 83.282247 128.434469 
L 83.321977 132.706735 
L 83.477279 144.599278 
L 83.680742 156.540282 
L 83.771035 152.090221 
L 83.790298 150.331249 
L 84.155082 116.626492 
L 84.469305 93.750886 
L 84.471713 93.764463 
L 84.472917 93.780036 
L 84.494588 92.662959 
L 84.742598 77.995019 
L 84.743802 78.014785 
L 84.911146 69.014685 
L 84.954487 66.990769 
L 85.154341 55.088866 
L 85.155544 55.105238 
L 85.17842 53.934054 
L 85.23019 51.450531 
L 85.470974 39.922584 
L 85.472178 39.965309 
L 85.473382 39.970901 
L 85.483014 39.587361 
L 85.628689 35.797886 
L 85.732228 35.593638 
L 85.770755 50.455046 
L 86.000705 101.74392 
L 86.198151 122.206683 
L 86.199355 122.158366 
L 86.236678 125.078935 
L 86.633977 154.749611 
L 86.658057 154.047768 
L 86.726681 148.591554 
L 87.03368 119.030261 
L 87.034884 119.038237 
L 87.161296 109.679637 
L 87.346701 97.821823 
L 87.347905 97.840964 
L 87.369575 96.488468 
L 87.57545 81.188699 
L 88.291792 40.651316 
L 88.292997 40.784511 
L 88.373658 37.583426 
L 88.374862 37.589407 
L 88.586757 31.395603 
L 88.624079 31.636673 
L 88.649361 31.477355 
L 88.67946 32.031872 
L 88.696315 31.6935 
L 88.732435 42.345972 
L 88.947943 96.583779 
L 89.141775 122.207884 
L 89.336808 140.790223 
L 89.612508 157.480862 
L 89.673909 154.592818 
L 90.142245 110.723322 
L 90.143449 110.754954 
L 90.175955 108.937294 
L 90.336081 99.139404 
L 90.522692 88.400555 
L 90.71171 76.544494 
L 90.712914 76.593631 
L 90.753848 73.741715 
L 90.938051 63.17952 
L 90.941663 63.367711 
L 91.016308 58.998128 
L 91.249875 46.665223 
L 91.251079 46.692874 
L 91.283586 45.017653 
L 91.444915 38.042634 
L 91.447323 38.093362 
L 91.603835 34.093596 
L 91.672459 34.842186 
L 91.717007 52.594646 
L 91.955393 105.305558 
L 92.410488 146.627127 
L 92.411692 146.416973 
L 92.494769 151.092283 
L 92.581454 156.751368 
L 92.626 154.684246 
L 92.97515 120.60055 
L 92.976354 120.650398 
L 93.305036 97.201736 
L 93.30624 97.277799 
L 93.364033 93.925721 
L 93.374868 93.302928 
L 93.376072 93.32795 
L 93.768562 68.396781 
L 93.769766 68.524279 
L 93.844412 64.68485 
L 94.274229 39.776122 
L 94.454824 32.140359 
L 94.571608 30.111318 
L 94.60291 30.410799 
L 94.704045 55.877378 
L 94.889457 97.492479 
L 95.177204 128.096614 
L 95.178408 128.056101 
L 95.204893 130.753811 
L 95.478187 151.337836 
L 95.55283 155.289297 
L 95.614231 152.008134 
L 95.830945 128.774839 
L 95.877898 123.550325 
L 96.100628 105.484811 
L 97.166111 42.466481 
L 97.168519 42.554559 
L 97.211862 40.157038 
L 97.21427 40.171917 
L 97.349114 34.541531 
L 97.479146 30.48483 
L 97.483962 30.683996 
L 97.558609 30.194414 
L 97.487573 30.76751 
L 97.583892 30.694906 
L 97.61038 30.616747 
L 97.641682 38.315951 
L 97.895721 102.524312 
L 98.526597 157.001903 
L 98.554288 156.082831 
L 99.566517 77.986277 
L 99.568925 78.073799 
L 99.570129 78.157362 
L 99.629123 74.585174 
L 99.631531 74.745369 
L 99.857877 62.281526 
L 99.859081 62.321526 
L 99.860285 62.372613 
L 99.904831 59.660603 
L 100.117934 46.929838 
L 100.375582 35.285181 
L 100.376786 35.351319 
L 100.444209 33.2086 
L 100.446617 33.40721 
L 100.527283 31.520525 
L 100.562197 32.027244 
L 100.586276 32.025265 
L 100.630821 45.575019 
L 100.823457 97.002231 
L 101.491661 156.188796 
L 101.507312 157.037587 
L 101.554267 154.991759 
L 101.695131 139.511617 
L 102.324808 90.380005 
L 102.67757 68.236967 
L 102.678774 68.340752 
L 102.740177 64.228247 
L 103.380692 32.611403 
L 103.381896 32.668536 
L 103.428851 31.34541 
L 103.483029 30.406985 
L 103.432463 31.396018 
L 103.545634 31.245973 
L 103.560081 30.752345 
L 104.064542 125.394388 
L 104.065746 125.138593 
L 104.136781 132.741257 
L 104.140393 132.657387 
L 104.211428 140.23112 
L 104.378781 152.418389 
L 104.475098 157.316314 
L 104.384801 152.386196 
L 104.529278 154.272711 
L 104.670143 139.027534 
L 105.003646 108.966128 
L 105.126449 101.024345 
L 105.127653 101.092447 
L 105.31186 87.170348 
L 105.314269 87.454612 
L 105.397344 81.309752 
L 105.398547 81.353971 
L 105.438279 78.840398 
L 105.441891 78.888171 
L 105.446707 78.993585 
L 105.574328 72.033438 
L 105.575532 72.30033 
L 105.659808 66.381501 
L 105.686296 64.365392 
L 105.688704 64.437839 
L 105.847628 55.064796 
L 105.848832 55.46869 
L 105.942743 50.082068 
L 106.429148 30.22715 
L 105.94515 50.153726 
L 106.43276 30.3146 
L 106.455635 29.881294 
L 106.576031 49.027917 
L 106.767464 97.995115 
L 106.943248 118.505421 
L 107.348982 154.109626 
L 107.350186 154.084196 
L 107.379082 155.816981 
L 107.380287 155.816981 
L 107.451321 159.77972 
L 107.491052 155.995385 
L 107.619876 141.6379 
L 107.622283 141.663331 
L 107.881135 116.618359 
L 108.407271 76.990995 
L 109.440284 26.537013 
L 109.459546 26.823222 
L 109.496869 27.659361 
L 109.614858 70.910394 
L 109.866489 112.404132 
L 110.398651 153.719952 
L 110.399855 153.651902 
L 110.402262 153.735535 
L 110.408282 158.235183 
L 110.523868 144.387894 
L 110.673161 127.850126 
L 110.871818 108.653044 
L 111.562907 62.148979 
L 111.741099 52.643539 
L 111.742303 52.774117 
L 111.887986 43.455867 
L 111.88919 43.574217 
L 112.038485 35.571817 
L 112.039689 35.653872 
L 112.101094 32.475794 
L 112.104706 32.51406 
L 112.363561 20.2207 
L 112.367173 20.338458 
L 112.375601 19.80332 
L 112.378008 19.983408 
L 112.437003 18.22 
L 112.462287 26.599172 
L 112.486367 20.63995 
L 113.102803 131.215617 
L 113.158188 135.76476 
L 113.159392 135.568775 
L 113.303873 144.4327 
L 113.305077 144.366079 
L 113.376114 163.953644 
L 113.307485 144.262994 
L 113.449558 150.661523 
L 113.802328 113.908807 
L 114.451281 71.470412 
L 114.452485 71.606024 
L 114.522317 67.16546 
L 114.523521 67.207382 
L 114.525929 67.323312 
L 114.689671 58.102263 
L 114.935285 42.86546 
L 114.936489 42.877073 
L 114.948529 42.066352 
L 114.950937 42.11477 
L 115.095417 34.515361 
L 115.099029 34.518116 
L 115.277216 27.388332 
L 115.27842 27.454466 
L 115.279624 27.642827 
L 115.369925 25.330528 
L 115.374741 25.366744 
L 115.392802 25.123076 
L 115.422901 25.654503 
L 115.436146 25.23369 
L 115.552929 69.22779 
L 115.776873 107.852507 
L 116.339133 157.140977 
L 116.348766 164.208075 
L 116.492042 149.166083 
L 116.493246 149.211397 
L 116.520937 146.12715 
L 116.7497 121.618332 
L 116.750905 121.690912 
L 116.794249 117.821233 
L 116.992906 104.120526 
L 116.998926 104.178592 
L 117.513029 72.764693 
L 117.514233 72.931429 
L 117.653898 63.955862 
L 117.88145 50.977815 
L 117.882654 50.986838 
L 117.891082 50.223572 
L 117.894694 50.328715 
L 118.036762 42.820043 
L 118.03917 42.884972 
L 118.054821 41.99852 
L 118.056026 42.035986 
L 118.187258 35.587372 
L 118.188462 35.74175 
L 118.341366 31.164125 
L 118.343773 31.228857 
L 118.35822 30.698437 
L 118.441295 37.117431 
L 118.755532 114.385804 
L 119.097465 150.738529 
L 119.098669 150.639174 
L 119.128767 152.667414 
L 119.326224 166.089591 
L 119.327428 166.082368 
L 119.598327 144.023961 
L 119.59953 144.228156 
L 119.669359 137.588725 
L 119.848742 123.444284 
L 120.343542 91.618508 
L 120.484404 83.01366 
L 120.486812 83.089404 
L 120.488016 83.107755 
L 120.506075 81.798452 
L 120.742045 68.186555 
L 120.508483 82.212305 
L 120.744453 68.296655 
L 120.745657 68.335893 
L 120.780571 66.176628 
L 120.922632 57.968847 
L 120.923836 58.05279 
L 121.102017 48.372702 
L 121.103221 48.399446 
L 121.104425 48.418187 
L 121.1273 47.114937 
L 121.304272 36.088456 
L 121.356038 39.073477 
L 121.38734 38.891537 
L 121.524585 85.581703 
L 121.766568 124.346953 
L 122.044669 152.604518 
L 121.768976 124.30264 
L 122.045873 152.536661 
L 122.048281 152.627722 
L 122.049485 152.524307 
L 122.050688 152.560575 
L 122.167465 160.071918 
L 122.171077 157.21769 
L 122.29508 162.431073 
L 122.191544 155.390462 
L 122.299896 159.922991 
L 122.959633 104.273084 
L 122.304711 160.122119 
L 122.960837 104.326979 
L 123.051128 98.568451 
L 123.053536 98.771972 
L 123.195599 89.555331 
L 123.200415 89.840572 
L 123.264221 85.052953 
L 123.464073 71.320313 
L 123.465277 71.763742 
L 123.556776 64.868722 
L 123.557981 65.105904 
L 124.299599 31.045248 
L 124.305619 31.540041 
L 124.324881 31.314339 
L 124.397116 45.257505 
L 124.607797 104.389437 
L 124.609001 104.357333 
L 124.62706 106.675453 
L 124.840156 126.682795 
L 124.84136 126.538444 
L 124.899148 132.638159 
L 124.900352 132.543493 
L 125.10863 153.209606 
L 125.253101 160.48427 
L 125.32895 156.666711 
L 125.592614 127.57227 
L 126.688193 55.471424 
L 126.689397 55.583819 
L 127.205881 31.56444 
L 127.314236 32.276857 
L 127.23357 31.211918 
L 127.32146 32.016738 
L 127.331091 31.627723 
L 127.363597 43.421066 
L 127.594753 105.518738 
L 127.85842 132.314755 
L 127.859624 132.256016 
L 128.105636 153.515199 
L 128.10684 153.240184 
L 128.185098 158.721887 
L 128.192322 158.63112 
L 128.242891 160.787029 
L 128.297071 158.02713 
L 128.299479 158.194687 
L 128.375331 150.513523 
L 128.527038 133.781657 
L 128.528243 133.800834 
L 128.541487 132.380038 
L 128.729311 112.725617 
L 128.75339 111.351117 
L 128.954457 98.836308 
L 128.955662 98.874468 
L 128.990577 96.507058 
L 128.991781 96.706956 
L 129.157931 86.517332 
L 129.161543 86.528953 
L 129.275923 79.150895 
L 129.74669 51.235526 
L 129.974247 39.211555 
L 129.975451 39.244872 
L 130.121137 32.968387 
L 130.122341 32.988726 
L 130.145216 31.504011 
L 130.14642 31.597763 
L 130.248337 28.429012 
L 130.283255 28.89002 
L 130.30011 28.768957 
L 130.326596 35.253669 
L 130.527652 98.096565 
L 130.814192 129.627908 
L 130.815396 129.467726 
L 130.878001 135.633195 
L 130.879205 135.497267 
L 131.048961 150.672232 
L 131.050165 150.524578 
L 131.118792 155.187431 
L 131.122403 155.028551 
L 131.2139 159.642638 
L 131.256037 157.759341 
L 131.374024 145.868418 
L 131.546187 126.968495 
L 131.54739 127.07849 
L 131.601567 122.042466 
L 132.207147 80.840874 
L 132.208351 80.954155 
L 132.273363 76.99605 
L 132.274566 76.99605 
L 132.409405 69.121985 
L 132.410608 69.539544 
L 132.504514 64.006317 
L 132.505718 64.07649 
L 132.682695 52.388531 
L 132.734463 48.568067 
L 132.736872 48.632442 
L 132.915052 39.220563 
L 132.916257 39.565047 
L 133.008958 35.142603 
L 133.011366 35.207364 
L 133.126943 31.288309 
L 133.137778 31.338957 
L 133.214827 29.206703 
L 133.254556 29.845026 
L 133.933574 145.017949 
L 133.270207 29.638566 
L 133.934777 144.975831 
L 133.937185 141.975511 
L 134.04313 150.253315 
L 134.124995 155.973605 
L 134.188805 158.893627 
L 134.236962 156.515088 
L 134.878655 99.407651 
L 134.879859 99.464778 
L 134.929218 96.544897 
L 134.930422 96.584269 
L 134.965335 94.230453 
L 134.966539 94.29395 
L 135.115827 84.506005 
L 135.591384 56.181088 
L 135.592588 56.19093 
L 135.664824 52.156094 
L 136.069342 31.183087 
L 136.072954 31.510605 
L 136.160841 28.996601 
L 136.174085 28.601532 
L 136.25595 31.552099 
L 136.552113 110.059844 
L 136.748354 131.014239 
L 136.749557 131.004401 
L 137.098697 158.11598 
L 137.705471 110.78095 
L 137.157689 160.877919 
L 137.709083 110.96625 
L 137.858372 101.082719 
L 138.011271 91.026023 
L 138.012475 91.13755 
L 138.036553 89.532832 
L 138.038961 89.581373 
L 138.231588 77.543 
L 139.168248 29.491024 
L 138.233995 77.659151 
L 139.210386 30.126671 
L 139.256138 49.055448 
L 139.428303 98.886657 
L 139.429507 98.871826 
L 139.435526 100.036215 
L 139.626951 123.131559 
L 139.628155 123.06915 
L 139.630563 123.010207 
L 139.77383 135.982882 
L 139.953216 150.764778 
L 139.956828 150.657743 
L 139.958032 150.139125 
L 140.051939 156.839769 
L 140.053143 156.390647 
L 140.125379 161.120197 
L 140.171127 158.350466 
L 140.172331 158.428193 
L 140.207244 153.508667 
L 140.208448 153.570233 
L 140.237343 149.364877 
L 140.269848 145.30728 
L 140.398668 130.624893 
L 140.401076 130.742638 
L 140.532307 118.808991 
L 140.534715 119.010427 
L 140.668351 109.326256 
L 140.711693 106.265645 
L 140.714101 106.424756 
L 140.906728 93.218997 
L 140.907932 93.438327 
L 140.987393 87.690736 
L 141.131867 76.268857 
L 141.13548 76.38718 
L 141.145111 75.486198 
L 141.147519 75.552189 
L 141.283564 66.299556 
L 141.284768 66.343616 
L 141.319682 63.97043 
L 141.324497 63.982358 
L 141.459341 56.208277 
L 141.462952 56.232904 
L 141.702542 41.242302 
L 141.706154 41.468559 
L 141.707358 41.637674 
L 141.780797 36.676206 
L 141.783205 37.129102 
L 141.904803 30.892639 
L 141.906007 30.956514 
L 141.907211 31.090228 
L 141.979446 27.536894 
L 141.985465 27.664451 
L 142.121512 24.173263 
L 142.126328 24.589991 
L 142.140776 24.240025 
L 142.19977 30.530553 
L 142.611513 118.844776 
L 142.612716 118.761854 
L 142.657261 123.175382 
L 143.079845 160.574847 
L 143.114759 156.753387 
L 143.982793 81.456225 
L 143.985201 81.627931 
L 144.05503 76.838259 
L 144.059846 76.956377 
L 144.173015 68.854575 
L 144.322304 59.635539 
L 144.323508 59.643412 
L 144.325915 59.855068 
L 144.381298 56.877511 
L 144.382502 56.968549 
L 144.517345 49.711631 
L 144.518549 49.759647 
L 144.520956 49.891211 
L 144.581153 46.598095 
L 144.787027 35.309579 
L 144.788231 35.519887 
L 144.873709 31.331949 
L 144.876117 31.558776 
L 145.007347 26.971728 
L 145.012162 27.032612 
L 145.013366 27.163217 
L 145.051892 25.975496 
L 145.119315 26.801945 
L 145.139783 26.622558 
L 145.168679 33.574286 
L 145.372145 95.680045 
L 146.058396 159.062979 
L 146.099331 156.818058 
L 146.100535 156.903394 
L 146.14508 152.54186 
L 146.334099 131.451538 
L 147.740297 39.037201 
L 147.742705 39.501537 
L 148.026832 28.899819 
L 148.037668 29.399623 
L 148.115922 30.351496 
L 148.041279 29.170906 
L 148.117126 30.350153 
L 148.172506 56.360299 
L 148.369948 101.88026 
L 148.548126 122.476149 
L 148.861148 150.812138 
L 148.86476 150.433489 
L 148.953852 156.193865 
L 149.023678 158.955115 
L 148.956259 156.000806 
L 149.067017 156.872786 
L 149.364378 123.196258 
L 149.365582 123.478603 
L 149.394477 120.850214 
L 149.395681 120.948221 
L 149.558209 108.954991 
L 149.399292 120.973297 
L 149.559412 109.020648 
L 149.560616 109.121526 
L 149.622015 105.113191 
L 149.624422 105.278003 
L 149.797789 92.945574 
L 149.798992 93.032097 
L 150.056631 76.206658 
L 150.057836 76.412244 
L 150.137299 71.26113 
L 150.139706 71.4514 
L 150.267323 64.076177 
L 150.272139 64.168443 
L 151.022193 28.66232 
L 151.048678 28.990223 
L 151.066737 28.936817 
L 151.114894 46.013973 
L 151.293076 96.836378 
L 151.984132 165.037597 
L 152.055162 160.558404 
L 152.269465 136.0655 
L 152.504231 117.078309 
L 152.871431 91.532372 
L 152.872635 91.971326 
L 152.964131 85.695676 
L 152.966539 85.789915 
L 153.131477 76.024001 
L 153.13268 76.039453 
L 153.842991 36.697466 
L 153.84901 36.905592 
L 153.850214 36.958435 
L 153.912817 35.14577 
L 153.916429 35.21025 
L 153.986257 33.205674 
L 153.922448 35.234859 
L 154.034413 33.781026 
L 154.625543 141.745384 
L 154.789276 153.068717 
L 154.946991 162.752602 
L 154.97107 161.891078 
L 155.948646 83.943649 
L 155.949849 84.144495 
L 156.029308 79.645734 
L 156.031716 79.656015 
L 156.178594 70.340567 
L 156.179797 70.562544 
L 156.442252 54.306963 
L 156.443456 54.378545 
L 156.44466 54.486487 
L 156.508468 50.581699 
L 156.652938 43.356573 
L 156.654142 43.598157 
L 156.740825 39.088166 
L 156.742029 39.224284 
L 156.88891 32.145746 
L 156.892522 32.147842 
L 156.893726 32.15793 
L 156.909377 31.504943 
L 156.973185 23.544208 
L 157.034587 29.3479 
L 157.405394 116.88764 
L 157.836396 153.797233 
L 157.8376 153.723982 
L 157.838804 153.713709 
L 157.849638 154.525358 
L 157.930299 158.245324 
L 157.971233 155.633733 
L 157.972436 155.654462 
L 157.985678 154.003107 
L 159.135423 63.416089 
L 159.136627 63.523339 
L 159.137831 63.575444 
L 159.181171 60.899314 
L 159.184784 60.961306 
L 159.31962 53.37903 
L 159.320824 53.534962 
L 159.322028 53.542949 
L 159.326843 52.864837 
L 159.330455 52.962199 
L 159.56281 39.818484 
L 159.56883 39.424471 
L 159.565218 39.867356 
L 159.571238 39.483422 
L 159.767481 29.89324 
L 159.768684 29.928419 
L 159.769888 30.021028 
L 159.845736 27.680911 
L 159.849347 27.79919 
L 159.917972 27.053571 
L 159.96011 27.665888 
L 159.969743 27.523838 
L 160.019105 44.81971 
L 160.21896 100.706972 
L 160.220164 100.686245 
L 160.389919 120.298654 
L 160.393531 120.295421 
L 160.820925 154.904768 
L 160.823333 154.830263 
L 160.824536 154.805365 
L 160.848615 156.60337 
L 160.889549 158.131296 
L 160.943726 154.543037 
L 161.367502 112.101039 
L 161.36991 112.230223 
L 161.428901 107.749886 
L 161.430104 107.780091 
L 161.458999 105.721537 
L 161.460202 105.764091 
L 161.663664 92.069085 
L 162.526877 38.128936 
L 161.666071 92.157613 
L 162.530489 38.139764 
L 162.863974 26.377551 
L 162.888052 26.645034 
L 162.896479 26.579113 
L 162.987982 48.006993 
L 163.181812 99.625474 
L 163.64412 146.424592 
L 163.645324 146.305404 
L 163.646527 146.143134 
L 163.716353 151.577014 
L 163.851194 159.497714 
L 163.859622 159.340805 
L 164.56887 97.976024 
L 164.570074 98.069705 
L 164.601377 91.921107 
L 164.732611 83.561176 
L 164.952931 69.684293 
L 164.954135 69.692079 
L 164.955339 69.780003 
L 165.011924 66.13052 
L 165.014332 66.16869 
L 165.149175 57.610884 
L 165.155194 57.699568 
L 165.564049 34.163465 
L 165.565253 34.224993 
L 165.618225 31.414865 
L 165.619429 31.45987 
L 165.755474 25.827081 
L 165.756677 25.989635 
L 165.838547 24.576786 
L 165.85781 24.724526 
L 165.863829 24.540705 
L 165.930047 31.115964 
L 166.187692 103.659344 
L 166.193712 104.347538 
L 166.416441 126.609229 
L 166.417644 126.569159 
L 166.445334 129.254059 
L 166.446538 129.15589 
L 166.616289 143.185291 
L 166.617493 143.105599 
L 166.814938 155.280598 
L 166.877544 149.138355 
L 166.879952 149.184843 
L 166.944963 141.723493 
L 167.633618 83.457303 
L 166.947371 141.88269 
L 167.634822 83.467929 
L 167.636025 83.610237 
L 167.701036 78.325645 
L 167.703444 78.546128 
L 167.859954 68.825293 
L 167.862362 68.840093 
L 168.134447 52.840588 
L 168.33671 40.492543 
L 168.136854 52.94324 
L 168.339119 40.630106 
L 168.754482 21.246878 
L 168.786988 21.97455 
L 168.807455 21.672665 
L 168.938685 52.960317 
L 169.163818 101.939811 
L 169.171041 102.897076 
L 169.351633 122.014851 
L 169.352837 121.921117 
L 169.354041 121.907077 
L 169.362468 122.940892 
L 169.541854 140.919183 
L 169.777825 166.62 
L 169.544262 140.8989 
L 169.854877 157.123903 
L 170.029446 136.319749 
L 170.485735 99.560813 
L 170.486939 99.601074 
L 170.679567 85.665733 
L 170.680771 85.677452 
L 170.810794 77.90779 
L 170.811998 78.408113 
L 170.908311 72.499874 
L 171.033522 64.842674 
L 171.034726 64.995778 
L 171.109371 60.562992 
L 171.110575 60.840843 
L 171.276718 50.510403 
L 171.279126 50.641957 
L 171.281534 50.679761 
L 171.291165 49.705008 
L 171.536768 36.402112 
L 171.537972 36.418936 
L 171.562051 35.293539 
L 171.712544 29.969735 
L 171.713748 30.115466 
L 171.785982 28.176734 
L 171.814877 28.983831 
L 171.829324 28.777993 
L 171.86183 37.988518 
L 172.099003 105.365284 
L 172.100207 105.304987 
L 172.130305 109.357286 
L 172.727456 159.57659 
L 172.733476 159.439066 
L 172.750331 159.668398 
L 172.892397 145.848668 
L 173.82424 72.618535 
L 173.825443 72.620424 
L 173.826647 72.810913 
L 173.906108 68.069264 
L 173.908515 68.267683 
L 174.03372 60.704565 
L 174.036128 60.721558 
L 174.750049 25.681755 
L 174.790984 27.057846 
L 174.828306 38.472277 
L 175.020935 98.582259 
L 175.022138 98.451049 
L 175.191892 120.928009 
L 175.279778 128.394654 
L 175.627714 156.869187 
L 175.628917 156.59465 
L 175.715601 161.426182 
L 175.719213 161.25784 
L 175.875722 145.189821 
L 176.0226 128.370739 
L 176.549918 90.284975 
L 176.552326 90.287423 
L 176.643825 83.836665 
L 176.646233 83.875291 
L 176.801539 73.965976 
L 176.803946 74.070365 
L 176.82923 72.354558 
L 176.992964 61.201443 
L 176.994168 61.232157 
L 177.021858 59.18246 
L 177.171145 50.15347 
L 177.172349 50.22997 
L 177.41073 37.227455 
L 177.411934 37.275503 
L 177.697265 28.122907 
L 177.729771 28.718144 
L 178.319697 136.165728 
L 178.320901 136.013859 
L 178.322105 135.894208 
L 178.376281 141.518538 
L 178.377485 141.506668 
L 178.38832 142.377605 
L 178.573724 155.729462 
L 178.576132 155.582539 
L 178.611046 157.462582 
L 178.617066 157.454481 
L 178.677261 160.321728 
L 178.72903 157.554346 
L 178.730234 157.607419 
L 178.760334 154.08667 
L 178.761538 154.371613 
L 179.002326 127.380211 
L 179.00353 127.487112 
L 179.056502 122.415742 
L 179.05891 122.562542 
L 179.328593 100.688431 
L 179.331001 100.865907 
L 179.396013 95.872643 
L 179.397216 95.967499 
L 179.752376 73.170995 
L 179.75358 73.212401 
L 179.929355 61.922555 
L 179.932967 61.958125 
L 179.934171 62.176442 
L 180.016038 57.165113 
L 180.018446 57.310595 
L 180.16292 48.815027 
L 180.164124 48.833282 
L 180.668569 24.273487 
L 180.672181 24.39262 
L 180.68422 24.309058 
L 181.191079 126.119238 
L 181.278967 135.649346 
L 181.431866 147.626082 
L 181.43307 147.466627 
L 181.501694 152.534059 
L 181.502898 152.37103 
L 181.636533 160.362451 
L 181.653388 159.739083 
L 181.942332 127.692813 
L 182.704428 74.875818 
L 182.705632 74.982539 
L 182.769442 70.849551 
L 183.189615 45.993383 
L 183.334087 37.736804 
L 183.336496 37.874338 
L 183.489398 30.251883 
L 183.625441 27.382446 
L 183.49301 30.364051 
L 183.626645 27.590626 
L 183.635072 27.803693 
L 183.638684 27.529563 
L 183.6435 27.648309 
L 184.11183 126.098403 
L 184.113035 126.062142 
L 184.334556 143.277169 
L 184.336964 143.1994 
L 184.339371 143.810466 
L 184.340575 143.724098 
L 184.500699 153.898751 
L 184.598217 158.7189 
L 184.630721 156.178944 
L 184.843818 131.269248 
L 185.035242 112.099102 
L 185.036446 112.37201 
L 185.113497 105.764148 
L 185.117109 106.209104 
L 185.247133 96.856746 
L 185.248337 96.939013 
L 185.461434 83.189114 
L 185.462638 83.471414 
L 185.545708 77.204451 
L 185.546912 77.347012 
L 185.737132 64.36738 
L 185.738337 64.398936 
L 185.770843 62.483498 
L 185.773251 62.573467 
L 185.92254 53.990438 
L 185.923743 54.100316 
L 185.988758 50.122374 
L 186.165737 40.289183 
L 186.200652 38.301623 
L 186.352348 30.228727 
L 186.353552 30.307237 
L 186.354756 30.344051 
L 186.398097 28.362124 
L 186.402913 28.373018 
L 186.540163 23.76004 
L 187.15296 129.004269 
L 186.587114 23.123691 
L 187.155368 128.994877 
L 187.20473 133.827272 
L 187.207138 133.811082 
L 187.338366 144.549245 
L 187.366056 145.998885 
L 187.551464 160.80106 
L 187.591193 158.838619 
L 187.624903 155.780472 
L 187.705567 146.398042 
L 187.904215 123.700457 
L 188.119718 106.687583 
L 188.120922 106.749289 
L 188.166671 103.4597 
L 188.169079 103.638256 
L 188.325588 93.020379 
L 188.326793 93.12166 
L 188.3906 89.143543 
L 188.566371 78.220133 
L 188.594062 76.490093 
L 188.736129 67.725295 
L 188.885418 58.564934 
L 188.886622 58.663777 
L 188.948025 54.913546 
L 188.949229 54.935865 
L 189.108145 45.47391 
L 189.370598 30.920492 
L 189.371801 30.977697 
L 189.431997 28.701299 
L 189.433201 28.90255 
L 189.547575 25.423338 
L 189.560818 25.630404 
L 189.562022 25.536437 
L 189.624627 28.840281 
L 189.980989 117.74022 
L 190.267518 144.845316 
L 190.272335 144.763221 
L 190.514323 160.492648 
L 190.568499 158.10275 
L 190.656384 148.249429 
L 191.733894 65.369664 
L 191.735098 65.554876 
L 191.81215 60.35881 
L 192.095077 43.663077 
L 192.096281 43.746975 
L 192.154069 40.134859 
L 192.155273 40.168194 
L 192.463481 27.655946 
L 192.464685 27.741529 
L 192.508027 26.25271 
L 192.562202 27.016222 
L 192.567018 26.806664 
L 192.600729 36.753651 
L 192.800583 98.598014 
L 193.023308 125.616779 
L 193.024512 125.543742 
L 193.267704 148.37124 
L 193.280947 149.53367 
L 193.484413 160.742243 
L 193.486821 160.717345 
L 194.032211 108.513259 
L 194.033415 108.5428 
L 194.530633 76.558323 
L 194.533041 76.607123 
L 194.553507 75.226004 
L 194.555915 75.353889 
L 194.683528 67.103074 
L 194.684732 67.552541 
L 194.778636 61.71359 
L 194.77984 61.835306 
L 194.943574 51.534595 
L 194.944778 51.708288 
L 195.468483 27.028016 
L 195.48895 27.161323 
L 196.161943 143.513591 
L 196.164351 143.469504 
L 196.165555 143.325661 
L 196.232974 148.141642 
L 196.235382 147.950746 
L 196.397913 158.887991 
L 196.447273 161.426036 
L 196.497839 158.288207 
L 196.499043 158.310234 
L 196.796413 125.26922 
L 197.237052 93.274651 
L 197.238256 93.374516 
L 197.299657 89.391271 
L 197.302065 89.567111 
L 197.473025 77.983053 
L 197.474229 77.999105 
L 197.771597 59.086581 
L 197.772801 59.150793 
L 197.774005 59.164979 
L 197.782432 58.264507 
L 197.788452 58.271788 
L 197.937739 49.647118 
L 197.957003 48.636326 
L 198.10268 39.512887 
L 198.412092 26.862412 
L 198.105088 39.55302 
L 198.413296 26.912813 
L 198.442189 26.33023 
L 198.552953 55.292054 
L 198.737152 104.116527 
L 198.73956 104.092074 
L 198.947838 127.626986 
L 198.952654 128.24858 
L 199.348736 158.089066 
L 199.34994 157.791544 
L 199.395691 161.493128 
L 199.459498 157.932866 
L 199.460702 157.961944 
L 199.479964 155.791344 
L 199.5221 150.998877 
L 199.718338 127.104949 
L 200.390128 76.267357 
L 200.391332 76.316955 
L 200.392536 76.445058 
L 200.459956 72.056773 
L 200.46116 72.070573 
L 201.311121 25.731973 
L 201.312325 25.798913 
L 201.385763 23.886894 
L 201.38817 23.968567 
L 201.392986 23.836735 
L 201.466425 27.072848 
L 201.792685 114.172484 
L 202.032269 136.176931 
L 202.034676 136.343632 
L 202.037085 136.323121 
L 202.253791 151.885456 
L 202.254995 151.809222 
L 202.261015 151.532056 
L 202.304357 154.991132 
L 202.305561 154.893649 
L 202.365755 159.328678 
L 202.413913 154.496819 
L 202.415117 154.704833 
L 202.636638 127.621414 
L 202.637842 127.620854 
L 202.639045 127.769596 
L 202.693223 120.964398 
L 202.694427 121.043241 
L 202.931597 100.993538 
L 203.131446 88.516409 
L 203.13265 88.519205 
L 203.133854 88.719951 
L 203.210906 83.147555 
L 203.44206 68.609854 
L 203.448079 68.707339 
L 203.491421 65.804273 
L 203.987432 35.520862 
L 203.493829 65.941458 
L 203.988636 35.558512 
L 203.989839 35.593928 
L 204.02716 33.44016 
L 204.028364 33.538948 
L 204.207746 25.170848 
L 204.20895 25.204212 
L 204.210154 25.370847 
L 204.300447 22.629943 
L 204.360641 20.847656 
L 204.413615 21.931902 
L 204.667645 101.318978 
L 205.122724 146.770419 
L 205.126335 146.732058 
L 205.194959 150.991354 
L 205.315349 164.165711 
L 205.373136 160.977995 
L 205.83063 112.062116 
L 207.283772 25.950561 
L 207.316279 24.890712 
L 207.433058 55.038014 
L 207.64856 109.029883 
L 207.649764 108.929255 
L 207.691901 114.579304 
L 207.915829 136.837436 
L 207.926664 138.273289 
L 207.927867 138.152221 
L 208.087989 152.842552 
L 208.268576 162.347463 
L 208.354054 158.073233 
L 208.634564 123.376438 
L 208.638176 123.427511 
L 208.984904 95.2977 
L 208.986107 95.418048 
L 209.810808 44.507251 
L 209.813216 44.590827 
L 209.951668 35.944115 
L 209.952872 36.210813 
L 209.954076 36.248701 
L 209.990194 34.117527 
L 210.132258 27.788269 
L 210.134665 27.865716 
L 210.135869 27.960434 
L 210.214126 25.616794 
L 210.21533 25.770016 
L 210.281545 24.075664 
L 210.328499 24.855887 
L 210.362211 34.391469 
L 210.574104 103.645213 
L 210.907594 139.824241 
L 210.908798 139.469457 
L 210.996684 146.305232 
L 210.999091 146.283333 
L 211.001499 146.35367 
L 211.235062 161.742739 
L 211.242286 160.987209 
L 211.247102 161.222679 
L 211.735895 111.192946 
L 211.737099 111.341137 
L 211.806927 106.371431 
L 211.827394 104.870781 
L 211.829802 104.945527 
L 212.011599 92.414521 
L 212.012803 92.453841 
L 212.014007 92.482405 
L 212.035677 90.734708 
L 212.040493 90.738417 
L 212.174129 82.164815 
L 212.175333 82.340642 
L 212.246363 76.789668 
L 212.247567 76.834739 
L 212.393242 67.873317 
L 212.608742 55.213409 
L 212.661714 51.742869 
L 212.664122 51.827814 
L 212.813409 42.918695 
L 212.814613 42.924816 
L 212.824244 42.44667 
L 212.826652 42.518078 
L 212.980757 33.192017 
L 212.981961 33.252111 
L 213.031322 30.427753 
L 213.160143 25.793935 
L 213.16255 26.007042 
L 213.163754 26.055821 
L 213.232379 24.591523 
L 213.238398 25.005868 
L 213.239602 24.558511 
L 213.313042 38.146516 
L 213.588748 112.061508 
L 213.589952 111.927783 
L 213.591155 111.830596 
L 213.630885 117.392511 
L 213.778966 131.239251 
L 213.783781 131.002404 
L 214.083556 155.049424 
L 214.088371 154.893184 
L 214.175054 160.659982 
L 214.211171 161.930291 
L 214.270164 157.35016 
L 214.497705 128.934211 
L 215.188753 78.074191 
L 215.189956 78.523377 
L 215.283863 72.268095 
L 215.404254 64.690999 
L 215.406662 64.71656 
L 215.410273 64.86771 
L 215.576409 52.193586 
L 215.578817 52.530524 
L 215.660681 47.332731 
L 215.797928 39.948832 
L 215.80154 40.029223 
L 216.063989 26.33299 
L 216.065194 26.444499 
L 216.066398 26.649922 
L 216.150673 24.162812 
L 216.162712 24.293031 
L 216.163916 24.133361 
L 216.256617 25.812858 
L 216.476931 101.976516 
L 216.478135 101.67681 
L 216.546758 111.35703 
L 216.549166 111.176429 
L 216.691229 126.550306 
L 216.692433 126.341921 
L 216.693637 126.332659 
L 216.696045 127.021167 
L 216.980166 151.257426 
L 216.98137 151.018041 
L 216.982574 150.776806 
L 217.063235 156.180252 
L 217.065643 155.90384 
L 217.157139 161.588512 
L 217.069255 155.874589 
L 217.184829 159.033603 
L 217.2679 149.761138 
L 217.778363 99.075091 
L 217.784382 99.200429 
L 217.789198 98.79479 
L 217.919222 89.569164 
L 217.920426 90.021828 
L 217.92163 90.021272 
L 218.058879 80.550153 
L 218.060083 80.650129 
L 218.119077 76.531357 
L 218.120281 76.691686 
L 218.308094 61.540154 
L 218.309298 61.760099 
L 218.393573 57.108684 
L 218.394776 57.137567 
L 218.545268 48.207977 
L 218.546471 48.240931 
L 218.581385 46.183489 
L 218.583793 46.235514 
L 218.97988 25.265455 
L 218.981084 25.313406 
L 218.982288 25.335437 
L 219.018405 24.019475 
L 219.112312 21.391253 
L 219.168896 22.160687 
L 219.17612 21.987028 
L 219.255577 39.727348 
L 219.502382 107.14786 
L 219.549335 113.673799 
L 219.784096 136.719553 
L 219.7853 136.193909 
L 219.875595 144.903407 
L 219.876799 144.776848 
L 219.943015 149.047015 
L 219.945423 149.004467 
L 220.086284 158.113557 
L 220.089896 157.84532 
L 220.11879 163.98643 
L 220.203066 156.907967 
L 220.419774 130.458284 
L 221.065081 83.103108 
L 221.066285 83.755452 
L 221.163803 77.065784 
L 221.165007 77.297575 
L 221.426258 60.886646 
L 221.428666 61.183267 
L 221.51053 55.732533 
L 221.815119 37.967233 
L 222.016174 28.759056 
L 222.017378 28.948738 
L 222.099244 26.370943 
L 222.111284 26.449438 
L 222.13777 25.687755 
L 222.201577 32.683095 
L 222.441156 107.546812 
L 222.781869 142.573461 
L 222.783073 142.389997 
L 222.8517 148.501555 
L 222.999784 157.812795 
L 223.002191 157.802829 
L 223.079241 161.007984 
L 223.128604 159.024222 
L 223.321235 136.027153 
L 223.61138 110.130256 
L 223.612584 110.130625 
L 223.906344 90.134763 
L 223.907547 90.193788 
L 223.949685 87.114892 
L 223.952093 87.145141 
L 224.136295 74.950185 
L 224.218162 69.91811 
L 224.221774 69.924381 
L 224.363838 60.734357 
L 225.015157 25.532704 
L 225.016361 25.688937 
L 225.038031 25.179476 
L 225.060904 24.912204 
L 225.141568 26.254471 
L 225.178889 42.991225 
L 225.358272 99.128161 
L 225.672494 135.252555 
L 225.772421 145.269759 
L 225.93736 156.541773 
L 225.938564 156.346869 
L 226.05414 162.714908 
L 226.09026 160.989757 
L 226.370776 129.178599 
L 226.408096 125.349196 
L 226.622395 106.378952 
L 226.874015 90.018176 
L 226.875219 90.27045 
L 227.071458 77.735395 
L 227.218336 68.294467 
L 227.235191 67.006029 
L 227.238803 67.15058 
L 227.377258 57.74464 
L 227.547013 47.866745 
L 227.382074 57.783125 
L 227.549421 47.967285 
L 227.689078 39.709097 
L 227.690282 39.861935 
L 227.906986 28.68032 
L 227.90819 28.698733 
L 227.909394 28.739061 
L 227.970794 27.177542 
L 227.973202 27.186749 
L 228.043028 26.207485 
L 228.089981 26.810548 
L 228.097204 26.67815 
L 228.12369 33.552885 
L 228.370492 108.458276 
L 228.371696 108.27653 
L 228.684716 139.94435 
L 228.68592 139.835934 
L 228.738893 144.867901 
L 228.903834 156.810738 
L 228.907446 156.566331 
L 228.98811 160.51109 
L 228.991721 160.483483 
L 229.002556 163.018296 
L 229.075996 157.973513 
L 229.360123 124.103862 
L 229.361327 124.117467 
L 229.362531 124.146519 
L 229.382998 121.964186 
L 229.432359 117.806738 
L 229.610542 102.985296 
L 229.727322 95.587721 
L 229.866981 85.45437 
L 229.959685 80.175325 
L 229.869389 85.508794 
L 229.960888 80.196654 
L 230.15352 68.09775 
L 230.155928 68.34965 
L 230.229369 63.481734 
L 230.231777 63.508212 
L 230.5135 46.796235 
L 230.514704 47.048686 
L 230.597778 42.148226 
L 230.602594 42.212765 
L 230.73864 34.554097 
L 230.739844 34.583516 
L 230.769942 32.800913 
L 230.773554 32.862325 
L 230.915616 26.420864 
L 230.919228 26.569983 
L 231.009523 23.10958 
L 231.066106 24.690479 
L 231.125098 56.743695 
L 231.294852 103.016001 
L 231.296056 102.878836 
L 231.34301 109.944895 
L 231.344214 109.848733 
L 231.623525 138.161387 
L 231.624729 138.022981 
L 231.688538 143.288437 
L 231.69215 143.232835 
L 231.853476 155.648903 
L 231.855884 155.49491 
L 231.879962 157.008191 
L 231.965442 161.813389 
L 231.882371 156.898118 
L 232.003969 158.701144 
L 232.250773 129.270986 
L 232.251977 129.301301 
L 232.253181 129.33529 
L 232.276055 126.885641 
L 233.919424 23.583642 
L 233.972394 22.220377 
L 234.723649 150.121183 
L 234.882566 158.105484 
L 234.88377 157.791716 
L 234.922296 163.322967 
L 234.995737 158.023696 
L 235.194389 134.574342 
L 235.195593 134.79977 
L 235.261809 126.452121 
L 235.279868 124.97427 
L 235.427951 112.481228 
L 235.429155 112.787729 
L 235.508613 105.638576 
L 235.512225 105.73414 
L 235.649467 96.086563 
L 235.654282 96.209457 
L 235.858951 82.862391 
L 235.860155 83.081399 
L 235.943224 78.213312 
L 236.17558 61.053767 
L 236.176785 61.216464 
L 236.177988 61.365039 
L 236.251429 56.998803 
L 236.442858 45.61181 
L 236.619836 35.638468 
L 236.757083 29.094983 
L 236.758287 29.173673 
L 236.887108 25.05139 
L 236.888312 25.502615 
L 236.924429 23.828683 
L 236.98583 26.476782 
L 237.562507 141.363925 
L 236.989441 26.377549 
L 237.564915 141.187261 
L 237.566119 140.797412 
L 237.650396 148.557195 
L 237.652803 148.468111 
L 237.654007 148.334853 
L 237.725039 152.754306 
L 237.899609 162.584477 
L 237.728651 152.728827 
L 237.96101 158.316756 
L 238.231887 127.00946 
L 238.233091 127.227759 
L 238.306527 120.553325 
L 238.499157 104.798769 
L 238.500361 104.859022 
L 238.501565 105.0656 
L 238.576208 98.980502 
L 238.720678 89.726031 
L 239.103522 64.661881 
L 239.105931 64.805827 
L 239.151678 61.681872 
L 239.656121 31.590791 
L 239.657324 32.047901 
L 239.750026 26.902112 
L 239.754841 27.15887 
L 239.877642 24.529388 
L 239.881254 24.640551 
L 239.892088 24.377018 
L 240.047395 74.624542 
L 240.276142 116.077087 
L 240.746867 156.890793 
L 240.748071 156.697771 
L 240.823918 161.669333 
L 240.82753 161.57529 
L 240.857627 162.872474 
L 240.923841 157.793115 
L 241.84965 79.073089 
L 241.852057 79.106917 
L 241.853261 79.267459 
L 241.924291 74.330144 
L 241.926699 74.500561 
L 242.078392 64.314353 
L 242.079596 64.658111 
L 242.160259 57.751685 
L 242.166278 57.774358 
L 242.178318 57.016262 
L 242.385389 44.883252 
L 242.386593 45.050377 
L 242.462439 40.466694 
L 242.463643 40.533616 
L 242.641821 31.140063 
L 242.836855 24.94017 
L 242.839263 25.020989 
L 242.84769 24.770485 
L 242.921128 29.779844 
L 243.228124 116.339562 
L 243.678391 155.764214 
L 243.77952 162.484489 
L 243.803598 163.975043 
L 243.862589 159.802203 
L 243.863793 159.892406 
L 244.068459 133.167818 
L 244.069663 133.262585 
L 244.119023 128.512958 
L 244.38027 106.628382 
L 244.962961 66.984748 
L 244.964166 67.214999 
L 245.074929 59.844059 
L 245.391563 40.48822 
L 245.085765 59.949051 
L 245.393971 40.504289 
L 245.401194 40.754442 
L 245.43972 37.801904 
L 245.443332 37.801904 
L 245.616693 27.538133 
L 245.617897 27.755967 
L 245.709395 24.502878 
L 245.711803 24.736234 
L 245.80571 23.270554 
L 245.716618 24.755042 
L 245.829789 24.002024 
L 245.855071 23.900685 
L 245.883964 30.035648 
L 246.141601 111.120185 
L 246.764026 163.613941 
L 246.819408 160.841744 
L 247.091493 129.359694 
L 247.248003 114.383181 
L 247.468322 96.862287 
L 247.469526 96.892194 
L 247.489993 94.790751 
L 247.493604 94.942105 
L 247.754855 74.459061 
L 247.758467 74.87191 
L 247.824682 71.129649 
L 247.82709 71.241615 
L 248.666226 25.68204 
L 248.66743 25.747323 
L 248.722811 23.083685 
L 248.725219 23.159544 
L 248.779395 21.280026 
L 248.831164 23.567834 
L 248.832368 23.564916 
L 249.209197 123.150921 
L 249.2104 123.108251 
L 249.726882 161.919612 
L 249.808748 155.8028 
L 249.99536 132.10343 
L 249.998972 132.134763 
L 250.000176 132.153709 
L 250.011012 130.633354 
L 250.014624 130.740468 
L 250.18197 115.109937 
L 250.184378 115.115766 
L 250.851359 69.577848 
L 250.852563 69.664377 
L 250.853767 69.932707 
L 250.939247 64.366276 
L 250.977773 61.766227 
L 251.140305 51.717429 
L 251.142713 51.879557 
L 251.202909 47.688292 
L 251.206521 48.023478 
L 251.338953 39.946076 
L 251.34136 40.221876 
L 251.426838 35.0001 
L 251.428041 35.147838 
L 251.724204 22.693908 
L 251.784401 24.968063 
L 252.219019 128.08741 
L 252.221427 128.019826 
L 252.317738 137.362528 
L 252.473044 149.786467 
L 252.474248 149.553134 
L 252.548893 155.795083 
L 252.552505 155.77215 
L 252.682528 162.803285 
L 252.695771 162.535204 
L 253.418122 96.644726 
L 253.419326 96.716938 
L 253.472297 93.233454 
L 253.639643 81.682899 
L 253.642051 81.968838 
L 253.643255 82.117629 
L 253.710674 76.935969 
L 253.713082 77.116772 
L 253.785317 72.344922 
L 253.786521 72.388395 
L 253.92136 63.915514 
L 254.163351 48.949867 
L 254.306618 40.341838 
L 254.307821 40.389495 
L 254.345143 37.762376 
L 254.349959 37.792571 
L 254.488411 30.610421 
L 254.489615 30.954567 
L 254.585931 26.793703 
L 254.589543 26.689842 
L 254.593154 26.856822 
L 254.595562 26.698572 
L 254.596766 27.00543 
L 254.67502 24.276632 
L 254.697894 24.702631 
L 254.701506 24.43088 
L 254.758091 28.882957 
L 255.044625 113.1483 
L 255.045829 113.107555 
L 255.065092 116.057356 
L 255.547863 156.143501 
L 255.549067 156.024567 
L 255.553883 155.974376 
L 255.581574 157.597239 
L 255.65742 161.595834 
L 255.695947 158.560533 
L 256.140198 111.263826 
L 256.141402 111.442916 
L 256.217249 105.750075 
L 256.418305 91.198794 
L 256.421917 91.385156 
L 256.423121 91.40552 
L 256.439976 90.150262 
L 256.572408 81.139824 
L 256.667516 75.099351 
L 256.574815 81.202006 
L 256.66872 75.161895 
L 256.822821 64.450387 
L 256.824025 64.623659 
L 256.901074 59.829352 
L 256.923948 58.450097 
L 256.903482 59.918623 
L 256.925152 58.516641 
L 257.052767 50.241103 
L 257.05397 50.430191 
L 257.063602 49.952015 
L 257.311611 34.988013 
L 257.312815 35.06074 
L 257.465716 26.426479 
L 257.651122 20.438914 
L 257.468124 26.498842 
L 257.693259 21.27236 
L 258.103801 123.150594 
L 258.533602 156.008246 
L 258.53601 155.860539 
L 258.586574 159.511076 
L 258.615468 163.113284 
L 258.682887 157.264073 
L 258.685295 157.722176 
L 258.853844 135.643083 
L 258.855048 136.260607 
L 258.942932 126.276718 
L 258.945339 126.427966 
L 259.092218 112.915598 
L 259.093422 113.121318 
L 259.410052 90.636413 
L 259.41246 90.928197 
L 259.789284 65.596432 
L 259.790487 65.799067 
L 259.926533 56.576506 
L 259.927736 56.736288 
L 260.003584 52.056283 
L 260.007196 52.176119 
L 260.155279 43.423649 
L 260.157687 43.578348 
L 260.192601 41.038162 
L 260.435791 27.878768 
L 260.436995 28.090844 
L 260.4382 28.191434 
L 260.508026 25.288469 
L 260.514045 25.597866 
L 260.599524 23.170256 
L 260.627214 24.186693 
L 260.630826 24.067219 
L 260.681391 29.153762 
L 260.935417 109.603372 
L 260.936621 109.164512 
L 261.017284 119.888669 
L 261.018488 119.783176 
L 261.019692 119.54913 
L 261.090723 126.816166 
L 261.232786 140.255052 
L 261.23399 139.890222 
L 261.323078 146.421825 
L 261.324283 145.997038 
L 261.325486 145.908124 
L 261.382069 149.723066 
L 261.577103 163.182578 
L 261.605997 161.527049 
L 261.608405 161.678305 
L 261.663786 155.275828 
L 261.826312 135.00549 
L 261.827516 135.158147 
L 261.828719 135.435724 
L 261.900955 126.74999 
L 262.548663 78.678488 
L 262.549867 78.935034 
L 262.631734 73.538699 
L 262.634142 73.544319 
L 262.636549 73.636785 
L 262.821956 60.559504 
L 262.82316 60.705817 
L 262.889377 55.361517 
L 263.090432 42.116348 
L 263.091636 42.226763 
L 263.15665 38.188577 
L 263.445593 24.748145 
L 263.448001 24.92546 
L 263.449205 25.251807 
L 263.549132 23.274143 
L 263.552744 23.560966 
L 263.59488 23.402869 
L 263.630998 24.727476 
L 264.169151 137.716537 
L 264.171559 137.630095 
L 264.172763 137.511397 
L 264.225737 142.821478 
L 264.229349 142.511129 
L 264.3678 154.058461 
L 264.369004 153.939647 
L 264.370207 153.815035 
L 264.440034 158.00326 
L 264.530326 163.656385 
L 264.44485 157.868507 
L 264.579687 161.401344 
L 264.756661 139.300896 
L 265.027543 112.69667 
L 265.028746 112.864269 
L 265.099777 107.61933 
L 265.308055 91.431135 
L 265.316483 91.741897 
L 265.380291 86.695506 
L 265.381495 86.715957 
L 265.527171 77.71419 
L 265.530783 77.84378 
L 265.531987 77.859526 
L 265.546434 76.64924 
L 265.547638 76.799824 
L 265.678867 68.282387 
L 265.680071 68.670613 
L 265.769161 62.704608 
L 265.771568 63.18731 
L 265.897983 54.890323 
L 265.899187 55.33556 
L 265.984665 49.449552 
L 265.994297 49.767553 
L 265.995501 49.802122 
L 266.021987 47.393133 
L 266.024395 47.481638 
L 266.026803 47.655389 
L 266.159234 39.568349 
L 266.160438 39.888704 
L 266.250733 34.46911 
L 266.451787 25.435126 
L 266.452991 26.06787 
L 266.550507 24.602206 
L 266.562546 25.325445 
L 266.56375 24.987717 
L 266.621537 39.428987 
L 266.98994 125.582504 
L 266.992348 125.191564 
L 267.063378 132.100351 
L 267.092273 135.400541 
L 267.092273 135.400541 
" clip-path="url(#p6c6cc91ed6)" style="fill: none; stroke: #1f77b4; stroke-width: 1.5; stroke-linecap: square"/>
   </g>
   <g id="patch_3">
    <path d="M 54.83 174.04 
L 54.83 10.8 
" style="fill: none; stroke: #000000; stroke-width: 0.8; stroke-linejoin: miter; stroke-linecap: square"/>
   </g>
   <g id="patch_4">
    <path d="M 277.2 174.04 
L 277.2 10.8 
" style="fill: none; stroke: #000000; stroke-width: 0.8; stroke-linejoin: miter; stroke-linecap: square"/>
   </g>
   <g id="patch_5">
    <path d="M 54.83 174.04 
L 277.2 174.04 
" style="fill: none; stroke: #000000; stroke-width: 0.8; stroke-linejoin: miter; stroke-linecap: square"/>
   </g>
   <g id="patch_6">
    <path d="M 54.83 10.8 
L 277.2 10.8 
" style="fill: none; stroke: #000000; stroke-width: 0.8; stroke-linejoin: miter; stroke-linecap: square"/>
   </g>
  </g>
 </g>
 <defs>
  <clipPath id="p6c6cc91ed6">
   <rect x="54.83" y="10.8" width="222.37" height="163.24"/>
  </clipPath>
 </defs>
</svg>
