<?xml version="1.0" encoding="utf-8" standalone="no"?>
<!DOCTYPE svg PUBLIC "-//W3C//DTD SVG 1.1//EN"
  "http://www.w3.org/Graphics/SVG/1.1/DTD/svg11.dtd">
<svg xmlns:xlink="http://www.w3.org/1999/xlink" width="288pt" height="216pt" viewBox="0 0 288 216" xmlns="http://www.w3.org/2000/svg" version="1.1">
 <metadata>
  <rdf:RDF xmlns:dc="http://purl.org/dc/elements/1.1/" xmlns:cc="http://creativecommons.org/ns#" xmlns:rdf="http://www.w3.org/1999/02/22-rdf-syntax-ns#">
   <cc:Work>
    <dc:type rdf:resource="http://purl.org/dc/dcmitype/StillImage"/>
    <dc:date>2026-04-25T17:56:48.110750</dc:date>
    <dc:format>image/svg+xml</dc:format>
    <dc:creator>
     <cc:Agent>
      <dc:title>Matplotlib v3.10.9, https://matplotlib.org/</dc:title>
     </cc:Agent>
    </dc:creator>
   </cc:Work>
  </rdf:RDF>
 </metadata>
 <defs>
  <style type="text/css">*{stroke-linejoin: round; stroke-linecap: butt}</style>
 </defs>
 <g id="figure_1">
  <g id="patch_1">
   <path d="M 0 216 
L 288 216 
L 288 0 
L 0 0 
z
" style="fill: #ffffff"/>
  </g>
  <g id="axes_1">
   <g id="patch_2">
    <path d="M 54.83 174.04 
L 277.2 174.04 
L 277.2 11.382048 
L 54.83 11.382048 
z
" style="fill: #ffffff"/>
   </g>
   <g id="matplotlib.axis_1">
    <g id="xtick_1">
     <g id="line2d_1">
      <defs>
       <path id="m9f11e61fbd" d="M 0 0 
L 0 3.5 
" style="stroke: #000000; stroke-width: 0.8"/>
      </defs>
      <g>
       <use xlink:href="#m9f11e61fbd" x="64.937727" y="174.04" style="stroke: #000000; stroke-width: 0.8"/>
      </g>
     </g>
     <g id="text_1">
      <!-- 0 -->
      <g transform="translate(61.756477 188.638438) scale(0.1 -0.1)">
       <defs>
        <path id="DejaVuSans-30" d="M 2034 4250 
Q 1547 4250 1301 3770 
Q 1056 3291 1056 2328 
Q 1056 1369 1301 889 
Q 1547 409 2034 409 
Q 2525 409 2770 889 
Q 3016 1369 3016 2328 
Q 3016 3291 2770 3770 
Q 2525 4250 2034 4250 
z
M 2034 4750 
Q 2819 4750 3233 4129 
Q 3647 3509 3647 2328 
Q 3647 1150 3233 529 
Q 2819 -91 2034 -91 
Q 1250 -91 836 529 
Q 422 1150 422 2328 
Q 422 3509 836 4129 
Q 1250 4750 2034 4750 
z
" transform="scale(0.015625)"/>
       </defs>
       <use xlink:href="#DejaVuSans-30"/>
      </g>
     </g>
    </g>
    <g id="xtick_2">
     <g id="line2d_2">
      <g>
       <use xlink:href="#m9f11e61fbd" x="121.239563" y="174.04" style="stroke: #000000; stroke-width: 0.8"/>
      </g>
     </g>
     <g id="text_2">
      <!-- 5000 -->
      <g transform="translate(108.514563 188.638438) scale(0.1 -0.1)">
       <defs>
        <path id="DejaVuSans-35" d="M 691 4666 
L 3169 4666 
L 3169 4134 
L 1269 4134 
L 1269 2991 
Q 1406 3038 1543 3061 
Q 1681 3084 1819 3084 
Q 2600 3084 3056 2656 
Q 3513 2228 3513 1497 
Q 3513 744 3044 326 
Q 2575 -91 1722 -91 
Q 1428 -91 1123 -41 
Q 819 9 494 109 
L 494 744 
Q 775 591 1075 516 
Q 1375 441 1709 441 
Q 2250 441 2565 725 
Q 2881 1009 2881 1497 
Q 2881 1984 2565 2268 
Q 2250 2553 1709 2553 
Q 1456 2553 1204 2497 
Q 953 2441 691 2322 
L 691 4666 
z
" transform="scale(0.015625)"/>
       </defs>
       <use xlink:href="#DejaVuSans-35"/>
       <use xlink:href="#DejaVuSans-30" transform="translate(63.623047 0)"/>
       <use xlink:href="#DejaVuSans-30" transform="translate(127.246094 0)"/>
       <use xlink:href="#DejaVuSans-30" transform="translate(190.869141 0)"/>
      </g>
     </g>
    </g>
    <g id="xtick_3">
     <g id="line2d_3">
      <g>
       <use xlink:href="#m9f11e61fbd" x="177.541399" y="174.04" style="stroke: #000000; stroke-width: 0.8"/>
      </g>
     </g>
     <g id="text_3">
      <!-- 10000 -->
      <g transform="translate(161.635149 188.638438) scale(0.1 -0.1)">
       <defs>
        <path id="DejaVuSans-31" d="M 794 531 
L 1825 531 
L 1825 4091 
L 703 3866 
L 703 4441 
L 1819 4666 
L 2450 4666 
L 2450 531 
L 3481 531 
L 3481 0 
L 794 0 
L 794 531 
z
" transform="scale(0.015625)"/>
       </defs>
       <use xlink:href="#DejaVuSans-31"/>
       <use xlink:href="#DejaVuSans-30" transform="translate(63.623047 0)"/>
       <use xlink:href="#DejaVuSans-30" transform="translate(127.246094 0)"/>
       <use xlink:href="#DejaVuSans-30" transform="translate(190.869141 0)"/>
       <use xlink:href="#DejaVuSans-30" transform="translate(254.492188 0)"/>
      </g>
     </g>
    </g>
    <g id="xtick_4">
     <g id="line2d_4">
      <g>
       <use xlink:href="#m9f11e61fbd" x="233.843236" y="174.04" style="stroke: #000000; stroke-width: 0.8"/>
      </g>
     </g>
     <g id="text_4">
      <!-- 15000 -->
      <g transform="translate(217.936986 188.638438) scale(0.1 -0.1)">
       <use xlink:href="#DejaVuSans-31"/>
       <use xlink:href="#DejaVuSans-35" transform="translate(63.623047 0)"/>
       <use xlink:href="#DejaVuSans-30" transform="translate(127.246094 0)"/>
       <use xlink:href="#DejaVuSans-30" transform="translate(190.869141 0)"/>
       <use xlink:href="#DejaVuSans-30" transform="translate(254.492188 0)"/>
      </g>
     </g>
    </g>
    <g id="text_5">
     <!-- Time (s) -->
     <g transform="translate(145.686094 202.316563) scale(0.1 -0.1)">
      <defs>
       <path id="DejaVuSans-54" d="M -19 4666 
L 3928 4666 
L 3928 4134 
L 2272 4134 
L 2272 0 
L 1638 0 
L 1638 4134 
L -19 4134 
L -19 4666 
z
" transform="scale(0.015625)"/>
       <path id="DejaVuSans-69" d="M 603 3500 
L 1178 3500 
L 1178 0 
L 603 0 
L 603 3500 
z
M 603 4863 
L 1178 4863 
L 1178 4134 
L 603 4134 
L 603 4863 
z
" transform="scale(0.015625)"/>
       <path id="DejaVuSans-6d" d="M 3328 2828 
Q 3544 3216 3844 3400 
Q 4144 3584 4550 3584 
Q 5097 3584 5394 3201 
Q 5691 2819 5691 2113 
L 5691 0 
L 5113 0 
L 5113 2094 
Q 5113 2597 4934 2840 
Q 4756 3084 4391 3084 
Q 3944 3084 3684 2787 
Q 3425 2491 3425 1978 
L 3425 0 
L 2847 0 
L 2847 2094 
Q 2847 2600 2669 2842 
Q 2491 3084 2119 3084 
Q 1678 3084 1418 2786 
Q 1159 2488 1159 1978 
L 1159 0 
L 581 0 
L 581 3500 
L 1159 3500 
L 1159 2956 
Q 1356 3278 1631 3431 
Q 1906 3584 2284 3584 
Q 2666 3584 2933 3390 
Q 3200 3197 3328 2828 
z
" transform="scale(0.015625)"/>
       <path id="DejaVuSans-65" d="M 3597 1894 
L 3597 1613 
L 953 1613 
Q 991 1019 1311 708 
Q 1631 397 2203 397 
Q 2534 397 2845 478 
Q 3156 559 3463 722 
L 3463 178 
Q 3153 47 2828 -22 
Q 2503 -91 2169 -91 
Q 1331 -91 842 396 
Q 353 884 353 1716 
Q 353 2575 817 3079 
Q 1281 3584 2069 3584 
Q 2775 3584 3186 3129 
Q 3597 2675 3597 1894 
z
M 3022 2063 
Q 3016 2534 2758 2815 
Q 2500 3097 2075 3097 
Q 1594 3097 1305 2825 
Q 1016 2553 972 2059 
L 3022 2063 
z
" transform="scale(0.015625)"/>
       <path id="DejaVuSans-20" transform="scale(0.015625)"/>
       <path id="DejaVuSans-28" d="M 1984 4856 
Q 1566 4138 1362 3434 
Q 1159 2731 1159 2009 
Q 1159 1288 1364 580 
Q 1569 -128 1984 -844 
L 1484 -844 
Q 1016 -109 783 600 
Q 550 1309 550 2009 
Q 550 2706 781 3412 
Q 1013 4119 1484 4856 
L 1984 4856 
z
" transform="scale(0.015625)"/>
       <path id="DejaVuSans-73" d="M 2834 3397 
L 2834 2853 
Q 2591 2978 2328 3040 
Q 2066 3103 1784 3103 
Q 1356 3103 1142 2972 
Q 928 2841 928 2578 
Q 928 2378 1081 2264 
Q 1234 2150 1697 2047 
L 1894 2003 
Q 2506 1872 2764 1633 
Q 3022 1394 3022 966 
Q 3022 478 2636 193 
Q 2250 -91 1575 -91 
Q 1294 -91 989 -36 
Q 684 19 347 128 
L 347 722 
Q 666 556 975 473 
Q 1284 391 1588 391 
Q 1994 391 2212 530 
Q 2431 669 2431 922 
Q 2431 1156 2273 1281 
Q 2116 1406 1581 1522 
L 1381 1569 
Q 847 1681 609 1914 
Q 372 2147 372 2553 
Q 372 3047 722 3315 
Q 1072 3584 1716 3584 
Q 2034 3584 2315 3537 
Q 2597 3491 2834 3397 
z
" transform="scale(0.015625)"/>
       <path id="DejaVuSans-29" d="M 513 4856 
L 1013 4856 
Q 1481 4119 1714 3412 
Q 1947 2706 1947 2009 
Q 1947 1309 1714 600 
Q 1481 -109 1013 -844 
L 513 -844 
Q 928 -128 1133 580 
Q 1338 1288 1338 2009 
Q 1338 2731 1133 3434 
Q 928 4138 513 4856 
z
" transform="scale(0.015625)"/>
      </defs>
      <use xlink:href="#DejaVuSans-54"/>
      <use xlink:href="#DejaVuSans-69" transform="translate(57.958984 0)"/>
      <use xlink:href="#DejaVuSans-6d" transform="translate(85.742188 0)"/>
      <use xlink:href="#DejaVuSans-65" transform="translate(183.154297 0)"/>
      <use xlink:href="#DejaVuSans-20" transform="translate(244.677734 0)"/>
      <use xlink:href="#DejaVuSans-28" transform="translate(276.464844 0)"/>
      <use xlink:href="#DejaVuSans-73" transform="translate(315.478516 0)"/>
      <use xlink:href="#DejaVuSans-29" transform="translate(367.578125 0)"/>
     </g>
    </g>
   </g>
   <g id="matplotlib.axis_2">
    <g id="ytick_1">
     <g id="line2d_5">
      <defs>
       <path id="m08b7e4e491" d="M 0 0 
L -3.5 0 
" style="stroke: #000000; stroke-width: 0.8"/>
      </defs>
      <g>
       <use xlink:href="#m08b7e4e491" x="54.83" y="164.510845" style="stroke: #000000; stroke-width: 0.8"/>
      </g>
     </g>
     <g id="text_6">
      <!-- 0.98 -->
      <g transform="translate(25.564375 168.310063) scale(0.1 -0.1)">
       <defs>
        <path id="DejaVuSans-2e" d="M 684 794 
L 1344 794 
L 1344 0 
L 684 0 
L 684 794 
z
" transform="scale(0.015625)"/>
        <path id="DejaVuSans-39" d="M 703 97 
L 703 672 
Q 941 559 1184 500 
Q 1428 441 1663 441 
Q 2288 441 2617 861 
Q 2947 1281 2994 2138 
Q 2813 1869 2534 1725 
Q 2256 1581 1919 1581 
Q 1219 1581 811 2004 
Q 403 2428 403 3163 
Q 403 3881 828 4315 
Q 1253 4750 1959 4750 
Q 2769 4750 3195 4129 
Q 3622 3509 3622 2328 
Q 3622 1225 3098 567 
Q 2575 -91 1691 -91 
Q 1453 -91 1209 -44 
Q 966 3 703 97 
z
M 1959 2075 
Q 2384 2075 2632 2365 
Q 2881 2656 2881 3163 
Q 2881 3666 2632 3958 
Q 2384 4250 1959 4250 
Q 1534 4250 1286 3958 
Q 1038 3666 1038 3163 
Q 1038 2656 1286 2365 
Q 1534 2075 1959 2075 
z
" transform="scale(0.015625)"/>
        <path id="DejaVuSans-38" d="M 2034 2216 
Q 1584 2216 1326 1975 
Q 1069 1734 1069 1313 
Q 1069 891 1326 650 
Q 1584 409 2034 409 
Q 2484 409 2743 651 
Q 3003 894 3003 1313 
Q 3003 1734 2745 1975 
Q 2488 2216 2034 2216 
z
M 1403 2484 
Q 997 2584 770 2862 
Q 544 3141 544 3541 
Q 544 4100 942 4425 
Q 1341 4750 2034 4750 
Q 2731 4750 3128 4425 
Q 3525 4100 3525 3541 
Q 3525 3141 3298 2862 
Q 3072 2584 2669 2484 
Q 3125 2378 3379 2068 
Q 3634 1759 3634 1313 
Q 3634 634 3220 271 
Q 2806 -91 2034 -91 
Q 1263 -91 848 271 
Q 434 634 434 1313 
Q 434 1759 690 2068 
Q 947 2378 1403 2484 
z
M 1172 3481 
Q 1172 3119 1398 2916 
Q 1625 2713 2034 2713 
Q 2441 2713 2670 2916 
Q 2900 3119 2900 3481 
Q 2900 3844 2670 4047 
Q 2441 4250 2034 4250 
Q 1625 4250 1398 4047 
Q 1172 3844 1172 3481 
z
" transform="scale(0.015625)"/>
       </defs>
       <use xlink:href="#DejaVuSans-30"/>
       <use xlink:href="#DejaVuSans-2e" transform="translate(63.623047 0)"/>
       <use xlink:href="#DejaVuSans-39" transform="translate(95.410156 0)"/>
       <use xlink:href="#DejaVuSans-38" transform="translate(159.033203 0)"/>
      </g>
     </g>
    </g>
    <g id="ytick_2">
     <g id="line2d_6">
      <g>
       <use xlink:href="#m08b7e4e491" x="54.83" y="127.05454" style="stroke: #000000; stroke-width: 0.8"/>
      </g>
     </g>
     <g id="text_7">
      <!-- 0.99 -->
      <g transform="translate(25.564375 130.853758) scale(0.1 -0.1)">
       <use xlink:href="#DejaVuSans-30"/>
       <use xlink:href="#DejaVuSans-2e" transform="translate(63.623047 0)"/>
       <use xlink:href="#DejaVuSans-39" transform="translate(95.410156 0)"/>
       <use xlink:href="#DejaVuSans-39" transform="translate(159.033203 0)"/>
      </g>
     </g>
    </g>
    <g id="ytick_3">
     <g id="line2d_7">
      <g>
       <use xlink:href="#m08b7e4e491" x="54.83" y="89.598234" style="stroke: #000000; stroke-width: 0.8"/>
      </g>
     </g>
     <g id="text_8">
      <!-- 1.00 -->
      <g transform="translate(25.564375 93.397453) scale(0.1 -0.1)">
       <use xlink:href="#DejaVuSans-31"/>
       <use xlink:href="#DejaVuSans-2e" transform="translate(63.623047 0)"/>
       <use xlink:href="#DejaVuSans-30" transform="translate(95.410156 0)"/>
       <use xlink:href="#DejaVuSans-30" transform="translate(159.033203 0)"/>
      </g>
     </g>
    </g>
    <g id="ytick_4">
     <g id="line2d_8">
      <g>
       <use xlink:href="#m08b7e4e491" x="54.83" y="52.141929" style="stroke: #000000; stroke-width: 0.8"/>
      </g>
     </g>
     <g id="text_9">
      <!-- 1.01 -->
      <g transform="translate(25.564375 55.941148) scale(0.1 -0.1)">
       <use xlink:href="#DejaVuSans-31"/>
       <use xlink:href="#DejaVuSans-2e" transform="translate(63.623047 0)"/>
       <use xlink:href="#DejaVuSans-30" transform="translate(95.410156 0)"/>
       <use xlink:href="#DejaVuSans-31" transform="translate(159.033203 0)"/>
      </g>
     </g>
    </g>
    <g id="ytick_5">
     <g id="line2d_9">
      <g>
       <use xlink:href="#m08b7e4e491" x="54.83" y="14.685624" style="stroke: #000000; stroke-width: 0.8"/>
      </g>
     </g>
     <g id="text_10">
      <!-- 1.02 -->
      <g transform="translate(25.564375 18.484843) scale(0.1 -0.1)">
       <defs>
        <path id="DejaVuSans-32" d="M 1228 531 
L 3431 531 
L 3431 0 
L 469 0 
L 469 531 
Q 828 903 1448 1529 
Q 2069 2156 2228 2338 
Q 2531 2678 2651 2914 
Q 2772 3150 2772 3378 
Q 2772 3750 2511 3984 
Q 2250 4219 1831 4219 
Q 1534 4219 1204 4116 
Q 875 4013 500 3803 
L 500 4441 
Q 881 4594 1212 4672 
Q 1544 4750 1819 4750 
Q 2544 4750 2975 4387 
Q 3406 4025 3406 3419 
Q 3406 3131 3298 2873 
Q 3191 2616 2906 2266 
Q 2828 2175 2409 1742 
Q 1991 1309 1228 531 
z
" transform="scale(0.015625)"/>
       </defs>
       <use xlink:href="#DejaVuSans-31"/>
       <use xlink:href="#DejaVuSans-2e" transform="translate(63.623047 0)"/>
       <use xlink:href="#DejaVuSans-30" transform="translate(95.410156 0)"/>
       <use xlink:href="#DejaVuSans-32" transform="translate(159.033203 0)"/>
      </g>
     </g>
    </g>
    <g id="text_11">
     <!-- $\Delta R/R$ -->
     <g transform="translate(19.484687 104.711024) rotate(-90) scale(0.1 -0.1)">
      <defs>
       <path id="DejaVuSans-394" d="M 2188 4044 
L 906 525 
L 3472 525 
L 2188 4044 
z
M 50 0 
L 1831 4666 
L 2547 4666 
L 4325 0 
L 50 0 
z
" transform="scale(0.015625)"/>
       <path id="DejaVuSans-Oblique-52" d="M 1613 4147 
L 1294 2491 
L 2106 2491 
Q 2584 2491 2879 2755 
Q 3175 3019 3175 3444 
Q 3175 3784 2976 3965 
Q 2778 4147 2406 4147 
L 1613 4147 
z
M 2772 2241 
Q 2972 2194 3105 2009 
Q 3238 1825 3413 1275 
L 3809 0 
L 3144 0 
L 2778 1197 
Q 2638 1659 2453 1815 
Q 2269 1972 1888 1972 
L 1191 1972 
L 806 0 
L 172 0 
L 1081 4666 
L 2503 4666 
Q 3150 4666 3495 4373 
Q 3841 4081 3841 3531 
Q 3841 3044 3547 2687 
Q 3253 2331 2772 2241 
z
" transform="scale(0.015625)"/>
       <path id="DejaVuSans-2f" d="M 1625 4666 
L 2156 4666 
L 531 -594 
L 0 -594 
L 1625 4666 
z
" transform="scale(0.015625)"/>
      </defs>
      <use xlink:href="#DejaVuSans-394" transform="translate(0 0.09375)"/>
      <use xlink:href="#DejaVuSans-Oblique-52" transform="translate(68.408203 0.09375)"/>
      <use xlink:href="#DejaVuSans-2f" transform="translate(137.890625 0.09375)"/>
      <use xlink:href="#DejaVuSans-Oblique-52" transform="translate(169.832031 0.09375)"/>
     </g>
    </g>
   </g>
   <g id="line2d_10">
    <path d="M 64.937727 20.240541 
L 64.946105 20.070633 
L 64.982404 22.681458 
L 65.74555 165.362625 
L 65.81628 164.355672 
L 65.938196 160.097322 
L 66.010787 154.189571 
L 67.095925 61.096034 
L 67.789251 19.207212 
L 67.81717 21.558628 
L 67.971658 63.968596 
L 68.364399 143.072967 
L 68.581277 166.646457 
L 68.658531 165.562662 
L 68.826074 158.868063 
L 69.174215 127.529345 
L 69.393896 108.17078 
L 70.624503 18.775591 
L 70.658014 19.779957 
L 70.699902 28.505034 
L 71.151371 130.459617 
L 71.431557 161.999092 
L 71.459483 161.765129 
L 71.520918 160.376755 
L 71.665203 152.265277 
L 72.633281 68.637089 
L 73.36027 21.554075 
L 73.387264 23.82143 
L 73.537127 59.444295 
L 73.845234 123.217081 
L 74.165442 158.347121 
L 74.192436 158.080586 
L 74.250147 156.730159 
L 74.374879 147.57366 
L 74.975262 93.906973 
L 75.218208 73.184966 
L 75.533757 48.846317 
L 75.801832 30.846092 
L 75.942384 24.897495 
L 75.981478 28.11809 
L 76.173227 75.006076 
L 76.49994 133.862516 
L 76.730779 158.86819 
L 76.779181 158.354369 
L 76.88157 154.252206 
L 76.930902 150.365554 
L 78.116734 47.107571 
L 78.48533 26.116421 
L 78.512323 27.025825 
L 78.740369 79.169805 
L 79.153641 148.697016 
L 79.28116 159.494793 
L 79.330491 159.025122 
L 79.891761 114.323338 
L 81.063653 23.257789 
L 81.103675 25.065615 
L 81.191166 41.973714 
L 81.839904 150.140068 
L 81.913435 147.457664 
L 82.271792 116.80757 
L 82.572442 89.192527 
L 82.639456 83.348544 
L 83.365495 29.12343 
L 83.40552 32.222003 
L 83.52653 59.428565 
L 84.003139 141.10864 
L 84.134402 152.409413 
L 84.237734 149.696655 
L 85.500088 44.755198 
L 85.667658 39.543588 
L 85.703965 41.923377 
L 85.98418 102.770638 
L 86.311878 149.937778 
L 86.450592 161.301144 
L 86.524138 160.233206 
L 86.59489 157.780144 
L 86.78387 143.409397 
L 88.196046 24.678938 
L 88.247243 27.81538 
L 88.800145 136.27665 
L 88.970483 151.985543 
L 89.076586 147.633691 
L 89.460973 113.072201 
L 89.956112 68.283853 
L 90.049183 60.443222 
L 90.499648 33.393992 
L 90.506163 33.532288 
L 90.549907 39.04384 
L 91.267482 156.993887 
L 91.299125 156.712546 
L 91.355898 155.23696 
L 91.584852 137.177554 
L 92.78266 33.558935 
L 92.889689 27.045013 
L 92.935292 31.72773 
L 93.656579 154.093238 
L 93.671471 154.028759 
L 93.706837 153.415177 
L 93.892976 142.574987 
L 94.233612 110.170634 
L 94.381594 96.318948 
L 95.195026 35.225523 
L 95.225739 37.939381 
L 95.332768 61.641006 
L 95.778573 142.59099 
L 95.907938 155.560391 
L 95.973085 154.379101 
L 96.0615 152.1138 
L 97.094567 56.534094 
L 97.497558 28.472072 
L 97.534786 31.730784 
L 97.630652 53.442753 
L 97.991757 123.432635 
L 98.261656 153.589335 
L 98.337973 152.205528 
L 98.481298 141.27496 
L 99.221194 70.894393 
L 99.227709 70.374669 
L 99.502259 49.727153 
L 99.795425 31.525204 
L 99.837305 35.248552 
L 100.567892 154.564071 
L 100.651654 152.766648 
L 100.72797 147.565762 
L 101.157949 105.932351 
L 101.663308 59.875121 
L 101.933205 40.600834 
L 102.099796 29.692631 
L 102.126786 31.361749 
L 102.267319 62.831601 
L 102.687986 136.607095 
L 102.863881 153.919819 
L 102.935543 152.693425 
L 102.980215 150.401262 
L 104.366926 31.331498 
L 104.397639 29.436351 
L 104.440451 33.091622 
L 105.164518 154.063178 
L 105.165449 154.050319 
L 105.170102 154.090505 
L 105.226873 153.255154 
L 105.380433 142.59132 
L 105.762011 105.185074 
L 106.370674 51.236209 
L 106.487937 44.449765 
L 106.703854 30.872382 
L 106.740151 33.844817 
L 107.043551 100.291256 
L 107.339505 143.599408 
L 107.466076 154.597979 
L 107.563795 152.526013 
L 107.629873 147.441645 
L 108.192925 92.84348 
L 108.7718 45.872893 
L 109.000744 37.393619 
L 109.03797 39.659699 
L 109.159889 67.601351 
L 109.583344 143.449433 
L 109.793673 162.586894 
L 109.901632 160.090212 
L 110.004005 154.720878 
L 110.428389 113.841926 
L 110.517734 105.343928 
L 111.387904 33.349699 
L 111.579619 22.304776 
L 111.645696 27.276594 
L 112.093344 123.261417 
L 112.352069 152.076956 
L 112.385573 151.500459 
L 112.494461 144.731621 
L 112.965377 100.264222 
L 113.390686 62.025544 
L 113.88766 28.402067 
L 113.899758 28.817607 
L 113.9435 35.326392 
L 114.583792 151.927945 
L 114.65173 155.151172 
L 114.718738 153.960556 
L 114.824831 147.269138 
L 116.025378 40.221969 
L 116.19662 29.311976 
L 116.2385 34.082479 
L 116.956965 155.005721 
L 116.963479 154.99014 
L 116.96441 154.992932 
L 116.983954 154.713849 
L 117.082604 150.320393 
L 118.442279 30.997982 
L 118.50184 27.885572 
L 118.539066 31.592322 
L 119.269628 154.711907 
L 119.370138 152.246556 
L 119.490192 142.303644 
L 120.804276 30.676121 
L 120.828473 31.861675 
L 120.946665 57.812135 
L 121.365455 134.67018 
L 121.552519 154.741422 
L 121.640931 153.496988 
L 121.74051 147.130561 
L 123.114158 30.115517 
L 123.143939 32.658745 
L 123.351475 80.803634 
L 123.753517 144.608844 
L 123.870778 155.309077 
L 123.94616 153.687109 
L 124.109952 141.994689 
L 125.298389 41.688088 
L 125.299319 41.706754 
L 125.35888 38.398471 
L 125.416579 35.270136 
L 125.456597 39.371521 
L 126.18622 159.729264 
L 126.224376 159.312985 
L 126.354665 153.958613 
L 126.824637 108.465966 
L 127.018211 90.075365 
L 127.879055 23.791829 
L 127.906044 25.62887 
L 128.654278 156.374212 
L 128.696156 155.886284 
L 128.767815 152.890371 
L 129.843619 53.236276 
L 129.99438 41.58173 
L 130.217732 26.012369 
L 130.33034 71.902345 
L 130.722137 139.174244 
L 130.878484 154.384967 
L 130.920363 153.967073 
L 131.035761 147.357453 
L 132.374014 32.722454 
L 132.415892 29.952774 
L 132.4587 34.103739 
L 133.014287 140.508581 
L 133.177147 155.145555 
L 133.209719 154.882803 
L 133.378162 144.630656 
L 133.970973 86.374451 
L 134.101262 74.439861 
L 134.617763 34.862465 
L 134.716411 28.950051 
L 134.758289 33.226613 
L 135.480462 155.277411 
L 135.547467 154.076138 
L 135.664727 146.188853 
L 136.173889 95.261198 
L 136.668982 51.456437 
L 136.875584 38.567981 
L 137.019833 30.476415 
L 137.050544 33.206674 
L 137.259546 83.396196 
L 137.627162 144.235894 
L 137.779792 156.126595 
L 137.897058 153.249044 
L 138.018977 142.68504 
L 138.235825 120.959745 
L 138.610887 84.024424 
L 139.110657 44.750453 
L 139.319127 29.994537 
L 139.354492 33.13207 
L 139.683018 106.067532 
L 140.033886 154.592012 
L 140.084142 156.08572 
L 140.149288 154.781319 
L 140.281441 146.442292 
L 141.298666 51.613776 
L 141.620673 30.017005 
L 141.671859 36.450554 
L 142.367997 155.190542 
L 142.38568 155.338819 
L 142.44245 154.362747 
L 142.579258 144.74359 
L 143.412207 63.529652 
L 143.497828 56.081598 
L 143.805878 33.894437 
L 143.892431 29.335017 
L 143.921281 28.018835 
L 143.978053 35.952366 
L 144.692808 154.73395 
L 144.72259 154.416849 
L 144.770054 153.217087 
L 144.886387 144.122733 
L 145.471781 86.223913 
L 146.168853 34.162129 
L 146.223765 31.699023 
L 146.255407 34.592722 
L 146.983192 157.845383 
L 147.025072 155.356346 
L 147.100455 152.390856 
L 148.524391 27.865755 
L 148.569994 33.229027 
L 149.292209 155.632418 
L 149.305238 155.55117 
L 149.571413 136.992972 
L 150.826009 29.371782 
L 150.857655 32.030815 
L 151.10895 90.628945 
L 151.543592 154.649228 
L 151.571513 155.946194 
L 151.654344 154.705608 
L 151.752068 148.531167 
L 153.052308 33.026862 
L 153.124908 28.380888 
L 153.168655 32.552298 
L 153.831324 153.497897 
L 153.887165 156.040452 
L 153.956969 154.859118 
L 154.070514 146.951621 
L 154.31902 122.023096 
L 155.137121 47.527568 
L 155.426578 29.354554 
L 155.159457 47.563202 
L 155.478699 35.357214 
L 156.059469 146.44064 
L 156.18977 157.034691 
L 156.259575 155.877509 
L 156.403837 146.035944 
L 157.421109 49.236433 
L 157.726379 26.087135 
L 157.784084 33.437134 
L 158.265266 131.350152 
L 158.493298 154.135538 
L 158.531459 153.685137 
L 158.606853 149.853696 
L 159.487331 64.5155 
L 159.948054 32.871413 
L 160.026235 30.308078 
L 160.058811 32.832251 
L 160.734554 154.221725 
L 160.795986 156.291857 
L 160.860209 155.059986 
L 160.943051 150.428958 
L 161.517361 92.7648 
L 162.330904 29.400968 
L 162.355107 30.879216 
L 163.095132 156.398262 
L 163.170531 155.066483 
L 163.579173 117.341168 
L 164.37411 45.992788 
L 164.630084 28.880801 
L 164.685936 35.345497 
L 165.362645 155.258485 
L 165.402673 156.255164 
L 165.469693 155.131142 
L 165.668885 138.438573 
L 166.898519 29.358218 
L 166.963676 26.322181 
L 167.000909 29.724643 
L 167.297826 98.948826 
L 167.697137 155.223036 
L 167.727856 155.959361 
L 167.788359 155.041044 
L 168.157909 122.196994 
L 168.995617 45.966565 
L 169.260904 27.815453 
L 169.295346 30.711323 
L 169.411701 59.728632 
L 169.826847 136.300823 
L 170.026981 155.299637 
L 170.090279 154.34277 
L 170.17685 148.51982 
L 171.518178 28.751758 
L 171.562858 26.729355 
L 171.59823 30.292839 
L 171.720172 60.280131 
L 172.074823 129.149359 
L 172.32988 154.918815 
L 172.390387 153.933559 
L 172.50116 145.503829 
L 173.120184 83.304107 
L 173.474843 51.114649 
L 173.85464 28.876631 
L 173.856502 28.820049 
L 173.908629 34.886571 
L 174.452252 140.639423 
L 174.622599 156.481431 
L 174.649595 156.294953 
L 174.662626 156.081466 
L 174.792015 149.046344 
L 175.450131 83.025751 
L 176.103595 33.026578 
L 176.160379 30.447168 
L 176.192958 33.40187 
L 176.795225 148.105888 
L 176.921825 158.033254 
L 176.966507 157.183095 
L 177.015843 155.340399 
L 177.27463 129.121839 
L 177.809874 73.827293 
L 178.459603 24.526243 
L 178.483805 26.349619 
L 178.637394 64.307385 
L 179.049752 139.875205 
L 179.22755 156.013099 
L 179.282471 155.190493 
L 179.362527 150.892964 
L 180.760679 30.404032 
L 180.798843 33.941599 
L 181.523042 158.461659 
L 181.572377 157.800353 
L 181.702693 149.2129 
L 181.80695 138.170971 
L 182.891403 26.585662 
L 182.923053 25.07659 
L 182.967734 30.757038 
L 183.671451 156.811645 
L 183.693791 156.701248 
L 183.694723 156.702396 
L 183.706824 156.55713 
L 183.805496 151.736989 
L 184.110801 119.957857 
L 184.360256 95.012029 
L 185.224978 26.611173 
L 185.231494 26.840112 
L 185.281759 35.178585 
L 185.958455 156.203972 
L 185.978003 156.707713 
L 186.047814 155.502432 
L 186.124141 150.638607 
L 187.524091 25.040761 
L 187.571563 30.844414 
L 188.075136 133.542905 
L 188.286432 155.355778 
L 188.346936 154.447719 
L 188.439088 149.786383 
L 189.25927 68.661103 
L 189.340254 61.447745 
L 189.701428 38.5826 
L 189.815408 33.403086 
L 189.848918 36.199909 
L 190.149583 106.952938 
L 190.486558 157.123544 
L 190.487488 152.350163 
L 190.58337 158.202117 
L 190.597333 158.094654 
L 190.763029 149.471396 
L 191.852156 45.053597 
L 192.049505 30.459011 
L 192.12025 26.588538 
L 192.158416 30.399665 
L 192.877059 156.160366 
L 192.88916 156.237212 
L 192.958044 154.975371 
L 193.044616 148.790655 
L 193.50168 101.767822 
L 193.518437 100.085311 
L 194.181227 42.37321 
L 194.240804 37.78857 
L 194.420464 27.296527 
L 194.447458 29.458699 
L 194.634565 76.420006 
L 195.024604 142.451745 
L 195.165167 156.495601 
L 195.286184 152.695332 
L 196.119324 70.616074 
L 196.601521 30.922545 
L 196.722534 23.867817 
L 196.763493 28.150081 
L 196.896607 63.122582 
L 197.293159 135.033233 
L 197.481196 155.037709 
L 197.547288 153.978481 
L 197.664581 144.736682 
L 198.46142 65.490664 
L 198.662492 48.794381 
L 199.020884 29.673931 
L 199.063704 34.179577 
L 199.788863 158.148403 
L 199.789794 158.147823 
L 199.812136 157.963759 
L 199.939668 151.647993 
L 201.21964 32.635218 
L 201.334139 26.021004 
L 201.367651 29.528151 
L 201.479357 58.534766 
L 202.037885 154.879597 
L 202.090946 156.962214 
L 202.160763 155.785874 
L 202.2734 147.102868 
L 203.534758 31.067166 
L 203.633432 25.998802 
L 203.670669 29.954404 
L 204.394896 157.072272 
L 204.434923 156.63962 
L 204.508463 154.144708 
L 205.663694 44.243317 
L 205.936444 26.521077 
L 205.978333 31.515548 
L 206.694188 156.164829 
L 206.710013 156.092361 
L 206.710944 156.095763 
L 206.729562 155.747973 
L 206.808688 151.483869 
L 207.94251 43.494861 
L 208.236672 26.918109 
L 208.272976 30.610574 
L 208.986039 157.360644 
L 208.995348 157.482253 
L 209.030722 157.142566 
L 209.117295 154.082288 
L 210.539693 26.994718 
L 210.571344 29.943242 
L 211.297438 156.615484 
L 211.377495 155.063942 
L 211.55343 139.257675 
L 212.632329 39.691873 
L 212.835263 26.681159 
L 212.865983 28.650756 
L 213.010271 65.877558 
L 213.429165 142.083004 
L 213.60231 158.118186 
L 213.661888 157.170467 
L 213.733566 153.520347 
L 214.946513 39.850018 
L 214.973509 37.782835 
L 215.143862 26.609509 
L 215.18389 31.322838 
L 215.898811 157.992862 
L 215.905328 158.037629 
L 215.937909 157.706879 
L 216.05427 151.323328 
L 216.2842 128.052887 
L 217.156441 45.306438 
L 217.286766 36.026672 
L 217.445017 25.780303 
L 217.477599 29.068384 
L 218.161799 156.772255 
L 218.16273 156.761734 
L 218.184141 157.756312 
L 218.208344 158.092973 
L 218.27723 156.715888 
L 218.368457 150.40785 
L 219.662391 30.637197 
L 219.743379 25.89271 
L 219.783408 30.128712 
L 219.924903 67.772016 
L 220.245129 129.365919 
L 220.510433 157.721015 
L 220.546738 157.23372 
L 220.66403 149.952594 
L 221.222559 92.798627 
L 221.456208 70.471833 
L 221.665658 51.525284 
L 222.044527 25.83814 
L 222.09107 30.942666 
L 222.57978 135.047182 
L 222.80878 158.270564 
L 222.853462 157.683204 
L 222.869287 157.26807 
L 222.870218 157.278188 
L 223.125282 134.819685 
L 223.682887 77.829104 
L 224.360575 25.562986 
L 224.407119 33.627902 
L 224.895833 137.128896 
L 225.117381 158.218152 
L 225.173235 157.400758 
L 225.345448 147.613866 
L 225.684286 112.413026 
L 225.998926 81.460241 
L 226.085496 73.395515 
L 226.654263 32.628003 
L 226.674742 34.259424 
L 226.773417 54.914017 
L 227.164387 132.899014 
L 227.420379 158.178392 
L 227.488333 156.728971 
L 227.544187 154.141406 
L 228.24235 82.873981 
L 228.677077 47.629395 
L 228.67987 51.054534 
L 228.690109 50.494481 
L 228.69104 50.495511 
L 228.95355 31.754241 
L 228.995438 36.817472 
L 229.666601 160.306126 
L 229.712213 162.107883 
L 229.784821 160.880376 
L 229.969138 150.696631 
L 230.792973 67.950302 
L 231.259345 29.997989 
L 231.28541 33.271434 
L 231.509754 88.455589 
L 231.804843 138.251265 
L 232.020806 158.563684 
L 232.085038 157.323341 
L 232.228394 146.671492 
L 233.085741 60.439482 
L 233.108082 58.477962 
L 233.362215 40.912361 
L 233.553974 28.245256 
L 233.589349 31.79203 
L 233.750391 74.492144 
L 234.205587 151.852991 
L 234.321949 159.020578 
L 234.409453 156.81197 
L 234.555602 143.917921 
L 235.860696 25.931903 
L 235.886761 28.493437 
L 236.620291 158.209104 
L 236.704999 156.346831 
L 236.782262 150.159398 
L 237.000087 127.857617 
L 237.63587 64.351918 
L 238.158093 25.976606 
L 238.180434 27.431043 
L 238.393604 81.57447 
L 238.743615 142.405352 
L 238.914894 158.486842 
L 238.981916 157.359744 
L 239.072212 152.613783 
L 240.459209 28.286752 
L 240.499237 32.556291 
L 241.218797 158.483184 
L 241.268134 157.835718 
L 241.360292 153.018727 
L 242.152467 71.902655 
L 242.280928 60.179848 
L 242.76405 25.875823 
L 242.791045 28.475506 
L 243.006074 83.997105 
L 243.376562 145.782815 
L 243.529225 158.226049 
L 243.585078 157.340944 
L 243.744257 144.854697 
L 244.378179 79.352823 
L 245.063299 26.412381 
L 245.121943 35.025461 
L 245.691632 147.863639 
L 245.833125 159.380566 
L 245.892699 158.454187 
L 246.03512 148.656991 
L 246.765852 74.337389 
L 246.947369 57.976585 
L 247.376501 26.741533 
L 247.410012 25.203244 
L 247.448178 29.755376 
L 247.695787 93.777626 
L 248.091405 153.668911 
L 248.173323 158.285246 
L 248.237554 157.167394 
L 248.396733 144.630988 
L 249.085566 74.524177 
L 249.304318 54.936373 
L 249.620814 31.959019 
L 249.712968 26.089729 
L 249.748341 30.082825 
L 250.477208 158.032255 
L 250.526544 157.250281 
L 250.591706 153.837635 
L 250.918442 120.766226 
L 251.81022 38.46406 
L 252.015945 25.102337 
L 252.039216 26.922061 
L 252.184432 64.628633 
L 252.57912 139.081774 
L 252.775539 157.942929 
L 252.82953 157.131235 
L 252.929132 151.177355 
L 254.315195 26.922766 
L 254.35243 30.828334 
L 255.004037 154.816141 
L 255.080368 158.298152 
L 255.13436 157.399056 
L 255.234893 151.515243 
L 255.480643 125.236711 
L 256.066162 67.162562 
L 256.436649 38.86805 
L 256.617235 26.960532 
L 256.644231 29.344955 
L 256.823886 76.336503 
L 257.181338 140.472907 
L 257.377752 158.031889 
L 257.425226 157.496767 
L 257.49504 155.056819 
L 258.919261 26.398087 
L 258.959288 31.513826 
L 259.617414 155.29686 
L 259.684436 158.019788 
L 259.751458 156.77003 
L 259.854785 148.862124 
L 260.504534 81.603547 
L 261.214792 26.183942 
L 261.23434 27.277433 
L 261.97624 158.479982 
L 262.011613 158.152971 
L 262.121457 152.757848 
L 262.266672 138.145574 
L 263.256185 43.791417 
L 263.513102 26.155172 
L 263.53172 27.261639 
L 263.640631 54.103542 
L 263.971088 124.845107 
L 264.280136 158.447905 
L 264.33878 157.354902 
L 264.431868 151.567804 
L 265.454887 49.821985 
L 265.807686 27.150783 
L 265.861675 33.782432 
L 266.439744 148.151074 
L 266.577513 159.069116 
L 266.647328 157.617942 
L 266.747859 150.439411 
L 267.092273 113.977296 
L 267.092273 113.977296 
" clip-path="url(#p5980ae5697)" style="fill: none; stroke: #1f77b4; stroke-width: 1.5; stroke-linecap: square"/>
   </g>
   <g id="patch_3">
    <path d="M 54.83 174.04 
L 54.83 11.382048 
" style="fill: none; stroke: #000000; stroke-width: 0.8; stroke-linejoin: miter; stroke-linecap: square"/>
   </g>
   <g id="patch_4">
    <path d="M 277.2 174.04 
L 277.2 11.382048 
" style="fill: none; stroke: #000000; stroke-width: 0.8; stroke-linejoin: miter; stroke-linecap: square"/>
   </g>
   <g id="patch_5">
    <path d="M 54.83 174.04 
L 277.2 174.04 
" style="fill: none; stroke: #000000; stroke-width: 0.8; stroke-linejoin: miter; stroke-linecap: square"/>
   </g>
   <g id="patch_6">
    <path d="M 54.83 11.382048 
L 277.2 11.382048 
" style="fill: none; stroke: #000000; stroke-width: 0.8; stroke-linejoin: miter; stroke-linecap: square"/>
   </g>
  </g>
 </g>
 <defs>
  <clipPath id="p5980ae5697">
   <rect x="54.83" y="11.382048" width="222.37" height="162.657952"/>
  </clipPath>
 </defs>
</svg>
