<?xml version="1.0" encoding="utf-8" standalone="no"?>
<!DOCTYPE svg PUBLIC "-//W3C//DTD SVG 1.1//EN"
  "http://www.w3.org/Graphics/SVG/1.1/DTD/svg11.dtd">
<svg xmlns:xlink="http://www.w3.org/1999/xlink" width="288pt" height="216pt" viewBox="0 0 288 216" xmlns="http://www.w3.org/2000/svg" version="1.1">
 <metadata>
  <rdf:RDF xmlns:dc="http://purl.org/dc/elements/1.1/" xmlns:cc="http://creativecommons.org/ns#" xmlns:rdf="http://www.w3.org/1999/02/22-rdf-syntax-ns#">
   <cc:Work>
    <dc:type rdf:resource="http://purl.org/dc/dcmitype/StillImage"/>
    <dc:date>2026-04-30T08:33:52.735038</dc:date>
    <dc:format>image/svg+xml</dc:format>
    <dc:creator>
     <cc:Agent>
      <dc:title>Matplotlib v3.10.9, https://matplotlib.org/</dc:title>
     </cc:Agent>
    </dc:creator>
   </cc:Work>
  </rdf:RDF>
 </metadata>
 <defs>
  <style type="text/css">*{stroke-linejoin: round; stroke-linecap: butt}</style>
 </defs>
 <g id="figure_1">
  <g id="patch_1">
   <path d="M 0 216 
L 288 216 
L 288 0 
L 0 0 
z
" style="fill: #ffffff"/>
  </g>
  <g id="axes_1">
   <g id="patch_2">
    <path d="M 63.11 174.04 
L 277.2 174.04 
L 277.2 10.8 
L 63.11 10.8 
z
" style="fill: #ffffff"/>
   </g>
   <g id="matplotlib.axis_1">
    <g id="xtick_1">
     <g id="line2d_1">
      <defs>
       <path id="m8c8b2b5ffd" d="M 0 0 
L 0 3.5 
" style="stroke: #000000; stroke-width: 0.8"/>
      </defs>
      <g>
       <use xlink:href="#m8c8b2b5ffd" x="72.841364" y="174.04" style="stroke: #000000; stroke-width: 0.8"/>
      </g>
     </g>
     <g id="text_1">
      <!-- 0 -->
      <g transform="translate(69.660114 188.638438) scale(0.1 -0.1)">
       <defs>
        <path id="DejaVuSans-30" d="M 2034 4250 
Q 1547 4250 1301 3770 
Q 1056 3291 1056 2328 
Q 1056 1369 1301 889 
Q 1547 409 2034 409 
Q 2525 409 2770 889 
Q 3016 1369 3016 2328 
Q 3016 3291 2770 3770 
Q 2525 4250 2034 4250 
z
M 2034 4750 
Q 2819 4750 3233 4129 
Q 3647 3509 3647 2328 
Q 3647 1150 3233 529 
Q 2819 -91 2034 -91 
Q 1250 -91 836 529 
Q 422 1150 422 2328 
Q 422 3509 836 4129 
Q 1250 4750 2034 4750 
z
" transform="scale(0.015625)"/>
       </defs>
       <use xlink:href="#DejaVuSans-30"/>
      </g>
     </g>
    </g>
    <g id="xtick_2">
     <g id="line2d_2">
      <g>
       <use xlink:href="#m8c8b2b5ffd" x="107.900919" y="174.04" style="stroke: #000000; stroke-width: 0.8"/>
      </g>
     </g>
     <g id="text_2">
      <!-- 2500 -->
      <g transform="translate(95.175919 188.638438) scale(0.1 -0.1)">
       <defs>
        <path id="DejaVuSans-32" d="M 1228 531 
L 3431 531 
L 3431 0 
L 469 0 
L 469 531 
Q 828 903 1448 1529 
Q 2069 2156 2228 2338 
Q 2531 2678 2651 2914 
Q 2772 3150 2772 3378 
Q 2772 3750 2511 3984 
Q 2250 4219 1831 4219 
Q 1534 4219 1204 4116 
Q 875 4013 500 3803 
L 500 4441 
Q 881 4594 1212 4672 
Q 1544 4750 1819 4750 
Q 2544 4750 2975 4387 
Q 3406 4025 3406 3419 
Q 3406 3131 3298 2873 
Q 3191 2616 2906 2266 
Q 2828 2175 2409 1742 
Q 1991 1309 1228 531 
z
" transform="scale(0.015625)"/>
        <path id="DejaVuSans-35" d="M 691 4666 
L 3169 4666 
L 3169 4134 
L 1269 4134 
L 1269 2991 
Q 1406 3038 1543 3061 
Q 1681 3084 1819 3084 
Q 2600 3084 3056 2656 
Q 3513 2228 3513 1497 
Q 3513 744 3044 326 
Q 2575 -91 1722 -91 
Q 1428 -91 1123 -41 
Q 819 9 494 109 
L 494 744 
Q 775 591 1075 516 
Q 1375 441 1709 441 
Q 2250 441 2565 725 
Q 2881 1009 2881 1497 
Q 2881 1984 2565 2268 
Q 2250 2553 1709 2553 
Q 1456 2553 1204 2497 
Q 953 2441 691 2322 
L 691 4666 
z
" transform="scale(0.015625)"/>
       </defs>
       <use xlink:href="#DejaVuSans-32"/>
       <use xlink:href="#DejaVuSans-35" transform="translate(63.623047 0)"/>
       <use xlink:href="#DejaVuSans-30" transform="translate(127.246094 0)"/>
       <use xlink:href="#DejaVuSans-30" transform="translate(190.869141 0)"/>
      </g>
     </g>
    </g>
    <g id="xtick_3">
     <g id="line2d_3">
      <g>
       <use xlink:href="#m8c8b2b5ffd" x="142.960474" y="174.04" style="stroke: #000000; stroke-width: 0.8"/>
      </g>
     </g>
     <g id="text_3">
      <!-- 5000 -->
      <g transform="translate(130.235474 188.638438) scale(0.1 -0.1)">
       <use xlink:href="#DejaVuSans-35"/>
       <use xlink:href="#DejaVuSans-30" transform="translate(63.623047 0)"/>
       <use xlink:href="#DejaVuSans-30" transform="translate(127.246094 0)"/>
       <use xlink:href="#DejaVuSans-30" transform="translate(190.869141 0)"/>
      </g>
     </g>
    </g>
    <g id="xtick_4">
     <g id="line2d_4">
      <g>
       <use xlink:href="#m8c8b2b5ffd" x="178.020029" y="174.04" style="stroke: #000000; stroke-width: 0.8"/>
      </g>
     </g>
     <g id="text_4">
      <!-- 7500 -->
      <g transform="translate(165.295029 188.638438) scale(0.1 -0.1)">
       <defs>
        <path id="DejaVuSans-37" d="M 525 4666 
L 3525 4666 
L 3525 4397 
L 1831 0 
L 1172 0 
L 2766 4134 
L 525 4134 
L 525 4666 
z
" transform="scale(0.015625)"/>
       </defs>
       <use xlink:href="#DejaVuSans-37"/>
       <use xlink:href="#DejaVuSans-35" transform="translate(63.623047 0)"/>
       <use xlink:href="#DejaVuSans-30" transform="translate(127.246094 0)"/>
       <use xlink:href="#DejaVuSans-30" transform="translate(190.869141 0)"/>
      </g>
     </g>
    </g>
    <g id="xtick_5">
     <g id="line2d_5">
      <g>
       <use xlink:href="#m8c8b2b5ffd" x="213.079585" y="174.04" style="stroke: #000000; stroke-width: 0.8"/>
      </g>
     </g>
     <g id="text_5">
      <!-- 10000 -->
      <g transform="translate(197.173335 188.638438) scale(0.1 -0.1)">
       <defs>
        <path id="DejaVuSans-31" d="M 794 531 
L 1825 531 
L 1825 4091 
L 703 3866 
L 703 4441 
L 1819 4666 
L 2450 4666 
L 2450 531 
L 3481 531 
L 3481 0 
L 794 0 
L 794 531 
z
" transform="scale(0.015625)"/>
       </defs>
       <use xlink:href="#DejaVuSans-31"/>
       <use xlink:href="#DejaVuSans-30" transform="translate(63.623047 0)"/>
       <use xlink:href="#DejaVuSans-30" transform="translate(127.246094 0)"/>
       <use xlink:href="#DejaVuSans-30" transform="translate(190.869141 0)"/>
       <use xlink:href="#DejaVuSans-30" transform="translate(254.492188 0)"/>
      </g>
     </g>
    </g>
    <g id="xtick_6">
     <g id="line2d_6">
      <g>
       <use xlink:href="#m8c8b2b5ffd" x="248.13914" y="174.04" style="stroke: #000000; stroke-width: 0.8"/>
      </g>
     </g>
     <g id="text_6">
      <!-- 12500 -->
      <g transform="translate(232.23289 188.638438) scale(0.1 -0.1)">
       <use xlink:href="#DejaVuSans-31"/>
       <use xlink:href="#DejaVuSans-32" transform="translate(63.623047 0)"/>
       <use xlink:href="#DejaVuSans-35" transform="translate(127.246094 0)"/>
       <use xlink:href="#DejaVuSans-30" transform="translate(190.869141 0)"/>
       <use xlink:href="#DejaVuSans-30" transform="translate(254.492188 0)"/>
      </g>
     </g>
    </g>
    <g id="text_7">
     <!-- Time (s) -->
     <g transform="translate(149.826094 202.316563) scale(0.1 -0.1)">
      <defs>
       <path id="DejaVuSans-54" d="M -19 4666 
L 3928 4666 
L 3928 4134 
L 2272 4134 
L 2272 0 
L 1638 0 
L 1638 4134 
L -19 4134 
L -19 4666 
z
" transform="scale(0.015625)"/>
       <path id="DejaVuSans-69" d="M 603 3500 
L 1178 3500 
L 1178 0 
L 603 0 
L 603 3500 
z
M 603 4863 
L 1178 4863 
L 1178 4134 
L 603 4134 
L 603 4863 
z
" transform="scale(0.015625)"/>
       <path id="DejaVuSans-6d" d="M 3328 2828 
Q 3544 3216 3844 3400 
Q 4144 3584 4550 3584 
Q 5097 3584 5394 3201 
Q 5691 2819 5691 2113 
L 5691 0 
L 5113 0 
L 5113 2094 
Q 5113 2597 4934 2840 
Q 4756 3084 4391 3084 
Q 3944 3084 3684 2787 
Q 3425 2491 3425 1978 
L 3425 0 
L 2847 0 
L 2847 2094 
Q 2847 2600 2669 2842 
Q 2491 3084 2119 3084 
Q 1678 3084 1418 2786 
Q 1159 2488 1159 1978 
L 1159 0 
L 581 0 
L 581 3500 
L 1159 3500 
L 1159 2956 
Q 1356 3278 1631 3431 
Q 1906 3584 2284 3584 
Q 2666 3584 2933 3390 
Q 3200 3197 3328 2828 
z
" transform="scale(0.015625)"/>
       <path id="DejaVuSans-65" d="M 3597 1894 
L 3597 1613 
L 953 1613 
Q 991 1019 1311 708 
Q 1631 397 2203 397 
Q 2534 397 2845 478 
Q 3156 559 3463 722 
L 3463 178 
Q 3153 47 2828 -22 
Q 2503 -91 2169 -91 
Q 1331 -91 842 396 
Q 353 884 353 1716 
Q 353 2575 817 3079 
Q 1281 3584 2069 3584 
Q 2775 3584 3186 3129 
Q 3597 2675 3597 1894 
z
M 3022 2063 
Q 3016 2534 2758 2815 
Q 2500 3097 2075 3097 
Q 1594 3097 1305 2825 
Q 1016 2553 972 2059 
L 3022 2063 
z
" transform="scale(0.015625)"/>
       <path id="DejaVuSans-20" transform="scale(0.015625)"/>
       <path id="DejaVuSans-28" d="M 1984 4856 
Q 1566 4138 1362 3434 
Q 1159 2731 1159 2009 
Q 1159 1288 1364 580 
Q 1569 -128 1984 -844 
L 1484 -844 
Q 1016 -109 783 600 
Q 550 1309 550 2009 
Q 550 2706 781 3412 
Q 1013 4119 1484 4856 
L 1984 4856 
z
" transform="scale(0.015625)"/>
       <path id="DejaVuSans-73" d="M 2834 3397 
L 2834 2853 
Q 2591 2978 2328 3040 
Q 2066 3103 1784 3103 
Q 1356 3103 1142 2972 
Q 928 2841 928 2578 
Q 928 2378 1081 2264 
Q 1234 2150 1697 2047 
L 1894 2003 
Q 2506 1872 2764 1633 
Q 3022 1394 3022 966 
Q 3022 478 2636 193 
Q 2250 -91 1575 -91 
Q 1294 -91 989 -36 
Q 684 19 347 128 
L 347 722 
Q 666 556 975 473 
Q 1284 391 1588 391 
Q 1994 391 2212 530 
Q 2431 669 2431 922 
Q 2431 1156 2273 1281 
Q 2116 1406 1581 1522 
L 1381 1569 
Q 847 1681 609 1914 
Q 372 2147 372 2553 
Q 372 3047 722 3315 
Q 1072 3584 1716 3584 
Q 2034 3584 2315 3537 
Q 2597 3491 2834 3397 
z
" transform="scale(0.015625)"/>
       <path id="DejaVuSans-29" d="M 513 4856 
L 1013 4856 
Q 1481 4119 1714 3412 
Q 1947 2706 1947 2009 
Q 1947 1309 1714 600 
Q 1481 -109 1013 -844 
L 513 -844 
Q 928 -128 1133 580 
Q 1338 1288 1338 2009 
Q 1338 2731 1133 3434 
Q 928 4138 513 4856 
z
" transform="scale(0.015625)"/>
      </defs>
      <use xlink:href="#DejaVuSans-54"/>
      <use xlink:href="#DejaVuSans-69" transform="translate(57.958984 0)"/>
      <use xlink:href="#DejaVuSans-6d" transform="translate(85.742188 0)"/>
      <use xlink:href="#DejaVuSans-65" transform="translate(183.154297 0)"/>
      <use xlink:href="#DejaVuSans-20" transform="translate(244.677734 0)"/>
      <use xlink:href="#DejaVuSans-28" transform="translate(276.464844 0)"/>
      <use xlink:href="#DejaVuSans-73" transform="translate(315.478516 0)"/>
      <use xlink:href="#DejaVuSans-29" transform="translate(367.578125 0)"/>
     </g>
    </g>
   </g>
   <g id="matplotlib.axis_2">
    <g id="ytick_1">
     <g id="line2d_7">
      <defs>
       <path id="mc811520232" d="M 0 0 
L -3.5 0 
" style="stroke: #000000; stroke-width: 0.8"/>
      </defs>
      <g>
       <use xlink:href="#mc811520232" x="63.11" y="149.755929" style="stroke: #000000; stroke-width: 0.8"/>
      </g>
     </g>
     <g id="text_8">
      <!-- −0.02 -->
      <g transform="translate(25.464687 153.555148) scale(0.1 -0.1)">
       <defs>
        <path id="DejaVuSans-2212" d="M 678 2272 
L 4684 2272 
L 4684 1741 
L 678 1741 
L 678 2272 
z
" transform="scale(0.015625)"/>
        <path id="DejaVuSans-2e" d="M 684 794 
L 1344 794 
L 1344 0 
L 684 0 
L 684 794 
z
" transform="scale(0.015625)"/>
       </defs>
       <use xlink:href="#DejaVuSans-2212"/>
       <use xlink:href="#DejaVuSans-30" transform="translate(83.789062 0)"/>
       <use xlink:href="#DejaVuSans-2e" transform="translate(147.412109 0)"/>
       <use xlink:href="#DejaVuSans-30" transform="translate(179.199219 0)"/>
       <use xlink:href="#DejaVuSans-32" transform="translate(242.822266 0)"/>
      </g>
     </g>
    </g>
    <g id="ytick_2">
     <g id="line2d_8">
      <g>
       <use xlink:href="#mc811520232" x="63.11" y="119.883278" style="stroke: #000000; stroke-width: 0.8"/>
      </g>
     </g>
     <g id="text_9">
      <!-- −0.01 -->
      <g transform="translate(25.464687 123.682497) scale(0.1 -0.1)">
       <use xlink:href="#DejaVuSans-2212"/>
       <use xlink:href="#DejaVuSans-30" transform="translate(83.789062 0)"/>
       <use xlink:href="#DejaVuSans-2e" transform="translate(147.412109 0)"/>
       <use xlink:href="#DejaVuSans-30" transform="translate(179.199219 0)"/>
       <use xlink:href="#DejaVuSans-31" transform="translate(242.822266 0)"/>
      </g>
     </g>
    </g>
    <g id="ytick_3">
     <g id="line2d_9">
      <g>
       <use xlink:href="#mc811520232" x="63.11" y="90.010626" style="stroke: #000000; stroke-width: 0.8"/>
      </g>
     </g>
     <g id="text_10">
      <!-- 0.00 -->
      <g transform="translate(33.844375 93.809845) scale(0.1 -0.1)">
       <use xlink:href="#DejaVuSans-30"/>
       <use xlink:href="#DejaVuSans-2e" transform="translate(63.623047 0)"/>
       <use xlink:href="#DejaVuSans-30" transform="translate(95.410156 0)"/>
       <use xlink:href="#DejaVuSans-30" transform="translate(159.033203 0)"/>
      </g>
     </g>
    </g>
    <g id="ytick_4">
     <g id="line2d_10">
      <g>
       <use xlink:href="#mc811520232" x="63.11" y="60.137975" style="stroke: #000000; stroke-width: 0.8"/>
      </g>
     </g>
     <g id="text_11">
      <!-- 0.01 -->
      <g transform="translate(33.844375 63.937194) scale(0.1 -0.1)">
       <use xlink:href="#DejaVuSans-30"/>
       <use xlink:href="#DejaVuSans-2e" transform="translate(63.623047 0)"/>
       <use xlink:href="#DejaVuSans-30" transform="translate(95.410156 0)"/>
       <use xlink:href="#DejaVuSans-31" transform="translate(159.033203 0)"/>
      </g>
     </g>
    </g>
    <g id="ytick_5">
     <g id="line2d_11">
      <g>
       <use xlink:href="#mc811520232" x="63.11" y="30.265324" style="stroke: #000000; stroke-width: 0.8"/>
      </g>
     </g>
     <g id="text_12">
      <!-- 0.02 -->
      <g transform="translate(33.844375 34.064542) scale(0.1 -0.1)">
       <use xlink:href="#DejaVuSans-30"/>
       <use xlink:href="#DejaVuSans-2e" transform="translate(63.623047 0)"/>
       <use xlink:href="#DejaVuSans-30" transform="translate(95.410156 0)"/>
       <use xlink:href="#DejaVuSans-32" transform="translate(159.033203 0)"/>
      </g>
     </g>
    </g>
    <g id="text_13">
     <!-- $\Delta R/R$ -->
     <g transform="translate(19.385 104.42) rotate(-90) scale(0.1 -0.1)">
      <defs>
       <path id="DejaVuSans-394" d="M 2188 4044 
L 906 525 
L 3472 525 
L 2188 4044 
z
M 50 0 
L 1831 4666 
L 2547 4666 
L 4325 0 
L 50 0 
z
" transform="scale(0.015625)"/>
       <path id="DejaVuSans-Oblique-52" d="M 1613 4147 
L 1294 2491 
L 2106 2491 
Q 2584 2491 2879 2755 
Q 3175 3019 3175 3444 
Q 3175 3784 2976 3965 
Q 2778 4147 2406 4147 
L 1613 4147 
z
M 2772 2241 
Q 2972 2194 3105 2009 
Q 3238 1825 3413 1275 
L 3809 0 
L 3144 0 
L 2778 1197 
Q 2638 1659 2453 1815 
Q 2269 1972 1888 1972 
L 1191 1972 
L 806 0 
L 172 0 
L 1081 4666 
L 2503 4666 
Q 3150 4666 3495 4373 
Q 3841 4081 3841 3531 
Q 3841 3044 3547 2687 
Q 3253 2331 2772 2241 
z
" transform="scale(0.015625)"/>
       <path id="DejaVuSans-2f" d="M 1625 4666 
L 2156 4666 
L 531 -594 
L 0 -594 
L 1625 4666 
z
" transform="scale(0.015625)"/>
      </defs>
      <use xlink:href="#DejaVuSans-394" transform="translate(0 0.09375)"/>
      <use xlink:href="#DejaVuSans-Oblique-52" transform="translate(68.408203 0.09375)"/>
      <use xlink:href="#DejaVuSans-2f" transform="translate(137.890625 0.09375)"/>
      <use xlink:href="#DejaVuSans-Oblique-52" transform="translate(169.832031 0.09375)"/>
     </g>
    </g>
   </g>
   <g id="line2d_12">
    <path d="M 72.841364 33.343446 
L 72.912078 32.625646 
L 72.925989 34.756158 
L 73.305069 111.897743 
L 73.306228 111.885185 
L 73.314342 112.945477 
L 73.611125 139.904474 
L 73.778065 153.497142 
L 73.838348 148.4066 
L 74.798316 75.664129 
L 74.799475 75.912305 
L 74.881785 70.621958 
L 74.882944 70.647645 
L 75.010468 63.019561 
L 75.537942 36.096963 
L 75.012786 63.052329 
L 75.539102 36.102425 
L 75.54142 36.123055 
L 75.57504 35.142695 
L 75.693287 33.430754 
L 75.764003 33.095608 
L 75.992381 94.00114 
L 76.075918 104.49567 
L 76.280028 126.645385 
L 76.281187 126.568577 
L 76.32408 130.811097 
L 76.467837 142.615272 
L 76.468996 142.573649 
L 76.506093 145.16445 
L 76.604633 153.897559 
L 76.620862 154.951215 
L 76.704331 150.34671 
L 77.025461 118.555955 
L 77.026621 118.632256 
L 77.070675 114.498467 
L 77.071834 114.615341 
L 77.231815 102.299357 
L 77.236453 102.396248 
L 77.256161 100.968729 
L 77.25732 101.055123 
L 77.398754 91.744964 
L 77.399913 91.833781 
L 77.455559 87.606733 
L 77.65148 75.686184 
L 77.65264 75.773589 
L 77.653799 75.899546 
L 77.721038 71.461562 
L 77.722198 71.520704 
L 77.899571 61.264653 
L 78.132591 48.327562 
L 78.497781 34.350918 
L 78.517488 34.435293 
L 79.198002 135.2622 
L 79.199161 135.211169 
L 79.491316 154.727646 
L 79.548125 152.148616 
L 80.221682 93.453744 
L 80.222842 93.512166 
L 80.224001 93.534328 
L 80.250664 92.000629 
L 80.875529 54.626959 
L 80.876688 54.698477 
L 80.938132 51.746514 
L 81.281264 36.23667 
L 81.282423 36.255809 
L 81.283583 36.271925 
L 81.327628 35.343405 
L 81.407613 33.909832 
L 81.47137 34.86595 
L 82.173796 143.914409 
L 82.34418 154.734446 
L 82.377793 153.418096 
L 82.967754 100.777721 
L 82.968913 100.869425 
L 83.368783 75.335848 
L 83.369942 75.368025 
L 83.772134 52.00257 
L 83.912378 44.397963 
L 84.10478 36.880233 
L 84.107099 37.123972 
L 84.200981 34.412867 
L 84.304136 34.735441 
L 84.256615 33.901455 
L 84.309932 34.40422 
L 84.314567 34.140369 
L 84.350498 46.10575 
L 84.618238 106.370468 
L 84.619397 106.336079 
L 84.64026 108.778708 
L 84.821071 127.687494 
L 84.877864 133.58794 
L 85.18733 155.36671 
L 85.193125 155.876785 
L 85.252236 153.078973 
L 85.573294 120.809239 
L 86.266413 71.936442 
L 86.267573 72.130745 
L 86.347545 67.094326 
L 86.357977 66.389176 
L 86.565452 53.75708 
L 86.56893 53.899195 
L 86.592111 52.030434 
L 86.7057 46.126878 
L 86.709177 46.202351 
L 86.849422 39.05931 
L 86.891147 37.131939 
L 86.892306 37.141373 
L 87.052258 32.957437 
L 86.895783 37.211026 
L 87.053417 33.076468 
L 87.842748 143.814112 
L 87.845066 143.810906 
L 88.005017 154.69454 
L 88.046743 156.933068 
L 88.105855 153.804872 
L 88.279716 136.052211 
L 88.942703 86.385225 
L 89.744781 39.102878 
L 89.748258 39.197166 
L 89.750577 39.284448 
L 89.813165 37.16666 
L 89.91516 34.898335 
L 89.938341 35.230246 
L 89.941818 35.096119 
L 90.057727 52.90282 
L 90.264048 99.745558 
L 90.886478 156.540282 
L 90.974568 152.073249 
L 91.496156 103.65483 
L 91.497315 103.746672 
L 91.556429 99.633756 
L 91.855477 81.019611 
L 91.856636 81.084897 
L 91.908795 77.995019 
L 91.909954 78.014785 
L 92.075704 68.762318 
L 92.076863 68.894291 
L 92.149886 64.715887 
L 92.151045 64.744639 
L 92.349254 52.792421 
L 92.350413 52.911017 
L 92.421117 48.868577 
L 92.425753 48.948839 
L 92.437344 48.072348 
L 92.438503 48.078737 
L 92.637869 38.967428 
L 92.639028 38.970623 
L 92.782756 35.622789 
L 92.805938 35.888332 
L 92.861577 35.593638 
L 92.942713 68.01281 
L 93.174536 108.476728 
L 93.467792 137.25738 
L 93.468951 137.161595 
L 93.52111 141.859154 
L 93.522269 141.846385 
L 93.713522 153.88593 
L 93.729749 154.749611 
L 93.798136 150.642727 
L 94.198023 112.512242 
L 94.199183 112.556108 
L 94.236274 109.853511 
L 94.434479 96.776793 
L 94.790328 70.548986 
L 94.808873 69.185124 
L 94.851761 66.535167 
L 95.609817 31.395603 
L 95.831209 73.271525 
L 96.073463 111.857031 
L 96.597373 157.480862 
L 96.68199 151.958933 
L 96.903381 128.294356 
L 96.961335 123.04847 
L 97.202432 104.240268 
L 97.203591 104.249218 
L 97.20475 104.264935 
L 97.224455 103.111318 
L 97.225614 103.168809 
L 97.385574 93.797034 
L 97.386733 93.823294 
L 97.666078 75.96142 
L 98.249116 42.719569 
L 98.250275 42.780046 
L 98.251434 42.819435 
L 98.29548 40.640909 
L 98.296639 40.677711 
L 98.44037 35.666169 
L 98.441529 35.772002 
L 98.514552 34.093596 
L 98.534256 34.182521 
L 98.580622 34.842186 
L 98.624669 53.093175 
L 98.885475 109.324619 
L 99.45577 156.751368 
L 99.485907 155.288159 
L 99.568204 147.254925 
L 99.801191 123.238482 
L 99.905513 114.988069 
L 100.716908 62.192886 
L 100.718067 62.231809 
L 100.754002 59.784331 
L 100.963805 46.567859 
L 100.964964 46.612344 
L 101.37182 30.111318 
L 101.395001 30.373661 
L 101.485415 49.49713 
L 101.673197 96.792434 
L 102.217983 149.786504 
L 102.219142 149.733913 
L 102.256232 152.041958 
L 102.22146 149.706528 
L 102.257391 152.00445 
L 102.316505 155.289297 
L 102.369825 152.435625 
L 103.690051 52.703057 
L 103.69121 52.702263 
L 103.899854 41.012616 
L 103.901013 41.107635 
L 103.967082 37.519884 
L 104.226733 30.209689 
L 104.247599 30.194414 
L 104.787758 126.562522 
L 104.790076 126.448264 
L 104.82253 130.394842 
L 105.179543 157.001903 
L 105.200408 156.431456 
L 105.643202 112.566985 
L 105.644361 112.568173 
L 105.64552 112.486195 
L 105.837936 99.537017 
L 105.841413 99.583749 
L 105.884303 96.23116 
L 106.099601 82.782194 
L 106.10076 82.858826 
L 106.101919 82.977439 
L 106.16915 78.520124 
L 106.171468 78.693389 
L 106.216674 76.099196 
L 106.369681 67.371496 
L 106.371999 67.593076 
L 106.640918 50.213714 
L 106.873906 38.411836 
L 106.875065 38.516782 
L 106.951567 35.522998 
L 106.953886 35.595273 
L 106.955045 35.648935 
L 107.015321 33.365428 
L 107.105734 31.520525 
L 107.017639 33.576908 
L 107.168326 32.34288 
L 107.199622 42.437871 
L 107.421016 101.303508 
L 107.592571 121.191519 
L 107.765284 138.085688 
L 108.039999 156.549879 
L 108.049271 157.037587 
L 108.113024 153.287113 
L 108.438741 119.591975 
L 108.4399 119.624791 
L 108.468879 117.44706 
L 108.807348 91.690481 
L 108.808507 91.986223 
L 108.897762 86.70538 
L 109.091339 74.146852 
L 109.092498 74.261905 
L 109.153931 69.341054 
L 109.158567 69.570769 
L 109.218843 65.460637 
L 109.477332 50.80266 
L 109.479651 51.192501 
L 109.603678 43.673434 
L 109.608315 43.697552 
L 109.610633 43.404776 
L 109.611792 43.591394 
L 109.753208 35.440716 
L 109.754366 35.665882 
L 109.8471 32.626231 
L 109.850577 32.782009 
L 109.951422 30.406985 
L 109.981559 30.536668 
L 110.069652 46.180317 
L 110.262068 96.512882 
L 110.264386 96.490742 
L 110.444054 118.286839 
L 110.446372 118.169214 
L 110.481145 122.251473 
L 110.906551 157.316314 
L 110.483463 122.230716 
L 110.970305 153.08772 
L 111.19634 128.004144 
L 111.197499 128.252275 
L 111.274003 121.403691 
L 111.275163 121.517787 
L 111.49308 103.490656 
L 111.495398 103.644036 
L 112.485307 40.428114 
L 112.486466 40.630258 
L 112.573402 36.619162 
L 112.699747 32.243653 
L 112.702066 32.356373 
L 112.703225 32.408488 
L 112.770454 30.611303 
L 112.771613 30.680197 
L 112.813342 29.881294 
L 112.867821 30.821737 
L 112.88289 30.621568 
L 112.887527 30.527011 
L 112.91071 39.315928 
L 113.130948 100.844871 
L 113.508831 141.097216 
L 113.540126 143.553645 
L 113.760362 159.41956 
L 113.771953 159.77972 
L 114.360792 102.250623 
L 114.361951 102.320803 
L 114.409476 98.555393 
L 114.610007 82.60313 
L 114.611166 82.604314 
L 114.612325 82.500559 
L 114.83488 68.395269 
L 114.836039 68.653074 
L 114.919497 62.564386 
L 114.920656 62.672873 
L 114.986728 58.533399 
L 114.987888 58.618612 
L 115.172192 47.739528 
L 115.686857 26.537013 
L 115.699607 26.747478 
L 115.704243 26.728346 
L 115.791179 44.356508 
L 116.006779 100.786548 
L 116.135443 116.439852 
L 116.521444 147.562817 
L 116.613016 153.735535 
L 116.617653 152.116908 
L 116.618812 158.235183 
L 116.726616 145.444953 
L 116.866872 128.593164 
L 116.961923 119.645939 
L 117.22737 96.055132 
L 117.352559 87.326459 
L 117.525272 74.879836 
L 117.526431 74.94414 
L 117.575116 71.590114 
L 117.991256 46.782476 
L 117.992415 46.823898 
L 118.031826 44.409567 
L 118.032986 44.43087 
L 118.248591 32.475794 
L 118.24975 32.640891 
L 118.330891 28.540475 
L 118.33205 28.559015 
L 118.509399 20.025225 
L 118.596335 26.599172 
L 118.571992 18.22 
L 118.610245 20.472279 
L 118.611404 19.443767 
L 118.684429 52.98761 
L 118.872211 94.106234 
L 119.149247 124.536479 
L 119.150406 124.492695 
L 119.178226 127.466081 
L 119.385719 142.983201 
L 119.386879 142.924267 
L 119.428608 145.995732 
L 119.432086 145.929702 
L 119.476135 163.953644 
L 119.554959 149.663817 
L 120.141499 96.012704 
L 120.142658 96.134733 
L 120.20989 91.566627 
L 120.372171 80.338751 
L 120.37333 80.379494 
L 120.406945 77.818409 
L 120.599365 66.149646 
L 120.601684 66.30376 
L 120.652687 63.179756 
L 121.262401 28.960373 
L 121.263561 29.002297 
L 121.321519 27.094867 
L 121.322678 27.096048 
L 121.417731 25.123076 
L 121.443233 25.540542 
L 121.452506 25.172478 
L 121.44671 25.654503 
L 121.459461 25.23369 
L 121.576533 70.865569 
L 121.87096 117.47803 
L 121.873279 117.487674 
L 122.068017 136.978187 
L 122.069176 136.909152 
L 122.109745 141.04215 
L 122.3381 164.208075 
L 122.427356 155.421872 
L 122.588482 136.452069 
L 122.589641 136.453049 
L 122.677738 126.686951 
L 122.904936 107.549038 
L 122.906095 107.831316 
L 122.993029 102.110655 
L 122.996506 102.11399 
L 123.061419 96.29623 
L 123.210953 87.247692 
L 124.193911 32.520974 
L 124.195071 32.59532 
L 124.272732 30.698437 
L 124.278527 30.963256 
L 124.279686 30.83163 
L 124.349236 35.391209 
L 124.589181 105.566041 
L 125.204692 166.089591 
L 125.232511 165.232966 
L 125.426092 148.672011 
L 125.427251 148.86586 
L 125.49448 141.629658 
L 125.677618 125.362068 
L 125.681095 125.55006 
L 125.744843 121.00879 
L 126.068222 99.36539 
L 126.069381 99.590471 
L 126.148197 93.729555 
L 126.149356 94.0214 
L 126.283814 85.152819 
L 126.291928 84.642528 
L 126.769477 56.439538 
L 126.770636 56.492638 
L 126.771795 56.548859 
L 126.816999 53.752611 
L 126.820476 53.76198 
L 126.974634 45.208279 
L 126.975793 45.478847 
L 127.062724 40.936601 
L 127.067361 41.03499 
L 127.070838 41.283107 
L 127.10445 39.681765 
L 127.107927 39.952527 
L 127.109087 36.088456 
L 127.216879 45.604173 
L 127.410444 104.196356 
L 127.411603 103.910172 
L 127.476508 114.767402 
L 127.478826 114.701613 
L 127.626032 131.202605 
L 127.627191 130.983592 
L 127.693257 139.116289 
L 127.694416 138.666649 
L 127.821915 152.604518 
L 127.824233 152.53978 
L 127.940139 160.071918 
L 127.826551 152.524307 
L 127.984184 156.339076 
L 127.985343 155.960215 
L 128.063002 162.431073 
L 128.085025 159.487716 
L 128.601972 111.299826 
L 128.603131 111.339326 
L 128.637903 108.836751 
L 128.780466 99.315021 
L 128.781626 99.478267 
L 128.853489 94.288468 
L 128.855807 94.567678 
L 129.015762 83.377696 
L 129.016921 83.541135 
L 129.087625 78.161048 
L 129.088784 78.226423 
L 129.370445 59.247367 
L 129.371604 59.463147 
L 129.456218 54.716777 
L 129.457377 54.723392 
L 129.463173 54.25934 
L 129.465492 54.310706 
L 129.626605 45.759303 
L 129.627764 45.899395 
L 129.697313 41.424258 
L 129.70195 41.583222 
L 129.992882 31.045248 
L 130.010269 31.538485 
L 130.017223 31.314339 
L 130.105313 55.716872 
L 130.304673 106.390212 
L 130.305832 106.100107 
L 130.380014 115.281727 
L 130.381173 115.21207 
L 130.417105 119.637591 
L 130.819311 156.165163 
L 130.446083 119.306626 
L 130.82047 155.702811 
L 130.82163 155.587611 
L 130.892335 159.567142 
L 130.91088 160.48427 
L 130.967676 158.202306 
L 130.971153 158.258688 
L 131.207614 130.719141 
L 131.208773 130.732147 
L 131.220364 129.632072 
L 131.294547 121.142254 
L 131.451025 108.861671 
L 131.453344 108.929224 
L 131.475366 107.218838 
L 131.650387 96.40968 
L 131.651547 96.420356 
L 131.652706 96.480922 
L 131.70023 93.216025 
L 131.702548 93.407233 
L 131.857868 81.872845 
L 131.859027 81.871875 
L 131.860186 82.024646 
L 131.93437 77.177287 
L 131.939006 77.205434 
L 132.735311 33.129625 
L 132.73647 33.391104 
L 132.817606 31.211918 
L 132.838471 31.538427 
L 132.840789 31.463303 
L 132.916132 32.55406 
L 133.280094 118.334897 
L 133.281253 118.088561 
L 133.35196 125.964765 
L 133.354278 125.89663 
L 133.537416 143.155149 
L 133.538575 142.694603 
L 133.625903 151.198898 
L 133.627062 150.884121 
L 133.766161 160.250961 
L 133.789344 160.787029 
L 133.85194 157.633937 
L 133.853099 157.654475 
L 133.870486 156.111472 
L 134.067548 133.13644 
L 134.068708 133.274741 
L 134.124349 126.803783 
L 134.19158 119.413907 
L 134.35618 106.240324 
L 134.532373 95.120742 
L 134.535851 95.196479 
L 134.794344 78.119632 
L 134.795503 78.183746 
L 134.961267 67.536601 
L 134.962426 67.704734 
L 135.038931 63.199062 
L 135.04125 63.211459 
L 135.245263 50.711953 
L 135.246422 50.863621 
L 135.255695 50.373557 
L 135.41682 41.599304 
L 135.616199 31.602993 
L 135.617359 31.627592 
L 135.618518 31.6673 
L 135.674157 29.869176 
L 135.720118 28.429012 
L 135.779236 29.781625 
L 136.088715 111.065021 
L 136.627705 158.735225 
L 136.630023 158.672137 
L 136.649727 159.642638 
L 136.687977 157.967723 
L 137.561944 83.472843 
L 137.65815 77.393697 
L 137.564262 83.66925 
L 137.660468 77.543903 
L 137.793762 69.4483 
L 137.662786 77.658151 
L 137.79608 69.606237 
L 137.797239 69.696902 
L 137.857512 65.84686 
L 137.860989 65.877016 
L 138.025581 55.029782 
L 138.02674 55.188299 
L 138.096286 49.73781 
L 138.294492 38.834708 
L 138.29681 39.132218 
L 138.381423 34.906373 
L 138.384901 35.031254 
L 138.390696 34.781492 
L 138.521673 30.775639 
L 138.522832 30.863404 
L 138.523991 31.072183 
L 138.57615 29.206703 
L 138.628308 29.858172 
L 138.629467 29.638566 
L 138.667717 43.110619 
L 138.84506 97.754496 
L 139.103542 129.890435 
L 139.10586 129.846939 
L 139.239157 142.398089 
L 139.513861 158.893627 
L 139.27161 141.975511 
L 139.549793 157.107456 
L 139.614704 149.781546 
L 140.201205 97.908628 
L 140.202364 97.921944 
L 140.203523 97.979844 
L 140.251045 94.986043 
L 140.413319 84.076004 
L 140.414478 84.107271 
L 140.415637 84.188329 
L 140.473593 80.475802 
L 140.475911 80.523858 
L 140.759893 62.174285 
L 140.8561 56.709326 
L 141.053146 44.712508 
L 141.054305 44.714245 
L 141.055464 44.540353 
L 141.425219 28.601532 
L 141.479695 29.43413 
L 141.486649 28.820972 
L 141.508672 33.35664 
L 141.772944 107.78207 
L 141.774103 107.69908 
L 141.812353 112.905615 
L 142.094012 143.269832 
L 142.095171 143.25229 
L 142.09633 143.155717 
L 142.146173 148.150093 
L 142.372198 160.877919 
L 142.14965 148.079811 
L 142.383789 160.498197 
L 142.546062 142.772455 
L 142.547221 142.780544 
L 142.707173 125.900859 
L 142.804537 118.141927 
L 142.805696 118.197017 
L 142.940152 108.427518 
L 142.941311 108.57545 
L 143.120975 95.784319 
L 143.124452 95.951127 
L 143.490723 72.31009 
L 143.627497 62.694301 
L 143.494201 72.333012 
L 143.628656 62.766342 
L 143.833816 50.662864 
L 143.834975 50.770537 
L 144.307893 29.491024 
L 144.320644 30.284233 
L 144.326439 29.789969 
L 144.370486 36.076512 
L 144.627812 108.885376 
L 144.628971 108.756513 
L 144.788925 126.66556 
L 144.790084 126.238521 
L 144.875858 134.676222 
L 144.878176 134.545443 
L 145.03002 148.643527 
L 145.031179 148.621965 
L 145.032338 148.083134 
L 145.123907 154.339854 
L 145.128543 154.106341 
L 145.229385 161.120197 
L 145.256043 159.980942 
L 145.523795 127.614883 
L 145.526113 127.906744 
L 145.567841 123.856072 
L 145.871528 101.197978 
L 145.878483 100.806261 
L 146.023369 90.318459 
L 147.151192 24.173263 
L 146.026847 90.39657 
L 147.161624 24.641551 
L 147.169738 24.240025 
L 147.235809 35.879886 
L 147.513992 106.665825 
L 148.042544 152.355869 
L 148.043703 152.23202 
L 148.165411 149.963068 
L 148.073841 160.574847 
L 148.16657 150.014732 
L 148.167729 150.015885 
L 148.49807 113.874579 
L 148.499229 114.107359 
L 148.535161 110.864564 
L 148.53632 111.024744 
L 148.660342 101.456731 
L 148.664979 101.572545 
L 148.882893 85.214712 
L 148.884052 85.350116 
L 148.954758 80.732147 
L 149.010396 77.182436 
L 148.959394 80.794184 
L 149.011556 77.440953 
L 149.141374 67.349182 
L 149.142533 67.423127 
L 149.194693 63.951775 
L 149.200488 64.418872 
L 149.321038 57.139102 
L 149.324516 57.146784 
L 149.478679 48.706372 
L 149.703546 35.786855 
L 149.483315 48.761686 
L 149.704706 35.878854 
L 149.708183 35.943579 
L 149.761502 33.134654 
L 149.762661 33.254886 
L 149.911026 27.585755 
L 149.912185 27.607843 
L 149.913344 27.882302 
L 149.972459 25.975496 
L 150.017666 26.280302 
L 150.018825 26.110902 
L 150.082578 32.381767 
L 150.294696 97.890692 
L 150.553181 127.350563 
L 150.55434 126.98048 
L 150.635479 136.473702 
L 150.636638 136.156568 
L 150.941485 159.062979 
L 151.014509 153.997371 
L 151.288061 122.805516 
L 151.335585 119.256081 
L 151.574356 101.659595 
L 151.576674 101.714617 
L 151.591743 100.277705 
L 151.597539 100.490894 
L 151.744747 90.512637 
L 151.748224 90.934411 
L 151.83284 84.91989 
L 151.833999 85.031469 
L 152.024094 73.169406 
L 152.025253 73.433593 
L 152.086687 69.253794 
L 152.089005 69.497465 
L 152.228095 60.21418 
L 152.230413 60.630204 
L 152.28489 56.111453 
L 152.286049 56.470728 
L 152.415871 47.045956 
L 152.418189 47.230004 
L 152.56076 39.037201 
L 152.561919 39.369445 
L 152.563078 39.501537 
L 152.634942 35.250804 
L 152.638419 35.632895 
L 152.772876 29.870862 
L 152.775194 30.278835 
L 152.836626 28.899819 
L 152.881831 29.598625 
L 152.891104 29.22593 
L 152.931671 32.574061 
L 153.140305 98.529828 
L 153.141464 98.40387 
L 153.190149 105.040704 
L 153.41385 130.820649 
L 153.639875 150.812138 
L 153.643353 150.433489 
L 153.730287 156.511992 
L 153.732605 156.051752 
L 153.796354 158.955115 
L 153.842716 155.940955 
L 155.18958 52.285086 
L 155.190739 52.465021 
L 155.191898 52.530868 
L 155.242899 49.23385 
L 155.244058 49.324393 
L 155.486312 35.08657 
L 155.487471 35.44663 
L 155.585996 32.008534 
L 155.708862 28.77124 
L 155.590632 32.105011 
L 155.713498 28.823689 
L 155.720454 28.66232 
L 155.803907 42.572433 
L 156.050796 107.732582 
L 156.236255 127.380752 
L 156.237414 127.232677 
L 156.24321 128.27989 
L 156.244369 128.235678 
L 156.437939 148.571806 
L 156.646575 165.037597 
L 156.440257 148.561587 
L 156.657007 164.87478 
L 156.801893 149.928126 
L 157.040671 125.05903 
L 157.042989 125.187033 
L 157.250467 110.126393 
L 157.251626 110.15062 
L 157.274808 108.322503 
L 157.623697 83.708461 
L 157.745402 76.397522 
L 157.626016 83.765691 
L 157.746562 76.450937 
L 157.916946 65.483192 
L 157.918105 65.54977 
L 157.966786 62.089264 
L 158.133695 51.941244 
L 158.137172 52.073635 
L 158.348129 40.720352 
L 158.349288 40.858277 
L 158.426946 37.241533 
L 158.428105 37.32795 
L 158.560241 33.552107 
L 158.57415 33.205674 
L 158.600809 33.924292 
L 158.618195 33.768436 
L 159.197745 142.473921 
L 159.198904 142.327031 
L 159.26845 147.495089 
L 159.271927 147.37586 
L 159.275404 147.754151 
L 159.277722 147.585895 
L 159.46202 161.502128 
L 159.463179 161.3932 
L 159.499111 162.752602 
L 159.557067 159.805018 
L 160.140084 107.343258 
L 160.23397 100.247587 
L 160.388127 89.815778 
L 160.391605 89.880885 
L 160.672105 71.58981 
L 160.808877 62.610184 
L 160.810036 62.7345 
L 160.811195 62.850439 
L 160.876104 58.872736 
L 160.879582 58.933085 
L 161.018674 49.712063 
L 161.262085 37.174323 
L 161.263244 37.29997 
L 161.430154 29.659254 
L 161.4487 29.906553 
L 161.449859 23.544208 
L 161.554179 54.491432 
L 161.921611 123.420822 
L 162.12445 141.704015 
L 162.225292 149.58906 
L 162.371334 158.245324 
L 162.382925 157.754804 
L 162.384085 157.763556 
L 162.394517 157.045627 
L 162.395676 157.130833 
L 163.194291 84.266633 
L 163.19545 84.43987 
L 163.266155 79.27815 
L 163.270792 79.58583 
L 163.393656 71.420902 
L 163.394815 71.462356 
L 163.552448 62.200772 
L 163.555925 62.28102 
L 163.756446 50.685215 
L 163.8909 42.840137 
L 163.893217 42.87893 
L 164.182996 28.346093 
L 164.185313 28.411507 
L 164.186472 28.473691 
L 164.257177 27.071826 
L 164.274563 27.353454 
L 164.284997 27.053571 
L 164.353386 29.646791 
L 164.631575 108.448221 
L 165.220397 158.131296 
L 165.240102 157.519647 
L 165.361805 144.135334 
L 165.609851 117.324933 
L 165.61101 117.426379 
L 165.665486 113.111509 
L 165.668963 113.192058 
L 165.80805 102.90024 
L 165.811528 102.978699 
L 165.826596 101.832398 
L 165.966845 91.983218 
L 165.969163 92.130067 
L 166.287917 70.46225 
L 166.289076 70.554956 
L 166.290236 70.555908 
L 166.440918 59.900478 
L 166.443236 59.961651 
L 166.444395 59.971339 
L 166.450191 59.198526 
L 166.457146 59.251909 
L 166.634485 48.038719 
L 167.121303 26.377551 
L 167.153757 26.596401 
L 167.746054 137.057155 
L 167.747213 136.926743 
L 167.810966 142.215807 
L 168.071764 159.497714 
L 168.113493 157.577041 
L 168.114652 157.597145 
L 168.132038 155.989705 
L 168.664065 104.643187 
L 168.665224 104.670874 
L 168.666383 104.678269 
L 168.671019 104.111453 
L 168.674496 104.330859 
L 168.952815 81.148127 
L 168.953974 81.29283 
L 169.02352 76.410712 
L 169.024679 76.501675 
L 169.185796 66.328965 
L 169.188115 66.463985 
L 169.234479 63.187083 
L 169.239115 63.19639 
L 169.386326 53.7227 
L 169.387485 53.800559 
L 169.388644 53.882406 
L 169.44961 50.370219 
L 169.458883 49.643285 
L 169.617682 39.910194 
L 169.618841 39.952541 
L 169.772999 31.414865 
L 169.774158 31.45987 
L 169.907455 25.747324 
L 169.909774 25.748464 
L 169.910933 25.852339 
L 169.985117 24.576786 
L 170.007139 24.617044 
L 170.009458 24.540705 
L 170.055823 26.291006 
L 170.543811 126.712722 
L 170.54497 126.697911 
L 170.555402 127.845852 
L 170.556561 127.698493 
L 170.717674 142.111934 
L 170.897335 154.124101 
L 170.898494 154.04934 
L 170.925153 155.280598 
L 171.001654 147.701796 
L 171.145383 129.892312 
L 171.147702 130.132909 
L 171.202181 123.687836 
L 171.362137 108.894731 
L 171.363296 109.201929 
L 171.449069 102.720423 
L 171.687847 85.175445 
L 171.689006 85.423252 
L 171.766666 78.964516 
L 171.768984 79.243063 
L 171.919666 69.616341 
L 171.920825 69.679146 
L 171.969507 66.465432 
L 172.183937 53.558774 
L 172.185097 53.663894 
L 172.248849 49.476976 
L 172.477194 35.027312 
L 172.480672 35.239067 
L 172.792477 21.246878 
L 172.828409 21.992386 
L 172.843477 21.672665 
L 173.066026 82.612556 
L 173.286255 114.769621 
L 173.288574 114.57779 
L 173.417234 127.162327 
L 173.419552 126.919893 
L 173.562121 141.948205 
L 173.566758 141.843005 
L 173.60153 144.250854 
L 173.761488 154.209419 
L 173.762647 154.107441 
L 173.766124 153.999209 
L 173.773079 157.660931 
L 173.774238 157.034468 
L 173.777716 166.62 
L 173.884352 153.3126 
L 174.179924 120.990042 
L 174.255265 114.5467 
L 174.258742 114.606241 
L 174.42913 101.536023 
L 174.430289 101.734299 
L 174.431449 101.750176 
L 174.444199 100.634041 
L 174.445358 100.650675 
L 174.592564 88.861603 
L 174.593723 88.916984 
L 175.600985 30.963387 
L 175.604463 30.963766 
L 175.605622 31.201358 
L 175.700667 28.397128 
L 175.702985 28.690289 
L 175.711098 28.176734 
L 175.77369 32.598747 
L 176.085487 114.466936 
L 176.086646 114.286426 
L 176.149235 121.577313 
L 176.150394 121.522687 
L 176.639539 159.668398 
L 176.152712 121.515694 
L 176.683584 157.069967 
L 176.899181 131.860839 
L 176.967567 123.908815 
L 177.129843 110.351427 
L 177.131003 110.54739 
L 177.36862 93.404693 
L 177.369779 93.632562 
L 177.450915 88.070999 
L 177.613188 76.174019 
L 177.615507 76.419256 
L 177.698962 71.273596 
L 177.700121 71.404804 
L 177.70128 71.427272 
L 177.723304 69.734581 
L 177.726781 69.788007 
L 177.861232 61.765 
L 178.002641 52.600378 
L 178.009596 52.633227 
L 178.036255 50.963568 
L 178.037414 51.041161 
L 178.170707 41.561637 
L 178.171866 41.585613 
L 178.173026 41.633189 
L 178.218231 39.026942 
L 178.353844 31.952416 
L 178.355003 32.08117 
L 178.361957 32.103258 
L 178.531184 26.074627 
L 178.564798 25.681755 
L 179.335601 152.323694 
L 179.339079 152.146828 
L 179.413259 157.006832 
L 179.415577 156.917457 
L 179.494396 161.426182 
L 179.534966 159.337706 
L 179.84676 122.676699 
L 180.090169 103.375861 
L 180.092487 103.513977 
L 180.093646 103.742162 
L 180.175943 98.300233 
L 180.177103 98.377865 
L 180.178261 98.415361 
L 180.210716 96.028948 
L 180.426307 81.525998 
L 180.427466 81.660157 
L 180.920086 48.660195 
L 180.921245 48.723505 
L 180.972246 45.549472 
L 181.146113 36.20223 
L 181.150749 36.320185 
L 181.207545 33.532801 
L 181.332727 28.657282 
L 181.336204 28.819328 
L 181.447477 29.361429 
L 181.402273 28.122907 
L 181.448636 29.334108 
L 181.45675 28.910338 
L 181.478773 32.714844 
L 181.993415 135.22473 
L 182.211324 153.758066 
L 182.212483 153.719263 
L 182.251893 156.007861 
L 182.25537 155.923474 
L 182.345779 160.321728 
L 182.375916 159.014076 
L 182.377075 159.030833 
L 182.394461 157.897321 
L 182.577604 135.947485 
L 182.578763 136.11574 
L 182.875492 107.029429 
L 182.919538 104.074989 
L 182.877811 107.039405 
L 182.921857 104.160999 
L 183.080654 93.00572 
L 183.081813 93.133134 
L 183.1502 88.551474 
L 183.151359 88.735914 
L 183.332179 76.952785 
L 183.333338 77.058556 
L 183.390135 72.434362 
L 183.391294 72.436808 
L 183.611525 58.672633 
L 183.612684 58.835431 
L 183.686867 53.9709 
L 183.689185 54.084199 
L 183.801618 47.542761 
L 183.960417 37.399271 
L 183.961576 37.529133 
L 184.034599 33.444146 
L 184.171372 27.976419 
L 184.174849 28.036079 
L 184.26294 24.273487 
L 184.322054 26.840414 
L 184.389282 61.241254 
L 184.595605 108.118571 
L 184.596764 108.034443 
L 184.597923 108.015246 
L 184.609514 109.643408 
L 184.876111 138.50792 
L 184.87727 138.441712 
L 184.878429 138.387166 
L 184.91668 141.693812 
L 184.91784 141.398165 
L 185.045338 151.003619 
L 185.046497 150.931037 
L 185.09518 154.719435 
L 185.194862 160.362451 
L 185.224998 158.837891 
L 185.226157 158.874352 
L 185.255134 156.293533 
L 185.323522 147.726487 
L 185.550706 122.262082 
L 185.846283 98.999091 
L 185.85092 99.11802 
L 185.85208 99.135117 
L 185.870626 97.871423 
L 185.871785 97.882697 
L 186.016672 87.857047 
L 186.028264 87.270081 
L 186.022468 87.872077 
L 186.029423 87.293945 
L 186.902233 33.650977 
L 186.903392 33.786633 
L 186.904551 33.808614 
L 186.927734 32.267739 
L 187.067985 27.734925 
L 187.587264 127.018306 
L 187.109712 27.382446 
L 187.590742 127.012294 
L 187.946584 153.868324 
L 187.948902 153.805216 
L 187.95122 153.754691 
L 187.996424 156.179508 
L 187.997583 156.090291 
L 188.046266 158.7189 
L 188.098424 153.714683 
L 188.099583 153.74699 
L 188.120447 151.31109 
L 188.560906 104.826527 
L 188.562066 104.974719 
L 188.630451 99.683508 
L 188.810112 87.914032 
L 188.846045 85.697136 
L 189.380394 50.429656 
L 189.381553 50.613911 
L 189.461532 45.862885 
L 189.653945 33.739546 
L 189.656264 33.795519 
L 189.658582 33.696723 
L 189.798833 27.663791 
L 189.799992 27.719762 
L 189.853311 25.070869 
L 189.857947 25.272782 
L 189.961107 23.123691 
L 189.985448 23.29724 
L 189.998199 23.769809 
L 190.015586 23.765487 
L 190.072382 50.052315 
L 190.261314 101.535461 
L 190.262473 101.352143 
L 190.320428 109.573422 
L 190.490815 127.426728 
L 190.491974 127.377332 
L 190.519793 130.361115 
L 190.522111 130.276031 
L 190.654249 142.577762 
L 190.655408 142.499961 
L 190.879117 157.672968 
L 190.886071 157.462926 
L 190.889548 160.80106 
L 190.992708 151.758091 
L 191.129482 134.460691 
L 191.130641 134.487512 
L 191.282483 118.536218 
L 191.523575 100.548228 
L 191.528211 100.642758 
L 191.580369 96.818065 
L 191.793645 82.799 
L 191.797122 83.084652 
L 191.864348 78.37168 
L 191.865507 78.383121 
L 192.072988 64.699974 
L 192.074147 64.801632 
L 192.137898 60.74399 
L 192.139057 60.874343 
L 192.32104 49.543931 
L 192.322199 49.679912 
L 192.394062 45.081163 
L 192.438107 42.558876 
L 192.676878 29.451533 
L 192.680355 29.581886 
L 192.681514 29.683543 
L 192.756857 26.791765 
L 192.760334 26.863225 
L 192.811334 25.423338 
L 192.875086 26.5817 
L 193.382766 132.18371 
L 193.465061 141.663152 
L 193.686447 155.696984 
L 193.687607 155.690801 
L 193.689925 155.498688 
L 193.742085 160.492648 
L 193.769904 159.507664 
L 193.771063 159.525465 
L 193.793085 158.228027 
L 194.526787 90.858596 
L 194.530264 90.614206 
L 194.721514 77.131136 
L 194.723832 77.316537 
L 194.731946 76.706776 
L 194.889587 66.800239 
L 194.891905 66.960357 
L 194.956812 62.748221 
L 194.959131 62.786049 
L 195.18284 48.125972 
L 195.183999 48.133088 
L 195.185158 48.158557 
L 195.214135 46.44164 
L 195.215295 46.522169 
L 195.452912 32.986848 
L 195.454071 33.013254 
L 195.491162 31.459641 
L 195.49348 31.551029 
L 195.633734 27.064351 
L 195.661553 26.25271 
L 195.729938 27.975994 
L 196.303691 140.087381 
L 196.304851 139.915153 
L 196.37092 146.390962 
L 196.372079 146.117975 
L 196.527399 158.043937 
L 196.529718 158.026913 
L 196.601583 160.742243 
L 196.64331 158.683093 
L 197.128984 108.513259 
L 197.130143 108.5428 
L 197.630869 75.226004 
L 197.632028 75.539359 
L 197.718958 69.576449 
L 197.720117 69.635905 
L 198.380798 29.956278 
L 198.381957 30.070514 
L 198.45382 27.368481 
L 198.466571 27.649678 
L 198.511776 27.028016 
L 198.561616 28.134667 
L 198.574367 27.652295 
L 198.776048 97.468237 
L 199.244324 147.873977 
L 199.245483 147.737063 
L 199.312711 152.515419 
L 199.315029 152.464425 
L 199.45412 161.426036 
L 199.498167 158.894868 
L 199.760122 128.042875 
L 199.761281 128.216661 
L 199.829668 121.950877 
L 200.048739 104.731215 
L 200.104377 100.92941 
L 200.705951 60.595581 
L 200.708268 60.877818 
L 200.791724 55.221869 
L 200.794043 55.523706 
L 200.973705 43.777064 
L 200.974864 43.956262 
L 201.054843 39.155983 
L 201.196253 31.890796 
L 201.197412 32.018288 
L 201.276233 29.035941 
L 201.282029 29.1233 
L 201.374755 26.33023 
L 201.410687 27.190197 
L 201.416482 27.026491 
L 201.490667 60.247076 
L 201.696985 108.964405 
L 201.739872 114.053267 
L 201.741031 113.885455 
L 201.895192 131.182768 
L 201.896351 131.183141 
L 202.180322 154.639118 
L 202.18264 154.521415 
L 202.183799 154.471049 
L 202.226683 157.103234 
L 202.233637 157.030113 
L 202.292753 161.493128 
L 202.349548 158.582834 
L 202.557022 132.482146 
L 202.563976 132.555773 
L 202.777248 109.322251 
L 202.778407 109.669696 
L 202.865339 102.625919 
L 203.122658 84.853544 
L 203.123817 84.886922 
L 203.293048 73.575724 
L 203.294208 73.70196 
L 203.362595 69.225477 
L 203.54805 56.315523 
L 203.550369 56.436167 
L 203.571231 55.000194 
L 203.573549 55.003551 
L 203.706841 46.899936 
L 203.708 46.989625 
L 203.770589 43.476984 
L 203.921272 34.331772 
L 203.924749 34.337739 
L 203.925908 34.352283 
L 203.946772 33.258848 
L 204.096295 26.727514 
L 204.097454 26.850581 
L 204.184384 24.303832 
L 204.215678 23.836735 
L 204.281746 26.115159 
L 204.303769 36.0081 
L 204.522838 103.699822 
L 204.523997 103.552515 
L 204.573837 111.06354 
L 205.003863 149.230479 
L 205.005023 149.160023 
L 205.059499 152.292539 
L 205.060659 152.075391 
L 205.152226 159.328678 
L 205.178887 156.842011 
L 205.180046 156.917874 
L 205.218295 152.357403 
L 205.423454 126.570904 
L 205.446637 123.893745 
L 205.608908 107.46416 
L 206.795813 31.461042 
L 206.798131 31.512114 
L 206.817836 30.447997 
L 206.818995 30.584251 
L 206.952289 24.146993 
L 206.953448 24.210738 
L 206.954607 24.360786 
L 207.036901 21.470765 
L 207.042697 21.613356 
L 207.072832 20.847656 
L 207.129629 23.283808 
L 207.171357 45.319899 
L 207.363768 100.664368 
L 207.785677 145.642094 
L 207.787994 145.614533 
L 207.980401 158.402849 
L 207.98156 158.303966 
L 207.991991 164.165711 
L 208.08356 156.540264 
L 208.184403 144.131581 
L 208.408109 117.93351 
L 208.409268 118.027999 
L 208.466065 113.81762 
L 208.664266 99.970569 
L 208.666584 100.193401 
L 208.741926 94.9321 
L 208.744244 95.12201 
L 208.915788 81.543735 
L 208.918106 81.569404 
L 208.936652 79.860959 
L 209.118632 67.809776 
L 209.11979 67.886781 
L 209.12095 67.91896 
L 209.154565 65.808934 
L 209.392179 51.487389 
L 209.393339 51.502455 
L 209.411885 50.319285 
L 209.413044 50.487804 
L 209.588069 39.086145 
L 209.766573 29.989818 
L 209.767732 30.051572 
L 209.768891 30.063289 
L 209.786277 29.171403 
L 209.918416 24.890712 
L 209.793231 29.465102 
L 209.946234 25.588411 
L 210.066778 71.616156 
L 210.260348 112.285319 
L 210.261507 112.282715 
L 210.262666 112.512058 
L 210.264984 112.459792 
L 210.609233 148.941119 
L 210.610392 148.736069 
L 210.686892 154.339893 
L 210.688051 154.305318 
L 210.835254 162.347463 
L 210.83989 162.093525 
L 211.036934 140.362675 
L 210.859595 162.236469 
L 211.039252 140.475595 
L 211.836708 73.751401 
L 211.837867 73.856706 
L 211.839026 73.995443 
L 211.910888 69.392851 
L 211.912048 69.428882 
L 211.946823 67.181445 
L 211.9503 67.355097 
L 212.088236 58.377798 
L 212.089395 58.503903 
L 212.16126 54.360235 
L 212.678223 26.378073 
L 212.68286 26.386802 
L 212.684019 26.472422 
L 212.758202 24.184683 
L 212.765156 24.371891 
L 212.77327 24.075664 
L 212.842818 30.072664 
L 212.949455 80.723078 
L 213.1778 119.555927 
L 213.180118 119.358132 
L 213.243869 125.732892 
L 213.428167 144.39099 
L 213.429326 144.257736 
L 213.498872 148.900296 
L 213.504667 148.724916 
L 213.553349 152.421256 
L 213.691283 161.742739 
L 213.826894 147.749544 
L 213.892963 139.574706 
L 214.493383 88.830472 
L 214.494542 88.910039 
L 214.495701 88.939714 
L 214.523518 87.024167 
L 214.664927 76.789668 
L 214.666086 76.834739 
L 214.808655 67.703053 
L 214.812133 67.791709 
L 215.053222 52.236778 
L 215.05554 52.716223 
L 215.14595 46.803209 
L 215.149427 46.845311 
L 215.322135 36.515295 
L 215.36734 33.659036 
L 215.524978 26.237583 
L 215.528455 26.50021 
L 215.529614 26.620211 
L 215.614228 24.591523 
L 215.620024 25.005868 
L 215.621183 24.558511 
L 215.693047 38.679191 
L 215.932987 108.145649 
L 216.556576 161.930291 
L 216.576281 161.038015 
L 216.994711 114.857287 
L 216.995871 115.304801 
L 217.086279 107.567004 
L 217.35171 87.841283 
L 217.357506 87.859066 
L 217.510506 77.074308 
L 217.515143 77.368086 
L 217.549917 74.75576 
L 217.552235 74.956551 
L 217.679733 66.554061 
L 217.682052 66.701321 
L 218.285927 28.749154 
L 218.287086 28.952354 
L 218.288245 28.951428 
L 218.289404 29.034226 
L 218.290563 28.98051 
L 218.416904 24.24487 
L 218.418063 24.284325 
L 218.436609 24.133361 
L 218.547881 33.240102 
L 218.805196 111.35703 
L 218.806355 111.349991 
L 218.807514 111.176429 
L 218.867788 118.463453 
L 219.097285 139.398737 
L 219.098444 139.166291 
L 219.169148 146.799418 
L 219.170307 146.759239 
L 219.392849 161.588512 
L 219.407917 160.044829 
L 219.990942 99.075091 
L 219.992101 99.528122 
L 220.085987 93.066797 
L 220.087147 93.068279 
L 220.088306 92.999778 
L 220.248264 81.300519 
L 220.251741 81.343287 
L 220.2529 81.710045 
L 220.338675 74.356351 
L 220.339834 74.544452 
L 220.343311 74.725332 
L 220.520652 60.619832 
L 220.521811 60.659452 
L 220.554266 58.437607 
L 220.557743 58.522957 
L 220.56122 58.545913 
L 220.688722 50.765477 
L 220.689881 51.152045 
L 220.782608 45.260761 
L 221.05963 29.088375 
L 220.784926 45.393504 
L 221.061948 29.203161 
L 221.063107 29.438102 
L 221.152356 25.068282 
L 221.275221 21.391253 
L 221.154675 25.086242 
L 221.343607 22.157354 
L 222.02747 146.141194 
L 222.028629 146.142673 
L 222.029788 146.074041 
L 222.168881 154.706226 
L 222.17004 154.631676 
L 222.171199 154.371949 
L 222.241904 160.300876 
L 222.244223 163.98643 
L 222.349702 153.934184 
L 222.518931 132.039647 
L 222.63832 120.334018 
L 222.639479 120.339743 
L 222.80059 107.613856 
L 222.804068 107.732986 
L 222.820295 106.297532 
L 222.82609 106.317848 
L 222.975615 95.357097 
L 222.979092 95.472162 
L 223.023139 92.217274 
L 223.340731 71.320462 
L 223.34189 71.369221 
L 223.380141 68.596572 
L 223.383618 68.626123 
L 223.523869 59.52895 
L 223.525029 59.835175 
L 223.613118 54.19199 
L 223.745254 45.724258 
L 223.747572 45.739955 
L 224.055889 29.196784 
L 224.057048 29.250161 
L 224.058207 29.303723 
L 224.121957 27.299961 
L 224.125435 27.319725 
L 224.188025 25.687755 
L 224.127753 27.365713 
L 224.233229 27.328958 
L 224.774527 139.635062 
L 224.775687 139.629956 
L 224.781482 140.098816 
L 224.951874 154.270791 
L 224.95651 154.173334 
L 225.013306 157.480006 
L 225.094441 161.007984 
L 225.131532 159.531201 
L 225.15935 156.692765 
L 225.871041 91.173974 
L 225.876836 91.313974 
L 226.24659 66.342849 
L 226.443639 53.227653 
L 226.444798 53.275244 
L 226.448276 53.120672 
L 226.592003 43.672042 
L 226.870182 28.758796 
L 227.002316 24.912204 
L 226.878295 28.765805 
L 227.038248 25.089094 
L 227.106635 36.035117 
L 227.304838 101.775436 
L 227.501884 126.977129 
L 227.503043 126.717787 
L 227.5807 134.005963 
L 227.688499 145.510643 
L 227.689657 145.335212 
L 227.820636 155.476995 
L 227.824114 155.402754 
L 227.825273 155.231985 
L 227.904091 159.542679 
L 227.906409 159.45665 
L 227.958569 162.714908 
L 228.007253 159.25938 
L 228.334118 121.634881 
L 228.335277 121.753651 
L 228.461617 109.690735 
L 228.463935 109.720198 
L 228.634325 97.690425 
L 228.637802 97.949881 
L 228.656348 96.671019 
L 228.900915 80.130889 
L 228.902074 80.225538 
L 228.962348 76.079411 
L 229.283421 54.853436 
L 229.28458 54.902603 
L 229.416719 46.540375 
L 229.766765 27.996603 
L 229.767924 28.107456 
L 229.769083 28.202473 
L 229.849059 26.277643 
L 229.857172 26.481671 
L 229.8734 26.207485 
L 229.940626 29.333838 
L 230.320805 125.600364 
L 230.321965 125.58729 
L 230.323124 125.402964 
L 230.389193 132.251366 
L 230.390352 132.053598 
L 230.556105 146.399894 
L 230.557264 146.346697 
L 230.594356 149.636776 
L 230.7972 163.018296 
L 230.853995 159.469098 
L 230.870223 157.468978 
L 230.871382 157.604305 
L 231.057998 133.472321 
L 231.709416 80.661657 
L 231.710576 80.70744 
L 231.711735 80.858763 
L 231.783598 76.132979 
L 231.784757 76.246059 
L 231.951672 64.985961 
L 231.952831 65.152914 
L 232.333023 42.148226 
L 232.334182 42.187575 
L 232.33766 42.212765 
L 232.344615 41.436657 
L 232.345774 41.573639 
L 232.498777 32.800913 
L 232.501095 33.033689 
L 232.58223 28.930116 
L 232.583389 29.034738 
L 232.715527 23.379498 
L 232.729437 23.10958 
L 232.783913 24.690479 
L 232.841868 57.678114 
L 233.062097 111.285295 
L 233.217416 128.491328 
L 233.428374 147.124539 
L 233.429534 146.576307 
L 233.52342 154.350991 
L 233.649762 161.813389 
L 233.684535 159.016422 
L 234.198011 106.00675 
L 234.19917 106.053602 
L 234.9352 56.367577 
L 235.5391 23.273139 
L 234.938677 56.620387 
L 235.540259 23.322379 
L 235.581985 22.220377 
L 235.656169 33.032607 
L 235.846263 100.215633 
L 235.847422 99.76752 
L 235.927401 111.739443 
L 236.49188 159.955416 
L 236.641406 148.473699 
L 236.496516 163.322967 
L 236.643724 148.650705 
L 236.941615 115.895859 
L 236.942774 115.921905 
L 236.945092 116.242897 
L 237.01116 110.355888 
L 237.24761 92.870948 
L 237.249929 92.876634 
L 237.251088 92.965778 
L 237.304408 88.840377 
L 237.307885 89.119918 
L 237.457408 79.231502 
L 237.458567 79.604772 
L 237.459726 79.711891 
L 237.522316 75.408019 
L 237.740225 59.050956 
L 237.742544 59.080304 
L 237.820205 54.622171 
L 237.967414 45.00229 
L 237.969732 45.099687 
L 238.406713 24.74452 
L 238.409032 24.897864 
L 238.846011 123.126818 
L 238.4241 23.828683 
L 238.84717 123.022635 
L 238.852965 122.633407 
L 238.916713 129.48798 
L 238.919032 129.335005 
L 238.931782 130.213057 
L 239.162444 150.991061 
L 239.163603 150.884937 
L 239.286468 157.665724 
L 239.288787 157.587644 
L 239.362969 162.584477 
L 239.404697 160.408216 
L 240.159261 89.287235 
L 241.281257 24.377018 
L 241.334576 25.820871 
L 241.784305 130.083732 
L 241.785464 129.968602 
L 241.837625 135.716975 
L 241.838784 135.610026 
L 242.149412 159.5803 
L 242.150571 159.484612 
L 242.15173 159.437407 
L 242.188822 162.094896 
L 242.194617 162.052084 
L 242.210844 162.872474 
L 242.275751 157.677372 
L 242.96425 92.876984 
L 242.965409 92.930742 
L 243.009453 89.83692 
L 243.010612 89.9896 
L 243.187951 77.721097 
L 243.695629 43.869714 
L 243.192587 77.731153 
L 243.696788 44.112539 
L 243.697947 44.421189 
L 243.787197 38.616069 
L 243.788356 38.824334 
L 243.868332 33.85246 
L 243.871808 33.944801 
L 244.016695 27.787326 
L 244.017854 27.788607 
L 244.019013 27.916968 
L 244.104784 25.265643 
L 244.105943 25.314281 
L 244.126807 24.770485 
L 244.19867 30.310474 
L 244.455983 111.626603 
L 244.656508 132.791489 
L 244.657668 132.788929 
L 244.954396 157.744677 
L 244.955555 157.397611 
L 245.043644 163.433986 
L 245.045962 163.390879 
L 245.047121 163.975043 
L 245.141005 155.396403 
L 245.499162 114.546373 
L 245.500321 114.617218 
L 245.501481 114.729514 
L 245.559434 109.72864 
L 246.919045 23.803729 
L 247.009457 24.767457 
L 246.974684 23.270554 
L 247.03032 24.235196 
L 247.04191 26.75499 
L 247.505542 133.230996 
L 247.506702 133.099163 
L 247.563497 138.730351 
L 247.565815 138.645993 
L 247.70143 148.958135 
L 247.703748 148.934586 
L 247.704907 148.835284 
L 247.76402 153.128088 
L 247.766338 152.947555 
L 247.897317 163.613941 
L 247.927453 162.050914 
L 247.991205 155.787829 
L 248.275183 122.39616 
L 248.276342 122.473661 
L 249.18391 55.164232 
L 249.185069 55.619934 
L 249.186228 55.713116 
L 249.245342 51.986358 
L 249.248819 51.997845 
L 249.448186 39.769764 
L 249.449345 39.960324 
L 249.525846 34.721488 
L 249.527006 34.869923 
L 249.662619 28.091478 
L 249.664937 28.16752 
L 249.787803 22.91118 
L 249.788961 23.009286 
L 249.837643 21.280026 
L 249.892121 24.687849 
L 250.312873 128.839804 
L 250.314032 128.686264 
L 250.473986 143.71923 
L 250.502963 146.292475 
L 250.643214 155.190441 
L 250.647851 155.126468 
L 250.74985 161.919612 
L 250.650169 155.053197 
L 250.796213 159.798784 
L 250.992103 134.159351 
L 250.993262 134.21728 
L 251.608747 85.038601 
L 251.611065 85.088515 
L 251.612224 85.153001 
L 251.655112 81.857262 
L 251.658589 81.971845 
L 251.782614 73.082714 
L 251.784932 73.235186 
L 252.03762 56.259364 
L 252.03878 56.806042 
L 252.134984 50.107997 
L 252.136143 50.739201 
L 252.2706 41.80963 
L 252.272918 42.03843 
L 252.349419 37.147467 
L 252.354055 37.149836 
L 252.515165 27.527307 
L 252.516324 28.128452 
L 252.616006 24.075817 
L 252.619483 24.127734 
L 252.672801 22.693908 
L 252.62296 24.431951 
L 252.728438 23.664304 
L 252.904619 94.78318 
L 253.303349 142.178881 
L 253.305667 142.101663 
L 253.341598 144.953316 
L 253.513147 158.660428 
L 253.514306 158.334453 
L 253.595442 162.803285 
L 253.61051 162.342523 
L 253.612828 162.433334 
L 253.655715 159.459294 
L 253.99069 120.547814 
L 254.899419 56.446878 
L 254.904056 56.647509 
L 254.905215 56.739002 
L 254.960853 52.505382 
L 254.962012 52.545035 
L 255.274968 33.33922 
L 255.276127 33.549855 
L 255.277286 33.65117 
L 255.347992 30.229167 
L 255.349151 30.322843 
L 255.513743 24.276632 
L 255.562424 24.892895 
L 255.86495 112.985502 
L 255.867268 112.925841 
L 255.895086 116.362213 
L 256.037652 131.886098 
L 256.042289 131.74331 
L 256.049243 132.857238 
L 256.051561 132.666612 
L 256.357563 156.167324 
L 256.359882 155.974376 
L 256.434064 161.024269 
L 256.459563 161.595834 
L 256.483905 160.34033 
L 256.693705 133.347926 
L 256.694864 133.42229 
L 256.733114 128.760163 
L 258.266597 24.167598 
L 258.267756 24.431595 
L 258.359324 21.024726 
L 258.362801 21.244723 
L 258.379029 20.438914 
L 258.450893 28.770633 
L 258.705896 109.429486 
L 258.707055 109.101671 
L 258.781237 119.39282 
L 258.991033 139.962397 
L 258.992192 139.740888 
L 259.064057 146.929638 
L 259.066375 146.643489 
L 259.2669 158.898444 
L 259.268059 158.762183 
L 259.307468 163.113284 
L 259.372376 157.264073 
L 259.374695 157.722176 
L 259.542762 135.194601 
L 259.568262 131.947559 
L 259.54624 135.325878 
L 259.569422 132.22736 
L 259.705033 117.631917 
L 259.707351 117.653707 
L 259.940329 99.607678 
L 259.941488 100.419666 
L 260.04001 92.873374 
L 260.041169 93.037151 
L 260.242851 78.197676 
L 260.246329 78.446974 
L 260.247488 78.488916 
L 260.284578 75.821087 
L 260.425986 66.526443 
L 260.429463 66.793534 
L 260.492053 61.346025 
L 260.49669 61.479844 
L 260.62651 52.529459 
L 260.627669 52.840127 
L 260.628829 53.332731 
L 260.723874 47.310004 
L 260.725033 47.3997 
L 260.726192 47.403151 
L 260.852534 39.407106 
L 260.853693 39.438154 
L 260.884989 37.345906 
L 260.889625 37.665471 
L 261.026396 29.657078 
L 261.027556 30.045643 
L 261.120283 25.518701 
L 261.124919 25.863325 
L 261.217647 23.170256 
L 261.254737 24.115518 
L 261.871375 144.608219 
L 261.872534 143.979592 
L 261.873693 143.144809 
L 261.974531 150.02355 
L 261.97569 149.839921 
L 262.049872 155.52624 
L 262.051031 155.504103 
L 262.158826 163.182578 
L 262.055668 155.227027 
L 262.213303 159.067076 
L 262.418459 132.954759 
L 262.419618 133.219101 
L 262.488005 124.490761 
L 262.491482 124.635623 
L 262.657233 107.689676 
L 262.658392 107.702731 
L 262.659551 107.754946 
L 262.700118 104.654647 
L 262.701277 105.083793 
L 262.83689 95.677013 
L 262.83805 96.16327 
L 262.933095 89.798048 
L 263.130141 76.464221 
L 263.1313 76.844235 
L 263.221709 70.702197 
L 263.222868 70.822584 
L 263.326029 63.37697 
L 263.327188 63.435894 
L 263.501054 49.877795 
L 263.502213 49.943246 
L 263.552055 46.507352 
L 263.557851 46.571533 
L 263.555533 46.36104 
L 263.55901 46.447158 
L 263.698104 37.177808 
L 263.699263 37.238001 
L 263.708536 36.501905 
L 263.709695 36.755188 
L 263.846468 29.237596 
L 263.712013 36.803051 
L 263.847627 29.255727 
L 263.849945 29.426877 
L 263.899788 26.946638 
L 263.900947 27.184147 
L 264.013379 23.689692 
L 264.02497 23.781794 
L 264.057425 23.274143 
L 264.111902 24.207496 
L 264.11422 23.876435 
L 264.670586 138.951665 
L 264.671745 138.681482 
L 264.748246 146.390338 
L 264.963835 160.211841 
L 264.964995 160.201155 
L 264.966154 160.186484 
L 264.984699 161.342212 
L 264.988176 161.119072 
L 265.002084 163.656385 
L 265.079743 157.310042 
L 265.080903 157.339182 
L 265.099447 155.086207 
L 265.38806 121.528306 
L 265.389219 121.761785 
L 265.462242 114.618794 
L 265.463401 114.626939 
L 265.729991 93.170821 
L 265.732309 93.478504 
L 265.740423 92.543505 
L 265.742741 92.679973 
L 265.908493 81.311568 
L 265.909652 81.462514 
L 265.980357 76.64924 
L 265.981516 76.799824 
L 266.112495 68.057596 
L 266.113654 68.117143 
L 266.115972 68.301755 
L 266.149586 65.662543 
L 266.155381 65.993395 
L 266.278246 57.697131 
L 266.894884 24.745188 
L 266.280565 58.132414 
L 266.90184 25.106084 
L 266.947044 24.602206 
L 266.984135 25.796021 
L 267.1835 99.798711 
L 267.452408 133.398056 
L 267.453567 133.313353 
L 267.468636 135.400541 
L 267.468636 135.400541 
" clip-path="url(#p5327c46027)" style="fill: none; stroke: #1f77b4; stroke-width: 1.5; stroke-linecap: square"/>
   </g>
   <g id="patch_3">
    <path d="M 63.11 174.04 
L 63.11 10.8 
" style="fill: none; stroke: #000000; stroke-width: 0.8; stroke-linejoin: miter; stroke-linecap: square"/>
   </g>
   <g id="patch_4">
    <path d="M 277.2 174.04 
L 277.2 10.8 
" style="fill: none; stroke: #000000; stroke-width: 0.8; stroke-linejoin: miter; stroke-linecap: square"/>
   </g>
   <g id="patch_5">
    <path d="M 63.11 174.04 
L 277.2 174.04 
" style="fill: none; stroke: #000000; stroke-width: 0.8; stroke-linejoin: miter; stroke-linecap: square"/>
   </g>
   <g id="patch_6">
    <path d="M 63.11 10.8 
L 277.2 10.8 
" style="fill: none; stroke: #000000; stroke-width: 0.8; stroke-linejoin: miter; stroke-linecap: square"/>
   </g>
  </g>
 </g>
 <defs>
  <clipPath id="p5327c46027">
   <rect x="63.11" y="10.8" width="214.09" height="163.24"/>
  </clipPath>
 </defs>
</svg>
