<?xml version="1.0" encoding="utf-8" standalone="no"?>
<!DOCTYPE svg PUBLIC "-//W3C//DTD SVG 1.1//EN"
  "http://www.w3.org/Graphics/SVG/1.1/DTD/svg11.dtd">
<svg xmlns:xlink="http://www.w3.org/1999/xlink" width="288pt" height="216pt" viewBox="0 0 288 216" xmlns="http://www.w3.org/2000/svg" version="1.1">
 <metadata>
  <rdf:RDF xmlns:dc="http://purl.org/dc/elements/1.1/" xmlns:cc="http://creativecommons.org/ns#" xmlns:rdf="http://www.w3.org/1999/02/22-rdf-syntax-ns#">
   <cc:Work>
    <dc:type rdf:resource="http://purl.org/dc/dcmitype/StillImage"/>
    <dc:date>2026-04-30T08:33:52.955949</dc:date>
    <dc:format>image/svg+xml</dc:format>
    <dc:creator>
     <cc:Agent>
      <dc:title>Matplotlib v3.10.9, https://matplotlib.org/</dc:title>
     </cc:Agent>
    </dc:creator>
   </cc:Work>
  </rdf:RDF>
 </metadata>
 <defs>
  <style type="text/css">*{stroke-linejoin: round; stroke-linecap: butt}</style>
 </defs>
 <g id="figure_1">
  <g id="patch_1">
   <path d="M 0 216 
L 288 216 
L 288 0 
L 0 0 
z
" style="fill: #ffffff"/>
  </g>
  <g id="axes_1">
   <g id="patch_2">
    <path d="M 64.28 174.04 
L 277.2 174.04 
L 277.2 10.8 
L 64.28 10.8 
z
" style="fill: #ffffff"/>
   </g>
   <g id="matplotlib.axis_1">
    <g id="xtick_1">
     <g id="line2d_1">
      <defs>
       <path id="me2d83caa7a" d="M 0 0 
L 0 3.5 
" style="stroke: #000000; stroke-width: 0.8"/>
      </defs>
      <g>
       <use xlink:href="#me2d83caa7a" x="73.958182" y="174.04" style="stroke: #000000; stroke-width: 0.8"/>
      </g>
     </g>
     <g id="text_1">
      <!-- 0 -->
      <g transform="translate(70.776932 188.638438) scale(0.1 -0.1)">
       <defs>
        <path id="DejaVuSans-30" d="M 2034 4250 
Q 1547 4250 1301 3770 
Q 1056 3291 1056 2328 
Q 1056 1369 1301 889 
Q 1547 409 2034 409 
Q 2525 409 2770 889 
Q 3016 1369 3016 2328 
Q 3016 3291 2770 3770 
Q 2525 4250 2034 4250 
z
M 2034 4750 
Q 2819 4750 3233 4129 
Q 3647 3509 3647 2328 
Q 3647 1150 3233 529 
Q 2819 -91 2034 -91 
Q 1250 -91 836 529 
Q 422 1150 422 2328 
Q 422 3509 836 4129 
Q 1250 4750 2034 4750 
z
" transform="scale(0.015625)"/>
       </defs>
       <use xlink:href="#DejaVuSans-30"/>
      </g>
     </g>
    </g>
    <g id="xtick_2">
     <g id="line2d_2">
      <g>
       <use xlink:href="#me2d83caa7a" x="107.95453" y="174.04" style="stroke: #000000; stroke-width: 0.8"/>
      </g>
     </g>
     <g id="text_2">
      <!-- 2500 -->
      <g transform="translate(95.22953 188.638438) scale(0.1 -0.1)">
       <defs>
        <path id="DejaVuSans-32" d="M 1228 531 
L 3431 531 
L 3431 0 
L 469 0 
L 469 531 
Q 828 903 1448 1529 
Q 2069 2156 2228 2338 
Q 2531 2678 2651 2914 
Q 2772 3150 2772 3378 
Q 2772 3750 2511 3984 
Q 2250 4219 1831 4219 
Q 1534 4219 1204 4116 
Q 875 4013 500 3803 
L 500 4441 
Q 881 4594 1212 4672 
Q 1544 4750 1819 4750 
Q 2544 4750 2975 4387 
Q 3406 4025 3406 3419 
Q 3406 3131 3298 2873 
Q 3191 2616 2906 2266 
Q 2828 2175 2409 1742 
Q 1991 1309 1228 531 
z
" transform="scale(0.015625)"/>
        <path id="DejaVuSans-35" d="M 691 4666 
L 3169 4666 
L 3169 4134 
L 1269 4134 
L 1269 2991 
Q 1406 3038 1543 3061 
Q 1681 3084 1819 3084 
Q 2600 3084 3056 2656 
Q 3513 2228 3513 1497 
Q 3513 744 3044 326 
Q 2575 -91 1722 -91 
Q 1428 -91 1123 -41 
Q 819 9 494 109 
L 494 744 
Q 775 591 1075 516 
Q 1375 441 1709 441 
Q 2250 441 2565 725 
Q 2881 1009 2881 1497 
Q 2881 1984 2565 2268 
Q 2250 2553 1709 2553 
Q 1456 2553 1204 2497 
Q 953 2441 691 2322 
L 691 4666 
z
" transform="scale(0.015625)"/>
       </defs>
       <use xlink:href="#DejaVuSans-32"/>
       <use xlink:href="#DejaVuSans-35" transform="translate(63.623047 0)"/>
       <use xlink:href="#DejaVuSans-30" transform="translate(127.246094 0)"/>
       <use xlink:href="#DejaVuSans-30" transform="translate(190.869141 0)"/>
      </g>
     </g>
    </g>
    <g id="xtick_3">
     <g id="line2d_3">
      <g>
       <use xlink:href="#me2d83caa7a" x="141.950877" y="174.04" style="stroke: #000000; stroke-width: 0.8"/>
      </g>
     </g>
     <g id="text_3">
      <!-- 5000 -->
      <g transform="translate(129.225877 188.638438) scale(0.1 -0.1)">
       <use xlink:href="#DejaVuSans-35"/>
       <use xlink:href="#DejaVuSans-30" transform="translate(63.623047 0)"/>
       <use xlink:href="#DejaVuSans-30" transform="translate(127.246094 0)"/>
       <use xlink:href="#DejaVuSans-30" transform="translate(190.869141 0)"/>
      </g>
     </g>
    </g>
    <g id="xtick_4">
     <g id="line2d_4">
      <g>
       <use xlink:href="#me2d83caa7a" x="175.947225" y="174.04" style="stroke: #000000; stroke-width: 0.8"/>
      </g>
     </g>
     <g id="text_4">
      <!-- 7500 -->
      <g transform="translate(163.222225 188.638438) scale(0.1 -0.1)">
       <defs>
        <path id="DejaVuSans-37" d="M 525 4666 
L 3525 4666 
L 3525 4397 
L 1831 0 
L 1172 0 
L 2766 4134 
L 525 4134 
L 525 4666 
z
" transform="scale(0.015625)"/>
       </defs>
       <use xlink:href="#DejaVuSans-37"/>
       <use xlink:href="#DejaVuSans-35" transform="translate(63.623047 0)"/>
       <use xlink:href="#DejaVuSans-30" transform="translate(127.246094 0)"/>
       <use xlink:href="#DejaVuSans-30" transform="translate(190.869141 0)"/>
      </g>
     </g>
    </g>
    <g id="xtick_5">
     <g id="line2d_5">
      <g>
       <use xlink:href="#me2d83caa7a" x="209.943573" y="174.04" style="stroke: #000000; stroke-width: 0.8"/>
      </g>
     </g>
     <g id="text_5">
      <!-- 10000 -->
      <g transform="translate(194.037323 188.638438) scale(0.1 -0.1)">
       <defs>
        <path id="DejaVuSans-31" d="M 794 531 
L 1825 531 
L 1825 4091 
L 703 3866 
L 703 4441 
L 1819 4666 
L 2450 4666 
L 2450 531 
L 3481 531 
L 3481 0 
L 794 0 
L 794 531 
z
" transform="scale(0.015625)"/>
       </defs>
       <use xlink:href="#DejaVuSans-31"/>
       <use xlink:href="#DejaVuSans-30" transform="translate(63.623047 0)"/>
       <use xlink:href="#DejaVuSans-30" transform="translate(127.246094 0)"/>
       <use xlink:href="#DejaVuSans-30" transform="translate(190.869141 0)"/>
       <use xlink:href="#DejaVuSans-30" transform="translate(254.492188 0)"/>
      </g>
     </g>
    </g>
    <g id="xtick_6">
     <g id="line2d_6">
      <g>
       <use xlink:href="#me2d83caa7a" x="243.939921" y="174.04" style="stroke: #000000; stroke-width: 0.8"/>
      </g>
     </g>
     <g id="text_6">
      <!-- 12500 -->
      <g transform="translate(228.033671 188.638438) scale(0.1 -0.1)">
       <use xlink:href="#DejaVuSans-31"/>
       <use xlink:href="#DejaVuSans-32" transform="translate(63.623047 0)"/>
       <use xlink:href="#DejaVuSans-35" transform="translate(127.246094 0)"/>
       <use xlink:href="#DejaVuSans-30" transform="translate(190.869141 0)"/>
       <use xlink:href="#DejaVuSans-30" transform="translate(254.492188 0)"/>
      </g>
     </g>
    </g>
    <g id="text_7">
     <!-- Time (s) -->
     <g transform="translate(150.411094 202.316563) scale(0.1 -0.1)">
      <defs>
       <path id="DejaVuSans-54" d="M -19 4666 
L 3928 4666 
L 3928 4134 
L 2272 4134 
L 2272 0 
L 1638 0 
L 1638 4134 
L -19 4134 
L -19 4666 
z
" transform="scale(0.015625)"/>
       <path id="DejaVuSans-69" d="M 603 3500 
L 1178 3500 
L 1178 0 
L 603 0 
L 603 3500 
z
M 603 4863 
L 1178 4863 
L 1178 4134 
L 603 4134 
L 603 4863 
z
" transform="scale(0.015625)"/>
       <path id="DejaVuSans-6d" d="M 3328 2828 
Q 3544 3216 3844 3400 
Q 4144 3584 4550 3584 
Q 5097 3584 5394 3201 
Q 5691 2819 5691 2113 
L 5691 0 
L 5113 0 
L 5113 2094 
Q 5113 2597 4934 2840 
Q 4756 3084 4391 3084 
Q 3944 3084 3684 2787 
Q 3425 2491 3425 1978 
L 3425 0 
L 2847 0 
L 2847 2094 
Q 2847 2600 2669 2842 
Q 2491 3084 2119 3084 
Q 1678 3084 1418 2786 
Q 1159 2488 1159 1978 
L 1159 0 
L 581 0 
L 581 3500 
L 1159 3500 
L 1159 2956 
Q 1356 3278 1631 3431 
Q 1906 3584 2284 3584 
Q 2666 3584 2933 3390 
Q 3200 3197 3328 2828 
z
" transform="scale(0.015625)"/>
       <path id="DejaVuSans-65" d="M 3597 1894 
L 3597 1613 
L 953 1613 
Q 991 1019 1311 708 
Q 1631 397 2203 397 
Q 2534 397 2845 478 
Q 3156 559 3463 722 
L 3463 178 
Q 3153 47 2828 -22 
Q 2503 -91 2169 -91 
Q 1331 -91 842 396 
Q 353 884 353 1716 
Q 353 2575 817 3079 
Q 1281 3584 2069 3584 
Q 2775 3584 3186 3129 
Q 3597 2675 3597 1894 
z
M 3022 2063 
Q 3016 2534 2758 2815 
Q 2500 3097 2075 3097 
Q 1594 3097 1305 2825 
Q 1016 2553 972 2059 
L 3022 2063 
z
" transform="scale(0.015625)"/>
       <path id="DejaVuSans-20" transform="scale(0.015625)"/>
       <path id="DejaVuSans-28" d="M 1984 4856 
Q 1566 4138 1362 3434 
Q 1159 2731 1159 2009 
Q 1159 1288 1364 580 
Q 1569 -128 1984 -844 
L 1484 -844 
Q 1016 -109 783 600 
Q 550 1309 550 2009 
Q 550 2706 781 3412 
Q 1013 4119 1484 4856 
L 1984 4856 
z
" transform="scale(0.015625)"/>
       <path id="DejaVuSans-73" d="M 2834 3397 
L 2834 2853 
Q 2591 2978 2328 3040 
Q 2066 3103 1784 3103 
Q 1356 3103 1142 2972 
Q 928 2841 928 2578 
Q 928 2378 1081 2264 
Q 1234 2150 1697 2047 
L 1894 2003 
Q 2506 1872 2764 1633 
Q 3022 1394 3022 966 
Q 3022 478 2636 193 
Q 2250 -91 1575 -91 
Q 1294 -91 989 -36 
Q 684 19 347 128 
L 347 722 
Q 666 556 975 473 
Q 1284 391 1588 391 
Q 1994 391 2212 530 
Q 2431 669 2431 922 
Q 2431 1156 2273 1281 
Q 2116 1406 1581 1522 
L 1381 1569 
Q 847 1681 609 1914 
Q 372 2147 372 2553 
Q 372 3047 722 3315 
Q 1072 3584 1716 3584 
Q 2034 3584 2315 3537 
Q 2597 3491 2834 3397 
z
" transform="scale(0.015625)"/>
       <path id="DejaVuSans-29" d="M 513 4856 
L 1013 4856 
Q 1481 4119 1714 3412 
Q 1947 2706 1947 2009 
Q 1947 1309 1714 600 
Q 1481 -109 1013 -844 
L 513 -844 
Q 928 -128 1133 580 
Q 1338 1288 1338 2009 
Q 1338 2731 1133 3434 
Q 928 4138 513 4856 
z
" transform="scale(0.015625)"/>
      </defs>
      <use xlink:href="#DejaVuSans-54"/>
      <use xlink:href="#DejaVuSans-69" transform="translate(57.958984 0)"/>
      <use xlink:href="#DejaVuSans-6d" transform="translate(85.742188 0)"/>
      <use xlink:href="#DejaVuSans-65" transform="translate(183.154297 0)"/>
      <use xlink:href="#DejaVuSans-20" transform="translate(244.677734 0)"/>
      <use xlink:href="#DejaVuSans-28" transform="translate(276.464844 0)"/>
      <use xlink:href="#DejaVuSans-73" transform="translate(315.478516 0)"/>
      <use xlink:href="#DejaVuSans-29" transform="translate(367.578125 0)"/>
     </g>
    </g>
   </g>
   <g id="matplotlib.axis_2">
    <g id="ytick_1">
     <g id="line2d_7">
      <defs>
       <path id="m5e7ab3d7fb" d="M 0 0 
L -3.5 0 
" style="stroke: #000000; stroke-width: 0.8"/>
      </defs>
      <g>
       <use xlink:href="#m5e7ab3d7fb" x="64.28" y="173.359943" style="stroke: #000000; stroke-width: 0.8"/>
      </g>
     </g>
     <g id="text_8">
      <!-- 14000 -->
      <g transform="translate(25.4675 177.159161) scale(0.1 -0.1)">
       <defs>
        <path id="DejaVuSans-34" d="M 2419 4116 
L 825 1625 
L 2419 1625 
L 2419 4116 
z
M 2253 4666 
L 3047 4666 
L 3047 1625 
L 3713 1625 
L 3713 1100 
L 3047 1100 
L 3047 0 
L 2419 0 
L 2419 1100 
L 313 1100 
L 313 1709 
L 2253 4666 
z
" transform="scale(0.015625)"/>
       </defs>
       <use xlink:href="#DejaVuSans-31"/>
       <use xlink:href="#DejaVuSans-34" transform="translate(63.623047 0)"/>
       <use xlink:href="#DejaVuSans-30" transform="translate(127.246094 0)"/>
       <use xlink:href="#DejaVuSans-30" transform="translate(190.869141 0)"/>
       <use xlink:href="#DejaVuSans-30" transform="translate(254.492188 0)"/>
      </g>
     </g>
    </g>
    <g id="ytick_2">
     <g id="line2d_8">
      <g>
       <use xlink:href="#m5e7ab3d7fb" x="64.28" y="142.378934" style="stroke: #000000; stroke-width: 0.8"/>
      </g>
     </g>
     <g id="text_9">
      <!-- 14500 -->
      <g transform="translate(25.4675 146.178153) scale(0.1 -0.1)">
       <use xlink:href="#DejaVuSans-31"/>
       <use xlink:href="#DejaVuSans-34" transform="translate(63.623047 0)"/>
       <use xlink:href="#DejaVuSans-35" transform="translate(127.246094 0)"/>
       <use xlink:href="#DejaVuSans-30" transform="translate(190.869141 0)"/>
       <use xlink:href="#DejaVuSans-30" transform="translate(254.492188 0)"/>
      </g>
     </g>
    </g>
    <g id="ytick_3">
     <g id="line2d_9">
      <g>
       <use xlink:href="#m5e7ab3d7fb" x="64.28" y="111.397925" style="stroke: #000000; stroke-width: 0.8"/>
      </g>
     </g>
     <g id="text_10">
      <!-- 15000 -->
      <g transform="translate(25.4675 115.197144) scale(0.1 -0.1)">
       <use xlink:href="#DejaVuSans-31"/>
       <use xlink:href="#DejaVuSans-35" transform="translate(63.623047 0)"/>
       <use xlink:href="#DejaVuSans-30" transform="translate(127.246094 0)"/>
       <use xlink:href="#DejaVuSans-30" transform="translate(190.869141 0)"/>
       <use xlink:href="#DejaVuSans-30" transform="translate(254.492188 0)"/>
      </g>
     </g>
    </g>
    <g id="ytick_4">
     <g id="line2d_10">
      <g>
       <use xlink:href="#m5e7ab3d7fb" x="64.28" y="80.416917" style="stroke: #000000; stroke-width: 0.8"/>
      </g>
     </g>
     <g id="text_11">
      <!-- 15500 -->
      <g transform="translate(25.4675 84.216135) scale(0.1 -0.1)">
       <use xlink:href="#DejaVuSans-31"/>
       <use xlink:href="#DejaVuSans-35" transform="translate(63.623047 0)"/>
       <use xlink:href="#DejaVuSans-35" transform="translate(127.246094 0)"/>
       <use xlink:href="#DejaVuSans-30" transform="translate(190.869141 0)"/>
       <use xlink:href="#DejaVuSans-30" transform="translate(254.492188 0)"/>
      </g>
     </g>
    </g>
    <g id="ytick_5">
     <g id="line2d_11">
      <g>
       <use xlink:href="#m5e7ab3d7fb" x="64.28" y="49.435908" style="stroke: #000000; stroke-width: 0.8"/>
      </g>
     </g>
     <g id="text_12">
      <!-- 16000 -->
      <g transform="translate(25.4675 53.235127) scale(0.1 -0.1)">
       <defs>
        <path id="DejaVuSans-36" d="M 2113 2584 
Q 1688 2584 1439 2293 
Q 1191 2003 1191 1497 
Q 1191 994 1439 701 
Q 1688 409 2113 409 
Q 2538 409 2786 701 
Q 3034 994 3034 1497 
Q 3034 2003 2786 2293 
Q 2538 2584 2113 2584 
z
M 3366 4563 
L 3366 3988 
Q 3128 4100 2886 4159 
Q 2644 4219 2406 4219 
Q 1781 4219 1451 3797 
Q 1122 3375 1075 2522 
Q 1259 2794 1537 2939 
Q 1816 3084 2150 3084 
Q 2853 3084 3261 2657 
Q 3669 2231 3669 1497 
Q 3669 778 3244 343 
Q 2819 -91 2113 -91 
Q 1303 -91 875 529 
Q 447 1150 447 2328 
Q 447 3434 972 4092 
Q 1497 4750 2381 4750 
Q 2619 4750 2861 4703 
Q 3103 4656 3366 4563 
z
" transform="scale(0.015625)"/>
       </defs>
       <use xlink:href="#DejaVuSans-31"/>
       <use xlink:href="#DejaVuSans-36" transform="translate(63.623047 0)"/>
       <use xlink:href="#DejaVuSans-30" transform="translate(127.246094 0)"/>
       <use xlink:href="#DejaVuSans-30" transform="translate(190.869141 0)"/>
       <use xlink:href="#DejaVuSans-30" transform="translate(254.492188 0)"/>
      </g>
     </g>
    </g>
    <g id="ytick_6">
     <g id="line2d_12">
      <g>
       <use xlink:href="#m5e7ab3d7fb" x="64.28" y="18.454899" style="stroke: #000000; stroke-width: 0.8"/>
      </g>
     </g>
     <g id="text_13">
      <!-- 16500 -->
      <g transform="translate(25.4675 22.254118) scale(0.1 -0.1)">
       <use xlink:href="#DejaVuSans-31"/>
       <use xlink:href="#DejaVuSans-36" transform="translate(63.623047 0)"/>
       <use xlink:href="#DejaVuSans-35" transform="translate(127.246094 0)"/>
       <use xlink:href="#DejaVuSans-30" transform="translate(190.869141 0)"/>
       <use xlink:href="#DejaVuSans-30" transform="translate(254.492188 0)"/>
      </g>
     </g>
    </g>
    <g id="text_14">
     <!-- $\Delta R / R$ -->
     <g transform="translate(19.387813 104.42) rotate(-90) scale(0.1 -0.1)">
      <defs>
       <path id="DejaVuSans-394" d="M 2188 4044 
L 906 525 
L 3472 525 
L 2188 4044 
z
M 50 0 
L 1831 4666 
L 2547 4666 
L 4325 0 
L 50 0 
z
" transform="scale(0.015625)"/>
       <path id="DejaVuSans-Oblique-52" d="M 1613 4147 
L 1294 2491 
L 2106 2491 
Q 2584 2491 2879 2755 
Q 3175 3019 3175 3444 
Q 3175 3784 2976 3965 
Q 2778 4147 2406 4147 
L 1613 4147 
z
M 2772 2241 
Q 2972 2194 3105 2009 
Q 3238 1825 3413 1275 
L 3809 0 
L 3144 0 
L 2778 1197 
Q 2638 1659 2453 1815 
Q 2269 1972 1888 1972 
L 1191 1972 
L 806 0 
L 172 0 
L 1081 4666 
L 2503 4666 
Q 3150 4666 3495 4373 
Q 3841 4081 3841 3531 
Q 3841 3044 3547 2687 
Q 3253 2331 2772 2241 
z
" transform="scale(0.015625)"/>
       <path id="DejaVuSans-2f" d="M 1625 4666 
L 2156 4666 
L 531 -594 
L 0 -594 
L 1625 4666 
z
" transform="scale(0.015625)"/>
      </defs>
      <use xlink:href="#DejaVuSans-394" transform="translate(0 0.09375)"/>
      <use xlink:href="#DejaVuSans-Oblique-52" transform="translate(68.408203 0.09375)"/>
      <use xlink:href="#DejaVuSans-2f" transform="translate(137.890625 0.09375)"/>
      <use xlink:href="#DejaVuSans-Oblique-52" transform="translate(169.832031 0.09375)"/>
     </g>
    </g>
   </g>
   <g id="line2d_13">
    <path d="M 73.958182 131.436284 
L 74.026752 131.221837 
L 74.041365 131.957939 
L 74.456161 156.20669 
L 74.866477 166.62 
L 74.923808 164.654098 
L 75.318389 153.220956 
L 75.319513 153.240803 
L 75.62984 146.564698 
L 75.630965 146.584424 
L 75.68717 145.696927 
L 75.690542 145.757619 
L 75.842298 143.123749 
L 76.290826 135.089502 
L 76.467319 132.241609 
L 76.468443 132.244695 
L 76.487554 131.995576 
L 76.665164 130.253318 
L 76.777576 130.484768 
L 76.723618 130.212111 
L 76.7787 130.470064 
L 76.79219 130.111846 
L 76.811301 131.920423 
L 77.104781 151.885565 
L 77.105906 151.870498 
L 77.134058 152.931356 
L 77.336407 158.740416 
L 77.57023 164.093777 
L 77.623064 165.622678 
L 77.681519 164.212558 
L 77.88274 157.357586 
L 77.883864 157.373197 
L 77.920962 156.357602 
L 78.669642 140.264904 
L 78.670766 140.276643 
L 78.705614 139.475191 
L 78.71011 139.387088 
L 78.912458 135.898578 
L 78.913582 135.94154 
L 78.9889 134.636889 
L 78.990024 134.657462 
L 79.133915 132.120408 
L 79.135039 132.167545 
L 79.136163 132.202762 
L 79.206988 130.977317 
L 79.374491 128.926943 
L 79.375615 129.001371 
L 79.443064 128.655134 
L 79.482409 128.751465 
L 79.485782 128.728714 
L 79.574588 129.986107 
L 79.609436 134.939619 
L 79.790424 147.596269 
L 79.791548 147.562505 
L 79.836512 149.548436 
L 80.406469 163.955694 
L 80.467176 162.229471 
L 80.729104 153.741824 
L 80.730229 153.807537 
L 80.80667 151.817673 
L 81.114687 144.609203 
L 81.116935 144.633408 
L 81.165273 143.719528 
L 81.166398 143.71983 
L 81.363122 140.407525 
L 81.44069 138.452757 
L 81.610436 135.149043 
L 81.872357 131.083936 
L 81.873482 131.091923 
L 81.904957 130.537774 
L 82.105043 127.75844 
L 82.106167 127.773748 
L 82.171359 127.233699 
L 82.173607 127.235393 
L 82.264653 126.72463 
L 82.175855 127.24931 
L 82.292756 126.836633 
L 82.319733 126.740786 
L 82.433256 138.775213 
L 82.647936 149.278078 
L 82.64906 149.275779 
L 82.655804 149.510556 
L 82.826649 154.46183 
L 82.873852 155.772169 
L 83.072789 160.04888 
L 83.073913 160.028367 
L 83.122242 161.118208 
L 83.172818 162.029365 
L 83.220023 160.725742 
L 83.711172 146.517622 
L 83.712296 146.520708 
L 83.714544 146.53644 
L 83.724658 146.291376 
L 83.895493 142.821381 
L 83.896616 142.839474 
L 83.89774 142.844073 
L 83.911227 142.526881 
L 84.050591 139.518334 
L 84.051715 139.571038 
L 84.985673 125.227315 
L 85.027257 125.120697 
L 85.125037 129.819221 
L 85.321718 144.598736 
L 85.322842 144.591716 
L 85.602693 153.585648 
L 85.657765 155.103294 
L 85.658889 155.085262 
L 85.810613 158.261965 
L 85.811737 158.250045 
L 85.84995 159.024993 
L 85.935367 160.901402 
L 85.974702 159.858576 
L 86.055623 157.23112 
L 86.525418 143.739738 
L 86.526542 143.767089 
L 86.581615 142.416934 
L 86.741209 139.328999 
L 87.019938 134.144278 
L 87.021062 134.151479 
L 87.048035 133.613003 
L 87.231236 130.114146 
L 87.232359 130.118926 
L 87.249218 129.708004 
L 87.250342 129.710787 
L 87.251466 129.710122 
L 87.252589 129.735718 
L 87.253713 129.721074 
L 87.381841 127.396349 
L 87.384089 127.463515 
L 87.4504 126.310198 
L 87.453772 126.31643 
L 87.64933 123.638509 
L 87.657198 123.690004 
L 87.73812 123.104874 
L 87.74936 123.2291 
L 87.753855 123.185957 
L 87.829157 123.528382 
L 87.847141 123.41783 
L 88.418095 153.361641 
L 88.702447 159.384059 
L 88.420343 153.358676 
L 88.764261 157.445628 
L 88.93285 151.67481 
L 89.134034 145.94774 
L 89.316109 141.938665 
L 89.317233 142.016601 
L 89.398154 139.937364 
L 90.514202 121.223565 
L 90.609737 121.565444 
L 90.650198 126.319335 
L 90.868246 141.491195 
L 91.103149 149.33526 
L 91.104273 149.326727 
L 91.125628 149.945561 
L 91.288597 153.597629 
L 91.289721 153.584257 
L 91.456064 156.778386 
L 91.50327 155.577207 
L 91.699959 149.136969 
L 91.713447 148.702388 
L 91.959585 141.939088 
L 92.111318 138.260638 
L 92.269796 135.35163 
L 92.27092 135.355806 
L 92.287779 134.994078 
L 92.440635 131.944627 
L 92.441759 131.98299 
L 92.512569 130.771403 
L 92.514816 130.790766 
L 92.665423 128.085132 
L 92.666547 128.092816 
L 92.694646 127.532798 
L 92.944164 123.009026 
L 92.94866 123.033351 
L 92.959899 122.767713 
L 92.961023 122.769649 
L 93.162211 119.900155 
L 93.163335 119.91734 
L 93.235266 119.323799 
L 93.294836 118.994626 
L 93.347662 119.266194 
L 93.371267 118.985791 
L 93.379134 119.511501 
L 93.946734 148.958707 
L 94.110832 152.414239 
L 94.111956 152.406857 
L 94.138932 152.966149 
L 94.141179 152.949993 
L 94.15017 153.165892 
L 94.213111 154.451967 
L 94.262566 153.222952 
L 94.594128 142.931449 
L 94.595252 142.933083 
L 94.601996 142.771642 
L 95.931634 117.30961 
L 95.932759 117.313119 
L 95.955237 117.034896 
L 96.036164 116.503922 
L 96.099105 116.555719 
L 96.166544 118.92395 
L 96.393586 137.191188 
L 96.78247 149.570521 
L 96.993772 153.400852 
L 97.019623 152.850576 
L 97.23093 145.714777 
L 98.03344 127.84751 
L 98.085142 126.606636 
L 98.427952 120.628753 
L 98.429076 120.633775 
L 98.465042 120.001751 
L 98.846068 115.200602 
L 98.852812 115.182449 
L 99.624985 149.279833 
L 99.626109 149.186647 
L 99.714907 150.963457 
L 99.765486 151.993757 
L 99.818314 150.370643 
L 100.100432 140.762657 
L 100.20721 138.196982 
L 100.363445 134.63229 
L 100.72087 127.194669 
L 100.721994 127.289791 
L 100.81079 125.414472 
L 101.094035 119.922181 
L 101.110896 119.557185 
L 101.261509 116.837029 
L 101.262633 116.854939 
L 101.310964 115.899006 
L 101.506536 113.068661 
L 101.507661 113.073985 
L 101.62343 112.387744 
L 101.654901 112.513242 
L 101.711101 114.546068 
L 101.95838 134.63707 
L 102.265223 144.205906 
L 102.539468 149.907017 
L 102.566443 149.238081 
L 102.572063 149.334352 
L 102.918247 137.728636 
L 102.921619 137.676113 
L 103.09246 133.193065 
L 103.093584 133.196635 
L 103.094707 133.205167 
L 103.117187 132.534355 
L 104.333319 111.490626 
L 104.334443 111.511018 
L 104.447967 111.671853 
L 104.411999 111.369909 
L 104.450215 111.616245 
L 104.460331 111.498734 
L 104.49405 114.669145 
L 104.751444 134.450942 
L 105.315682 149.131825 
L 105.38874 146.873964 
L 105.518 142.271771 
L 105.719196 136.15877 
L 105.73718 135.633606 
L 105.906901 131.762553 
L 106.123232 127.637057 
L 106.124452 127.648432 
L 106.286518 124.298853 
L 106.28989 124.351133 
L 106.366321 122.908943 
L 106.367445 122.963342 
L 106.545036 119.736234 
L 106.54616 119.747912 
L 106.547284 119.752814 
L 106.565267 119.392356 
L 106.569763 119.400102 
L 106.733864 115.778349 
L 106.736112 115.797471 
L 106.841768 114.10477 
L 107.11602 110.515934 
L 107.183459 110.099749 
L 107.118268 110.538686 
L 107.244153 110.351045 
L 107.2745 113.435894 
L 107.493677 131.588829 
L 107.691501 138.465706 
L 107.787041 141.041729 
L 108.015208 146.255433 
L 108.016332 146.248595 
L 108.045556 146.732733 
L 108.098383 147.725881 
L 108.148962 146.273223 
L 108.5491 133.537184 
L 109.761886 109.642718 
L 109.765258 109.676543 
L 109.766382 109.686164 
L 109.809095 109.168321 
L 109.813591 109.172859 
L 109.93723 108.280037 
L 109.94285 108.220678 
L 109.997924 108.478389 
L 110.001296 108.477481 
L 110.014783 108.326388 
L 110.498096 137.64719 
L 110.49922 137.495916 
L 110.590264 140.129422 
L 110.745375 144.055357 
L 110.747623 144.023711 
L 110.800451 145.006148 
L 110.869014 146.201277 
L 110.806071 145.000944 
L 110.911727 145.128196 
L 111.112921 137.889108 
L 111.329854 131.71941 
L 111.330977 131.722072 
L 111.338845 131.47731 
L 111.698522 123.17446 
L 111.701893 123.205562 
L 111.703018 123.255301 
L 111.772705 121.632913 
L 111.776077 121.782009 
L 111.898592 119.600087 
L 111.899716 119.659689 
L 111.977269 117.903332 
L 112.1661 114.165764 
L 112.167224 114.243579 
L 112.252647 112.673169 
L 112.254896 112.699067 
L 112.71798 106.727901 
L 112.731468 106.746054 
L 112.812395 109.619845 
L 113.03045 128.718427 
L 113.09789 131.407058 
L 113.297963 137.578814 
L 113.299087 137.537183 
L 113.363154 139.22704 
L 113.555353 143.615089 
L 113.365402 139.210944 
L 113.556477 143.614544 
L 113.647521 145.299015 
L 113.558725 143.601231 
L 113.677868 144.416117 
L 114.058897 131.770359 
L 114.060021 131.770843 
L 114.064517 131.705311 
L 114.257841 126.746353 
L 114.258966 126.76747 
L 114.302802 125.561874 
L 114.303925 125.575246 
L 114.471399 121.970437 
L 114.473647 121.980239 
L 115.112076 109.40431 
L 115.1132 109.444246 
L 115.189629 108.244458 
L 115.190753 108.335465 
L 115.31327 106.731592 
L 115.31889 106.757551 
L 115.388581 105.950834 
L 115.504353 104.958595 
L 115.515592 105.022857 
L 115.54032 105.1348 
L 115.541444 105.128809 
L 115.645975 116.31604 
L 115.925848 132.127972 
L 116.402426 143.979055 
L 116.406922 143.482512 
L 116.408046 145.359404 
L 116.515953 141.111496 
L 116.684552 135.230005 
L 116.891369 128.784382 
L 116.893617 128.836118 
L 116.902609 128.497082 
L 116.903733 128.503617 
L 117.057722 124.967909 
L 117.333102 118.80753 
L 117.334226 118.82774 
L 117.384806 117.773841 
L 117.73887 111.169259 
L 117.739993 111.181966 
L 117.780458 110.407622 
L 118.301995 102.4072 
L 118.323351 102.592057 
L 118.405402 112.4039 
L 118.622333 127.05229 
L 118.636945 127.635544 
L 118.86624 134.991053 
L 118.870736 135.092164 
L 119.075309 139.68637 
L 119.178719 146.45336 
L 119.237168 141.473466 
L 119.459722 132.86371 
L 119.776696 125.310818 
L 119.77782 125.343615 
L 120.100409 118.283697 
L 120.101533 118.294467 
L 120.136377 117.683197 
L 120.267886 115.119035 
L 120.26901 115.137974 
L 120.270134 115.166414 
L 120.333078 113.982419 
L 120.49943 110.729897 
L 120.501678 110.770136 
L 120.69276 106.831675 
L 120.693884 106.851462 
L 120.747838 105.900249 
L 120.750086 105.904424 
L 120.905196 103.74132 
L 120.907443 103.762619 
L 120.951279 103.246774 
L 120.952403 103.256939 
L 121.061434 102.506255 
L 120.955776 103.280901 
L 121.076048 102.63629 
L 121.095155 102.521442 
L 121.089535 102.669631 
L 121.101899 102.540261 
L 121.218792 116.805261 
L 121.451464 129.172311 
L 121.453712 129.163537 
L 121.462703 129.502391 
L 121.63355 134.489245 
L 121.901063 140.670137 
L 121.902187 140.628749 
L 121.951644 141.767301 
L 121.953892 143.856099 
L 122.060674 138.773337 
L 122.252883 131.692362 
L 122.254006 131.702225 
L 122.273114 130.925218 
L 122.274238 130.929939 
L 122.496795 124.996833 
L 122.497919 125.004881 
L 122.521522 124.411159 
L 122.52377 124.417029 
L 122.668767 120.967063 
L 122.672139 121.051958 
L 122.976745 115.182268 
L 122.977869 115.226742 
L 123.049803 113.78425 
L 123.052051 113.86376 
L 123.175694 111.208711 
L 123.176818 111.261476 
L 123.253251 109.697358 
L 123.439834 106.322546 
L 123.442082 106.327266 
L 123.51514 105.068965 
L 123.714087 101.986475 
L 123.715211 102.001603 
L 123.779277 101.412238 
L 123.784896 101.458104 
L 123.829855 101.053112 
L 123.878186 101.559519 
L 123.892799 101.554436 
L 124.23899 127.8915 
L 124.462666 134.627752 
L 124.463791 134.611838 
L 124.506502 135.579692 
L 124.613282 137.863754 
L 124.510998 135.564201 
L 124.614406 137.846812 
L 124.733553 140.534838 
L 124.749289 140.386407 
L 125.392193 121.534645 
L 125.394441 121.622868 
L 125.515822 118.962556 
L 125.660809 115.755961 
L 125.661933 115.772601 
L 125.663057 115.80219 
L 125.721503 114.491185 
L 125.724875 114.55817 
L 125.903584 111.016653 
L 125.904708 111.095013 
L 125.995748 109.313182 
L 126.172208 105.858497 
L 126.173332 105.962271 
L 126.264371 104.26957 
L 126.416104 101.556433 
L 126.417228 101.573799 
L 126.468927 100.678375 
L 126.580195 98.163346 
L 126.472299 100.717767 
L 126.613912 99.161335 
L 126.657745 99.032206 
L 126.729676 107.820466 
L 126.943217 122.808436 
L 126.944342 122.74956 
L 127.005036 125.31336 
L 127.386045 135.543144 
L 127.008408 125.247283 
L 127.441119 134.529786 
L 127.442243 134.516595 
L 127.480456 135.279623 
L 127.48158 135.24235 
L 127.505182 136.275251 
L 127.569247 132.897898 
L 127.57037 132.938016 
L 127.72098 126.466495 
L 127.722104 126.468673 
L 127.97049 119.726975 
L 127.971613 119.741074 
L 128.008701 118.833247 
L 128.009825 118.839358 
L 128.681938 104.082414 
L 128.829173 101.295575 
L 128.830297 101.296967 
L 128.839288 101.132017 
L 128.840412 101.138794 
L 129.082064 96.859542 
L 129.083188 96.890766 
L 129.084312 96.89845 
L 129.114659 96.355375 
L 129.11803 96.433735 
L 129.277631 94.181137 
L 129.284375 94.256956 
L 129.365298 93.524727 
L 129.36867 93.591833 
L 129.376537 93.479527 
L 129.451841 95.030755 
L 129.751929 119.676269 
L 129.753053 119.654606 
L 129.789019 121.075134 
L 129.790143 120.999618 
L 129.815995 120.927974 
L 129.931761 124.442624 
L 130.16217 130.661214 
L 130.163294 130.547517 
L 130.258829 132.119924 
L 130.266696 132.307081 
L 130.340879 130.282302 
L 130.87588 113.748004 
L 130.877004 113.763434 
L 130.918589 112.86202 
L 130.923085 112.897055 
L 131.063578 110.06314 
L 132.1156 91.327314 
L 131.06695 110.079659 
L 132.207766 91.525726 
L 132.541582 117.756596 
L 132.542706 117.723194 
L 132.68208 122.310441 
L 132.978064 129.728698 
L 132.979188 129.626316 
L 133.057869 130.906521 
L 133.083722 130.163219 
L 133.084846 130.217315 
L 133.147791 127.903542 
L 133.3119 121.627286 
L 133.480503 115.773932 
L 133.314148 121.628798 
L 133.481627 115.793356 
L 133.601895 112.849736 
L 133.858169 107.685226 
L 133.859293 107.689825 
L 134.93009 88.404873 
L 134.955944 88.538237 
L 134.978423 88.511068 
L 135.048108 98.248363 
L 135.298749 114.630176 
L 135.535907 121.957185 
L 135.538155 121.940847 
L 135.539278 121.932497 
L 135.560633 122.548305 
L 135.75733 127.363069 
L 135.758454 127.342798 
L 135.815774 128.29026 
L 135.816898 128.239552 
L 135.831509 128.541315 
L 135.896698 126.552479 
L 136.057424 120.255045 
L 136.059671 120.270293 
L 136.083275 119.342618 
L 136.388991 110.363632 
L 136.390115 110.393403 
L 136.450811 109.060675 
L 136.451935 109.160637 
L 136.598047 105.954828 
L 136.599171 105.956523 
L 136.600295 106.045109 
L 136.687963 104.298736 
L 136.689087 104.3063 
L 137.646686 87.234251 
L 136.692459 104.315921 
L 137.64781 87.261722 
L 137.648934 87.327073 
L 137.699511 86.743154 
L 137.753459 86.983378 
L 137.754583 86.933397 
L 137.78493 90.447684 
L 138.016464 110.905133 
L 138.173818 116.862745 
L 138.345784 121.998211 
L 138.602041 126.534145 
L 138.373881 121.520909 
L 138.604289 126.459899 
L 138.608785 126.55496 
L 138.952715 114.194567 
L 139.259551 107.041463 
L 139.260674 107.089205 
L 139.333729 105.572406 
L 139.334853 105.592314 
L 139.480967 102.388745 
L 139.482091 102.398548 
L 139.483215 102.423961 
L 139.540536 101.222056 
L 139.54166 101.275062 
L 139.706881 97.841555 
L 139.708005 97.843432 
L 139.711377 97.669647 
L 139.912568 93.740324 
L 140.46218 84.996176 
L 140.515004 85.257215 
L 140.521747 85.064976 
L 140.543102 86.487016 
L 140.803856 109.972254 
L 140.808351 110.09043 
L 140.951093 115.269946 
L 140.952217 115.208952 
L 141.025272 117.236272 
L 141.026396 117.21231 
L 141.17813 121.484785 
L 141.179254 121.441702 
L 141.250063 122.895207 
L 141.251187 122.876571 
L 141.380441 125.10327 
L 141.410787 124.227452 
L 141.518686 120.172812 
L 141.767074 112.004717 
L 141.768198 112.017788 
L 141.801917 111.122061 
L 142.034576 105.885363 
L 142.188558 102.468436 
L 142.189682 102.564768 
L 142.276223 100.571394 
L 142.937106 87.532565 
L 142.93823 87.612921 
L 143.223716 83.76698 
L 143.22484 83.779445 
L 143.257435 83.395511 
L 143.356346 92.580654 
L 143.647451 111.535222 
L 143.648575 111.408938 
L 143.733995 114.158865 
L 143.935184 119.830024 
L 143.936308 119.705071 
L 144.027347 121.642897 
L 144.028471 121.518973 
L 144.150982 124.214563 
L 144.155477 124.140378 
L 144.156601 124.140922 
L 144.157725 124.124948 
L 144.309457 117.620993 
L 144.310581 117.694028 
L 144.379142 115.05326 
L 144.601685 108.65538 
L 144.60281 108.704756 
L 144.951236 100.711716 
L 145.150177 95.752697 
L 145.151301 95.798987 
L 145.220987 94.175449 
L 145.222111 94.177023 
L 145.25021 93.478074 
L 145.485121 88.924289 
L 145.487369 88.949824 
L 145.611007 86.265247 
L 145.613255 86.311659 
L 145.614379 86.336105 
L 145.667205 85.108905 
L 145.669453 85.173469 
L 145.834675 82.280678 
L 145.672825 85.199065 
L 145.838047 82.314927 
L 145.839171 82.324124 
L 145.877384 81.757269 
L 146.010012 80.609398 
L 146.01226 80.782154 
L 146.014508 80.599777 
L 146.088691 82.710419 
L 146.266277 102.023447 
L 146.806894 119.233035 
L 146.808018 119.127082 
L 146.897937 120.885678 
L 146.899061 120.838541 
L 146.909177 123.100577 
L 146.983359 119.094164 
L 146.984483 119.096706 
L 147.080019 115.305526 
L 146.986731 119.11383 
L 147.081143 115.392721 
L 147.220512 110.194506 
L 147.221636 110.206911 
L 147.249734 109.343195 
L 147.421696 104.564313 
L 147.251982 109.347612 
L 147.423944 104.595415 
L 147.516107 102.299069 
L 147.736406 97.25213 
L 147.73753 97.286439 
L 147.738654 97.329159 
L 147.808338 95.81593 
L 147.809463 95.829787 
L 147.858917 94.765178 
L 148.01627 91.143425 
L 148.017394 91.183966 
L 148.018518 91.207202 
L 148.069097 90.116514 
L 148.076965 90.139024 
L 148.234322 87.341898 
L 148.733359 79.605965 
L 148.735608 79.655462 
L 148.750218 79.511871 
L 148.887346 87.192257 
L 149.062684 102.168852 
L 149.323445 111.710519 
L 149.689858 120.677343 
L 149.746056 118.7423 
L 150.024799 108.370319 
L 150.402445 99.488753 
L 150.404693 99.509689 
L 150.405818 99.676152 
L 150.497983 97.513835 
L 150.502479 97.602723 
L 150.637356 94.764452 
L 150.639604 94.782181 
L 151.472454 78.976905 
L 151.473578 78.989975 
L 151.474702 79.100708 
L 151.527528 78.69511 
L 151.583725 79.000201 
L 151.599459 78.856732 
L 151.629805 81.226416 
L 151.799519 99.398412 
L 151.972606 106.678828 
L 152.000704 107.67851 
L 152.231114 114.327809 
L 152.234486 114.227484 
L 152.31541 116.476935 
L 152.32665 116.577563 
L 152.322154 116.430584 
L 152.327774 116.531999 
L 152.455903 118.813157 
L 152.457027 118.808135 
L 152.458151 118.83488 
L 152.504231 117.33454 
L 153.076309 99.916254 
L 152.506479 117.352149 
L 153.077433 99.917465 
L 153.078557 99.942273 
L 153.129136 98.609365 
L 153.13026 98.620922 
L 153.16173 97.81475 
L 153.162853 97.878527 
L 153.304468 94.904411 
L 153.496668 90.660739 
L 153.664136 87.459469 
L 153.88668 83.143245 
L 153.888927 83.168901 
L 153.924895 82.444357 
L 154.194645 78.123051 
L 154.195769 78.147921 
L 154.33514 77.13178 
L 154.198016 78.219383 
L 154.377849 77.606539 
L 154.418311 84.084354 
L 154.641978 102.09975 
L 154.644226 102.126011 
L 154.830804 108.502169 
L 154.831928 108.488191 
L 154.863398 109.459252 
L 155.06908 114.508854 
L 155.070204 114.479446 
L 155.13202 115.76298 
L 155.133144 115.746945 
L 155.169111 116.770892 
L 155.221937 117.776624 
L 155.27139 116.293348 
L 155.773797 100.43319 
L 155.807516 99.669919 
L 155.80864 99.677604 
L 155.949134 96.446018 
L 156.815693 78.579719 
L 156.816817 78.603983 
L 156.952812 76.492373 
L 156.956184 76.495459 
L 157.07757 75.381111 
L 157.102296 75.274372 
L 157.116907 75.499165 
L 157.133766 75.449729 
L 157.700237 110.03585 
L 157.70136 109.99912 
L 157.929521 115.491352 
L 157.987968 116.362571 
L 158.030678 115.01284 
L 158.031802 115.029904 
L 158.909594 89.709041 
L 158.910718 89.758962 
L 158.988269 88.275624 
L 159.258014 82.633027 
L 158.990517 88.291296 
L 159.259138 82.67254 
L 159.260262 82.70939 
L 159.327699 81.343261 
L 159.580585 76.51337 
L 159.58171 76.590157 
L 159.668254 75.030033 
L 159.669378 75.057928 
L 159.721081 74.174486 
L 159.722205 74.207705 
L 159.86045 72.159752 
L 159.868318 72.162353 
L 159.879558 70.216117 
L 160.002068 82.878213 
L 160.192015 96.303276 
L 160.292047 100.249059 
L 160.619112 109.406004 
L 160.620236 109.336539 
L 160.62136 109.293153 
L 160.685425 111.053443 
L 160.686549 111.030147 
L 160.687672 111.026879 
L 160.698911 111.325192 
L 160.700035 111.324466 
L 160.773089 112.468101 
L 160.810179 111.260084 
L 160.996749 103.853444 
L 160.997873 103.889509 
L 161.048452 101.991982 
L 161.049576 102.002571 
L 161.365405 93.006159 
L 161.366529 93.009547 
L 161.367653 93.04676 
L 161.422728 91.306257 
L 161.424976 91.364649 
L 161.590196 88.078544 
L 161.898154 81.807492 
L 161.899278 81.841619 
L 161.900402 81.858199 
L 161.94536 80.917514 
L 161.946483 80.931552 
L 162.426403 71.822288 
L 161.950979 80.936091 
L 162.429775 71.843467 
L 162.430899 71.851455 
L 162.464619 71.327016 
L 162.465743 71.359328 
L 162.593873 70.255993 
L 162.597245 70.304824 
L 162.628718 70.236811 
L 162.689413 70.727969 
L 162.713016 73.766468 
L 162.902966 93.335695 
L 162.90409 93.248137 
L 162.971529 96.474155 
L 163.150237 102.707087 
L 163.151361 102.703698 
L 163.152485 102.688873 
L 163.181709 103.715845 
L 163.354796 107.722742 
L 163.35592 107.700838 
L 163.406497 108.85833 
L 163.535751 111.474168 
L 163.543619 111.407607 
L 164.160657 92.22177 
L 164.162905 92.224251 
L 164.164029 92.239439 
L 164.199995 91.250286 
L 164.202243 91.279451 
L 164.478734 85.478681 
L 164.479858 85.482069 
L 164.628218 81.833329 
L 164.630466 81.914413 
L 164.677672 80.700405 
L 164.681044 80.740281 
L 164.682168 80.742156 
L 164.690035 80.542838 
L 164.892345 76.161264 
L 164.894593 76.187585 
L 164.895717 76.22141 
L 164.963154 74.953791 
L 165.182322 70.846931 
L 165.183446 70.9026 
L 165.268865 69.770765 
L 165.26999 69.79394 
L 165.379011 69.065766 
L 165.272237 69.799447 
L 165.393623 69.080832 
L 165.39587 69.075023 
L 165.475674 72.15358 
L 165.762277 96.145345 
L 166.094967 106.060357 
L 166.187128 108.410739 
L 166.188252 108.391073 
L 166.300648 110.568276 
L 166.316384 110.27093 
L 166.874987 92.300614 
L 166.876111 92.309449 
L 166.877235 92.311808 
L 166.882855 92.08169 
L 166.888476 92.085321 
L 168.17958 68.099666 
L 168.23016 68.907109 
L 168.263879 74.548376 
L 168.454953 91.980578 
L 169.054019 108.883622 
L 169.056267 108.879327 
L 169.067506 109.003251 
L 169.238346 102.79295 
L 169.248462 102.382331 
L 169.538443 93.090691 
L 169.539567 93.153137 
L 169.614873 91.1879 
L 169.776724 87.231649 
L 169.778972 87.271102 
L 169.787963 87.068878 
L 169.789087 87.075413 
L 169.963299 83.07263 
L 169.964423 83.109663 
L 170.03186 81.684899 
L 170.032984 81.704928 
L 170.082437 80.61206 
L 170.083561 80.646914 
L 170.236416 77.598613 
L 170.23754 77.604422 
L 170.310597 76.113158 
L 170.483688 72.489227 
L 170.484812 72.576422 
L 170.571357 70.701587 
L 170.574729 70.771597 
L 170.757936 67.421351 
L 170.75906 67.494206 
L 170.848978 66.375864 
L 170.853474 66.421851 
L 170.878202 66.259866 
L 170.914169 66.561871 
L 170.92878 66.501784 
L 170.936647 66.42766 
L 171.09625 81.933897 
L 171.29294 93.4811 
L 171.691945 105.136978 
L 171.693069 105.109325 
L 171.694193 105.084758 
L 171.751514 106.186218 
L 171.833563 111.662353 
L 171.753762 106.168851 
L 171.875149 107.132288 
L 171.999907 101.930565 
L 172.269656 92.995085 
L 172.27078 93.10364 
L 172.357324 90.741459 
L 172.607964 84.593725 
L 172.609088 84.613875 
L 172.652921 83.503642 
L 172.656293 83.568266 
L 172.79791 80.635418 
L 172.799034 80.795587 
L 172.894568 78.703945 
L 172.896816 78.755378 
L 173.136221 73.898258 
L 173.137345 73.930026 
L 173.195791 72.588161 
L 173.20141 72.660349 
L 173.347524 69.613077 
L 173.348647 69.62415 
L 173.386863 68.930345 
L 173.548714 66.177028 
L 173.549838 66.244134 
L 173.708314 64.71493 
L 173.760016 65.316519 
L 174.225328 97.786431 
L 174.226452 97.769367 
L 174.262418 98.902413 
L 174.6086 106.269358 
L 174.264666 98.863929 
L 174.635574 105.432932 
L 175.162712 87.993952 
L 175.163836 88.012044 
L 175.205423 86.989489 
L 175.206547 87.093324 
L 175.333553 84.053918 
L 175.335801 84.064507 
L 175.61791 77.713097 
L 175.622406 77.73839 
L 175.824713 73.603939 
L 176.133797 67.065796 
L 176.13492 67.092541 
L 176.136044 67.113357 
L 176.193365 66.157787 
L 176.194489 66.166016 
L 176.475473 62.75048 
L 176.50582 63.219008 
L 176.508068 63.180584 
L 176.981251 95.936223 
L 176.982375 95.91093 
L 177.027332 97.289706 
L 177.02958 97.286015 
L 177.031828 97.27942 
L 177.290337 103.591921 
L 177.29146 103.487723 
L 177.376881 105.09329 
L 177.38812 104.737553 
L 177.389244 104.777126 
L 177.44207 102.761424 
L 177.709567 92.255171 
L 177.710691 92.294079 
L 177.77026 90.524289 
L 177.771384 90.543592 
L 177.816341 89.43705 
L 178.134418 82.099089 
L 178.135542 82.117786 
L 178.181625 81.072177 
L 178.313125 78.124564 
L 178.467108 74.870529 
L 178.468232 74.90629 
L 178.530049 73.427432 
L 178.67279 70.130859 
L 178.673914 70.174123 
L 179.186438 61.725868 
L 179.187562 61.779783 
L 179.2269 61.644241 
L 179.353905 72.496428 
L 179.558466 88.027292 
L 179.55959 87.948327 
L 179.607919 89.954045 
L 179.611291 89.924153 
L 179.751787 94.82714 
L 179.752911 94.815643 
L 179.782133 95.606808 
L 179.78438 95.578187 
L 180.011416 101.671462 
L 180.01254 101.658997 
L 180.050754 102.39419 
L 180.054126 102.367082 
L 180.141793 103.779986 
L 180.171016 102.963951 
L 180.17214 102.969336 
L 180.182255 102.55206 
L 180.35872 95.444279 
L 180.359844 95.452327 
L 180.378951 94.836701 
L 180.614979 86.764514 
L 180.616103 86.781033 
L 180.772335 83.298937 
L 180.961157 79.074083 
L 180.962281 79.165393 
L 181.048825 77.258608 
L 181.279236 72.031955 
L 181.28036 72.137424 
L 181.369154 70.316563 
L 181.371402 70.358678 
L 181.550111 66.76712 
L 181.551235 66.767362 
L 182.000815 59.256888 
L 182.067127 60.956547 
L 182.550431 94.043175 
L 182.551555 94.030044 
L 182.577407 94.972726 
L 182.580779 94.965647 
L 182.683058 97.361168 
L 182.685306 97.34356 
L 182.878625 101.849119 
L 182.904475 102.177868 
L 183.195579 90.717678 
L 183.200075 90.579595 
L 183.329332 86.972365 
L 183.203447 90.58135 
L 183.330456 86.984951 
L 183.495679 82.61203 
L 183.496803 82.626431 
L 183.535018 81.73482 
L 183.680009 78.536757 
L 183.681133 78.618324 
L 183.682257 78.623225 
L 183.695744 78.222832 
L 183.699116 78.245039 
L 183.838486 75.219247 
L 183.83961 75.283388 
L 183.920537 73.567875 
L 184.102617 69.727803 
L 184.103741 69.745593 
L 184.152071 68.752022 
L 184.306054 65.601762 
L 184.307178 65.639459 
L 184.308301 65.647326 
L 184.335276 65.078897 
L 184.503871 61.659731 
L 184.506119 61.689502 
L 184.539837 61.006588 
L 184.676961 59.077537 
L 184.680332 59.195349 
L 184.761257 58.606226 
L 184.808463 58.928864 
L 184.814083 58.821943 
L 184.833189 60.164474 
L 185.211962 90.274989 
L 185.213086 90.240377 
L 185.267037 91.917527 
L 185.44462 96.326693 
L 185.45024 96.314107 
L 185.669409 100.583496 
L 185.689639 100.170274 
L 186.007718 87.723533 
L 186.263977 80.865657 
L 186.266225 80.889075 
L 186.280837 80.54677 
L 186.43257 77.334972 
L 186.716929 70.494402 
L 186.718053 70.504204 
L 186.719177 70.514551 
L 186.751772 69.789039 
L 186.75402 69.832182 
L 186.903506 66.93564 
L 187.129424 62.467597 
L 187.130548 62.492769 
L 187.185623 61.300243 
L 187.186746 61.353733 
L 187.326116 58.979269 
L 187.32724 58.982052 
L 187.330612 58.8453 
L 187.336232 58.875132 
L 187.454249 57.269565 
L 187.456497 57.417027 
L 187.52618 56.900032 
L 187.582379 57.116112 
L 187.824028 82.445083 
L 188.426466 100.651388 
L 188.452317 99.877226 
L 188.740049 88.490132 
L 188.773767 87.242844 
L 188.774891 87.275761 
L 188.935616 82.941748 
L 188.93674 82.977933 
L 188.998557 81.456838 
L 188.999681 81.470634 
L 189.003053 81.478924 
L 189.221097 76.555969 
L 189.222221 76.597358 
L 189.288534 75.07118 
L 189.291906 75.112568 
L 189.432397 72.01586 
L 189.433521 72.028385 
L 189.558282 69.239065 
L 189.559406 69.269442 
L 189.699904 66.339618 
L 189.701028 66.359223 
L 189.756103 65.210143 
L 190.289972 56.245376 
L 190.351791 56.619085 
L 190.84857 90.77135 
L 190.849694 90.742609 
L 190.895776 92.256261 
L 190.898024 92.249846 
L 191.035146 95.637729 
L 191.044138 95.759051 
L 191.185754 98.66225 
L 191.188002 98.564285 
L 191.192498 99.154497 
L 191.240827 97.810817 
L 191.479101 88.074611 
L 191.480225 88.092704 
L 191.517315 86.923292 
L 191.970261 75.365802 
L 192.172573 70.89546 
L 192.173697 70.900664 
L 192.192804 70.470258 
L 192.408603 65.866673 
L 192.409727 65.900317 
L 192.473794 64.493223 
L 193.053756 55.010311 
L 193.11782 55.456631 
L 193.165027 63.562159 
L 193.359471 80.032558 
L 193.360595 79.999944 
L 193.404428 81.864976 
L 193.637084 90.284126 
L 193.638207 90.281826 
L 193.965279 97.577612 
L 193.640456 90.258288 
L 193.996749 96.661857 
L 194.790265 72.981595 
L 195.140931 65.52201 
L 195.143179 65.573988 
L 195.27468 62.785092 
L 195.275804 62.801611 
L 195.315142 61.858808 
L 195.316266 61.88991 
L 195.456756 58.801733 
L 195.459003 58.810205 
L 195.677051 54.698141 
L 195.678174 54.745399 
L 195.761346 53.754915 
L 195.766966 53.831036 
L 195.817544 53.644726 
L 195.905212 57.20246 
L 196.097405 77.881799 
L 196.098529 77.85348 
L 196.133372 79.73721 
L 196.257006 84.612725 
L 196.498655 91.262206 
L 196.499779 91.15704 
L 196.588571 93.139099 
L 196.589695 93.124031 
L 196.731311 96.230604 
L 196.74255 96.002966 
L 196.771774 94.895697 
L 197.059504 83.758327 
L 197.060628 83.821379 
L 197.133686 81.742202 
L 197.367468 75.825979 
L 197.368591 75.82967 
L 197.369715 75.855992 
L 197.425914 74.588312 
L 197.587763 70.971521 
L 197.588887 70.990763 
L 198.400381 53.932148 
L 198.401504 53.979588 
L 198.483555 52.803156 
L 198.484679 52.851383 
L 198.593701 51.826286 
L 198.648775 52.542541 
L 199.216366 88.77598 
L 199.218614 88.747661 
L 199.48386 94.977991 
L 199.484984 94.851223 
L 199.610863 90.401817 
L 199.611987 90.469588 
L 199.673803 87.544485 
L 199.892969 79.046007 
L 199.895217 79.052784 
L 199.896341 79.095806 
L 199.957034 77.290376 
L 199.960406 77.367103 
L 200.141362 72.923506 
L 200.142486 72.976633 
L 201.23608 50.853168 
L 201.237204 50.918155 
L 201.327116 50.022429 
L 201.332736 50.041127 
L 201.348471 49.960165 
L 201.404668 50.255029 
L 201.428271 52.653818 
L 201.644068 75.771278 
L 201.686776 77.765741 
L 202.044196 88.953395 
L 202.04532 88.883687 
L 202.127365 90.5232 
L 202.128489 90.515697 
L 202.256618 93.557524 
L 202.274602 93.092022 
L 202.445439 85.838654 
L 202.624149 79.060892 
L 202.625273 79.072026 
L 202.626397 79.081648 
L 202.645502 78.338708 
L 202.646627 78.344275 
L 202.798357 74.308333 
L 202.801729 74.338588 
L 203.008533 69.78208 
L 203.009657 69.783472 
L 203.010781 69.799144 
L 203.046748 68.779494 
L 203.048995 68.82058 
L 203.364823 62.00736 
L 203.365947 62.022367 
L 203.409779 61.121799 
L 204.11898 48.601599 
L 204.131343 48.702892 
L 204.244864 61.932993 
L 204.421324 75.516774 
L 204.458412 77.19937 
L 204.615766 82.825932 
L 204.678707 84.880118 
L 204.679831 84.847262 
L 204.818073 88.34981 
L 204.819197 88.338313 
L 204.858534 89.038895 
L 205.010265 94.266758 
L 205.024876 93.730279 
L 205.226064 85.358085 
L 206.726535 49.544644 
L 206.727659 49.624214 
L 206.815327 48.585383 
L 206.823194 48.591796 
L 206.87827 47.84202 
L 206.937838 48.443608 
L 206.969308 53.856329 
L 207.150263 73.364864 
L 207.151387 73.335699 
L 207.15251 73.333339 
L 207.154758 73.566907 
L 207.604333 88.971729 
L 207.621192 89.307619 
L 207.767303 91.976887 
L 207.790906 91.906333 
L 208.230363 74.916698 
L 208.232611 74.932976 
L 208.233735 74.962323 
L 208.285437 73.518378 
L 208.286561 73.522069 
L 208.44953 69.01881 
L 208.919348 58.684102 
L 208.920472 58.697414 
L 208.951941 57.807376 
L 208.954189 57.822624 
L 209.113793 54.690819 
L 209.114917 54.706613 
L 209.159875 53.794549 
L 209.286883 51.063319 
L 209.288007 51.106946 
L 209.361064 49.633775 
L 209.512797 47.280792 
L 209.516169 47.295193 
L 209.570119 46.719866 
L 209.571243 46.770815 
L 209.646548 46.076102 
L 209.685886 46.333269 
L 209.689258 46.311909 
L 209.753324 56.177484 
L 210.034314 76.928891 
L 210.036562 77.006525 
L 210.205156 82.536211 
L 210.20628 82.477274 
L 210.277089 84.528375 
L 210.278213 84.397976 
L 210.420954 87.762744 
L 210.422078 87.755785 
L 210.442309 88.270905 
L 210.443433 88.245188 
L 210.536721 90.232753 
L 210.56482 89.472871 
L 211.143653 69.720844 
L 211.145901 69.750615 
L 211.147025 69.769373 
L 211.189736 68.685704 
L 211.448245 62.950224 
L 211.450493 63.002806 
L 211.485335 61.809191 
L 211.488707 61.849248 
L 211.638191 58.586742 
L 211.639314 58.60901 
L 211.694386 57.5064 
L 211.69551 57.526671 
L 211.930415 52.5472 
L 211.931539 52.614608 
L 212.012463 50.852624 
L 212.013587 50.874105 
L 212.20466 46.914405 
L 212.208032 46.921303 
L 212.209155 46.946838 
L 212.272097 45.876178 
L 212.273221 45.925796 
L 212.401352 44.894285 
L 212.275469 45.933178 
L 212.4036 44.961452 
L 212.408095 44.883515 
L 212.531733 60.129257 
L 212.707072 71.932901 
L 212.794739 75.886005 
L 213.075722 84.72001 
L 213.08696 84.568553 
L 213.17238 86.360369 
L 213.173504 86.29163 
L 213.315122 89.017414 
L 213.335354 88.337889 
L 213.416275 84.887076 
L 213.949022 67.606996 
L 213.950146 67.627811 
L 213.998475 66.480303 
L 213.999599 66.494281 
L 214.282835 59.882075 
L 214.00297 66.566651 
L 214.283959 59.999585 
L 214.285082 60.05126 
L 214.353642 58.382642 
L 214.358138 58.395168 
L 214.501999 54.615788 
L 214.503122 54.623835 
L 214.50537 54.689609 
L 214.546954 53.565519 
L 214.550326 53.599526 
L 214.678453 50.763372 
L 214.680701 50.855709 
L 215.041482 44.287978 
L 215.138142 43.456936 
L 215.159497 43.569363 
L 215.163992 43.544857 
L 215.224684 44.005578 
L 215.441603 69.526063 
L 215.442727 69.522493 
L 215.447222 69.770039 
L 215.595583 75.678638 
L 215.59783 75.648564 
L 215.985586 86.2477 
L 215.98671 86.079059 
L 216.065383 87.877773 
L 216.091234 87.042738 
L 216.172158 83.872207 
L 216.358734 76.098333 
L 216.418303 74.060909 
L 216.421675 74.072768 
L 216.59476 69.039988 
L 216.757732 64.87038 
L 216.985897 59.332343 
L 216.987021 59.487793 
L 217.07806 56.786031 
L 217.27138 52.782281 
L 217.327577 51.561798 
L 217.457954 48.980754 
L 217.459077 49.049855 
L 217.541124 47.338336 
L 217.542248 47.371496 
L 217.754673 43.540259 
L 217.756922 43.606214 
L 217.84234 42.418649 
L 217.844588 42.430207 
L 217.890671 42.056317 
L 217.851331 42.461611 
L 217.956983 42.306706 
L 218.609991 81.859772 
L 218.613363 81.789883 
L 218.675181 83.220879 
L 218.677428 83.191472 
L 218.830286 87.897862 
L 218.6808 83.187962 
L 218.84265 86.525924 
L 219.325948 68.92502 
L 219.327072 68.925141 
L 219.329319 68.863844 
L 219.510276 64.63294 
L 219.669879 60.902511 
L 219.671004 60.972279 
L 219.805877 57.901711 
L 219.81262 57.912723 
L 219.978963 54.055104 
L 219.983459 54.067387 
L 220.715141 41.069281 
L 219.985707 54.067629 
L 220.718513 41.105647 
L 220.724133 41.087857 
L 220.802809 49.53702 
L 220.969153 66.476734 
L 220.970277 66.444361 
L 221.010737 68.449413 
L 221.138867 73.930086 
L 221.296221 78.405511 
L 221.594069 84.782153 
L 221.634532 83.742413 
L 222.432539 59.312072 
L 222.433663 59.389767 
L 222.434787 59.41742 
L 222.48986 58.08324 
L 222.492107 58.107262 
L 222.673065 53.942253 
L 223.444087 39.503227 
L 223.469938 39.581829 
L 223.476682 39.541591 
L 223.52726 40.213612 
L 223.786889 67.079774 
L 223.788013 67.077717 
L 223.790261 67.247568 
L 224.016171 75.436114 
L 224.017295 75.419837 
L 224.371341 83.48567 
L 224.019543 75.402471 
L 224.40506 82.52187 
L 224.680428 71.562096 
L 224.681552 71.58382 
L 226.228103 38.231735 
L 226.231474 38.246923 
L 226.244962 38.234337 
L 226.33038 46.646468 
L 226.513581 64.351448 
L 226.514705 64.350299 
L 226.516953 64.438582 
L 226.73837 73.35724 
L 226.837278 75.76789 
L 226.996882 79.941249 
L 226.998006 79.86652 
L 227.123888 82.672056 
L 227.165474 81.206872 
L 227.383521 71.724384 
L 227.384645 71.752763 
L 227.429603 70.123719 
L 227.711716 61.513902 
L 227.71284 61.551963 
L 227.780277 60.08442 
L 227.781401 60.136518 
L 227.942127 56.027178 
L 228.221994 50.11035 
L 227.945499 56.040309 
L 228.223118 50.114223 
L 228.886256 37.187155 
L 228.88738 37.199377 
L 228.933463 36.519974 
L 228.997529 35.723484 
L 229.050353 36.243746 
L 229.109922 47.600162 
L 229.312233 64.452499 
L 229.392034 67.566333 
L 229.393158 67.528756 
L 229.590971 74.162142 
L 229.594343 74.145986 
L 229.595467 74.068775 
L 229.67527 76.099665 
L 229.677518 75.986269 
L 229.889944 80.815495 
L 229.916919 79.977737 
L 230.136089 70.777769 
L 230.137213 70.784304 
L 230.1507 70.222289 
L 230.319291 65.005983 
L 231.763571 34.664804 
L 230.321539 65.050276 
L 231.774811 34.848572 
L 231.778183 34.762952 
L 231.851241 41.96531 
L 232.053554 62.004213 
L 232.650369 80.453586 
L 232.708814 78.238685 
L 233.043754 64.957151 
L 233.044878 64.992308 
L 233.1022 63.386196 
L 233.105572 63.467885 
L 233.270789 58.839673 
L 233.55065 52.593732 
L 233.551774 52.670398 
L 233.63382 50.718594 
L 233.636069 50.747941 
L 233.679902 49.417816 
L 233.681026 49.460293 
L 233.848494 45.293953 
L 233.850742 45.3495 
L 233.982247 42.708975 
L 233.983371 42.82001 
L 234.072164 40.663865 
L 234.073288 40.673789 
L 234.103634 40.054774 
L 234.240758 37.245063 
L 234.241881 37.269448 
L 234.393615 34.798955 
L 234.245254 37.286875 
L 234.395863 34.835926 
L 234.396987 34.85057 
L 234.441944 34.208379 
L 234.452059 34.278752 
L 234.519497 33.528612 
L 234.564455 34.011541 
L 234.567827 33.886104 
L 234.606039 38.743345 
L 234.763392 57.804532 
L 234.997171 68.384486 
L 234.998296 68.380795 
L 234.99942 68.334021 
L 235.061236 70.221079 
L 235.064608 70.203531 
L 235.133169 72.300619 
L 235.306258 76.028989 
L 235.308506 75.995709 
L 235.30963 75.94833 
L 235.373696 77.590323 
L 235.378192 77.526001 
L 235.429894 78.593334 
L 235.483843 76.694657 
L 236.36613 49.598497 
L 236.368378 49.727444 
L 236.448178 47.756641 
L 236.449302 47.844138 
L 236.595414 44.499399 
L 236.596538 44.500488 
L 237.290009 32.129323 
L 237.341711 32.606383 
L 237.781173 67.095507 
L 237.784545 67.079955 
L 237.789041 67.261908 
L 238.046417 74.272027 
L 238.047542 74.260228 
L 238.057656 74.447263 
L 238.191405 76.95491 
L 238.061028 74.397403 
L 238.226246 75.806676 
L 238.268955 74.048685 
L 238.437546 66.676537 
L 238.43867 66.683798 
L 238.472388 65.485583 
L 238.649968 59.947909 
L 238.885997 53.97753 
L 238.888244 53.985397 
L 238.889368 54.012263 
L 238.946688 52.732904 
L 239.104038 48.970285 
L 239.10741 49.05633 
L 239.181589 47.268024 
L 239.74468 34.715754 
L 239.183837 47.270626 
L 239.746928 34.719142 
L 239.748051 34.768821 
L 239.823354 33.224793 
L 239.824477 33.254927 
L 239.841337 32.981422 
L 239.97059 31.381301 
L 239.972838 31.451614 
L 240.049265 30.675334 
L 240.067247 30.777716 
L 240.069495 30.710248 
L 240.120072 32.721533 
L 240.375202 59.789011 
L 240.388689 60.382006 
L 240.389813 60.298563 
L 240.531432 65.336366 
L 240.800053 72.581021 
L 240.802301 72.523718 
L 240.873111 74.242317 
L 240.876483 74.23203 
L 240.877607 74.222227 
L 240.905705 74.911979 
L 240.94167 75.769886 
L 240.996742 74.00536 
L 240.997865 74.035253 
L 241.202423 64.701498 
L 241.203546 64.707367 
L 241.215909 64.182021 
L 241.219282 64.239263 
L 241.401357 58.44055 
L 241.402481 58.449264 
L 241.423837 57.808344 
L 241.42496 57.829099 
L 241.577813 53.716249 
L 241.580061 53.767924 
L 241.581185 53.780026 
L 241.609284 53.00308 
L 241.61378 53.021294 
L 241.75427 49.431975 
L 241.755394 49.433245 
L 241.756518 49.436089 
L 241.763261 49.180435 
L 241.893638 46.320743 
L 241.76888 49.180859 
L 241.894762 46.39517 
L 242.810778 28.760078 
L 242.832133 28.918916 
L 243.011961 50.437829 
L 243.169314 59.908941 
L 243.170437 59.841352 
L 243.241244 62.26144 
L 243.682953 73.981761 
L 243.705431 74.987132 
L 244.593348 45.324934 
L 244.594472 45.458479 
L 244.686634 43.413854 
L 244.688882 43.585096 
L 244.819259 40.955099 
L 244.820383 40.995035 
L 245.31155 30.774267 
L 245.313798 30.814446 
L 245.403712 29.217169 
L 245.404836 29.229634 
L 245.549825 27.143197 
L 245.550949 27.19935 
L 245.553197 27.255442 
L 245.580172 26.821284 
L 245.585791 26.892565 
L 245.586916 26.767067 
L 245.657725 31.217744 
L 245.890382 56.262198 
L 245.891506 56.207195 
L 245.946579 58.878883 
L 246.471459 72.957392 
L 246.486069 72.880484 
L 246.66478 65.142614 
L 247.194162 49.347927 
L 247.195286 49.450672 
L 247.196409 49.481532 
L 247.250358 48.039039 
L 247.25373 48.091744 
L 247.427946 43.931454 
L 247.42907 44.018225 
L 247.511119 41.959743 
L 247.513367 41.977412 
L 247.515615 42.001374 
L 247.562823 40.846605 
L 247.565071 40.92551 
L 247.694325 37.988788 
L 247.698821 37.995263 
L 247.832571 34.870477 
L 247.833695 35.080385 
L 247.930356 32.801406 
L 247.932603 32.916374 
L 248.069723 30.099341 
L 248.070846 30.128749 
L 248.127043 28.792088 
L 248.12929 28.883639 
L 248.255171 26.869934 
L 248.256295 26.891234 
L 248.260791 27.035973 
L 248.336095 26.190046 
L 248.354079 26.400681 
L 248.356327 26.290069 
L 248.392293 26.94545 
L 248.80703 61.590508 
L 248.808154 61.589479 
L 248.809278 61.523886 
L 248.878961 63.840201 
L 249.029569 67.399749 
L 249.045304 67.855509 
L 249.230756 71.889999 
L 249.047553 67.811337 
L 249.247615 71.649836 
L 249.461163 62.839067 
L 249.463411 62.859338 
L 249.597158 57.811006 
L 249.774744 52.719289 
L 249.779239 52.723525 
L 249.780363 52.743191 
L 249.826445 51.627088 
L 249.978175 47.777093 
L 249.982671 47.789195 
L 249.983795 47.81007 
L 250.028753 46.631703 
L 250.031001 46.633821 
L 250.206336 42.343617 
L 250.210832 42.424034 
L 250.260285 41.201676 
L 250.261409 41.216138 
L 250.395158 38.220844 
L 250.396282 38.234639 
L 250.434497 37.375401 
L 250.695253 31.503289 
L 250.696378 31.595022 
L 250.697502 31.637984 
L 250.766062 30.031933 
L 250.769434 30.037198 
L 250.944771 26.828485 
L 250.949266 26.896196 
L 251.020076 25.917571 
L 251.022324 25.922412 
L 251.090883 25.211179 
L 251.025696 26.031934 
L 251.148204 25.514334 
L 251.151576 25.448378 
L 251.16956 26.934559 
L 251.534842 59.02096 
L 251.535966 58.998874 
L 251.577549 60.343704 
L 251.741645 65.463255 
L 251.579797 60.2697 
L 251.742769 65.460955 
L 251.745017 65.363111 
L 251.789975 66.703827 
L 251.792223 66.670849 
L 251.794471 66.623953 
L 251.921478 69.053542 
L 252.008021 70.667701 
L 251.923726 68.943838 
L 252.042865 69.532175 
L 252.338464 57.148 
L 253.83893 23.820544 
L 253.869278 23.489071 
L 254.26828 56.813442 
L 254.269404 56.789904 
L 254.309867 58.270336 
L 254.527912 64.667249 
L 254.529036 64.623682 
L 254.530159 64.561296 
L 254.607712 66.38615 
L 254.60996 66.319831 
L 254.620076 66.572339 
L 254.769561 70.25684 
L 254.623448 66.480122 
L 254.824633 68.146743 
L 255.012331 59.677733 
L 255.013455 59.786167 
L 255.08651 56.882544 
L 255.091006 56.897551 
L 255.218011 52.897673 
L 255.219135 52.908625 
L 255.370867 48.958002 
L 255.371991 49.043502 
L 255.373115 49.059598 
L 255.407956 47.980164 
L 255.40908 47.99632 
L 255.595653 43.259069 
L 255.596777 43.471943 
L 255.69119 41.020086 
L 255.695685 41.178077 
L 255.826061 38.044397 
L 255.828309 38.056922 
L 256.621812 23.029318 
L 256.642043 23.302217 
L 257.168047 60.342735 
L 256.645415 23.259255 
L 257.169171 60.333599 
L 257.170294 60.315567 
L 257.204013 61.403533 
L 257.207385 61.394214 
L 257.331017 64.215059 
L 257.209633 61.391068 
L 257.332141 64.136517 
L 257.490616 67.878261 
L 257.495111 67.824044 
L 257.534449 69.045858 
L 257.646843 64.119575 
L 257.649091 64.232063 
L 257.696295 62.005968 
L 257.870505 55.000448 
L 258.041344 49.268901 
L 258.042468 49.294799 
L 258.242529 44.565597 
L 258.243654 44.603173 
L 258.244778 44.677116 
L 258.324574 42.775959 
L 258.325699 42.84022 
L 258.32907 42.843972 
L 258.458325 39.692805 
L 258.460573 39.807168 
L 258.544869 37.878721 
L 258.545993 37.906071 
L 258.677496 34.593585 
L 258.679744 34.631342 
L 258.7011 33.82989 
L 258.702224 33.847801 
L 258.937129 28.11928 
L 258.705596 33.863897 
L 258.938253 28.159882 
L 258.939377 28.160547 
L 258.941625 28.050722 
L 259.079874 25.145587 
L 259.080998 25.197504 
L 259.159672 23.779881 
L 259.160796 23.837486 
L 259.332762 21.70137 
L 259.33501 21.735377 
L 259.375472 21.562682 
L 259.437289 21.903594 
L 259.448528 21.788867 
L 259.466511 23.56725 
L 259.808191 54.89389 
L 259.809315 54.862244 
L 259.857644 56.579995 
L 260.291484 67.428068 
L 259.859892 56.551132 
L 260.303848 67.18016 
L 260.542122 57.142495 
L 260.543245 57.159014 
L 260.569095 55.979981 
L 260.57022 56.056162 
L 260.720827 50.968258 
L 260.721951 50.992461 
L 261.017547 42.58614 
L 261.026539 42.630191 
L 261.050141 41.950061 
L 261.051265 41.9713 
L 261.222107 38.000225 
L 261.223231 38.158821 
L 261.316519 35.852309 
L 261.317643 35.875242 
L 261.322139 36.026335 
L 261.327759 35.742302 
L 261.463755 32.76637 
L 261.464879 32.806972 
L 261.530069 31.283397 
L 261.532317 31.28618 
L 261.649209 28.550654 
L 261.658201 28.65697 
L 261.659325 28.668527 
L 261.684051 27.863142 
L 261.686299 27.892731 
L 261.815552 25.129976 
L 261.688547 27.950821 
L 261.818924 25.267332 
L 262.01112 21.317859 
L 262.014492 21.325121 
L 262.01674 21.403057 
L 262.098785 20.467576 
L 262.101033 20.512111 
L 262.177461 20.243569 
L 262.202187 20.63071 
L 262.211179 20.494563 
L 262.758543 59.803836 
L 262.759667 59.747199 
L 262.83385 61.583307 
L 262.836098 61.566667 
L 263.021549 65.295583 
L 263.875746 38.629406 
L 263.054144 66.002458 
L 263.87687 38.672065 
L 263.879118 38.72489 
L 263.949926 37.094272 
L 263.954422 37.113756 
L 263.953298 37.025109 
L 263.955546 37.077571 
L 264.092668 34.064245 
L 264.098287 33.909642 
L 264.099412 33.983524 
L 264.233161 30.949383 
L 264.235409 30.972498 
L 264.236533 31.047045 
L 264.317456 29.12822 
L 264.924386 18.22 
L 264.990699 19.434553 
L 265.037905 30.101701 
L 265.234595 47.592538 
L 265.485236 56.728487 
L 265.641463 61.189267 
L 265.488607 56.719531 
L 265.642587 61.143704 
L 265.64371 61.077627 
L 265.724635 62.706067 
L 265.725759 62.674359 
L 265.83253 64.732962 
L 265.860628 63.871969 
L 266.343929 45.425864 
L 266.345053 45.432278 
L 266.365284 44.924541 
L 266.366407 44.934041 
L 266.599063 39.296465 
L 266.601311 39.328717 
L 266.602435 39.333255 
L 266.614799 39.029496 
L 266.759789 35.024595 
L 266.762036 35.044806 
L 266.76316 35.047226 
L 266.769904 34.800346 
L 266.7744 34.809665 
L 266.937369 31.203705 
L 266.965468 30.600422 
L 266.968839 30.641509 
L 267.132932 27.147311 
L 267.134056 27.200681 
L 267.209361 25.568429 
L 267.508331 19.379852 
L 267.509455 19.48889 
L 267.519571 19.187068 
L 267.521818 19.269603 
" clip-path="url(#p72d6c015de)" style="fill: none; stroke: #1f77b4; stroke-width: 1.5; stroke-linecap: square"/>
   </g>
   <g id="line2d_14">
    <path d="M 73.958182 148.365923 
L 74.44492 148.277942 
L 74.570823 147.689787 
L 74.866477 147.637567 
L 74.980017 147.138906 
L 77.208254 147.040668 
L 77.354393 146.356636 
L 77.510651 146.173654 
L 77.624189 146.134141 
L 77.738851 145.340162 
L 79.979281 145.237114 
L 80.136665 144.615134 
L 80.41209 144.506609 
L 80.617813 143.575031 
L 82.709757 143.47289 
L 82.872729 142.638037 
L 83.177315 142.535412 
L 83.326796 142.003138 
L 85.482436 141.89422 
L 85.633038 141.19509 
L 85.6735 141.084236 
L 85.955596 140.870576 
L 86.083722 140.303812 
L 88.23602 140.215498 
L 88.386625 139.402397 
L 88.569826 139.184925 
L 88.70919 139.091982 
L 88.884521 137.882089 
L 90.971647 137.773201 
L 91.217788 136.641154 
L 91.470675 136.541827 
L 91.639266 135.477944 
L 93.873677 135.377559 
L 94.032155 134.817208 
L 94.226598 134.710862 
L 94.36934 134.29165 
L 96.529584 134.2014 
L 96.672323 133.224258 
L 96.835295 132.894298 
L 97.006136 132.790342 
L 97.191592 132.190751 
L 99.419298 132.091817 
L 99.549679 131.694479 
L 99.775601 131.598299 
L 99.952064 130.638463 
L 102.213521 130.531935 
L 102.394479 130.003383 
L 102.550707 129.903753 
L 102.669849 129.615787 
L 104.905429 129.513283 
L 105.04143 128.851276 
L 105.076274 128.743327 
L 105.194292 128.676252 
L 105.330294 128.58467 
L 105.465171 127.973279 
L 107.704989 127.866086 
L 107.835372 127.352237 
L 107.875834 127.24332 
L 107.99048 127.226891 
L 108.1085 127.130348 
L 108.256866 126.464589 
L 110.496972 126.358757 
L 110.759987 125.579936 
L 110.883627 125.469959 
L 111.005018 125.128805 
L 113.285598 125.029478 
L 113.473302 123.883302 
L 114.339894 123.883302 
L 114.451167 124.43028 
L 118.859496 124.347836 
L 118.993254 123.753236 
L 119.178719 123.753236 
L 119.296741 122.454605 
L 121.623434 122.363084 
L 121.794283 121.009722 
L 121.958388 120.968334 
L 122.083154 119.349092 
L 124.190658 119.24444 
L 124.590801 117.007182 
L 124.751536 116.909973 
L 124.922387 114.877389 
L 127.088207 114.785505 
L 127.219705 114.017938 
L 127.239936 113.926992 
L 127.354575 113.801283 
L 127.506306 113.790664 
L 127.624319 111.817197 
L 129.876688 111.728611 
L 130.012684 110.794885 
L 130.030668 110.703969 
L 130.15655 110.355977 
L 130.284679 110.282579 
L 130.404945 109.655697 
L 132.704559 109.544692 
L 132.865664 108.824838 
L 133.067985 108.742665 
L 133.195 107.642234 
L 135.46847 107.536009 
L 135.59885 106.857937 
L 135.831509 106.768745 
L 135.982119 105.775568 
L 138.295207 105.670221 
L 138.450309 104.975235 
L 138.618901 104.864472 
L 138.767264 104.24939 
L 140.94435 104.146433 
L 141.09608 103.155978 
L 141.130922 103.047666 
L 141.251187 102.851523 
L 141.390556 102.744119 
L 141.543413 102.40717 
L 143.811547 102.311686 
L 143.944176 101.863217 
L 144.157725 101.81841 
L 144.274614 101.306224 
L 146.60121 101.208078 
L 146.728217 100.897844 
L 146.909177 100.897844 
L 147.022697 99.686227 
L 149.33019 99.584056 
L 149.474057 98.933848 
L 149.587578 98.904228 
L 149.694354 98.848862 
L 149.819114 97.982997 
L 152.086123 97.892111 
L 152.219875 97.222147 
L 152.238982 97.125634 
L 152.354749 97.053052 
L 152.468265 96.970154 
L 152.5874 96.523925 
L 154.82968 96.432041 
L 154.988156 95.19864 
L 154.999396 95.122397 
L 155.141011 93.996371 
L 155.235424 93.893746 
L 155.370297 93.289344 
L 157.999207 93.19504 
L 158.234111 91.342109 
L 160.416802 91.239575 
L 160.57303 90.766933 
L 160.783204 90.660406 
L 160.903464 90.269967 
L 163.203063 90.181289 
L 163.326698 89.792665 
L 163.545867 89.733124 
L 163.663879 89.333971 
L 165.887035 89.25316 
L 166.026403 88.42581 
L 166.313012 88.322429 
L 166.455755 87.631559 
L 166.987508 87.631559 
L 167.099907 88.96111 
L 168.725827 88.860331 
L 168.876434 88.188642 
L 171.461534 88.088105 
L 171.626755 87.211651 
L 171.833563 87.206417 
L 171.963941 84.509919 
L 174.26017 84.433919 
L 174.383806 83.973137 
L 174.613095 83.879771 
L 174.734484 83.368765 
L 176.990243 83.277063 
L 177.143099 82.323035 
L 177.279097 82.175089 
L 177.382501 82.10284 
L 177.508383 81.518437 
L 179.854064 81.416054 
L 179.97545 81.193106 
L 180.146289 81.090481 
L 180.28566 80.392047 
L 182.529076 80.300375 
L 182.675191 79.558948 
L 182.912343 79.468759 
L 183.038226 78.741764 
L 185.4109 78.633512 
L 185.532288 78.448382 
L 188.112882 78.338224 
L 188.351161 77.830849 
L 188.429838 77.737694 
L 188.546728 77.082404 
L 190.835083 76.988372 
L 190.968833 76.413922 
L 191.085723 76.399612 
L 191.205985 76.290754 
L 191.332989 75.611169 
L 193.596623 75.510541 
L 193.765214 74.701949 
L 193.976518 74.614664 
L 194.110269 74.028445 
L 196.336806 73.939042 
L 196.467184 73.207478 
L 196.509894 73.097986 
L 196.631281 73.095384 
L 196.740303 73.02368 
L 196.866185 72.469078 
L 199.154552 72.374289 
L 199.290544 71.789795 
L 199.484984 71.726411 
L 199.607491 71.079562 
L 200.171709 71.079562 
L 200.282977 71.434179 
L 201.994741 71.330707 
L 202.135232 71.054389 
L 204.643865 70.958088 
L 204.783231 70.252151 
L 205.010265 70.17143 
L 205.130527 69.026495 
L 207.440238 68.925988 
L 207.56612 68.435586 
L 207.794278 68.326578 
L 207.922406 67.558134 
L 210.175932 67.468761 
L 210.307434 66.844845 
L 210.536721 66.844845 
L 210.651361 66.237175 
L 212.936354 66.131525 
L 213.076846 65.536865 
L 213.32299 65.4389 
L 213.444375 64.967045 
L 215.79564 64.85613 
L 215.918149 64.483571 
L 218.472869 64.379615 
L 218.624603 63.700545 
L 218.830286 63.700545 
L 218.944931 62.14269 
L 221.237774 62.046994 
L 221.36928 61.518471 
L 221.600813 61.411036 
L 221.723326 60.858703 
L 223.997064 60.750935 
L 224.269062 59.604577 
L 224.383705 59.498564 
L 224.510715 59.19777 
L 226.827162 59.094964 
L 226.958667 58.66843 
L 227.123888 58.66843 
L 227.241903 57.740149 
L 229.585351 57.644968 
L 229.721352 57.172054 
L 229.891068 57.122526 
L 230.002339 56.991099 
L 232.2997 56.883876 
L 232.491894 56.291455 
L 232.650369 56.291455 
L 232.766137 55.361329 
L 235.087087 55.269898 
L 235.219714 54.634334 
L 235.435514 54.608889 
L 235.555776 53.815122 
L 237.781173 53.713617 
L 237.927284 52.945838 
L 238.193652 52.852835 
L 238.320657 52.264982 
L 240.623596 52.155732 
L 240.833773 51.268477 
L 240.94167 51.268477 
L 241.055187 50.8771 
L 243.457041 50.786032 
L 243.572805 50.588589 
L 243.707679 50.578151 
L 243.825696 49.573719 
L 246.181482 49.485677 
L 246.301744 49.084286 
L 246.487193 48.982175 
L 246.624317 48.550589 
L 248.891324 48.460188 
L 249.032941 47.689535 
L 249.243119 47.602522 
L 249.371249 47.078386 
L 251.747265 46.986774 
L 251.86528 46.848509 
L 252.020384 46.739259 
L 252.133906 46.643079 
L 254.384047 46.566655 
L 254.509928 45.979105 
L 254.631316 45.909761 
L 254.778552 45.801963 
L 254.915672 45.30427 
L 257.172542 45.255257 
L 257.29168 44.668614 
L 257.542317 44.58496 
L 257.664826 43.835818 
L 259.912716 43.727808 
L 260.143126 42.824034 
L 260.292608 42.764734 
L 260.415115 42.111229 
L 262.683236 42.111229 
L 262.683236 42.111229 
" clip-path="url(#p72d6c015de)" style="fill: none; stroke: #ff7f0e; stroke-width: 1.5; stroke-linecap: square"/>
   </g>
   <g id="patch_3">
    <path d="M 64.28 174.04 
L 64.28 10.8 
" style="fill: none; stroke: #000000; stroke-width: 0.8; stroke-linejoin: miter; stroke-linecap: square"/>
   </g>
   <g id="patch_4">
    <path d="M 277.2 174.04 
L 277.2 10.8 
" style="fill: none; stroke: #000000; stroke-width: 0.8; stroke-linejoin: miter; stroke-linecap: square"/>
   </g>
   <g id="patch_5">
    <path d="M 64.28 174.04 
L 277.2 174.04 
" style="fill: none; stroke: #000000; stroke-width: 0.8; stroke-linejoin: miter; stroke-linecap: square"/>
   </g>
   <g id="patch_6">
    <path d="M 64.28 10.8 
L 277.2 10.8 
" style="fill: none; stroke: #000000; stroke-width: 0.8; stroke-linejoin: miter; stroke-linecap: square"/>
   </g>
  </g>
 </g>
 <defs>
  <clipPath id="p72d6c015de">
   <rect x="64.28" y="10.8" width="212.92" height="163.24"/>
  </clipPath>
 </defs>
</svg>
