<?xml version="1.0" encoding="utf-8" standalone="no"?>
<!DOCTYPE svg PUBLIC "-//W3C//DTD SVG 1.1//EN"
  "http://www.w3.org/Graphics/SVG/1.1/DTD/svg11.dtd">
<svg xmlns:xlink="http://www.w3.org/1999/xlink" width="288pt" height="216pt" viewBox="0 0 288 216" xmlns="http://www.w3.org/2000/svg" version="1.1">
 <metadata>
  <rdf:RDF xmlns:dc="http://purl.org/dc/elements/1.1/" xmlns:cc="http://creativecommons.org/ns#" xmlns:rdf="http://www.w3.org/1999/02/22-rdf-syntax-ns#">
   <cc:Work>
    <dc:type rdf:resource="http://purl.org/dc/dcmitype/StillImage"/>
    <dc:date>2026-04-25T17:56:48.322938</dc:date>
    <dc:format>image/svg+xml</dc:format>
    <dc:creator>
     <cc:Agent>
      <dc:title>Matplotlib v3.10.9, https://matplotlib.org/</dc:title>
     </cc:Agent>
    </dc:creator>
   </cc:Work>
  </rdf:RDF>
 </metadata>
 <defs>
  <style type="text/css">*{stroke-linejoin: round; stroke-linecap: butt}</style>
 </defs>
 <g id="figure_1">
  <g id="patch_1">
   <path d="M 0 216 
L 288 216 
L 288 0 
L 0 0 
z
" style="fill: #ffffff"/>
  </g>
  <g id="axes_1">
   <g id="patch_2">
    <path d="M 50.87 174.04 
L 277.2 174.04 
L 277.2 10.8 
L 50.87 10.8 
z
" style="fill: #ffffff"/>
   </g>
   <g id="matplotlib.axis_1">
    <g id="xtick_1">
     <g id="line2d_1">
      <defs>
       <path id="mcc8877d919" d="M 0 0 
L 0 3.5 
" style="stroke: #000000; stroke-width: 0.8"/>
      </defs>
      <g>
       <use xlink:href="#mcc8877d919" x="61.157727" y="174.04" style="stroke: #000000; stroke-width: 0.8"/>
      </g>
     </g>
     <g id="text_1">
      <!-- 0 -->
      <g transform="translate(57.976477 188.638438) scale(0.1 -0.1)">
       <defs>
        <path id="DejaVuSans-30" d="M 2034 4250 
Q 1547 4250 1301 3770 
Q 1056 3291 1056 2328 
Q 1056 1369 1301 889 
Q 1547 409 2034 409 
Q 2525 409 2770 889 
Q 3016 1369 3016 2328 
Q 3016 3291 2770 3770 
Q 2525 4250 2034 4250 
z
M 2034 4750 
Q 2819 4750 3233 4129 
Q 3647 3509 3647 2328 
Q 3647 1150 3233 529 
Q 2819 -91 2034 -91 
Q 1250 -91 836 529 
Q 422 1150 422 2328 
Q 422 3509 836 4129 
Q 1250 4750 2034 4750 
z
" transform="scale(0.015625)"/>
       </defs>
       <use xlink:href="#DejaVuSans-30"/>
      </g>
     </g>
    </g>
    <g id="xtick_2">
     <g id="line2d_2">
      <g>
       <use xlink:href="#mcc8877d919" x="117.745888" y="174.04" style="stroke: #000000; stroke-width: 0.8"/>
      </g>
     </g>
     <g id="text_2">
      <!-- 5000 -->
      <g transform="translate(105.020888 188.638438) scale(0.1 -0.1)">
       <defs>
        <path id="DejaVuSans-35" d="M 691 4666 
L 3169 4666 
L 3169 4134 
L 1269 4134 
L 1269 2991 
Q 1406 3038 1543 3061 
Q 1681 3084 1819 3084 
Q 2600 3084 3056 2656 
Q 3513 2228 3513 1497 
Q 3513 744 3044 326 
Q 2575 -91 1722 -91 
Q 1428 -91 1123 -41 
Q 819 9 494 109 
L 494 744 
Q 775 591 1075 516 
Q 1375 441 1709 441 
Q 2250 441 2565 725 
Q 2881 1009 2881 1497 
Q 2881 1984 2565 2268 
Q 2250 2553 1709 2553 
Q 1456 2553 1204 2497 
Q 953 2441 691 2322 
L 691 4666 
z
" transform="scale(0.015625)"/>
       </defs>
       <use xlink:href="#DejaVuSans-35"/>
       <use xlink:href="#DejaVuSans-30" transform="translate(63.623047 0)"/>
       <use xlink:href="#DejaVuSans-30" transform="translate(127.246094 0)"/>
       <use xlink:href="#DejaVuSans-30" transform="translate(190.869141 0)"/>
      </g>
     </g>
    </g>
    <g id="xtick_3">
     <g id="line2d_3">
      <g>
       <use xlink:href="#mcc8877d919" x="174.334048" y="174.04" style="stroke: #000000; stroke-width: 0.8"/>
      </g>
     </g>
     <g id="text_3">
      <!-- 10000 -->
      <g transform="translate(158.427798 188.638438) scale(0.1 -0.1)">
       <defs>
        <path id="DejaVuSans-31" d="M 794 531 
L 1825 531 
L 1825 4091 
L 703 3866 
L 703 4441 
L 1819 4666 
L 2450 4666 
L 2450 531 
L 3481 531 
L 3481 0 
L 794 0 
L 794 531 
z
" transform="scale(0.015625)"/>
       </defs>
       <use xlink:href="#DejaVuSans-31"/>
       <use xlink:href="#DejaVuSans-30" transform="translate(63.623047 0)"/>
       <use xlink:href="#DejaVuSans-30" transform="translate(127.246094 0)"/>
       <use xlink:href="#DejaVuSans-30" transform="translate(190.869141 0)"/>
       <use xlink:href="#DejaVuSans-30" transform="translate(254.492188 0)"/>
      </g>
     </g>
    </g>
    <g id="xtick_4">
     <g id="line2d_4">
      <g>
       <use xlink:href="#mcc8877d919" x="230.922208" y="174.04" style="stroke: #000000; stroke-width: 0.8"/>
      </g>
     </g>
     <g id="text_4">
      <!-- 15000 -->
      <g transform="translate(215.015958 188.638438) scale(0.1 -0.1)">
       <use xlink:href="#DejaVuSans-31"/>
       <use xlink:href="#DejaVuSans-35" transform="translate(63.623047 0)"/>
       <use xlink:href="#DejaVuSans-30" transform="translate(127.246094 0)"/>
       <use xlink:href="#DejaVuSans-30" transform="translate(190.869141 0)"/>
       <use xlink:href="#DejaVuSans-30" transform="translate(254.492188 0)"/>
      </g>
     </g>
    </g>
    <g id="text_5">
     <!-- Time (s) -->
     <g transform="translate(143.706094 202.316563) scale(0.1 -0.1)">
      <defs>
       <path id="DejaVuSans-54" d="M -19 4666 
L 3928 4666 
L 3928 4134 
L 2272 4134 
L 2272 0 
L 1638 0 
L 1638 4134 
L -19 4134 
L -19 4666 
z
" transform="scale(0.015625)"/>
       <path id="DejaVuSans-69" d="M 603 3500 
L 1178 3500 
L 1178 0 
L 603 0 
L 603 3500 
z
M 603 4863 
L 1178 4863 
L 1178 4134 
L 603 4134 
L 603 4863 
z
" transform="scale(0.015625)"/>
       <path id="DejaVuSans-6d" d="M 3328 2828 
Q 3544 3216 3844 3400 
Q 4144 3584 4550 3584 
Q 5097 3584 5394 3201 
Q 5691 2819 5691 2113 
L 5691 0 
L 5113 0 
L 5113 2094 
Q 5113 2597 4934 2840 
Q 4756 3084 4391 3084 
Q 3944 3084 3684 2787 
Q 3425 2491 3425 1978 
L 3425 0 
L 2847 0 
L 2847 2094 
Q 2847 2600 2669 2842 
Q 2491 3084 2119 3084 
Q 1678 3084 1418 2786 
Q 1159 2488 1159 1978 
L 1159 0 
L 581 0 
L 581 3500 
L 1159 3500 
L 1159 2956 
Q 1356 3278 1631 3431 
Q 1906 3584 2284 3584 
Q 2666 3584 2933 3390 
Q 3200 3197 3328 2828 
z
" transform="scale(0.015625)"/>
       <path id="DejaVuSans-65" d="M 3597 1894 
L 3597 1613 
L 953 1613 
Q 991 1019 1311 708 
Q 1631 397 2203 397 
Q 2534 397 2845 478 
Q 3156 559 3463 722 
L 3463 178 
Q 3153 47 2828 -22 
Q 2503 -91 2169 -91 
Q 1331 -91 842 396 
Q 353 884 353 1716 
Q 353 2575 817 3079 
Q 1281 3584 2069 3584 
Q 2775 3584 3186 3129 
Q 3597 2675 3597 1894 
z
M 3022 2063 
Q 3016 2534 2758 2815 
Q 2500 3097 2075 3097 
Q 1594 3097 1305 2825 
Q 1016 2553 972 2059 
L 3022 2063 
z
" transform="scale(0.015625)"/>
       <path id="DejaVuSans-20" transform="scale(0.015625)"/>
       <path id="DejaVuSans-28" d="M 1984 4856 
Q 1566 4138 1362 3434 
Q 1159 2731 1159 2009 
Q 1159 1288 1364 580 
Q 1569 -128 1984 -844 
L 1484 -844 
Q 1016 -109 783 600 
Q 550 1309 550 2009 
Q 550 2706 781 3412 
Q 1013 4119 1484 4856 
L 1984 4856 
z
" transform="scale(0.015625)"/>
       <path id="DejaVuSans-73" d="M 2834 3397 
L 2834 2853 
Q 2591 2978 2328 3040 
Q 2066 3103 1784 3103 
Q 1356 3103 1142 2972 
Q 928 2841 928 2578 
Q 928 2378 1081 2264 
Q 1234 2150 1697 2047 
L 1894 2003 
Q 2506 1872 2764 1633 
Q 3022 1394 3022 966 
Q 3022 478 2636 193 
Q 2250 -91 1575 -91 
Q 1294 -91 989 -36 
Q 684 19 347 128 
L 347 722 
Q 666 556 975 473 
Q 1284 391 1588 391 
Q 1994 391 2212 530 
Q 2431 669 2431 922 
Q 2431 1156 2273 1281 
Q 2116 1406 1581 1522 
L 1381 1569 
Q 847 1681 609 1914 
Q 372 2147 372 2553 
Q 372 3047 722 3315 
Q 1072 3584 1716 3584 
Q 2034 3584 2315 3537 
Q 2597 3491 2834 3397 
z
" transform="scale(0.015625)"/>
       <path id="DejaVuSans-29" d="M 513 4856 
L 1013 4856 
Q 1481 4119 1714 3412 
Q 1947 2706 1947 2009 
Q 1947 1309 1714 600 
Q 1481 -109 1013 -844 
L 513 -844 
Q 928 -128 1133 580 
Q 1338 1288 1338 2009 
Q 1338 2731 1133 3434 
Q 928 4138 513 4856 
z
" transform="scale(0.015625)"/>
      </defs>
      <use xlink:href="#DejaVuSans-54"/>
      <use xlink:href="#DejaVuSans-69" transform="translate(57.958984 0)"/>
      <use xlink:href="#DejaVuSans-6d" transform="translate(85.742188 0)"/>
      <use xlink:href="#DejaVuSans-65" transform="translate(183.154297 0)"/>
      <use xlink:href="#DejaVuSans-20" transform="translate(244.677734 0)"/>
      <use xlink:href="#DejaVuSans-28" transform="translate(276.464844 0)"/>
      <use xlink:href="#DejaVuSans-73" transform="translate(315.478516 0)"/>
      <use xlink:href="#DejaVuSans-29" transform="translate(367.578125 0)"/>
     </g>
    </g>
   </g>
   <g id="matplotlib.axis_2">
    <g id="ytick_1">
     <g id="line2d_5">
      <defs>
       <path id="md6ee97408a" d="M 0 0 
L -3.5 0 
" style="stroke: #000000; stroke-width: 0.8"/>
      </defs>
      <g>
       <use xlink:href="#md6ee97408a" x="50.87" y="172.789785" style="stroke: #000000; stroke-width: 0.8"/>
      </g>
     </g>
     <g id="text_6">
      <!-- 540 -->
      <g transform="translate(24.7825 176.589004) scale(0.1 -0.1)">
       <defs>
        <path id="DejaVuSans-34" d="M 2419 4116 
L 825 1625 
L 2419 1625 
L 2419 4116 
z
M 2253 4666 
L 3047 4666 
L 3047 1625 
L 3713 1625 
L 3713 1100 
L 3047 1100 
L 3047 0 
L 2419 0 
L 2419 1100 
L 313 1100 
L 313 1709 
L 2253 4666 
z
" transform="scale(0.015625)"/>
       </defs>
       <use xlink:href="#DejaVuSans-35"/>
       <use xlink:href="#DejaVuSans-34" transform="translate(63.623047 0)"/>
       <use xlink:href="#DejaVuSans-30" transform="translate(127.246094 0)"/>
      </g>
     </g>
    </g>
    <g id="ytick_2">
     <g id="line2d_6">
      <g>
       <use xlink:href="#md6ee97408a" x="50.87" y="142.451013" style="stroke: #000000; stroke-width: 0.8"/>
      </g>
     </g>
     <g id="text_7">
      <!-- 560 -->
      <g transform="translate(24.7825 146.250231) scale(0.1 -0.1)">
       <defs>
        <path id="DejaVuSans-36" d="M 2113 2584 
Q 1688 2584 1439 2293 
Q 1191 2003 1191 1497 
Q 1191 994 1439 701 
Q 1688 409 2113 409 
Q 2538 409 2786 701 
Q 3034 994 3034 1497 
Q 3034 2003 2786 2293 
Q 2538 2584 2113 2584 
z
M 3366 4563 
L 3366 3988 
Q 3128 4100 2886 4159 
Q 2644 4219 2406 4219 
Q 1781 4219 1451 3797 
Q 1122 3375 1075 2522 
Q 1259 2794 1537 2939 
Q 1816 3084 2150 3084 
Q 2853 3084 3261 2657 
Q 3669 2231 3669 1497 
Q 3669 778 3244 343 
Q 2819 -91 2113 -91 
Q 1303 -91 875 529 
Q 447 1150 447 2328 
Q 447 3434 972 4092 
Q 1497 4750 2381 4750 
Q 2619 4750 2861 4703 
Q 3103 4656 3366 4563 
z
" transform="scale(0.015625)"/>
       </defs>
       <use xlink:href="#DejaVuSans-35"/>
       <use xlink:href="#DejaVuSans-36" transform="translate(63.623047 0)"/>
       <use xlink:href="#DejaVuSans-30" transform="translate(127.246094 0)"/>
      </g>
     </g>
    </g>
    <g id="ytick_3">
     <g id="line2d_7">
      <g>
       <use xlink:href="#md6ee97408a" x="50.87" y="112.112241" style="stroke: #000000; stroke-width: 0.8"/>
      </g>
     </g>
     <g id="text_8">
      <!-- 580 -->
      <g transform="translate(24.7825 115.911459) scale(0.1 -0.1)">
       <defs>
        <path id="DejaVuSans-38" d="M 2034 2216 
Q 1584 2216 1326 1975 
Q 1069 1734 1069 1313 
Q 1069 891 1326 650 
Q 1584 409 2034 409 
Q 2484 409 2743 651 
Q 3003 894 3003 1313 
Q 3003 1734 2745 1975 
Q 2488 2216 2034 2216 
z
M 1403 2484 
Q 997 2584 770 2862 
Q 544 3141 544 3541 
Q 544 4100 942 4425 
Q 1341 4750 2034 4750 
Q 2731 4750 3128 4425 
Q 3525 4100 3525 3541 
Q 3525 3141 3298 2862 
Q 3072 2584 2669 2484 
Q 3125 2378 3379 2068 
Q 3634 1759 3634 1313 
Q 3634 634 3220 271 
Q 2806 -91 2034 -91 
Q 1263 -91 848 271 
Q 434 634 434 1313 
Q 434 1759 690 2068 
Q 947 2378 1403 2484 
z
M 1172 3481 
Q 1172 3119 1398 2916 
Q 1625 2713 2034 2713 
Q 2441 2713 2670 2916 
Q 2900 3119 2900 3481 
Q 2900 3844 2670 4047 
Q 2441 4250 2034 4250 
Q 1625 4250 1398 4047 
Q 1172 3844 1172 3481 
z
" transform="scale(0.015625)"/>
       </defs>
       <use xlink:href="#DejaVuSans-35"/>
       <use xlink:href="#DejaVuSans-38" transform="translate(63.623047 0)"/>
       <use xlink:href="#DejaVuSans-30" transform="translate(127.246094 0)"/>
      </g>
     </g>
    </g>
    <g id="ytick_4">
     <g id="line2d_8">
      <g>
       <use xlink:href="#md6ee97408a" x="50.87" y="81.773469" style="stroke: #000000; stroke-width: 0.8"/>
      </g>
     </g>
     <g id="text_9">
      <!-- 600 -->
      <g transform="translate(24.7825 85.572687) scale(0.1 -0.1)">
       <use xlink:href="#DejaVuSans-36"/>
       <use xlink:href="#DejaVuSans-30" transform="translate(63.623047 0)"/>
       <use xlink:href="#DejaVuSans-30" transform="translate(127.246094 0)"/>
      </g>
     </g>
    </g>
    <g id="ytick_5">
     <g id="line2d_9">
      <g>
       <use xlink:href="#md6ee97408a" x="50.87" y="51.434697" style="stroke: #000000; stroke-width: 0.8"/>
      </g>
     </g>
     <g id="text_10">
      <!-- 620 -->
      <g transform="translate(24.7825 55.233915) scale(0.1 -0.1)">
       <defs>
        <path id="DejaVuSans-32" d="M 1228 531 
L 3431 531 
L 3431 0 
L 469 0 
L 469 531 
Q 828 903 1448 1529 
Q 2069 2156 2228 2338 
Q 2531 2678 2651 2914 
Q 2772 3150 2772 3378 
Q 2772 3750 2511 3984 
Q 2250 4219 1831 4219 
Q 1534 4219 1204 4116 
Q 875 4013 500 3803 
L 500 4441 
Q 881 4594 1212 4672 
Q 1544 4750 1819 4750 
Q 2544 4750 2975 4387 
Q 3406 4025 3406 3419 
Q 3406 3131 3298 2873 
Q 3191 2616 2906 2266 
Q 2828 2175 2409 1742 
Q 1991 1309 1228 531 
z
" transform="scale(0.015625)"/>
       </defs>
       <use xlink:href="#DejaVuSans-36"/>
       <use xlink:href="#DejaVuSans-32" transform="translate(63.623047 0)"/>
       <use xlink:href="#DejaVuSans-30" transform="translate(127.246094 0)"/>
      </g>
     </g>
    </g>
    <g id="ytick_6">
     <g id="line2d_10">
      <g>
       <use xlink:href="#md6ee97408a" x="50.87" y="21.095924" style="stroke: #000000; stroke-width: 0.8"/>
      </g>
     </g>
     <g id="text_11">
      <!-- 640 -->
      <g transform="translate(24.7825 24.895143) scale(0.1 -0.1)">
       <use xlink:href="#DejaVuSans-36"/>
       <use xlink:href="#DejaVuSans-34" transform="translate(63.623047 0)"/>
       <use xlink:href="#DejaVuSans-30" transform="translate(127.246094 0)"/>
      </g>
     </g>
    </g>
    <g id="text_12">
     <!-- R (ohm)) -->
     <g transform="translate(18.702812 114.434063) rotate(-90) scale(0.1 -0.1)">
      <defs>
       <path id="DejaVuSans-52" d="M 2841 2188 
Q 3044 2119 3236 1894 
Q 3428 1669 3622 1275 
L 4263 0 
L 3584 0 
L 2988 1197 
Q 2756 1666 2539 1819 
Q 2322 1972 1947 1972 
L 1259 1972 
L 1259 0 
L 628 0 
L 628 4666 
L 2053 4666 
Q 2853 4666 3247 4331 
Q 3641 3997 3641 3322 
Q 3641 2881 3436 2590 
Q 3231 2300 2841 2188 
z
M 1259 4147 
L 1259 2491 
L 2053 2491 
Q 2509 2491 2742 2702 
Q 2975 2913 2975 3322 
Q 2975 3731 2742 3939 
Q 2509 4147 2053 4147 
L 1259 4147 
z
" transform="scale(0.015625)"/>
       <path id="DejaVuSans-6f" d="M 1959 3097 
Q 1497 3097 1228 2736 
Q 959 2375 959 1747 
Q 959 1119 1226 758 
Q 1494 397 1959 397 
Q 2419 397 2687 759 
Q 2956 1122 2956 1747 
Q 2956 2369 2687 2733 
Q 2419 3097 1959 3097 
z
M 1959 3584 
Q 2709 3584 3137 3096 
Q 3566 2609 3566 1747 
Q 3566 888 3137 398 
Q 2709 -91 1959 -91 
Q 1206 -91 779 398 
Q 353 888 353 1747 
Q 353 2609 779 3096 
Q 1206 3584 1959 3584 
z
" transform="scale(0.015625)"/>
       <path id="DejaVuSans-68" d="M 3513 2113 
L 3513 0 
L 2938 0 
L 2938 2094 
Q 2938 2591 2744 2837 
Q 2550 3084 2163 3084 
Q 1697 3084 1428 2787 
Q 1159 2491 1159 1978 
L 1159 0 
L 581 0 
L 581 4863 
L 1159 4863 
L 1159 2956 
Q 1366 3272 1645 3428 
Q 1925 3584 2291 3584 
Q 2894 3584 3203 3211 
Q 3513 2838 3513 2113 
z
" transform="scale(0.015625)"/>
      </defs>
      <use xlink:href="#DejaVuSans-52"/>
      <use xlink:href="#DejaVuSans-20" transform="translate(69.482422 0)"/>
      <use xlink:href="#DejaVuSans-28" transform="translate(101.269531 0)"/>
      <use xlink:href="#DejaVuSans-6f" transform="translate(140.283203 0)"/>
      <use xlink:href="#DejaVuSans-68" transform="translate(201.464844 0)"/>
      <use xlink:href="#DejaVuSans-6d" transform="translate(264.84375 0)"/>
      <use xlink:href="#DejaVuSans-29" transform="translate(362.255859 0)"/>
      <use xlink:href="#DejaVuSans-29" transform="translate(401.269531 0)"/>
     </g>
    </g>
   </g>
   <g id="line2d_11">
    <path d="M 61.157727 135.43906 
L 61.166148 135.400915 
L 61.203567 136.006894 
L 61.298046 140.957591 
L 61.695589 159.685635 
L 61.969658 166.62 
L 62.029523 166.288355 
L 62.030458 166.290114 
L 62.048231 166.09022 
L 62.236244 162.919962 
L 63.472819 139.640269 
L 63.6786 136.633612 
L 63.909637 133.700469 
L 64.023753 132.542674 
L 64.057426 133.165874 
L 64.254793 144.174605 
L 64.72625 163.062731 
L 64.819806 164.247746 
L 64.874065 164.003225 
L 65.220222 158.027687 
L 66.582452 132.892281 
L 66.873423 129.481206 
L 66.918331 130.350039 
L 67.188718 145.371842 
L 67.57044 159.957284 
L 67.684581 161.490703 
L 67.730425 161.2597 
L 67.73136 161.259977 
L 67.741651 161.151929 
L 67.897896 158.743104 
L 69.576324 129.271035 
L 69.592229 129.161412 
L 69.623103 128.753846 
L 69.658654 129.374176 
L 69.749403 134.191178 
L 70.174152 153.870179 
L 70.432369 159.555921 
L 70.475405 159.313252 
L 70.648486 156.64074 
L 71.182691 145.838108 
L 72.218348 128.428867 
L 72.254835 129.04929 
L 73.010753 158.789675 
L 73.083725 158.315261 
L 73.255863 155.429059 
L 74.784518 127.393379 
L 74.82381 128.165643 
L 74.984721 136.903595 
L 75.437517 154.940202 
L 75.577846 157.593734 
L 75.633977 157.280884 
L 75.893118 152.747104 
L 77.361919 125.872181 
L 77.365661 125.862645 
L 77.412435 126.965629 
L 78.088792 155.627565 
L 78.14586 156.00754 
L 78.20012 155.639601 
L 78.245025 155.042788 
L 78.394708 152.282412 
L 79.602495 129.266498 
L 79.679209 128.286654 
L 79.723181 129.126692 
L 80.452027 156.261691 
L 80.525944 155.699875 
L 80.744888 151.497741 
L 81.111668 143.479464 
L 81.993081 127.756503 
L 82.02583 128.187679 
L 82.197996 136.867764 
L 82.555429 150.632889 
L 82.605957 151.976691 
L 82.779996 155.477575 
L 82.814617 155.363323 
L 82.862338 154.89002 
L 83.079413 150.698163 
L 84.323824 125.688674 
L 84.534327 122.827749 
L 84.575494 123.703711 
L 85.25657 152.073166 
L 85.312702 152.44129 
L 85.367895 152.076684 
L 85.652275 146.751937 
L 86.849644 124.002302 
L 86.875836 124.396258 
L 86.980607 129.488335 
L 87.428682 148.018614 
L 87.621383 152.21936 
L 87.671896 151.926046 
L 87.885174 148.039909 
L 88.594232 132.769234 
L 89.226583 121.77504 
L 89.251839 121.447376 
L 89.357542 125.693952 
L 89.774741 144.399034 
L 90.02263 150.488547 
L 90.037597 150.459567 
L 90.075949 150.151439 
L 90.206909 148.000467 
L 90.658723 138.290264 
L 91.5689 121.003516 
L 91.58948 121.333216 
L 91.706408 127.006274 
L 92.155414 145.6109 
L 92.285437 148.583392 
L 92.343433 148.072129 
L 92.431363 147.17691 
L 93.040322 134.060168 
L 93.399525 126.620373 
L 93.883142 118.347299 
L 93.945816 120.174866 
L 94.630547 146.993681 
L 94.651126 147.059695 
L 94.709123 146.673146 
L 94.987876 141.153504 
L 95.492069 130.058206 
L 95.756791 124.777437 
L 96.184276 117.725765 
L 96.192694 117.689842 
L 96.230111 118.372853 
L 96.592117 135.605994 
L 96.927932 145.793388 
L 96.96909 145.96921 
L 97.023345 145.560533 
L 97.368516 138.516268 
L 98.360054 118.301098 
L 98.508784 116.105593 
L 98.555555 117.185245 
L 99.276756 144.696052 
L 99.370295 143.83046 
L 99.653725 137.936491 
L 100.162589 126.791844 
L 100.281387 124.386629 
L 100.599426 118.422757 
L 100.818314 115.08927 
L 100.861343 115.931437 
L 101.589092 143.803055 
L 101.594705 143.809351 
L 101.670471 143.189391 
L 103.136257 114.091557 
L 103.175544 114.881228 
L 103.902355 142.640908 
L 104.002442 141.675785 
L 105.444827 112.676834 
L 105.454181 112.643873 
L 105.484114 113.148285 
L 105.665582 122.780993 
L 106.098674 138.984941 
L 106.241789 141.552738 
L 106.300719 141.120451 
L 106.35778 140.294023 
L 106.999464 126.363075 
L 107.324981 119.629808 
L 108.036817 107.752338 
L 108.063943 108.180274 
L 108.173385 114.15609 
L 108.662598 135.697562 
L 108.819744 138.961795 
L 108.871189 138.593485 
L 109.008695 136.234472 
L 110.154549 112.673778 
L 110.356596 109.807205 
L 110.402431 110.943705 
L 111.124552 139.177892 
L 111.190965 138.649871 
L 111.515545 131.926973 
L 111.847609 124.392833 
L 112.677298 108.797641 
L 112.718456 109.872016 
L 112.914889 120.58845 
L 113.261917 133.999431 
L 113.44151 137.964082 
L 113.493892 137.599753 
L 113.803506 131.317198 
L 114.36286 118.837267 
L 114.50036 116.06291 
L 114.933442 108.346466 
L 114.994241 107.609292 
L 115.032592 108.506456 
L 115.765934 137.067103 
L 115.818315 136.659166 
L 115.97546 133.761299 
L 116.372063 124.713923 
L 117.129726 109.419082 
L 117.308386 106.819343 
L 117.35422 107.819556 
L 118.060434 135.682748 
L 118.084754 135.667749 
L 118.08569 135.669231 
L 118.113752 135.509519 
L 118.175488 134.721977 
L 119.542088 106.512789 
L 119.630016 105.37203 
L 119.667431 106.247992 
L 120.307234 133.253554 
L 120.390483 134.541248 
L 120.446606 134.073038 
L 120.633679 130.61854 
L 121.136912 119.133452 
L 121.444651 112.626652 
L 121.907667 104.374224 
L 121.944146 103.92092 
L 121.982496 104.8004 
L 122.7177 133.005885 
L 122.756051 132.814879 
L 122.930029 129.882847 
L 123.380878 119.65814 
L 123.899075 108.824213 
L 124.15256 104.230437 
L 124.419144 100.227919 
L 124.461237 101.228873 
L 125.198309 131.246369 
L 125.231983 131.10036 
L 125.302135 130.037466 
L 126.063517 113.045699 
L 126.769715 100.001082 
L 126.882895 110.746311 
L 127.275749 126.479642 
L 127.433827 130.05978 
L 127.524558 129.224186 
L 128.249465 113.304015 
L 128.420637 109.752579 
L 128.928544 100.484754 
L 128.979054 99.719897 
L 129.023015 100.745386 
L 129.165189 108.647651 
L 129.578621 125.596736 
L 129.74418 129.07364 
L 129.82275 128.426738 
L 130.005146 124.763179 
L 130.548591 112.266768 
L 131.291272 98.336097 
L 131.332427 99.299554 
L 132.059209 127.993988 
L 132.099429 127.76354 
L 132.241605 125.284627 
L 133.345439 101.108788 
L 133.606408 97.15497 
L 133.651839 98.485347 
L 134.370232 126.70472 
L 134.442259 126.122906 
L 134.692949 120.855284 
L 135.260743 107.739469 
L 135.917395 95.413139 
L 135.972583 97.034701 
L 136.6863 125.120563 
L 136.689106 125.110194 
L 136.705008 125.054086 
L 136.835963 123.059401 
L 137.71431 103.087178 
L 137.94161 98.597099 
L 138.230646 93.7913 
L 138.24 93.84787 
L 138.334474 98.365355 
L 138.758212 117.762522 
L 138.999543 123.371047 
L 139.02854 123.222353 
L 139.227779 119.566387 
L 139.594456 110.775753 
L 140.081801 100.111445 
L 140.466251 93.172081 
L 140.542954 92.337505 
L 140.578499 93.15736 
L 141.318404 122.278803 
L 141.340854 122.186865 
L 141.415685 121.262758 
L 142.644809 94.591155 
L 142.739284 92.988111 
L 142.857146 91.497189 
L 142.888014 92.147888 
L 143.096611 103.876386 
L 143.424938 117.08164 
L 143.620436 121.360807 
L 143.681237 119.990896 
L 143.963725 114.03406 
L 144.737319 96.520197 
L 145.169472 89.047441 
L 145.21905 90.504476 
L 145.448229 103.502059 
L 145.828012 117.33218 
L 145.941195 119.346401 
L 145.994515 118.970592 
L 147.272324 91.250539 
L 147.356511 89.780171 
L 147.482795 88.027322 
L 147.520215 88.885137 
L 148.232091 118.089353 
L 148.291958 117.8777 
L 148.575402 112.01808 
L 149.788708 86.609544 
L 149.793385 86.573435 
L 149.833613 87.40727 
L 150.559519 116.934057 
L 150.630614 116.366409 
L 150.817702 112.497123 
L 152.106761 85.33083 
L 152.148857 86.274751 
L 152.873835 115.745801 
L 152.886931 115.726358 
L 152.989832 114.433849 
L 153.476262 103.016349 
L 154.235846 86.96878 
L 154.418258 83.617423 
L 154.46316 84.691705 
L 155.069337 111.952714 
L 155.189077 114.151553 
L 155.240529 113.795465 
L 155.405182 110.601413 
L 155.934657 98.05306 
L 156.349067 89.076513 
L 156.72981 83.372717 
L 156.756003 83.743341 
L 157.440795 112.952649 
L 157.503475 113.45595 
L 157.55867 113.013293 
L 158.119062 100.120241 
L 158.656065 88.316192 
L 159.046199 81.604868 
L 159.089238 82.67554 
L 159.814313 111.981879 
L 159.836766 111.921142 
L 161.327133 80.659282 
L 161.336489 80.759923 
L 161.346781 80.092467 
L 161.357072 80.025526 
L 161.39356 80.692428 
L 161.684515 96.767218 
L 162.093358 110.302636 
L 162.13359 110.541417 
L 162.187853 110.177274 
L 162.882984 94.297656 
L 163.505129 81.442194 
L 163.702532 78.602563 
L 163.739953 79.418436 
L 164.033703 95.801817 
L 164.422882 109.266777 
L 164.470597 109.688139 
L 164.531408 109.255296 
L 164.892546 101.238594 
L 165.969341 78.397484 
L 166.011442 77.862796 
L 166.048866 78.661171 
L 166.356667 95.619052 
L 166.73557 108.183607 
L 166.781415 108.468866 
L 166.839422 108.092224 
L 167.083611 102.996258 
L 168.298906 77.15062 
L 168.299841 77.165434 
L 168.325103 76.922024 
L 168.409305 80.460035 
L 169.008077 106.542232 
L 169.096025 107.720303 
L 169.146548 107.386066 
L 169.323377 103.853702 
L 170.57334 76.805458 
L 170.630411 76.332988 
L 170.665027 76.985446 
L 170.855888 88.248511 
L 171.224513 103.113658 
L 171.40321 107.040903 
L 171.470572 106.479828 
L 172.946004 74.864473 
L 173.004009 76.85888 
L 173.558816 102.52814 
L 173.711323 105.616736 
L 173.784299 104.770865 
L 174.371863 89.977936 
L 174.949111 77.619201 
L 175.253178 72.626747 
L 175.299958 73.852316 
L 176.028774 104.347189 
L 176.064327 104.173034 
L 176.143852 102.982277 
L 177.52947 72.833586 
L 177.569699 72.302787 
L 177.608993 73.199858 
L 178.335939 103.254575 
L 178.408913 102.61619 
L 178.678362 96.182441 
L 179.214456 83.057274 
L 179.743069 69.965716 
L 179.782365 71.057775 
L 180.495274 101.842629 
L 180.500887 101.826056 
L 180.553281 101.494041 
L 180.675844 99.109936 
L 182.056701 69.31437 
L 182.075412 69.614998 
L 182.265328 80.659374 
L 182.671353 97.655494 
L 182.813556 100.829732 
L 182.885593 100.233567 
L 183.082996 96.115964 
L 183.753785 80.047284 
L 184.367506 68.315731 
L 184.404928 69.224098 
L 184.567715 79.137251 
L 185.089753 99.533242 
L 185.141209 99.904607 
L 185.195471 99.462228 
L 185.931877 82.181405 
L 186.527848 69.74536 
L 186.670476 68.024824 
L 186.707899 68.857733 
L 186.825781 76.013287 
L 187.197214 93.485949 
L 187.442343 98.353226 
L 187.488188 98.006489 
L 187.546197 96.994703 
L 188.987039 65.009279 
L 189.015108 65.511839 
L 189.759859 96.562509 
L 189.790734 96.424555 
L 189.823481 96.05819 
L 190.357719 83.284296 
L 190.580397 77.938347 
L 190.846114 72.090486 
L 191.298951 64.126003 
L 191.307371 64.192109 
L 191.363508 66.523995 
L 191.896807 91.918644 
L 192.047442 95.605627 
L 192.165331 94.473107 
L 192.302868 91.404788 
L 193.263744 68.955967 
L 193.297426 68.297399 
L 193.489229 64.762628 
L 193.612728 63.006261 
L 193.647346 63.817041 
L 194.375248 95.046774 
L 194.44542 94.48144 
L 194.625995 90.698167 
L 195.922767 63.150603 
L 195.957384 63.873889 
L 196.035039 68.513033 
L 196.385895 86.592137 
L 196.694651 94.506161 
L 196.695587 94.505883 
L 196.725527 94.358948 
L 196.838738 92.364263 
L 197.235439 82.463239 
L 198.212232 61.384699 
L 198.247786 61.045369 
L 198.280533 61.850687 
L 198.940141 92.206032 
L 199.008442 93.044682 
L 199.068322 92.629246 
L 199.197438 90.085707 
L 200.558772 60.119966 
L 200.610232 61.838466 
L 201.068685 85.511559 
L 201.324108 92.183256 
L 201.35779 92.037247 
L 201.531816 88.702556 
L 202.835136 59.556299 
L 202.873496 59.172157 
L 202.90437 59.867298 
L 203.178509 76.106799 
L 203.491006 87.913811 
L 203.635094 90.922319 
L 203.700587 90.351893 
L 203.970983 84.200256 
L 204.840176 63.573261 
L 205.184486 58.320916 
L 205.185422 58.317583 
L 205.206005 58.633859 
L 205.424941 71.876518 
L 205.736504 85.03372 
L 205.947956 90.325784 
L 206.042454 89.34057 
L 206.641251 74.331914 
L 207.48612 57.10618 
L 207.500155 57.041833 
L 207.52261 57.417642 
L 207.638627 64.525051 
L 208.025976 82.907839 
L 208.261753 88.862823 
L 208.368414 87.732249 
L 208.636 81.35831 
L 209.254444 66.339933 
L 209.392918 63.325777 
L 209.807399 55.958292 
L 209.843888 56.665283 
L 210.124575 73.480673 
L 210.416484 84.667262 
L 210.578347 88.2599 
L 210.637292 87.814743 
L 210.817867 83.948698 
L 211.50929 66.718427 
L 212.127739 54.581344 
L 212.181069 56.471499 
L 212.683497 81.844297 
L 212.893077 86.927671 
L 212.908982 86.88073 
L 212.940794 86.597507 
L 213.001609 85.61933 
L 213.142889 82.342969 
L 214.117806 58.919951 
L 214.440596 53.239857 
L 214.471472 53.963329 
L 215.207805 85.84339 
L 215.239616 85.663772 
L 215.378089 83.122455 
L 216.750647 52.087432 
L 216.767488 52.255014 
L 216.840466 56.26355 
L 217.269918 78.167314 
L 217.514116 84.605877 
L 217.517859 84.601341 
L 217.521601 84.612451 
L 217.559962 84.353764 
L 217.619841 83.432898 
L 217.843455 78.141945 
L 218.337459 65.750157 
L 219.063497 50.997595 
L 219.099985 51.753102 
L 219.699713 80.843529 
L 219.831636 83.709084 
L 219.924263 82.710167 
L 219.953267 82.138445 
L 220.349971 72.152797 
L 220.652179 64.632636 
L 220.829012 60.55929 
L 221.391323 49.784248 
L 221.410035 50.330602 
L 221.674814 66.732037 
L 222.07526 81.700233 
L 222.151978 82.590638 
L 222.209987 82.167332 
L 222.694633 70.552067 
L 223.357983 55.141215 
L 223.696676 48.650433 
L 223.718195 49.077905 
L 223.855732 56.803145 
L 224.19723 73.088662 
L 224.466688 79.794893 
L 224.490078 79.653328 
L 224.573348 78.388596 
L 225.739133 50.514478 
L 225.888833 47.6742 
L 226.007656 45.770434 
L 226.047886 46.926563 
L 226.722461 77.716787 
L 226.770177 78.197682 
L 226.834734 77.765581 
L 227.208049 68.709224 
L 227.4878 61.471823 
L 227.66744 57.129142 
L 228.325177 42.122153 
L 228.378508 44.215628 
L 228.94175 71.236004 
L 229.09051 74.213126 
L 229.137292 73.859167 
L 229.252373 71.558576 
L 229.937247 54.066285 
L 230.631476 39.784527 
L 230.683871 41.618296 
L 231.28921 70.775478 
L 231.403356 72.492312 
L 231.442652 72.184646 
L 232.774966 40.637712 
L 232.949928 37.766324 
L 232.981739 38.671636 
L 233.713386 70.89973 
L 233.790104 70.120428 
L 235.259009 36.527794 
L 235.308595 38.195278 
L 236.019658 69.763044 
L 236.036498 69.724528 
L 236.086085 69.22595 
L 236.50337 58.923377 
L 237.350087 38.969302 
L 237.408094 37.877984 
L 237.571827 35.206768 
L 237.611123 36.234109 
L 238.335278 67.926682 
L 238.368025 67.787154 
L 238.497141 65.459435 
L 238.834898 56.520107 
L 239.827576 34.012957 
L 239.88839 33.303466 
L 239.923007 34.305901 
L 240.131645 47.929831 
L 240.50308 63.454009 
L 240.657456 66.60973 
L 240.716399 66.131335 
L 240.878259 62.615175 
L 242.171264 32.42556 
L 242.199331 32.069009 
L 242.233013 32.851921 
L 242.395807 43.526969 
L 242.766305 60.783349 
L 242.973072 65.578594 
L 243.064759 64.611897 
L 243.409997 55.991438 
L 243.756166 47.082201 
L 244.167833 37.597168 
L 244.557978 30.406617 
L 244.56827 30.523553 
L 244.643119 34.515609 
L 245.091269 58.238514 
L 245.325172 63.992308 
L 245.408442 63.126253 
L 245.698477 55.979124 
L 246.675236 32.758686 
L 246.872646 29.323446 
L 246.912877 30.586049 
L 247.640773 62.666838 
L 247.649193 62.647673 
L 247.66884 62.511293 
L 247.903678 57.513839 
L 249.187335 28.078712 
L 249.230372 29.444086 
L 249.830096 59.24132 
L 249.950792 61.683754 
L 250.03032 60.892416 
L 250.478473 49.546578 
L 251.186722 32.578976 
L 251.498278 27.105071 
L 251.542251 28.433133 
L 252.173782 59.099847 
L 252.267343 60.38893 
L 252.31506 60.03062 
L 252.440429 57.482452 
L 253.812025 25.578782 
L 253.864419 27.535414 
L 254.419227 55.61174 
L 254.576409 58.838475 
L 254.63161 58.483776 
L 254.760723 55.919498 
L 255.478324 37.439586 
L 256.125758 24.108044 
L 256.142599 24.386359 
L 256.23429 30.096174 
L 256.573915 48.579789 
L 256.894824 57.553281 
L 256.906051 57.518839 
L 256.996805 56.296696 
L 257.565653 41.424142 
L 258.432963 22.781278 
L 258.447932 22.936731 
L 258.578916 31.083425 
L 258.92228 49.06161 
L 259.198284 56.442057 
L 259.218867 56.388542 
L 259.257226 56.013844 
L 259.433121 52.122152 
L 259.667022 45.822561 
L 259.976705 37.643092 
L 260.004773 36.949988 
L 260.736412 21.413867 
L 260.742961 21.390165 
L 260.760738 21.643574 
L 260.868332 28.310456 
L 261.203276 46.536218 
L 261.513896 55.098163 
L 261.567225 54.644303 
L 262.058418 42.128171 
L 262.523406 30.42393 
L 263.049214 20.012569 
L 263.078217 20.405969 
L 263.236333 30.838626 
L 263.562858 47.023686 
L 263.822956 53.68168 
L 263.833247 53.648812 
L 263.877221 53.215229 
L 264.299169 42.561106 
L 264.789416 29.948776 
L 265.361066 18.22 
L 265.373229 18.29768 
L 265.435913 21.352575 
L 265.90745 46.721576 
L 266.123573 52.18937 
L 266.17503 51.770878 
L 266.832748 34.049343 
L 266.912273 31.968275 
L 266.912273 31.968275 
" clip-path="url(#p8670f10c96)" style="fill: none; stroke: #1f77b4; stroke-width: 1.5; stroke-linecap: square"/>
   </g>
   <g id="line2d_12">
    <path d="M 61.157727 151.010457 
L 61.217598 150.900002 
L 61.527219 149.581337 
L 62.017363 149.470418 
L 62.052908 149.286171 
L 62.191346 148.164346 
L 62.29798 148.39521 
L 64.055555 148.285171 
L 64.300627 146.871096 
L 64.445613 146.864476 
L 64.871258 146.754483 
L 65.058364 145.325919 
L 65.151923 145.485955 
L 66.896813 145.587615 
L 66.917396 145.887642 
L 66.994115 145.432903 
L 67.155972 145.122275 
L 67.728554 145.019781 
L 67.930643 144.154884 
L 69.632458 144.045307 
L 69.750339 143.992394 
L 70.472598 143.883188 
L 70.65597 143.609271 
L 72.143505 143.498769 
L 72.304419 143.091527 
L 73.058466 142.981534 
L 73.276445 142.493602 
L 74.689092 142.391618 
L 74.85749 141.728236 
L 75.623686 141.623566 
L 75.780854 140.935093 
L 77.386242 141.045872 
L 77.568661 142.147097 
L 77.86708 142.256859 
L 77.988693 142.274172 
L 79.395733 142.169966 
L 79.52297 142.009097 
L 80.49694 141.898549 
L 80.644772 141.617039 
L 81.640331 141.509639 
L 81.862085 139.770029 
L 82.056707 139.152662 
L 82.828652 139.045539 
L 83.119648 137.63452 
L 84.553975 137.738957 
L 84.699926 138.221796 
L 86.505398 138.110831 
L 86.896416 136.833368 
L 87.663477 136.726755 
L 87.931011 135.967961 
L 88.978694 135.857413 
L 89.092817 135.746031 
L 90.06753 135.637844 
L 90.400543 134.793454 
L 91.149825 134.688137 
L 91.372459 133.465346 
L 92.285437 133.465346 
L 92.397687 132.99496 
L 92.543613 132.703497 
L 93.584741 132.594986 
L 93.729732 132.374768 
L 94.69322 132.269173 
L 94.868143 131.829526 
L 95.841913 131.718561 
L 96.032738 131.037401 
L 97.006507 130.928936 
L 97.231944 130.400822 
L 98.187939 130.294024 
L 98.358184 129.892661 
L 99.319784 129.784936 
L 99.479738 129.44931 
L 100.498401 129.343854 
L 100.654614 128.950454 
L 101.636797 128.840322 
L 101.932386 128.366232 
L 102.789221 128.25786 
L 102.967882 127.64239 
L 103.946318 127.53337 
L 104.120302 127.098305 
L 105.142694 126.991784 
L 105.599169 124.652538 
L 106.28014 124.544351 
L 106.654302 123.357113 
L 108.05646 123.46817 
L 108.224832 124.384546 
L 110.058204 124.275942 
L 110.211607 123.987766 
L 111.163838 123.876662 
L 111.335014 123.380861 
L 112.346169 123.279201 
L 112.496767 122.786687 
L 113.478926 122.680073 
L 113.645426 122.338197 
L 114.691179 122.228945 
L 114.858612 121.943223 
L 115.799607 121.832397 
L 115.863214 121.415063 
L 115.98762 121.251046 
L 116.966034 121.142025 
L 117.147498 120.527389 
L 118.119364 120.417304 
L 118.35321 119.956639 
L 119.281117 119.850118 
L 119.46071 119.231084 
L 120.414803 119.122202 
L 120.634615 118.463403 
L 121.613021 118.35753 
L 121.922632 116.616902 
L 122.760728 116.506863 
L 122.953413 115.737144 
L 124.198394 115.629744 
L 124.311576 115.623726 
L 125.239466 115.516325 
L 125.447116 115.030431 
L 126.399311 114.920531 
L 126.515296 114.889838 
L 127.47779 114.781928 
L 127.660185 114.396768 
L 128.635772 114.288766 
L 128.862134 113.704869 
L 129.788142 113.595478 
L 129.973343 113.165043 
L 130.947992 113.055791 
L 131.121969 112.574479 
L 132.098493 112.464347 
L 132.308952 111.929845 
L 133.250967 111.822213 
L 133.533449 111.058929 
L 134.413261 110.952177 
L 134.631212 110.266851 
L 135.562879 110.15996 
L 135.749023 109.455932 
L 136.714362 109.347374 
L 136.968788 108.581173 
L 137.867715 108.473449 
L 138.058533 107.854276 
L 139.036023 107.743728 
L 139.21749 107.308154 
L 140.228659 107.200569 
L 140.388612 106.887996 
L 141.357692 106.778096 
L 141.540094 106.428998 
L 142.444634 106.323542 
L 142.68316 105.204124 
L 143.630725 105.196069 
L 143.742972 104.196921 
L 144.843955 104.09327 
L 144.992682 103.686861 
L 145.979549 103.576545 
L 146.156343 103.058337 
L 147.141365 102.951909 
L 147.323772 102.331394 
L 148.293829 102.221216 
L 148.464078 101.753746 
L 149.459424 101.648614 
L 149.640902 101.132444 
L 150.601614 101.025877 
L 150.791508 100.538316 
L 151.775607 100.437582 
L 151.942121 99.681612 
L 152.916866 99.57199 
L 153.158215 98.884488 
L 154.151659 98.776162 
L 154.26765 98.762135 
L 155.228367 98.652049 
L 155.39115 98.414333 
L 156.359358 98.312256 
L 156.534293 97.530409 
L 157.539025 97.420648 
L 157.844006 96.793374 
L 158.697229 96.68426 
L 158.973223 96.003703 
L 159.856413 95.898385 
L 160.043532 95.283472 
L 161.03337 95.172923 
L 161.218608 94.57199 
L 162.173821 94.465099 
L 162.344086 94.145351 
L 163.399414 94.038599 
L 163.538809 93.775468 
L 164.512696 93.664503 
L 164.675493 93.165831 
L 165.691482 93.057736 
L 165.832747 92.695445 
L 166.823516 92.590406 
L 166.964791 92.321164 
L 168.014494 92.210754 
L 168.146407 92.026646 
L 169.136257 91.916097 
L 169.278468 91.686992 
L 170.27862 91.579592 
L 170.443289 90.952734 
L 171.442505 90.846398 
L 171.657693 90.240604 
L 172.541821 90.136676 
L 172.757944 89.121742 
L 173.741262 89.017165 
L 173.893767 88.486968 
L 174.986535 88.379336 
L 175.103486 88.324988 
L 176.069006 88.215273 
L 176.245832 87.778681 
L 177.135582 87.778681 
L 177.247857 86.610145 
L 178.376169 86.50219 
L 178.647487 85.904173 
L 179.448354 85.798069 
L 179.584014 85.578499 
L 180.541119 85.471238 
L 180.73104 85.072051 
L 181.732999 84.966317 
L 181.896721 84.572731 
L 182.850042 84.465424 
L 183.046508 84.110447 
L 184.09339 84.005546 
L 184.208463 83.964993 
L 185.175824 83.855695 
L 185.478013 83.189025 
L 186.244363 83.079171 
L 186.549367 81.681252 
L 187.477897 81.571676 
L 187.760452 80.785894 
L 188.663316 80.677892 
L 188.806467 80.344256 
L 189.799155 80.238429 
L 189.946047 79.865815 
L 190.96868 79.758414 
L 191.128669 79.305944 
L 192.103579 79.198404 
L 192.240181 79.026517 
L 194.429514 78.915784 
L 194.553017 78.828382 
L 195.545711 78.72325 
L 195.780553 77.775765 
L 196.733012 77.668642 
L 196.984696 77.045025 
L 197.92593 76.937069 
L 198.09715 76.582324 
L 199.051481 76.473581 
L 199.26761 76.151611 
L 200.237854 76.041341 
L 200.410944 75.677707 
L 201.36621 75.566834 
L 201.566434 75.047238 
L 202.546029 74.943819 
L 202.691051 74.619951 
L 203.672518 74.511394 
L 203.822219 74.321684 
L 204.840176 74.210857 
L 205.00391 73.683808 
L 205.989124 73.574602 
L 206.25297 72.952328 
L 207.168944 72.847751 
L 207.314901 72.410558 
L 208.306664 72.301861 
L 208.488172 72.109096 
L 209.474317 72.00276 
L 209.652086 71.420622 
L 210.618579 71.313083 
L 210.794477 70.754508 
L 211.790914 70.653959 
L 211.949034 70.083764 
L 212.930501 69.977938 
L 213.091429 69.541623 
L 214.113128 69.431631 
L 214.283411 68.965411 
L 215.243359 68.858196 
L 215.440776 68.349942 
L 216.428791 68.243976 
L 216.5682 67.805023 
L 217.55622 67.698224 
L 217.734924 67.353339 
L 218.738837 67.248578 
L 218.906312 66.746666 
L 219.870932 66.636303 
L 220.157233 66.187443 
L 221.061983 66.07833 
L 221.103151 65.726223 
L 221.221975 65.620535 
L 222.191274 65.513181 
L 222.528096 64.222663 
L 223.276586 64.114476 
L 223.593758 62.782664 
L 224.498498 62.674615 
L 224.722113 61.984058 
L 225.639021 61.881333 
L 225.925322 60.159917 
L 226.81228 60.050665 
L 226.89555 59.362423 
L 227.086417 58.167639 
L 227.921927 58.064729 
L 228.102499 56.998826 
L 229.126064 56.887907 
L 229.358098 56.138419 
L 230.261908 56.029583 
L 230.442484 55.129318 
L 231.433296 55.019001 
L 231.494111 54.560975 
L 231.628841 54.333027 
L 232.614973 54.222895 
L 232.81052 53.713762 
L 233.749873 53.604417 
L 234.001551 53.145419 
L 234.924062 53.042324 
L 235.0906 52.484906 
L 236.060824 52.375052 
L 236.302212 51.566725 
L 237.197584 51.457519 
L 237.380026 50.615074 
L 238.376445 50.504988 
L 238.583216 49.956598 
L 239.557185 49.850447 
L 239.717175 49.339369 
L 240.695817 49.229932 
L 240.867967 48.823801 
L 241.88684 48.715938 
L 242.087058 47.992605 
L 243.011432 47.885806 
L 243.272463 47.199462 
L 244.244552 47.094145 
L 244.417639 46.657877 
L 245.363532 46.549227 
L 245.537555 45.995142 
L 246.535832 45.890241 
L 246.698626 45.372775 
L 247.67539 45.262967 
L 247.872803 44.881233 
L 248.868291 44.772675 
L 249.029216 44.394413 
L 249.990088 44.286595 
L 250.215569 43.747001 
L 251.150234 43.636267 
L 251.324259 42.983856 
L 252.302896 42.878354 
L 252.493758 42.208629 
L 253.467725 42.098821 
L 253.712853 41.47326 
L 254.619447 41.364378 
L 254.852412 40.830662 
L 255.779588 40.728632 
L 255.926478 40.167279 
L 256.931313 40.059972 
L 257.140886 39.611667 
L 258.089592 39.501489 
L 258.269232 38.916111 
L 259.240385 38.805609 
L 259.432185 38.244164 
L 260.392112 38.133847 
L 260.552101 37.555366 
L 261.547578 37.450326 
L 261.730956 36.847125 
L 262.686201 36.745603 
L 262.874258 35.95084 
L 263.858509 35.839829 
L 264.08492 35.204685 
L 264.340334 35.204685 
L 264.340334 35.204685 
" clip-path="url(#p8670f10c96)" style="fill: none; stroke: #ff7f0e; stroke-width: 1.5; stroke-linecap: square"/>
   </g>
   <g id="patch_3">
    <path d="M 50.87 174.04 
L 50.87 10.8 
" style="fill: none; stroke: #000000; stroke-width: 0.8; stroke-linejoin: miter; stroke-linecap: square"/>
   </g>
   <g id="patch_4">
    <path d="M 277.2 174.04 
L 277.2 10.8 
" style="fill: none; stroke: #000000; stroke-width: 0.8; stroke-linejoin: miter; stroke-linecap: square"/>
   </g>
   <g id="patch_5">
    <path d="M 50.87 174.04 
L 277.2 174.04 
" style="fill: none; stroke: #000000; stroke-width: 0.8; stroke-linejoin: miter; stroke-linecap: square"/>
   </g>
   <g id="patch_6">
    <path d="M 50.87 10.8 
L 277.2 10.8 
" style="fill: none; stroke: #000000; stroke-width: 0.8; stroke-linejoin: miter; stroke-linecap: square"/>
   </g>
  </g>
 </g>
 <defs>
  <clipPath id="p8670f10c96">
   <rect x="50.87" y="10.8" width="226.33" height="163.24"/>
  </clipPath>
 </defs>
</svg>
