<?xml version="1.0" encoding="utf-8" standalone="no"?>
<!DOCTYPE svg PUBLIC "-//W3C//DTD SVG 1.1//EN"
  "http://www.w3.org/Graphics/SVG/1.1/DTD/svg11.dtd">
<svg xmlns:xlink="http://www.w3.org/1999/xlink" width="288pt" height="216pt" viewBox="0 0 288 216" xmlns="http://www.w3.org/2000/svg" version="1.1">
 <metadata>
  <rdf:RDF xmlns:dc="http://purl.org/dc/elements/1.1/" xmlns:cc="http://creativecommons.org/ns#" xmlns:rdf="http://www.w3.org/1999/02/22-rdf-syntax-ns#">
   <cc:Work>
    <dc:type rdf:resource="http://purl.org/dc/dcmitype/StillImage"/>
    <dc:date>2026-04-25T18:15:10.421191</dc:date>
    <dc:format>image/svg+xml</dc:format>
    <dc:creator>
     <cc:Agent>
      <dc:title>Matplotlib v3.10.9, https://matplotlib.org/</dc:title>
     </cc:Agent>
    </dc:creator>
   </cc:Work>
  </rdf:RDF>
 </metadata>
 <defs>
  <style type="text/css">*{stroke-linejoin: round; stroke-linecap: butt}</style>
 </defs>
 <g id="figure_1">
  <g id="patch_1">
   <path d="M 0 216 
L 288 216 
L 288 0 
L 0 0 
z
" style="fill: #ffffff"/>
  </g>
  <g id="axes_1">
   <g id="patch_2">
    <path d="M 63.56 174.04 
L 277.2 174.04 
L 277.2 10.8 
L 63.56 10.8 
z
" style="fill: #ffffff"/>
   </g>
   <g id="matplotlib.axis_1">
    <g id="xtick_1">
     <g id="line2d_1">
      <defs>
       <path id="me9671f2190" d="M 0 0 
L 0 3.5 
" style="stroke: #000000; stroke-width: 0.8"/>
      </defs>
      <g>
       <use xlink:href="#me9671f2190" x="73.270909" y="174.04" style="stroke: #000000; stroke-width: 0.8"/>
      </g>
     </g>
     <g id="text_1">
      <!-- 0 -->
      <g transform="translate(70.089659 188.638438) scale(0.1 -0.1)">
       <defs>
        <path id="DejaVuSans-30" d="M 2034 4250 
Q 1547 4250 1301 3770 
Q 1056 3291 1056 2328 
Q 1056 1369 1301 889 
Q 1547 409 2034 409 
Q 2525 409 2770 889 
Q 3016 1369 3016 2328 
Q 3016 3291 2770 3770 
Q 2525 4250 2034 4250 
z
M 2034 4750 
Q 2819 4750 3233 4129 
Q 3647 3509 3647 2328 
Q 3647 1150 3233 529 
Q 2819 -91 2034 -91 
Q 1250 -91 836 529 
Q 422 1150 422 2328 
Q 422 3509 836 4129 
Q 1250 4750 2034 4750 
z
" transform="scale(0.015625)"/>
       </defs>
       <use xlink:href="#DejaVuSans-30"/>
      </g>
     </g>
    </g>
    <g id="xtick_2">
     <g id="line2d_2">
      <g>
       <use xlink:href="#me9671f2190" x="107.382217" y="174.04" style="stroke: #000000; stroke-width: 0.8"/>
      </g>
     </g>
     <g id="text_2">
      <!-- 2500 -->
      <g transform="translate(94.657217 188.638438) scale(0.1 -0.1)">
       <defs>
        <path id="DejaVuSans-32" d="M 1228 531 
L 3431 531 
L 3431 0 
L 469 0 
L 469 531 
Q 828 903 1448 1529 
Q 2069 2156 2228 2338 
Q 2531 2678 2651 2914 
Q 2772 3150 2772 3378 
Q 2772 3750 2511 3984 
Q 2250 4219 1831 4219 
Q 1534 4219 1204 4116 
Q 875 4013 500 3803 
L 500 4441 
Q 881 4594 1212 4672 
Q 1544 4750 1819 4750 
Q 2544 4750 2975 4387 
Q 3406 4025 3406 3419 
Q 3406 3131 3298 2873 
Q 3191 2616 2906 2266 
Q 2828 2175 2409 1742 
Q 1991 1309 1228 531 
z
" transform="scale(0.015625)"/>
        <path id="DejaVuSans-35" d="M 691 4666 
L 3169 4666 
L 3169 4134 
L 1269 4134 
L 1269 2991 
Q 1406 3038 1543 3061 
Q 1681 3084 1819 3084 
Q 2600 3084 3056 2656 
Q 3513 2228 3513 1497 
Q 3513 744 3044 326 
Q 2575 -91 1722 -91 
Q 1428 -91 1123 -41 
Q 819 9 494 109 
L 494 744 
Q 775 591 1075 516 
Q 1375 441 1709 441 
Q 2250 441 2565 725 
Q 2881 1009 2881 1497 
Q 2881 1984 2565 2268 
Q 2250 2553 1709 2553 
Q 1456 2553 1204 2497 
Q 953 2441 691 2322 
L 691 4666 
z
" transform="scale(0.015625)"/>
       </defs>
       <use xlink:href="#DejaVuSans-32"/>
       <use xlink:href="#DejaVuSans-35" transform="translate(63.623047 0)"/>
       <use xlink:href="#DejaVuSans-30" transform="translate(127.246094 0)"/>
       <use xlink:href="#DejaVuSans-30" transform="translate(190.869141 0)"/>
      </g>
     </g>
    </g>
    <g id="xtick_3">
     <g id="line2d_3">
      <g>
       <use xlink:href="#me9671f2190" x="141.493525" y="174.04" style="stroke: #000000; stroke-width: 0.8"/>
      </g>
     </g>
     <g id="text_3">
      <!-- 5000 -->
      <g transform="translate(128.768525 188.638438) scale(0.1 -0.1)">
       <use xlink:href="#DejaVuSans-35"/>
       <use xlink:href="#DejaVuSans-30" transform="translate(63.623047 0)"/>
       <use xlink:href="#DejaVuSans-30" transform="translate(127.246094 0)"/>
       <use xlink:href="#DejaVuSans-30" transform="translate(190.869141 0)"/>
      </g>
     </g>
    </g>
    <g id="xtick_4">
     <g id="line2d_4">
      <g>
       <use xlink:href="#me9671f2190" x="175.604834" y="174.04" style="stroke: #000000; stroke-width: 0.8"/>
      </g>
     </g>
     <g id="text_4">
      <!-- 7500 -->
      <g transform="translate(162.879834 188.638438) scale(0.1 -0.1)">
       <defs>
        <path id="DejaVuSans-37" d="M 525 4666 
L 3525 4666 
L 3525 4397 
L 1831 0 
L 1172 0 
L 2766 4134 
L 525 4134 
L 525 4666 
z
" transform="scale(0.015625)"/>
       </defs>
       <use xlink:href="#DejaVuSans-37"/>
       <use xlink:href="#DejaVuSans-35" transform="translate(63.623047 0)"/>
       <use xlink:href="#DejaVuSans-30" transform="translate(127.246094 0)"/>
       <use xlink:href="#DejaVuSans-30" transform="translate(190.869141 0)"/>
      </g>
     </g>
    </g>
    <g id="xtick_5">
     <g id="line2d_5">
      <g>
       <use xlink:href="#me9671f2190" x="209.716142" y="174.04" style="stroke: #000000; stroke-width: 0.8"/>
      </g>
     </g>
     <g id="text_5">
      <!-- 10000 -->
      <g transform="translate(193.809892 188.638438) scale(0.1 -0.1)">
       <defs>
        <path id="DejaVuSans-31" d="M 794 531 
L 1825 531 
L 1825 4091 
L 703 3866 
L 703 4441 
L 1819 4666 
L 2450 4666 
L 2450 531 
L 3481 531 
L 3481 0 
L 794 0 
L 794 531 
z
" transform="scale(0.015625)"/>
       </defs>
       <use xlink:href="#DejaVuSans-31"/>
       <use xlink:href="#DejaVuSans-30" transform="translate(63.623047 0)"/>
       <use xlink:href="#DejaVuSans-30" transform="translate(127.246094 0)"/>
       <use xlink:href="#DejaVuSans-30" transform="translate(190.869141 0)"/>
       <use xlink:href="#DejaVuSans-30" transform="translate(254.492188 0)"/>
      </g>
     </g>
    </g>
    <g id="xtick_6">
     <g id="line2d_6">
      <g>
       <use xlink:href="#me9671f2190" x="243.82745" y="174.04" style="stroke: #000000; stroke-width: 0.8"/>
      </g>
     </g>
     <g id="text_6">
      <!-- 12500 -->
      <g transform="translate(227.9212 188.638438) scale(0.1 -0.1)">
       <use xlink:href="#DejaVuSans-31"/>
       <use xlink:href="#DejaVuSans-32" transform="translate(63.623047 0)"/>
       <use xlink:href="#DejaVuSans-35" transform="translate(127.246094 0)"/>
       <use xlink:href="#DejaVuSans-30" transform="translate(190.869141 0)"/>
       <use xlink:href="#DejaVuSans-30" transform="translate(254.492188 0)"/>
      </g>
     </g>
    </g>
    <g id="text_7">
     <!-- Time (s) -->
     <g transform="translate(150.051094 202.316563) scale(0.1 -0.1)">
      <defs>
       <path id="DejaVuSans-54" d="M -19 4666 
L 3928 4666 
L 3928 4134 
L 2272 4134 
L 2272 0 
L 1638 0 
L 1638 4134 
L -19 4134 
L -19 4666 
z
" transform="scale(0.015625)"/>
       <path id="DejaVuSans-69" d="M 603 3500 
L 1178 3500 
L 1178 0 
L 603 0 
L 603 3500 
z
M 603 4863 
L 1178 4863 
L 1178 4134 
L 603 4134 
L 603 4863 
z
" transform="scale(0.015625)"/>
       <path id="DejaVuSans-6d" d="M 3328 2828 
Q 3544 3216 3844 3400 
Q 4144 3584 4550 3584 
Q 5097 3584 5394 3201 
Q 5691 2819 5691 2113 
L 5691 0 
L 5113 0 
L 5113 2094 
Q 5113 2597 4934 2840 
Q 4756 3084 4391 3084 
Q 3944 3084 3684 2787 
Q 3425 2491 3425 1978 
L 3425 0 
L 2847 0 
L 2847 2094 
Q 2847 2600 2669 2842 
Q 2491 3084 2119 3084 
Q 1678 3084 1418 2786 
Q 1159 2488 1159 1978 
L 1159 0 
L 581 0 
L 581 3500 
L 1159 3500 
L 1159 2956 
Q 1356 3278 1631 3431 
Q 1906 3584 2284 3584 
Q 2666 3584 2933 3390 
Q 3200 3197 3328 2828 
z
" transform="scale(0.015625)"/>
       <path id="DejaVuSans-65" d="M 3597 1894 
L 3597 1613 
L 953 1613 
Q 991 1019 1311 708 
Q 1631 397 2203 397 
Q 2534 397 2845 478 
Q 3156 559 3463 722 
L 3463 178 
Q 3153 47 2828 -22 
Q 2503 -91 2169 -91 
Q 1331 -91 842 396 
Q 353 884 353 1716 
Q 353 2575 817 3079 
Q 1281 3584 2069 3584 
Q 2775 3584 3186 3129 
Q 3597 2675 3597 1894 
z
M 3022 2063 
Q 3016 2534 2758 2815 
Q 2500 3097 2075 3097 
Q 1594 3097 1305 2825 
Q 1016 2553 972 2059 
L 3022 2063 
z
" transform="scale(0.015625)"/>
       <path id="DejaVuSans-20" transform="scale(0.015625)"/>
       <path id="DejaVuSans-28" d="M 1984 4856 
Q 1566 4138 1362 3434 
Q 1159 2731 1159 2009 
Q 1159 1288 1364 580 
Q 1569 -128 1984 -844 
L 1484 -844 
Q 1016 -109 783 600 
Q 550 1309 550 2009 
Q 550 2706 781 3412 
Q 1013 4119 1484 4856 
L 1984 4856 
z
" transform="scale(0.015625)"/>
       <path id="DejaVuSans-73" d="M 2834 3397 
L 2834 2853 
Q 2591 2978 2328 3040 
Q 2066 3103 1784 3103 
Q 1356 3103 1142 2972 
Q 928 2841 928 2578 
Q 928 2378 1081 2264 
Q 1234 2150 1697 2047 
L 1894 2003 
Q 2506 1872 2764 1633 
Q 3022 1394 3022 966 
Q 3022 478 2636 193 
Q 2250 -91 1575 -91 
Q 1294 -91 989 -36 
Q 684 19 347 128 
L 347 722 
Q 666 556 975 473 
Q 1284 391 1588 391 
Q 1994 391 2212 530 
Q 2431 669 2431 922 
Q 2431 1156 2273 1281 
Q 2116 1406 1581 1522 
L 1381 1569 
Q 847 1681 609 1914 
Q 372 2147 372 2553 
Q 372 3047 722 3315 
Q 1072 3584 1716 3584 
Q 2034 3584 2315 3537 
Q 2597 3491 2834 3397 
z
" transform="scale(0.015625)"/>
       <path id="DejaVuSans-29" d="M 513 4856 
L 1013 4856 
Q 1481 4119 1714 3412 
Q 1947 2706 1947 2009 
Q 1947 1309 1714 600 
Q 1481 -109 1013 -844 
L 513 -844 
Q 928 -128 1133 580 
Q 1338 1288 1338 2009 
Q 1338 2731 1133 3434 
Q 928 4138 513 4856 
z
" transform="scale(0.015625)"/>
      </defs>
      <use xlink:href="#DejaVuSans-54"/>
      <use xlink:href="#DejaVuSans-69" transform="translate(57.958984 0)"/>
      <use xlink:href="#DejaVuSans-6d" transform="translate(85.742188 0)"/>
      <use xlink:href="#DejaVuSans-65" transform="translate(183.154297 0)"/>
      <use xlink:href="#DejaVuSans-20" transform="translate(244.677734 0)"/>
      <use xlink:href="#DejaVuSans-28" transform="translate(276.464844 0)"/>
      <use xlink:href="#DejaVuSans-73" transform="translate(315.478516 0)"/>
      <use xlink:href="#DejaVuSans-29" transform="translate(367.578125 0)"/>
     </g>
    </g>
   </g>
   <g id="matplotlib.axis_2">
    <g id="ytick_1">
     <g id="line2d_7">
      <defs>
       <path id="mdec180b710" d="M 0 0 
L -3.5 0 
" style="stroke: #000000; stroke-width: 0.8"/>
      </defs>
      <g>
       <use xlink:href="#mdec180b710" x="63.56" y="173.359943" style="stroke: #000000; stroke-width: 0.8"/>
      </g>
     </g>
     <g id="text_8">
      <!-- 14000 -->
      <g transform="translate(24.7475 177.159161) scale(0.1 -0.1)">
       <defs>
        <path id="DejaVuSans-34" d="M 2419 4116 
L 825 1625 
L 2419 1625 
L 2419 4116 
z
M 2253 4666 
L 3047 4666 
L 3047 1625 
L 3713 1625 
L 3713 1100 
L 3047 1100 
L 3047 0 
L 2419 0 
L 2419 1100 
L 313 1100 
L 313 1709 
L 2253 4666 
z
" transform="scale(0.015625)"/>
       </defs>
       <use xlink:href="#DejaVuSans-31"/>
       <use xlink:href="#DejaVuSans-34" transform="translate(63.623047 0)"/>
       <use xlink:href="#DejaVuSans-30" transform="translate(127.246094 0)"/>
       <use xlink:href="#DejaVuSans-30" transform="translate(190.869141 0)"/>
       <use xlink:href="#DejaVuSans-30" transform="translate(254.492188 0)"/>
      </g>
     </g>
    </g>
    <g id="ytick_2">
     <g id="line2d_8">
      <g>
       <use xlink:href="#mdec180b710" x="63.56" y="142.378934" style="stroke: #000000; stroke-width: 0.8"/>
      </g>
     </g>
     <g id="text_9">
      <!-- 14500 -->
      <g transform="translate(24.7475 146.178153) scale(0.1 -0.1)">
       <use xlink:href="#DejaVuSans-31"/>
       <use xlink:href="#DejaVuSans-34" transform="translate(63.623047 0)"/>
       <use xlink:href="#DejaVuSans-35" transform="translate(127.246094 0)"/>
       <use xlink:href="#DejaVuSans-30" transform="translate(190.869141 0)"/>
       <use xlink:href="#DejaVuSans-30" transform="translate(254.492188 0)"/>
      </g>
     </g>
    </g>
    <g id="ytick_3">
     <g id="line2d_9">
      <g>
       <use xlink:href="#mdec180b710" x="63.56" y="111.397925" style="stroke: #000000; stroke-width: 0.8"/>
      </g>
     </g>
     <g id="text_10">
      <!-- 15000 -->
      <g transform="translate(24.7475 115.197144) scale(0.1 -0.1)">
       <use xlink:href="#DejaVuSans-31"/>
       <use xlink:href="#DejaVuSans-35" transform="translate(63.623047 0)"/>
       <use xlink:href="#DejaVuSans-30" transform="translate(127.246094 0)"/>
       <use xlink:href="#DejaVuSans-30" transform="translate(190.869141 0)"/>
       <use xlink:href="#DejaVuSans-30" transform="translate(254.492188 0)"/>
      </g>
     </g>
    </g>
    <g id="ytick_4">
     <g id="line2d_10">
      <g>
       <use xlink:href="#mdec180b710" x="63.56" y="80.416917" style="stroke: #000000; stroke-width: 0.8"/>
      </g>
     </g>
     <g id="text_11">
      <!-- 15500 -->
      <g transform="translate(24.7475 84.216135) scale(0.1 -0.1)">
       <use xlink:href="#DejaVuSans-31"/>
       <use xlink:href="#DejaVuSans-35" transform="translate(63.623047 0)"/>
       <use xlink:href="#DejaVuSans-35" transform="translate(127.246094 0)"/>
       <use xlink:href="#DejaVuSans-30" transform="translate(190.869141 0)"/>
       <use xlink:href="#DejaVuSans-30" transform="translate(254.492188 0)"/>
      </g>
     </g>
    </g>
    <g id="ytick_5">
     <g id="line2d_11">
      <g>
       <use xlink:href="#mdec180b710" x="63.56" y="49.435908" style="stroke: #000000; stroke-width: 0.8"/>
      </g>
     </g>
     <g id="text_12">
      <!-- 16000 -->
      <g transform="translate(24.7475 53.235127) scale(0.1 -0.1)">
       <defs>
        <path id="DejaVuSans-36" d="M 2113 2584 
Q 1688 2584 1439 2293 
Q 1191 2003 1191 1497 
Q 1191 994 1439 701 
Q 1688 409 2113 409 
Q 2538 409 2786 701 
Q 3034 994 3034 1497 
Q 3034 2003 2786 2293 
Q 2538 2584 2113 2584 
z
M 3366 4563 
L 3366 3988 
Q 3128 4100 2886 4159 
Q 2644 4219 2406 4219 
Q 1781 4219 1451 3797 
Q 1122 3375 1075 2522 
Q 1259 2794 1537 2939 
Q 1816 3084 2150 3084 
Q 2853 3084 3261 2657 
Q 3669 2231 3669 1497 
Q 3669 778 3244 343 
Q 2819 -91 2113 -91 
Q 1303 -91 875 529 
Q 447 1150 447 2328 
Q 447 3434 972 4092 
Q 1497 4750 2381 4750 
Q 2619 4750 2861 4703 
Q 3103 4656 3366 4563 
z
" transform="scale(0.015625)"/>
       </defs>
       <use xlink:href="#DejaVuSans-31"/>
       <use xlink:href="#DejaVuSans-36" transform="translate(63.623047 0)"/>
       <use xlink:href="#DejaVuSans-30" transform="translate(127.246094 0)"/>
       <use xlink:href="#DejaVuSans-30" transform="translate(190.869141 0)"/>
       <use xlink:href="#DejaVuSans-30" transform="translate(254.492188 0)"/>
      </g>
     </g>
    </g>
    <g id="ytick_6">
     <g id="line2d_12">
      <g>
       <use xlink:href="#mdec180b710" x="63.56" y="18.454899" style="stroke: #000000; stroke-width: 0.8"/>
      </g>
     </g>
     <g id="text_13">
      <!-- 16500 -->
      <g transform="translate(24.7475 22.254118) scale(0.1 -0.1)">
       <use xlink:href="#DejaVuSans-31"/>
       <use xlink:href="#DejaVuSans-36" transform="translate(63.623047 0)"/>
       <use xlink:href="#DejaVuSans-35" transform="translate(127.246094 0)"/>
       <use xlink:href="#DejaVuSans-30" transform="translate(190.869141 0)"/>
       <use xlink:href="#DejaVuSans-30" transform="translate(254.492188 0)"/>
      </g>
     </g>
    </g>
    <g id="text_14">
     <!-- R (ohm)) -->
     <g transform="translate(18.667813 114.434063) rotate(-90) scale(0.1 -0.1)">
      <defs>
       <path id="DejaVuSans-52" d="M 2841 2188 
Q 3044 2119 3236 1894 
Q 3428 1669 3622 1275 
L 4263 0 
L 3584 0 
L 2988 1197 
Q 2756 1666 2539 1819 
Q 2322 1972 1947 1972 
L 1259 1972 
L 1259 0 
L 628 0 
L 628 4666 
L 2053 4666 
Q 2853 4666 3247 4331 
Q 3641 3997 3641 3322 
Q 3641 2881 3436 2590 
Q 3231 2300 2841 2188 
z
M 1259 4147 
L 1259 2491 
L 2053 2491 
Q 2509 2491 2742 2702 
Q 2975 2913 2975 3322 
Q 2975 3731 2742 3939 
Q 2509 4147 2053 4147 
L 1259 4147 
z
" transform="scale(0.015625)"/>
       <path id="DejaVuSans-6f" d="M 1959 3097 
Q 1497 3097 1228 2736 
Q 959 2375 959 1747 
Q 959 1119 1226 758 
Q 1494 397 1959 397 
Q 2419 397 2687 759 
Q 2956 1122 2956 1747 
Q 2956 2369 2687 2733 
Q 2419 3097 1959 3097 
z
M 1959 3584 
Q 2709 3584 3137 3096 
Q 3566 2609 3566 1747 
Q 3566 888 3137 398 
Q 2709 -91 1959 -91 
Q 1206 -91 779 398 
Q 353 888 353 1747 
Q 353 2609 779 3096 
Q 1206 3584 1959 3584 
z
" transform="scale(0.015625)"/>
       <path id="DejaVuSans-68" d="M 3513 2113 
L 3513 0 
L 2938 0 
L 2938 2094 
Q 2938 2591 2744 2837 
Q 2550 3084 2163 3084 
Q 1697 3084 1428 2787 
Q 1159 2491 1159 1978 
L 1159 0 
L 581 0 
L 581 4863 
L 1159 4863 
L 1159 2956 
Q 1366 3272 1645 3428 
Q 1925 3584 2291 3584 
Q 2894 3584 3203 3211 
Q 3513 2838 3513 2113 
z
" transform="scale(0.015625)"/>
      </defs>
      <use xlink:href="#DejaVuSans-52"/>
      <use xlink:href="#DejaVuSans-20" transform="translate(69.482422 0)"/>
      <use xlink:href="#DejaVuSans-28" transform="translate(101.269531 0)"/>
      <use xlink:href="#DejaVuSans-6f" transform="translate(140.283203 0)"/>
      <use xlink:href="#DejaVuSans-68" transform="translate(201.464844 0)"/>
      <use xlink:href="#DejaVuSans-6d" transform="translate(264.84375 0)"/>
      <use xlink:href="#DejaVuSans-29" transform="translate(362.255859 0)"/>
      <use xlink:href="#DejaVuSans-29" transform="translate(401.269531 0)"/>
     </g>
    </g>
   </g>
   <g id="line2d_13">
    <path d="M 73.270909 131.436284 
L 73.339711 131.221837 
L 73.354373 131.957939 
L 73.770573 156.20669 
L 74.182276 166.62 
L 74.238672 164.666805 
L 74.306352 162.658606 
L 74.624435 153.474915 
L 74.625563 153.500027 
L 74.675196 152.171474 
L 74.676324 152.200095 
L 74.97529 146.172897 
L 74.976418 146.199522 
L 75.041837 145.151976 
L 75.042965 145.18205 
L 75.409543 138.521011 
L 75.410671 138.537047 
L 75.458043 137.629824 
L 75.459171 137.658687 
L 75.634 134.631201 
L 75.635128 134.685538 
L 75.715214 133.249883 
L 75.717471 133.329151 
L 75.858462 131.322707 
L 75.859589 131.347214 
L 75.861845 131.393685 
L 75.931777 130.654679 
L 75.935161 130.660065 
L 76.045697 130.212111 
L 76.070511 130.248901 
L 76.114501 130.111846 
L 76.156235 134.675797 
L 76.361517 149.285399 
L 76.570322 156.29927 
L 76.57145 156.26484 
L 76.948185 165.622678 
L 76.951568 164.999608 
L 77.079025 161.705335 
L 76.96736 165.130612 
L 77.080153 161.709208 
L 77.4411 151.352232 
L 77.442228 151.4007 
L 77.512159 149.632726 
L 77.513287 149.656566 
L 77.568556 148.546636 
L 77.569685 148.575923 
L 77.759177 144.621608 
L 77.771584 144.377935 
L 78.027628 139.594455 
L 78.028755 139.609946 
L 78.072745 138.740178 
L 78.215996 136.34744 
L 78.395338 133.09159 
L 78.396466 133.123842 
L 78.468656 132.052516 
L 78.470912 132.099472 
L 78.653647 129.38349 
L 78.654775 129.400856 
L 78.719069 128.813246 
L 78.726964 128.825469 
L 78.774339 128.655134 
L 78.72922 128.838539 
L 78.837505 128.816695 
L 78.888261 128.766593 
L 78.875854 128.999616 
L 78.893901 128.968877 
L 78.916459 131.356532 
L 79.170246 149.575846 
L 79.71957 163.567161 
L 79.741002 163.955694 
L 81.007692 134.062893 
L 81.075369 133.127775 
L 81.260348 130.247812 
L 81.534415 127.081032 
L 81.535542 127.089867 
L 81.599829 126.766987 
L 81.603214 126.76977 
L 81.605469 126.72463 
L 81.675396 127.558515 
L 81.679908 127.498489 
L 82.03629 150.784166 
L 82.098319 152.477653 
L 82.278753 157.316802 
L 82.516705 162.029365 
L 82.533622 161.713383 
L 83.685006 134.417541 
L 83.731241 133.636904 
L 83.908293 130.46837 
L 83.735752 133.639143 
L 83.911676 130.480653 
L 83.96355 129.433955 
L 84.104511 127.380858 
L 84.106767 127.383642 
L 84.107895 127.434228 
L 84.193601 126.295071 
L 84.194728 126.37101 
L 84.33569 125.227315 
L 84.377415 125.120697 
L 84.475525 129.819221 
L 84.672872 144.598736 
L 84.674 144.591716 
L 84.686405 145.177996 
L 85.28183 160.715516 
L 85.288596 160.901402 
L 85.343851 159.383211 
L 85.721634 147.900754 
L 85.723889 147.910254 
L 85.744187 147.311389 
L 86.153547 138.203094 
L 86.158057 138.143128 
L 86.3103 135.218872 
L 86.311428 135.220082 
L 86.518928 131.290879 
L 86.754621 127.153704 
L 86.895584 125.029206 
L 86.89784 125.086932 
L 86.956479 124.200525 
L 86.962118 124.231082 
L 87.087295 123.122422 
L 87.091806 123.152435 
L 87.097445 123.104874 
L 87.177513 123.45099 
L 87.180896 123.431505 
L 87.200067 123.328881 
L 87.642137 149.804331 
L 87.643265 149.748844 
L 87.715439 151.666097 
L 87.998497 158.060286 
L 87.999625 158.053812 
L 88.065033 159.384059 
L 88.109013 157.998324 
L 88.878117 137.80391 
L 88.879245 137.856009 
L 88.955931 136.342659 
L 88.957059 136.382959 
L 89.111557 133.352569 
L 89.112685 133.372355 
L 89.165688 132.354339 
L 89.829912 121.525085 
L 89.83104 121.557154 
L 89.882915 121.223565 
L 89.934789 121.380648 
L 89.970877 121.358985 
L 89.981027 121.628133 
L 90.543772 151.229397 
L 90.544899 151.213059 
L 90.681354 153.95627 
L 90.682482 153.926197 
L 90.827962 156.778386 
L 90.835856 156.748192 
L 91.274544 143.484326 
L 91.276799 143.499454 
L 91.794436 132.315613 
L 91.795563 132.352947 
L 91.867739 131.102028 
L 91.868867 131.129197 
L 92.110203 126.78405 
L 92.263579 124.051852 
L 92.383121 122.129033 
L 92.384248 122.130364 
L 92.536495 119.931015 
L 92.537622 119.941362 
L 92.672951 118.994626 
L 92.706785 119.092409 
L 93.239088 146.597555 
L 92.74964 118.985791 
L 93.240216 146.577224 
L 93.454491 151.845448 
L 93.456746 151.839276 
L 93.501857 152.590202 
L 93.594331 154.451967 
L 93.642826 153.267609 
L 94.072496 140.594984 
L 94.073623 140.606179 
L 94.984851 121.955369 
L 94.985979 121.966443 
L 95.028836 121.305131 
L 95.423549 116.503922 
L 95.537453 117.032596 
L 96.092308 147.481603 
L 96.384396 153.400852 
L 96.094563 147.4813 
L 96.446423 151.717046 
L 96.740769 142.147968 
L 97.312547 130.053696 
L 97.449007 127.377711 
L 97.614787 124.229933 
L 97.617043 124.252926 
L 97.672303 123.239871 
L 97.673431 123.264499 
L 97.827937 120.53587 
L 97.830192 120.57024 
L 97.887708 119.497947 
L 97.888835 119.50194 
L 98.034319 117.204747 
L 98.249721 115.182449 
L 98.274531 115.255545 
L 98.279042 115.229042 
L 98.339943 118.193658 
L 98.565502 136.216315 
L 98.56663 136.213652 
L 98.57114 136.477536 
L 98.860978 145.539784 
L 98.862105 145.540872 
L 98.989544 148.642301 
L 98.990672 148.606359 
L 98.994055 148.73821 
L 98.999695 148.709286 
L 99.123754 151.223467 
L 99.165482 151.993757 
L 99.581633 138.836449 
L 99.615466 137.959844 
L 99.616594 137.960691 
L 99.77674 134.335671 
L 100.232365 124.995442 
L 100.611302 117.829147 
L 100.824453 114.173751 
L 100.82558 114.178229 
L 101.029709 112.387744 
L 100.828963 114.194748 
L 101.031964 112.388954 
L 101.139104 118.113604 
L 101.347747 133.851956 
L 101.670289 144.121555 
L 101.928544 149.61663 
L 101.931927 149.599627 
L 101.948844 149.907017 
L 101.9714 149.399581 
L 102.262366 139.577089 
L 102.271387 139.377891 
L 102.556711 131.823002 
L 103.827708 111.369909 
L 102.558966 131.823728 
L 103.848007 111.476406 
L 103.921314 116.589967 
L 104.251758 137.219567 
L 104.52355 144.713038 
L 104.734446 149.131825 
L 104.749108 148.948663 
L 105.070531 138.096959 
L 105.071659 138.097262 
L 105.073914 138.043831 
L 105.255487 133.272817 
L 105.839387 121.960271 
L 105.840515 122.0278 
L 106.608539 110.099749 
L 106.636733 110.211873 
L 106.725827 117.677994 
L 106.928828 131.977423 
L 106.929955 131.976576 
L 106.931083 132.084949 
L 106.932211 132.082892 
L 107.35288 144.604363 
L 107.526557 147.725881 
L 107.557008 146.997041 
L 107.813015 138.102465 
L 109.327639 108.501564 
L 109.329895 108.523408 
L 109.377261 108.220678 
L 109.424627 108.365175 
L 109.449438 108.326388 
L 109.473121 109.949139 
L 109.721232 129.978724 
L 109.76747 131.781311 
L 110.235507 144.97553 
L 110.236634 144.911874 
L 110.306557 146.201277 
L 110.334753 145.575544 
L 110.335881 145.60344 
L 110.380992 144.043255 
L 110.694521 133.884692 
L 110.695649 133.891166 
L 110.713694 133.356381 
L 110.714822 133.363824 
L 110.994511 126.696008 
L 111.146764 123.016167 
L 111.150148 123.059492 
L 111.302401 120.262185 
L 111.303529 120.293166 
L 111.365555 118.950212 
L 111.632842 113.810995 
L 111.633969 113.950047 
L 111.728704 111.930714 
L 111.732088 111.970045 
L 111.779455 111.141787 
L 111.938475 108.576717 
L 111.939603 108.662883 
L 112.032082 107.545389 
L 112.036593 107.597306 
L 112.039975 107.635427 
L 112.15952 106.729414 
L 112.161775 106.727901 
L 112.263276 110.679674 
L 112.477558 128.81851 
L 113.094459 145.299015 
L 113.146337 143.637477 
L 113.318887 137.418887 
L 113.320015 137.49646 
L 113.393321 134.957833 
L 113.62226 128.963613 
L 113.653838 128.0671 
L 113.843307 123.455286 
L 113.844435 123.474286 
L 114.957571 104.958595 
L 114.969976 105.023159 
L 114.974487 105.01729 
L 115.060199 110.61626 
L 115.276734 128.097838 
L 115.706427 140.838355 
L 115.86432 145.359404 
L 115.915071 143.421154 
L 116.057176 137.913675 
L 116.349277 128.784382 
L 116.350405 128.787529 
L 116.351532 128.836118 
L 116.420328 127.084542 
L 116.421456 127.097007 
L 116.610928 122.664605 
L 116.612056 122.738487 
L 116.649273 121.783219 
L 116.97972 115.181542 
L 116.980848 115.242959 
L 117.064305 113.814142 
L 117.065433 113.894922 
L 117.239117 110.441326 
L 117.240244 110.447861 
L 117.261673 109.941999 
L 117.455657 106.702548 
L 117.456785 106.758156 
L 117.457913 106.792163 
L 117.526709 105.616458 
L 117.527837 105.628196 
L 117.691367 103.066999 
L 117.692494 103.071053 
L 117.788357 105.028242 
L 117.764673 102.4072 
L 117.801891 103.148808 
L 117.803019 102.83331 
L 117.876324 113.402977 
L 118.077072 126.630839 
L 118.644361 146.45336 
L 118.674813 142.439202 
L 118.927443 132.822866 
L 118.946616 132.288201 
L 119.178946 126.670655 
L 119.180074 126.701515 
L 119.240977 125.395108 
L 119.242105 125.438434 
L 119.427067 121.418345 
L 119.428195 121.489807 
L 119.509396 119.696963 
L 119.737212 115.119035 
L 119.73834 115.137974 
L 119.739468 115.166414 
L 119.802625 113.982419 
L 119.967283 110.746779 
L 119.968411 110.796216 
L 120.043977 109.258662 
L 120.083449 108.383873 
L 120.084576 108.415277 
L 120.228937 105.749216 
L 120.230065 105.792783 
L 120.309009 104.645094 
L 120.310137 104.665062 
L 120.479308 102.767476 
L 120.533444 102.506255 
L 120.695845 117.256482 
L 120.901108 128.240158 
L 120.902236 128.213352 
L 121.301477 139.24846 
L 121.426663 141.767301 
L 121.428919 143.856099 
L 121.534935 138.83542 
L 121.840576 128.109396 
L 122.319894 117.667344 
L 122.323277 117.725433 
L 122.393201 116.30551 
L 122.394329 116.371043 
L 122.579288 112.605882 
L 122.580415 112.665423 
L 122.581543 112.667904 
L 122.589439 112.434155 
L 122.591695 112.44305 
L 122.723651 109.801254 
L 122.724778 109.877677 
L 123.112737 103.027244 
L 123.117248 103.049209 
L 123.118376 103.077527 
L 123.188299 102.095635 
L 123.311226 101.053112 
L 123.324759 101.102367 
L 123.425133 109.468874 
L 123.707082 127.479913 
L 123.771369 129.43335 
L 124.190911 139.894765 
L 124.192039 139.893313 
L 124.19655 140.068307 
L 124.21798 140.534838 
L 124.284519 138.648869 
L 124.471737 131.643591 
L 126.070866 98.163346 
L 124.473992 131.682983 
L 126.113719 99.191952 
L 126.145295 99.052175 
L 126.137401 99.285138 
L 126.147551 99.102277 
L 126.148679 99.032206 
L 126.189276 103.378684 
L 126.37986 120.129366 
L 126.380987 120.09784 
L 126.420456 122.071064 
L 126.689985 131.182203 
L 126.691112 131.105054 
L 126.767798 133.261864 
L 126.770053 133.218782 
L 126.879441 135.543144 
L 126.888463 134.492876 
L 126.901997 134.090365 
L 126.994471 135.591431 
L 126.998982 136.275251 
L 127.061007 133.025755 
L 127.267386 124.793641 
L 127.268513 124.803988 
L 127.28994 124.072728 
L 127.293323 124.078839 
L 127.472628 119.562268 
L 127.473756 119.568742 
L 127.745534 113.773055 
L 128.160545 104.562316 
L 128.300384 101.795083 
L 128.675927 95.435808 
L 128.303767 101.820013 
L 128.677054 95.44204 
L 128.678182 95.464248 
L 128.741336 94.549763 
L 128.742464 94.571546 
L 128.876665 93.479527 
L 128.936434 93.800833 
L 128.964628 97.158642 
L 129.196939 117.662503 
L 129.198066 117.63479 
L 129.502558 126.467644 
L 129.503685 126.445135 
L 129.769834 132.307081 
L 129.839755 130.516778 
L 130.061925 122.270323 
L 130.522045 110.96643 
L 130.523173 110.980952 
L 130.670908 107.579516 
L 130.672036 107.590468 
L 130.820903 104.666152 
L 130.930296 102.554057 
L 131.090437 99.270252 
L 130.935936 102.588911 
L 131.092693 99.330762 
L 131.624989 91.327314 
L 131.688146 91.480404 
L 131.716339 91.456927 
L 131.77611 100.074669 
L 131.994896 115.729458 
L 131.999407 115.886723 
L 132.48022 129.438191 
L 132.481348 129.431353 
L 132.505031 129.953855 
L 132.506158 129.91168 
L 132.570445 130.906521 
L 132.611046 129.66716 
L 133.027215 114.734132 
L 133.508788 104.92598 
L 133.509916 104.971908 
L 133.576458 103.232191 
L 133.803152 98.983859 
L 133.80428 99.04927 
L 133.886611 97.385493 
L 134.448997 88.404873 
L 133.888866 97.403102 
L 134.454637 88.480208 
L 134.456892 88.415402 
L 134.548242 95.358416 
L 134.748981 111.994189 
L 134.974536 119.871352 
L 134.975663 119.836014 
L 134.999348 120.487039 
L 135.324143 128.164097 
L 135.95456 109.423733 
L 135.353464 128.541315 
L 135.955688 109.539489 
L 135.997415 108.380847 
L 136.000798 108.445169 
L 136.128233 105.884577 
L 136.129361 105.89093 
L 136.778942 92.753469 
L 136.78007 92.823661 
L 136.789092 92.574845 
L 136.79022 92.582529 
L 136.939082 89.986055 
L 136.941338 90.018851 
L 137.023663 88.740642 
L 137.174779 87.234251 
L 137.175907 87.261722 
L 137.177035 87.327073 
L 137.227783 86.743154 
L 137.281914 86.983378 
L 137.283041 86.933397 
L 137.313491 90.447684 
L 137.54468 110.90356 
L 137.548064 111.078554 
L 137.90105 122.482591 
L 137.902178 122.4694 
L 137.904434 121.520909 
L 138.010441 124.045922 
L 138.140132 126.55496 
L 138.175092 125.460398 
L 138.428838 115.901245 
L 138.429965 115.901669 
L 138.577699 111.744646 
L 138.585594 111.491836 
L 138.587849 111.50418 
L 138.750244 107.889205 
L 139.068268 101.351305 
L 139.069395 101.37218 
L 139.073906 101.259996 
L 139.076161 101.275062 
L 139.360357 95.355572 
L 139.361485 95.377718 
L 139.416746 94.304275 
L 139.417874 94.342215 
L 139.741537 88.217777 
L 139.742664 88.239682 
L 139.796797 87.22935 
L 139.797926 87.234856 
L 139.926489 85.531929 
L 139.927617 85.56636 
L 139.928745 85.628927 
L 139.999794 84.996176 
L 140.030242 85.101947 
L 140.033625 85.044947 
L 140.093394 88.598868 
L 140.304282 108.305815 
L 140.30541 108.287662 
L 140.59524 118.08825 
L 140.92116 125.10327 
L 141.38466 110.049041 
L 141.385788 110.08444 
L 141.386916 110.104166 
L 141.42977 109.020859 
L 141.432026 109.058254 
L 141.583146 105.745464 
L 141.584274 105.764888 
L 141.630512 104.691686 
L 141.783885 101.342894 
L 141.786141 101.383677 
L 141.833503 100.357189 
L 142.053416 95.810605 
L 142.054544 95.837532 
L 142.108675 94.487075 
L 142.308285 90.6703 
L 142.310541 90.674656 
L 142.311669 90.677319 
L 142.321818 90.421544 
L 142.325202 90.455731 
L 142.492111 87.462252 
L 142.804501 83.395511 
L 142.815779 83.496078 
L 142.822546 83.489422 
L 143.11464 108.235079 
L 143.296206 114.613052 
L 143.297334 114.608756 
L 143.310866 114.934117 
L 143.502586 120.216923 
L 143.504842 120.181767 
L 143.509352 120.116719 
L 143.654832 123.336989 
L 143.70107 124.214563 
L 143.756328 122.278492 
L 143.758584 122.321756 
L 143.802566 120.091002 
L 143.803693 120.108127 
L 144.228858 106.879418 
L 144.231113 106.985129 
L 144.316822 105.018379 
L 144.695749 95.855927 
L 144.319077 105.027698 
L 144.698005 95.938039 
L 144.699133 95.944998 
L 144.717177 95.479012 
L 144.718305 95.494926 
L 144.84687 92.536784 
L 144.847998 92.675291 
L 144.938219 90.839182 
L 144.943858 90.871495 
L 145.091598 87.878015 
L 145.092726 87.97477 
L 145.178438 85.968145 
L 145.180693 86.093218 
L 145.352112 82.875853 
L 145.357751 82.937633 
L 145.512252 81.035871 
L 145.521275 81.100072 
L 145.570898 80.599777 
L 145.628415 81.116228 
L 145.67127 87.608625 
L 145.931779 106.79065 
L 146.195672 115.00449 
L 146.196799 114.938836 
L 146.270104 116.994959 
L 146.27236 116.938141 
L 146.468592 123.100577 
L 146.488892 121.190042 
L 146.66595 114.445017 
L 147.030209 103.540246 
L 147.033592 103.554042 
L 147.03472 103.563119 
L 147.061785 102.889705 
L 147.200502 99.181363 
L 147.606496 90.654567 
L 147.611007 90.706726 
L 147.612135 90.729962 
L 147.664012 89.630015 
L 147.666268 89.65906 
L 147.804985 87.290646 
L 148.315859 79.511871 
L 148.401572 79.768676 
L 148.936136 113.040706 
L 149.150411 118.017998 
L 149.151539 117.970619 
L 149.152667 117.943934 
L 149.204542 119.294997 
L 149.258676 120.677343 
L 149.304914 119.013565 
L 150.030062 98.369443 
L 150.033445 98.372408 
L 150.034573 98.424507 
L 150.109006 96.763271 
L 150.28381 93.285653 
L 150.284937 93.332851 
L 150.352604 91.804616 
L 150.357115 91.856956 
L 150.359371 91.89302 
L 150.486805 89.110175 
L 150.674012 84.858576 
L 150.491315 89.135832 
L 150.67514 84.914548 
L 150.676268 84.943896 
L 150.734912 83.619941 
L 150.879265 81.144063 
L 150.880392 81.28505 
L 151.025872 79.196192 
L 151.10256 78.69511 
L 151.030383 79.273645 
L 151.164585 78.987857 
L 151.174734 78.856732 
L 151.23676 87.063916 
L 151.410432 101.234218 
L 151.41156 101.126632 
L 151.451031 102.859995 
L 151.752138 112.944495 
L 151.755521 112.878176 
L 151.881828 116.133481 
L 152.020541 118.751558 
L 152.027308 118.70545 
L 152.03633 118.83488 
L 152.076927 117.659719 
L 152.371261 106.60906 
L 152.372388 106.738854 
L 152.459224 104.379335 
L 152.46148 104.380243 
L 152.618234 100.819302 
L 152.620489 100.8783 
L 152.668985 99.664958 
L 152.670112 99.707072 
L 152.822357 96.194419 
L 152.823484 96.203071 
L 153.355786 85.399716 
L 153.391874 84.598506 
L 153.358042 85.425069 
L 153.395257 84.661557 
L 153.526078 82.053767 
L 153.528333 82.106592 
L 153.734713 78.581957 
L 153.735841 78.591941 
L 153.741479 78.62504 
L 153.806889 77.821773 
L 153.808017 77.821894 
L 153.908389 77.131114 
L 153.811401 77.902554 
L 153.935454 77.225449 
L 153.950115 77.217885 
L 154.00763 84.81979 
L 154.177921 99.56802 
L 154.568124 112.731984 
L 154.809462 117.776624 
L 154.57038 112.698341 
L 154.847805 116.733073 
L 155.015841 109.966264 
L 155.016969 109.979516 
L 155.042908 108.986308 
L 155.046291 108.989333 
L 155.118467 106.628907 
L 155.399276 99.555677 
L 155.400404 99.593192 
L 155.401532 99.595734 
L 155.406042 99.351153 
L 155.40717 99.367007 
L 155.677832 92.886167 
L 155.67896 92.942381 
L 155.756773 91.368764 
L 155.757901 91.387461 
L 155.933828 87.934471 
L 156.493188 77.200761 
L 156.494315 77.234889 
L 156.571 76.277079 
L 156.572128 76.295777 
L 156.684902 75.271225 
L 156.702946 75.384923 
L 156.706329 75.338331 
L 156.732267 75.571535 
L 156.817975 88.530613 
L 157.010824 100.884592 
L 157.011952 100.852825 
L 157.253289 108.864502 
L 157.254416 108.854034 
L 157.281482 109.612161 
L 157.473198 114.209573 
L 157.474325 114.204248 
L 157.491241 114.647664 
L 157.584846 116.362571 
L 157.61304 115.61933 
L 158.2051 96.858938 
L 158.206227 96.889132 
L 158.207355 96.901839 
L 158.241188 96.105712 
L 158.242316 96.131186 
L 158.405835 92.149582 
L 158.406963 92.170276 
L 158.408091 92.190184 
L 158.457711 91.133683 
L 158.675365 86.551459 
L 158.678748 86.55388 
L 158.681004 86.590427 
L 158.729497 85.289164 
L 158.731753 85.316696 
L 158.755434 84.804239 
L 158.923468 81.454417 
L 158.925724 81.501615 
L 158.984367 80.042543 
L 158.98775 80.050953 
L 159.171573 76.723339 
L 159.1727 76.725094 
L 159.179466 76.541689 
L 159.181722 76.603106 
L 159.322692 74.189795 
L 159.463661 72.159752 
L 159.324947 74.207705 
L 159.481705 72.238354 
L 159.482833 70.216117 
L 159.587714 80.503445 
L 159.803113 96.598987 
L 159.80424 96.530248 
L 159.870778 99.145663 
L 159.871906 99.138522 
L 160.034298 104.878783 
L 160.035426 104.838241 
L 160.215867 109.167716 
L 160.216994 109.142302 
L 160.26887 110.467466 
L 160.379385 112.468101 
L 160.413218 111.451779 
L 160.675979 101.271371 
L 160.677107 101.301808 
L 160.840632 96.289359 
L 161.080842 90.383181 
L 161.081969 90.393407 
L 161.115801 89.741413 
L 161.119185 89.741595 
L 161.255643 86.730507 
L 161.261282 86.77359 
L 161.263537 86.78303 
L 162.066486 71.49015 
L 162.134152 70.767179 
L 162.13528 70.794106 
L 162.241289 70.236811 
L 162.252567 70.258474 
L 162.361962 80.260318 
L 162.590899 96.677105 
L 162.912307 106.603553 
L 162.914563 106.591996 
L 162.915691 106.500747 
L 162.999144 108.422114 
L 163.002527 108.347627 
L 163.15139 111.474168 
L 163.176201 110.887586 
L 163.408514 101.817532 
L 163.409641 101.839316 
L 163.45024 100.483655 
L 163.775025 92.263945 
L 163.776152 92.334379 
L 163.856223 90.488165 
L 164.557681 75.361687 
L 164.558808 75.452875 
L 164.645645 73.562489 
L 164.78774 71.082859 
L 164.788868 71.179069 
L 164.884726 69.882829 
L 165.000882 69.065766 
L 165.009905 69.151629 
L 165.014416 69.072179 
L 165.049376 69.32154 
L 165.051632 69.305626 
L 165.066293 69.290015 
L 165.099 72.30673 
L 165.289588 91.921642 
L 165.644825 104.478571 
L 165.645953 104.467014 
L 165.67866 105.245169 
L 165.878269 109.884696 
L 165.682043 105.172376 
L 165.880524 109.871021 
L 165.925636 110.568276 
L 165.971875 109.195611 
L 166.199681 100.471613 
L 166.402673 94.603011 
L 166.404929 94.61227 
L 166.406057 94.649604 
L 166.469212 93.070057 
L 166.686998 88.221771 
L 166.688125 88.260134 
L 166.755792 86.814556 
L 166.891123 83.849273 
L 166.89225 83.866882 
L 166.893379 83.888544 
L 166.945256 82.802515 
L 166.946384 82.829926 
L 167.141488 78.637203 
L 167.142615 78.646582 
L 167.143743 78.679438 
L 167.204644 77.398265 
L 167.206899 77.449154 
L 167.271855 76.191095 
L 167.417338 73.298969 
L 167.418465 73.306714 
L 167.444402 72.73411 
L 167.44553 72.739254 
L 167.810922 68.099666 
L 167.821072 68.169857 
L 167.823327 68.165985 
L 167.893251 74.120571 
L 168.083843 91.805705 
L 168.088354 92.019062 
L 168.462768 104.131971 
L 168.70185 109.003251 
L 168.710873 108.769743 
L 168.946575 99.707556 
L 168.948831 99.753302 
L 168.98943 98.348869 
L 170.075456 73.404862 
L 170.076584 73.482011 
L 170.162293 71.76789 
L 170.163421 71.792578 
L 170.211914 70.65445 
L 170.217553 70.658927 
L 170.352886 68.265705 
L 170.354014 68.288094 
L 170.409275 67.236858 
L 170.413786 67.272618 
L 170.518669 66.259866 
L 170.535586 66.375864 
L 170.546864 66.295325 
L 170.64385 67.973382 
L 170.982176 95.484578 
L 170.98556 95.42298 
L 171.469366 107.723408 
L 171.470494 107.701685 
L 171.472749 108.802358 
L 171.473878 108.602373 
L 171.477261 111.662353 
L 171.582141 104.7099 
L 171.759199 97.657606 
L 171.760327 97.674972 
L 171.79416 96.491885 
L 172.090757 88.66682 
L 172.093013 88.671721 
L 172.094141 88.682916 
L 172.125718 87.910811 
L 172.126845 87.916136 
L 172.274581 84.061421 
L 172.275708 84.096093 
L 172.339989 82.65717 
L 172.346756 82.727604 
L 172.374949 82.098302 
L 172.376076 82.118512 
L 172.518171 79.169144 
L 172.541854 78.703945 
L 172.544109 78.755378 
L 172.784324 73.898258 
L 172.785452 73.930026 
L 172.844095 72.588161 
L 172.849734 72.660349 
L 172.996341 69.613077 
L 172.997469 69.62415 
L 173.035813 68.930345 
L 173.198211 66.177028 
L 173.199339 66.244134 
L 173.358352 64.71493 
L 173.410229 65.316519 
L 173.877114 97.786431 
L 173.878241 97.769367 
L 173.914329 98.902413 
L 174.261681 106.269358 
L 173.916585 98.863929 
L 174.288747 105.432932 
L 174.815412 88.078968 
L 174.81654 88.085442 
L 174.835712 87.593558 
L 174.83684 87.651284 
L 174.990214 84.012892 
L 174.991342 84.064507 
L 175.061261 82.341067 
L 175.063517 82.378826 
L 175.254106 77.979401 
L 175.255234 78.109013 
L 175.34771 76.224315 
L 175.348838 76.261589 
L 175.499952 73.185574 
L 175.353348 76.305519 
L 175.502207 73.235797 
L 176.134868 62.75048 
L 176.186745 63.952991 
L 176.189 63.906036 
L 176.616417 95.312912 
L 177.039324 105.09329 
L 177.100222 102.961772 
L 177.278405 95.467757 
L 177.413735 91.065367 
L 177.606578 86.067441 
L 177.607705 86.117846 
L 177.682137 84.571821 
L 177.683265 84.638503 
L 177.874982 80.27248 
L 177.87611 80.332868 
L 177.952796 78.624859 
L 177.953924 78.69626 
L 178.106171 75.387343 
L 178.107299 75.414271 
L 178.164816 74.196148 
L 178.33736 70.147802 
L 178.338488 70.164078 
L 178.646367 64.238779 
L 178.340743 70.174123 
L 178.648622 64.245617 
L 178.650878 64.276658 
L 178.708393 63.287868 
L 178.711776 63.325565 
L 178.827934 61.815846 
L 178.836955 61.86026 
L 178.895599 61.644241 
L 178.93958 62.041971 
L 178.941836 62.016255 
L 178.948602 61.897111 
L 178.984691 65.741176 
L 179.197837 86.764635 
L 179.198964 86.701583 
L 179.262118 89.302778 
L 179.263246 89.178068 
L 179.408727 94.390985 
L 179.574504 99.102035 
L 179.575632 99.032993 
L 179.653447 101.05529 
L 179.655702 101.148778 
L 179.660213 101.140004 
L 179.792158 103.538551 
L 179.796669 103.516647 
L 179.813585 103.779986 
L 181.006753 71.002744 
L 181.00788 71.071301 
L 181.092461 69.467127 
L 181.226666 66.76712 
L 181.227794 66.767362 
L 181.678894 59.256888 
L 181.74543 60.956547 
L 182.230369 94.043175 
L 182.231497 94.030044 
L 182.257436 94.972726 
L 182.26082 94.965647 
L 182.363444 97.361168 
L 182.3657 97.34356 
L 182.559672 101.849119 
L 182.58561 102.177868 
L 182.87657 90.718707 
L 182.883337 90.562713 
L 182.912659 89.626264 
L 182.885593 90.58135 
L 182.914914 89.638486 
L 183.052502 85.866549 
L 183.05363 85.901765 
L 183.469776 76.358284 
L 183.470904 76.414739 
L 183.472032 76.425268 
L 183.501353 75.764683 
L 183.502481 75.770552 
L 183.632173 72.869652 
L 183.634428 72.900149 
L 183.635556 72.908923 
L 183.662623 72.272542 
L 183.66375 72.276475 
L 183.879152 67.854601 
L 183.666006 72.304612 
L 183.88028 67.993714 
L 184.44867 58.606226 
L 184.453181 58.660927 
L 184.461075 58.653605 
L 184.534379 62.627403 
L 184.779102 85.200638 
L 184.807296 86.5468 
L 185.041867 93.95483 
L 185.124193 96.007685 
L 185.125321 95.976523 
L 185.262908 99.020831 
L 185.264035 98.929885 
L 185.348615 100.458846 
L 185.35651 100.39295 
L 185.359894 100.583496 
L 185.442217 97.713577 
L 185.443345 97.719628 
L 185.45575 97.196158 
L 185.711751 87.286955 
L 185.712879 87.288165 
L 185.716262 87.133321 
L 185.71739 87.15099 
L 186.327503 72.549979 
L 186.328631 72.556696 
L 186.353442 71.991837 
L 186.521478 68.424604 
L 186.850784 61.953022 
L 186.851912 61.959436 
L 186.874468 61.551237 
L 187.007543 59.077839 
L 187.013181 59.171811 
L 187.093254 57.932994 
L 187.222944 56.900032 
L 187.095509 57.954838 
L 187.227455 56.991765 
L 187.23535 56.950073 
L 187.29625 58.719198 
L 187.577057 84.94329 
L 187.623294 86.668787 
L 187.810502 92.765632 
L 188.116125 99.642993 
L 187.815013 92.726301 
L 188.119508 99.555132 
L 188.120636 99.552772 
L 188.122891 99.575282 
L 188.126274 100.651388 
L 188.228899 96.870011 
L 188.230026 96.910492 
L 188.27852 94.771955 
L 188.483771 86.977266 
L 188.486027 87.052661 
L 188.702554 81.421318 
L 188.70481 81.478924 
L 188.771345 79.880497 
L 188.775856 79.945727 
L 189.153652 71.584062 
L 189.157035 71.595801 
L 189.301388 68.490559 
L 189.302515 68.508471 
L 189.344243 67.491966 
L 189.348754 67.539225 
L 189.517921 64.059307 
L 189.843835 57.823108 
L 189.520176 64.070986 
L 189.84609 57.842471 
L 189.996081 56.245376 
L 190.064876 57.065405 
L 190.592656 91.889814 
L 190.593784 91.884852 
L 190.603934 92.256261 
L 190.606189 92.249846 
L 190.742648 95.626716 
L 190.859932 97.763317 
L 190.901659 99.154497 
L 190.964812 97.174919 
L 190.96594 97.185388 
L 191.138483 90.12674 
L 191.156527 89.348342 
L 192.629367 56.337048 
L 192.63275 56.393444 
L 192.633878 56.405364 
L 192.686884 55.842381 
L 192.688012 55.899018 
L 192.769211 55.010311 
L 192.806426 55.189783 
L 192.816576 55.182885 
L 192.866197 60.544415 
L 193.045512 78.524473 
L 193.329702 89.614524 
L 193.33083 89.590562 
L 193.683816 97.577612 
L 193.730054 96.069708 
L 194.002978 85.509238 
L 194.10786 82.570339 
L 194.265747 78.382275 
L 194.266875 78.398491 
L 194.3086 77.404316 
L 194.390924 75.604271 
L 194.540913 72.33523 
L 194.542041 72.361491 
L 194.712328 68.560993 
L 194.713456 68.615996 
L 194.716839 68.690181 
L 194.838634 66.089229 
L 194.979601 63.157106 
L 194.980729 63.179676 
L 195.031478 62.003245 
L 195.032605 62.021822 
L 195.295367 56.511438 
L 195.297623 56.530075 
L 195.298751 56.540906 
L 195.33484 55.847585 
L 195.335968 55.856359 
L 195.50964 53.708382 
L 195.542345 53.644726 
L 195.622414 55.65474 
L 195.87954 80.701675 
L 196.065618 86.966314 
L 196.066746 86.965709 
L 196.459202 96.230604 
L 196.461458 96.193269 
L 196.464841 96.21112 
L 196.560702 92.49243 
L 196.724223 85.786494 
L 196.725351 85.789459 
L 196.726479 85.821106 
L 196.777227 84.196176 
L 197.030972 77.337271 
L 197.0321 77.363956 
L 197.086232 76.122719 
L 197.087359 76.123384 
L 197.265546 72.143838 
L 197.452754 67.842742 
L 197.787695 60.667007 
L 197.455009 67.846735 
L 197.788822 60.699804 
L 197.78995 60.752387 
L 197.866637 59.171145 
L 198.084295 54.781644 
L 198.085423 54.81317 
L 198.154215 53.628813 
L 198.155343 53.670141 
L 198.287292 52.167622 
L 198.32789 51.826286 
L 198.385405 52.696417 
L 198.501566 70.183805 
L 198.661705 79.360355 
L 198.831995 85.722596 
L 199.094754 92.386115 
L 199.095881 92.354166 
L 199.156776 93.553954 
L 199.163542 93.530234 
L 199.221059 94.977991 
L 199.272935 93.501975 
L 199.468031 85.281843 
L 199.470286 85.314699 
L 200.695013 55.663998 
L 200.696141 55.684451 
L 200.748016 54.639628 
L 200.920561 51.562282 
L 200.750272 54.641201 
L 200.922816 51.569967 
L 200.940861 51.37573 
L 200.925072 51.57505 
L 200.943116 51.379724 
L 201.066038 50.05335 
L 201.067165 50.125417 
L 201.091975 49.960165 
L 201.157384 50.728397 
L 201.631035 84.438155 
L 202.003193 93.557524 
L 202.033643 92.62416 
L 202.348284 79.918921 
L 202.349412 79.972654 
L 202.413692 77.753034 
L 203.368883 56.543387 
L 203.371138 56.578664 
L 203.506469 53.794004 
L 203.871853 48.601599 
L 203.877491 48.702166 
L 203.88313 48.681835 
L 203.96433 55.854302 
L 204.165069 74.977269 
L 204.466177 85.911508 
L 204.467304 85.901039 
L 204.468432 85.894383 
L 204.487604 86.419487 
L 204.766151 94.266758 
L 204.802239 92.988126 
L 205.040197 82.891706 
L 205.221763 76.838186 
L 205.222891 76.868623 
L 205.256722 76.029715 
L 205.438288 71.905974 
L 205.439416 71.936168 
L 205.499185 70.605558 
L 205.678495 65.892935 
L 205.679623 65.936986 
L 205.86232 61.804229 
L 205.864575 61.839748 
L 205.922092 60.671183 
L 206.640473 47.84202 
L 206.695732 48.226438 
L 207.193064 83.867245 
L 207.194191 83.863372 
L 207.204342 84.201501 
L 207.441166 90.373681 
L 207.442294 90.282976 
L 207.530258 91.941065 
L 207.531385 91.930536 
L 207.532513 91.976887 
L 207.600177 90.227428 
L 207.79302 81.523035 
L 208.378315 65.18485 
L 208.379443 65.229748 
L 208.448239 63.549512 
L 208.450494 63.684509 
L 209.418112 46.076102 
L 209.432773 46.133768 
L 209.522995 55.729107 
L 209.713586 73.150297 
L 210.311295 90.232753 
L 210.360916 88.654355 
L 211.423256 58.453742 
L 211.424384 58.528592 
L 211.505579 56.740225 
L 211.507835 56.883149 
L 211.636399 53.913511 
L 211.642037 53.99526 
L 211.804433 50.648585 
L 211.971342 47.193657 
L 211.97247 47.243215 
L 212.049157 45.885738 
L 212.051413 45.904194 
L 212.188998 44.883515 
L 212.055924 45.933178 
L 212.19802 45.009133 
L 212.208171 44.949713 
L 212.273581 52.470716 
L 212.455153 70.172792 
L 212.688595 79.545878 
L 212.689723 79.476534 
L 212.690851 79.445371 
L 212.739343 80.959205 
L 212.740471 80.896275 
L 212.865648 84.818095 
L 212.869031 84.638624 
L 212.870159 84.568553 
L 212.952484 86.263372 
L 213.099092 89.017414 
L 212.95474 86.254356 
L 213.109243 88.698588 
L 213.11037 88.726664 
L 213.150968 86.99669 
L 213.153224 87.067668 
L 213.201715 84.84115 
L 213.360728 77.985391 
L 214.531315 49.648479 
L 214.532442 49.673409 
L 214.534698 49.680307 
L 214.556124 49.255528 
L 214.557252 49.255528 
L 214.683558 46.6504 
L 214.684685 46.705162 
L 214.685813 46.768213 
L 214.767009 45.196411 
L 214.769265 45.261701 
L 214.902337 43.567669 
L 214.903465 43.691472 
L 214.928276 43.456936 
L 215.003835 43.959409 
L 215.011729 43.778304 
L 215.0309 45.662639 
L 215.395158 75.905428 
L 215.792119 86.406357 
L 215.793247 86.378522 
L 215.794374 86.365996 
L 215.834972 87.07505 
L 215.837227 87.04062 
L 215.858653 87.877773 
L 215.922934 85.578462 
L 215.925189 85.606659 
L 216.279304 72.094946 
L 216.280432 72.216692 
L 216.281559 72.301042 
L 216.357116 69.794727 
L 216.359371 69.828249 
L 216.360499 69.881921 
L 216.424781 67.915716 
L 216.428164 67.960131 
L 216.568005 64.473133 
L 216.569132 64.590583 
L 216.57026 64.597723 
L 216.584921 64.048113 
L 216.588304 64.14275 
L 216.71123 61.127548 
L 216.716869 61.139105 
L 216.717997 61.140133 
L 216.844306 57.634439 
L 216.84769 57.711407 
L 217.001063 53.923192 
L 217.005574 54.015833 
L 217.006702 54.048508 
L 217.069856 52.774112 
L 217.200674 49.975111 
L 217.205185 50.029509 
L 217.206313 50.031203 
L 217.210823 49.857722 
L 217.213079 49.901107 
L 217.490503 44.463395 
L 217.493886 44.622778 
L 217.585232 43.07282 
L 217.586359 43.137263 
L 217.690113 42.056317 
L 217.708156 42.251884 
L 217.726199 42.141151 
L 217.835591 50.481275 
L 218.023924 68.329724 
L 218.632906 87.897862 
L 218.683655 85.244024 
L 218.894546 76.155879 
L 219.081752 70.065508 
L 219.085135 70.070349 
L 219.086263 70.113613 
L 219.152798 68.433014 
L 219.48436 60.804063 
L 219.485488 60.813078 
L 219.486616 60.845754 
L 219.546386 59.410885 
L 219.690736 56.18408 
L 219.691863 56.198844 
L 220.524135 41.069281 
L 220.542178 41.248874 
L 220.585033 43.590784 
L 220.785771 66.808992 
L 220.786899 66.802942 
L 220.798176 67.320361 
L 221.406035 84.782153 
L 221.445507 83.746407 
L 221.455657 83.310252 
L 221.456785 83.321084 
L 221.640612 75.705806 
L 221.641739 75.733399 
L 221.683465 74.143928 
L 221.842477 69.054026 
L 223.08751 41.451763 
L 221.844733 69.061772 
L 223.088639 41.45848 
L 223.089766 41.515843 
L 223.174347 40.191829 
L 223.262309 39.503227 
L 223.296141 39.543345 
L 223.359295 42.245772 
L 223.583716 65.943703 
L 224.192698 83.48567 
L 224.24796 81.588023 
L 224.28856 79.926545 
L 224.540045 70.183078 
L 224.541173 70.220837 
L 224.594178 68.328514 
L 224.864837 61.41152 
L 224.868221 61.45061 
L 224.869349 61.454724 
L 224.88401 61.091242 
L 224.885137 61.120529 
L 225.555021 46.047481 
L 225.556149 46.065332 
L 225.558404 46.113497 
L 225.628326 44.616485 
L 225.826807 40.545871 
L 225.827935 40.565053 
L 225.880938 39.578562 
L 225.88545 39.591511 
L 225.892216 39.412644 
L 225.895599 39.448042 
L 226.016269 38.327764 
L 226.017396 38.354388 
L 226.055739 38.231735 
L 226.162873 47.519079 
L 226.330904 63.797299 
L 226.695168 76.563896 
L 226.696295 76.56202 
L 226.699679 76.675657 
L 226.854183 80.519904 
L 226.858694 80.402757 
L 226.92636 81.564908 
L 226.954553 82.672056 
L 227.013196 80.537694 
L 227.175593 73.350705 
L 227.235363 71.035661 
L 227.439486 64.232788 
L 227.707893 57.587483 
L 227.709021 57.598073 
L 227.86014 54.304101 
L 227.861268 54.36927 
L 227.862396 54.376834 
L 227.884951 53.813609 
L 228.039456 50.422399 
L 228.042839 50.438616 
L 228.118401 48.72752 
L 228.393575 43.070037 
L 228.395831 43.090429 
L 228.416131 42.688644 
L 228.586425 39.383538 
L 228.587553 39.414519 
L 228.716115 37.23762 
L 228.83453 35.723484 
L 228.719498 37.276951 
L 228.887532 36.243746 
L 228.946175 47.404352 
L 229.155937 64.734596 
L 229.157065 64.708577 
L 229.196537 66.321889 
L 229.427724 74.069803 
L 229.428851 74.048444 
L 229.478474 75.207327 
L 229.480729 75.095505 
L 229.632975 78.934003 
L 229.729962 80.815495 
L 229.636359 78.893462 
L 229.758157 79.882797 
L 230.324282 60.700349 
L 230.327666 60.715234 
L 230.329921 60.773445 
L 230.402098 58.840762 
L 231.085518 43.762571 
L 231.225361 40.463396 
L 231.226489 40.480521 
L 231.609925 34.664804 
L 231.669696 36.060584 
L 231.865928 60.245497 
L 232.063287 68.737621 
L 231.868184 60.204471 
L 232.065543 68.636267 
L 232.102759 69.827341 
L 232.298983 75.789855 
L 232.105014 69.806526 
L 232.303494 75.775332 
L 232.495211 79.343715 
L 232.498594 79.300874 
L 232.499722 80.453586 
L 232.603476 76.311025 
L 232.605732 76.322038 
L 232.80422 67.960917 
L 232.805347 67.98252 
L 232.841435 66.64489 
L 232.842563 66.649186 
L 232.981275 62.555094 
L 232.982403 62.766999 
L 233.077132 59.86489 
L 233.26659 55.416877 
L 233.273357 55.54788 
L 233.338766 53.941527 
L 233.339893 53.952479 
L 233.572207 48.230009 
L 233.573335 48.40113 
L 233.666939 45.98794 
L 233.668066 46.103513 
L 233.819188 43.010797 
L 233.821443 43.11554 
L 233.875576 41.689385 
L 233.878959 41.748927 
L 233.961286 39.936962 
L 233.881215 41.751528 
L 233.964669 39.958926 
L 234.083084 37.605943 
L 234.222925 35.156749 
L 234.22518 35.198198 
L 234.24548 34.907509 
L 234.365021 33.77525 
L 234.368404 33.81446 
L 234.37517 33.528612 
L 234.47441 41.463079 
L 234.631168 58.479458 
L 234.816118 67.157892 
L 234.916487 69.965062 
L 235.065351 74.135699 
L 235.232258 77.590323 
L 235.235641 77.539435 
L 235.236769 77.526001 
L 235.27173 78.27009 
L 235.288646 78.593334 
L 235.369843 75.407735 
L 235.370971 75.44392 
L 235.551406 67.705929 
L 235.552534 67.714521 
L 235.553662 67.719241 
L 235.563811 67.28587 
L 235.951754 55.975503 
L 235.952882 56.019856 
L 235.95401 56.065057 
L 236.021675 54.451019 
L 236.022803 54.460943 
L 236.178427 50.838888 
L 236.416382 45.439721 
L 236.418637 45.487282 
L 236.479535 43.99275 
L 236.584416 41.763146 
L 236.869732 35.727961 
L 236.87086 35.756099 
L 236.871988 35.8442 
L 236.956569 34.117735 
L 236.959953 34.125118 
L 237.01521 33.093487 
L 237.017466 33.142015 
L 237.129114 32.189955 
L 237.140391 32.204114 
L 237.155051 32.129323 
L 237.212567 33.038362 
L 237.579085 65.04362 
L 237.580213 64.975244 
L 237.650132 67.162793 
L 237.654643 67.162491 
L 237.821546 72.335714 
L 237.823802 72.328392 
L 237.828313 72.245978 
L 237.872294 73.397419 
L 238.008747 76.089378 
L 238.013258 76.02191 
L 238.021153 76.327 
L 238.059495 76.95491 
L 238.112498 75.095868 
L 238.254594 68.988979 
L 238.44969 61.859958 
L 238.924468 50.198694 
L 238.925595 50.240446 
L 239.080093 46.675391 
L 239.133097 45.498355 
L 239.134224 45.546157 
L 239.287597 41.544827 
L 239.288725 41.570423 
L 239.338346 40.33802 
L 239.339473 40.378803 
L 239.465777 37.841205 
L 239.466905 37.84417 
L 239.479311 37.58071 
L 239.66877 33.840722 
L 239.923637 30.675334 
L 239.973257 30.88258 
L 240.02175 39.107675 
L 240.217973 58.115128 
L 240.2191 58.044393 
L 240.504422 68.596028 
L 240.50555 68.574789 
L 240.548404 69.846402 
L 240.619451 71.416087 
L 240.785229 75.043103 
L 240.81906 75.769886 
L 241.064907 65.295099 
L 241.244215 59.508669 
L 241.296091 58.034046 
L 241.465249 53.70215 
L 241.690794 47.909488 
L 241.695305 47.927036 
L 241.697561 48.088052 
L 241.77312 46.37738 
L 241.977243 41.589181 
L 241.775376 46.39517 
L 241.979498 41.591117 
L 241.980626 41.613566 
L 242.034759 40.50303 
L 242.174602 37.23877 
L 242.175729 37.320881 
L 242.260308 35.402056 
L 242.261436 35.424868 
L 242.313313 34.29981 
L 242.322335 34.407275 
L 242.32459 34.328128 
L 242.446386 31.579592 
L 242.448642 31.657892 
L 242.530965 29.983707 
L 242.670806 28.784222 
L 242.53322 30.014809 
L 242.675317 28.826881 
L 242.694489 28.760078 
L 242.780197 33.599227 
L 242.969654 55.880745 
L 242.970782 55.791493 
L 243.038448 59.227541 
L 243.207606 65.104977 
L 243.208734 65.073572 
L 243.254972 66.678896 
L 243.257227 66.667097 
L 243.398196 70.056553 
L 243.399323 70.053769 
L 243.592168 74.987132 
L 243.600062 74.437884 
L 243.839145 64.697746 
L 243.603445 74.472678 
L 243.841401 64.743552 
L 244.197768 53.753462 
L 244.198895 53.786077 
L 244.246261 51.993657 
L 244.247389 52.053622 
L 244.4064 47.134963 
L 244.407528 47.178954 
L 244.408656 47.267964 
L 244.492109 45.192297 
L 244.631947 42.34755 
L 244.633075 42.578334 
L 244.733445 40.540607 
L 245.480014 26.767067 
L 245.529635 27.525255 
L 245.893898 60.986983 
L 245.895026 60.928713 
L 245.962691 63.079835 
L 245.967202 63.053151 
L 246.199515 69.518621 
L 246.201771 69.503917 
L 246.366421 72.795286 
L 246.367549 72.957392 
L 246.45664 69.8556 
L 246.457768 69.871393 
L 246.481451 68.723583 
L 246.482579 68.735322 
L 246.672046 60.734778 
L 246.673173 60.754505 
L 246.675429 60.759648 
L 247.092696 49.347927 
L 247.094951 49.481532 
L 247.181788 47.451066 
L 247.482903 40.347338 
L 247.486286 40.411721 
L 247.560718 38.70589 
L 247.703943 35.509218 
L 247.70507 35.663519 
L 247.800929 33.621858 
L 247.932876 30.78407 
L 247.936259 30.799197 
L 247.937387 30.881128 
L 248.020838 28.935919 
L 248.023093 29.092216 
L 248.15391 26.988352 
L 248.238491 26.190046 
L 248.162932 27.035973 
L 248.273451 26.53828 
L 248.285857 26.405582 
L 248.319688 30.159065 
L 248.519299 53.836905 
L 248.520427 53.742934 
L 248.777553 63.721723 
L 248.778681 63.656615 
L 248.856495 65.537743 
L 249.033553 70.125534 
L 249.03468 70.05861 
L 249.118134 71.620912 
L 249.136177 71.889999 
L 249.188053 70.326184 
L 249.375257 62.591098 
L 249.621106 54.208314 
L 249.706813 52.295237 
L 249.905295 47.360423 
L 249.90755 47.416273 
L 250.33271 37.50834 
L 250.333838 37.540411 
L 250.334965 37.559351 
L 250.382331 36.520761 
L 250.922526 26.013963 
L 250.385714 36.524512 
L 250.928164 26.016867 
L 250.929292 26.118947 
L 251.002594 25.211179 
L 251.031915 25.391256 
L 251.037554 25.339945 
L 251.077025 26.332426 
L 251.536016 61.695069 
L 251.922833 70.667701 
L 251.538271 61.598556 
L 251.942006 70.205769 
L 252.23635 57.68678 
L 252.238605 57.729439 
L 252.569035 48.720017 
L 252.570162 48.757714 
L 252.633318 47.211568 
L 252.787819 43.512666 
L 252.788947 43.517325 
L 252.80699 43.156445 
L 252.808118 43.176836 
L 252.950213 39.851219 
L 253.483633 28.023371 
L 253.484761 28.1525 
L 253.574982 26.24989 
L 253.578365 26.295091 
L 253.733996 24.076379 
L 253.790383 23.489071 
L 254.220058 57.86728 
L 254.294488 60.042123 
L 254.649729 68.67578 
L 254.693711 70.25684 
L 254.751226 67.95287 
L 254.753481 68.016586 
L 254.788441 66.391052 
L 254.790696 66.403819 
L 254.805357 65.661727 
L 254.981282 58.009963 
L 254.98241 58.215091 
L 255.073757 54.652819 
L 255.076013 54.747033 
L 255.145933 52.804972 
L 255.148189 52.866208 
L 255.341032 47.794701 
L 255.59139 41.675105 
L 255.592518 41.689869 
L 255.593646 41.868615 
L 255.688375 39.425049 
L 255.689503 39.493787 
L 255.921818 34.16215 
L 255.691759 39.59496 
L 255.922945 34.215398 
L 256.066169 31.103683 
L 256.068425 31.241342 
L 256.075191 30.904303 
L 256.079702 31.016307 
L 256.202627 28.309583 
L 256.204883 28.443612 
L 256.20601 28.444883 
L 256.209393 28.289252 
L 256.344722 25.581499 
L 256.346978 25.696165 
L 256.429302 24.105061 
L 256.430429 24.153105 
L 256.443963 24.168596 
L 256.552226 23.029318 
L 256.943552 55.261305 
L 256.94468 55.226149 
L 256.945807 55.148152 
L 257.016856 57.807436 
L 257.017983 57.685993 
L 257.163462 62.158876 
L 257.164589 62.152402 
L 257.314577 65.273859 
L 257.315705 65.190779 
L 257.395774 67.401141 
L 257.396902 67.22772 
L 257.467949 69.045858 
L 257.509675 67.518348 
L 257.75552 56.586167 
L 257.756647 56.646072 
L 258.455848 38.338353 
L 258.456976 38.554857 
L 258.550578 36.314543 
L 258.556216 36.327795 
L 258.759215 30.808153 
L 258.76147 30.839134 
L 259.23851 21.91497 
L 259.239638 22.077499 
L 259.315198 21.562682 
L 259.347902 21.796007 
L 259.358051 21.605644 
L 259.400906 22.674609 
L 259.691864 52.43925 
L 259.692992 52.375655 
L 259.961395 61.047069 
L 259.962523 60.948499 
L 260.043721 63.371311 
L 260.045976 63.29882 
L 260.171155 65.876779 
L 260.174538 65.801263 
L 260.234307 67.428068 
L 260.177921 65.793275 
L 260.285055 65.795454 
L 260.312121 64.541147 
L 260.856818 45.484801 
L 260.857946 45.592327 
L 260.865841 45.395549 
L 260.866968 45.415093 
L 261.005679 41.701305 
L 261.019213 41.256316 
L 261.262809 35.852309 
L 261.022596 41.28869 
L 261.265064 35.873548 
L 261.268447 36.026335 
L 261.350772 33.97106 
L 261.353027 34.113924 
L 261.486102 30.973284 
L 261.491741 30.999364 
L 261.493997 31.125163 
L 261.553768 29.60177 
L 261.554896 29.632387 
L 261.703758 26.309493 
L 261.704886 26.437349 
L 261.791722 24.463036 
L 261.798488 24.534317 
L 262.017272 20.686863 
L 262.019527 20.76843 
L 262.126661 20.243569 
L 262.031932 20.769156 
L 262.142449 20.476047 
L 262.145833 20.380562 
L 262.646551 57.617375 
L 262.647679 57.598557 
L 262.681512 58.774564 
L 262.807826 62.078701 
L 262.810081 61.985213 
L 262.885641 63.436298 
L 262.886769 63.368406 
L 263.006309 66.002458 
L 263.046908 64.805695 
L 263.574692 45.186729 
L 263.578075 45.269205 
L 263.775431 39.941257 
L 263.926548 36.609044 
L 263.928804 36.686981 
L 264.862576 18.28995 
L 264.863704 18.423071 
L 264.882875 18.22 
L 264.965202 22.28541 
L 265.260672 50.815531 
L 265.262927 50.759922 
L 265.70049 63.003109 
L 265.701618 62.938182 
L 265.781686 64.722494 
L 265.782814 64.654663 
L 265.794091 64.732962 
L 265.838073 63.221851 
L 266.237298 47.54885 
L 266.238426 47.559741 
L 266.259853 46.785822 
L 266.413226 42.86745 
L 266.417736 42.881912 
L 266.44593 42.198394 
L 266.697419 35.536751 
L 266.698546 35.546795 
L 266.731251 34.866544 
L 267.081974 27.432736 
L 266.733506 34.896859 
L 267.083102 27.48072 
L 267.085357 27.524287 
L 267.121444 26.736934 
L 267.261285 23.619893 
L 267.262413 23.664912 
L 267.334589 22.142002 
L 267.335717 22.148779 
L 267.361655 21.6313 
L 267.486836 19.187068 
L 267.489091 19.269603 
" clip-path="url(#p2cf5faa618)" style="fill: none; stroke: #1f77b4; stroke-width: 1.5; stroke-linecap: square"/>
   </g>
   <g id="line2d_14">
    <path d="M 73.270909 148.365923 
L 73.759294 148.277942 
L 73.884494 147.697441 
L 74.005187 147.637567 
L 74.182276 147.637567 
L 74.2962 147.138906 
L 76.531971 147.040668 
L 76.677477 146.356636 
L 76.713573 146.254041 
L 76.833135 146.173654 
L 76.949313 146.134141 
L 77.064362 145.340162 
L 79.312369 145.237114 
L 79.469157 144.615134 
L 79.746642 144.506609 
L 79.951932 143.575031 
L 82.052079 143.47289 
L 82.215601 142.638037 
L 82.521217 142.535412 
L 82.670076 142.003138 
L 84.834133 141.89422 
L 84.985244 141.19509 
L 85.025844 141.084236 
L 85.308893 140.870576 
L 85.436325 140.303812 
L 87.597029 140.215498 
L 87.747015 139.402397 
L 87.774081 139.296294 
L 87.900386 139.184925 
L 88.071798 139.091982 
L 88.247722 137.882089 
L 90.341907 137.773201 
L 90.58888 136.641154 
L 90.842622 136.541827 
L 91.010655 135.477944 
L 93.25375 135.377559 
L 93.411636 134.817208 
L 93.607864 134.710862 
L 93.749961 134.29165 
L 95.918638 134.2014 
L 96.060731 133.228857 
L 96.256959 132.894298 
L 96.396801 132.790342 
L 96.581756 132.190751 
L 98.818123 132.091817 
L 98.948945 131.694479 
L 99.175632 131.598299 
L 99.352691 130.638463 
L 101.621795 130.531935 
L 101.803365 130.003383 
L 101.960121 129.903753 
L 102.079667 129.615787 
L 104.322806 129.513283 
L 104.459267 128.851276 
L 104.494229 128.743327 
L 104.611518 128.676252 
L 104.749108 128.58467 
L 104.883313 127.973279 
L 107.131833 127.866086 
L 107.261529 127.352479 
L 107.304384 127.235726 
L 107.417161 127.226891 
L 107.536708 127.130348 
L 107.684448 126.464589 
L 109.933257 126.358757 
L 110.197162 125.579936 
L 110.321219 125.469959 
L 110.443021 125.128805 
L 112.731313 125.029478 
L 112.919652 123.883302 
L 113.789174 123.883302 
L 113.900823 124.43028 
L 118.32406 124.347836 
L 118.45827 123.753236 
L 118.644361 123.753236 
L 118.761655 122.454605 
L 121.097344 122.363084 
L 121.26877 121.009722 
L 121.43343 120.968334 
L 121.557491 119.349092 
L 123.673249 119.24444 
L 124.074745 117.007182 
L 124.236024 116.909973 
L 124.407452 114.877389 
L 126.580597 114.785505 
L 126.711411 114.035335 
L 126.837715 113.801283 
L 127.000109 113.790664 
L 127.117393 111.817197 
L 129.378507 111.728611 
L 129.513835 110.797366 
L 129.813815 109.876286 
L 129.949148 109.655697 
L 132.21594 109.544692 
L 132.376462 108.824838 
L 132.580595 108.742665 
L 132.70804 107.642234 
L 134.989197 107.536009 
L 135.120018 106.857937 
L 135.353464 106.768745 
L 135.504583 105.775568 
L 137.825493 105.670221 
L 137.979992 104.975235 
L 138.150281 104.864472 
L 138.299146 104.24939 
L 140.483594 104.146433 
L 140.63471 103.155978 
L 140.670798 103.047666 
L 140.790341 102.851523 
L 140.931309 102.744119 
L 141.084683 102.40717 
L 143.360487 102.311686 
L 143.493564 101.863217 
L 143.707836 101.81841 
L 143.82512 101.306224 
L 146.159584 101.208078 
L 146.285893 100.897844 
L 146.468592 100.897844 
L 146.581368 99.686227 
L 148.897791 99.584056 
L 149.041017 98.933848 
L 149.263187 98.848862 
L 149.388369 97.982997 
L 151.663044 97.892111 
L 151.797248 97.222147 
L 151.81642 97.125634 
L 151.931451 97.053052 
L 152.046478 96.970154 
L 152.166016 96.523925 
L 154.415879 96.432041 
L 154.574891 95.19864 
L 154.586168 95.122397 
L 154.727135 93.996371 
L 154.822994 93.893746 
L 154.957196 93.289344 
L 157.596124 93.19504 
L 157.830694 91.342109 
L 160.021894 91.239575 
L 160.17865 90.766933 
L 160.389535 90.660406 
L 160.510201 90.269967 
L 162.817576 90.181289 
L 162.940502 89.792665 
L 163.16154 89.733124 
L 163.278823 89.333971 
L 165.510624 89.25316 
L 165.650464 88.42581 
L 165.938042 88.322429 
L 166.081268 87.631559 
L 166.614819 87.631559 
L 166.727598 88.96111 
L 168.359016 88.860331 
L 168.509005 88.188642 
L 171.103973 88.088105 
L 171.268626 87.211651 
L 171.477261 87.206417 
L 171.608079 84.509919 
L 173.912074 84.433919 
L 174.035 83.973137 
L 174.266193 83.879771 
L 174.386864 83.368765 
L 176.651378 83.277063 
L 176.804752 82.323035 
L 176.94121 82.175089 
L 177.044963 82.10284 
L 177.171271 81.518437 
L 179.524884 81.416054 
L 179.645552 81.193106 
L 179.818097 81.090481 
L 179.95794 80.392047 
L 182.208941 80.300375 
L 182.35555 79.558948 
L 182.593504 79.468759 
L 182.718685 78.741764 
L 185.100511 78.633512 
L 185.222308 78.448382 
L 187.81163 78.338224 
L 188.050714 77.830849 
L 188.129657 77.737694 
L 188.246943 77.082404 
L 190.543036 76.988372 
L 190.677238 76.413922 
L 190.794523 76.399612 
L 190.915192 76.290754 
L 191.042625 75.611169 
L 193.313914 75.510541 
L 193.483075 74.701949 
L 193.695094 74.614664 
L 193.829297 74.028445 
L 196.063363 73.939042 
L 196.194182 73.207478 
L 196.237036 73.097986 
L 196.358833 73.095384 
L 196.468224 73.02368 
L 196.594532 72.469078 
L 198.890638 72.374289 
L 199.025962 71.789795 
L 199.222186 71.726411 
L 199.345108 71.079562 
L 199.911233 71.079562 
L 200.022879 71.434179 
L 201.740431 71.330707 
L 201.880269 71.054389 
L 204.398513 70.958088 
L 204.53835 70.252151 
L 204.766151 70.17143 
L 204.885693 69.026495 
L 207.204342 68.925988 
L 207.330649 68.435586 
L 207.559579 68.326578 
L 207.68814 67.558134 
L 209.949287 67.468761 
L 210.081234 66.844845 
L 210.311295 66.844845 
L 210.426324 66.237175 
L 212.719043 66.131525 
L 212.858882 65.536865 
L 213.106987 65.4389 
L 213.228782 64.967045 
L 215.587998 64.85613 
L 215.710922 64.483571 
L 218.27428 64.379615 
L 218.426527 63.700545 
L 218.632906 63.700545 
L 218.746811 62.14269 
L 221.048535 62.046994 
L 221.179358 61.518471 
L 221.412802 61.411036 
L 221.535729 60.858703 
L 223.817156 60.750935 
L 224.088945 59.604577 
L 224.205104 59.498564 
L 224.332543 59.19777 
L 226.656824 59.094964 
L 226.788773 58.66843 
L 226.954553 58.66843 
L 227.072967 57.740149 
L 229.42434 57.644968 
L 229.560801 57.172054 
L 229.73109 57.122526 
L 229.842738 56.991099 
L 232.147868 56.883876 
L 232.339583 56.291455 
L 232.499722 56.291455 
L 232.615882 55.361329 
L 234.94468 55.269898 
L 235.077755 54.634334 
L 235.294285 54.608889 
L 235.413826 53.815122 
L 237.647876 53.713617 
L 237.794482 52.945838 
L 238.06175 52.852835 
L 238.189185 52.264982 
L 240.499911 52.155732 
L 240.710799 51.268477 
L 240.81906 51.268477 
L 240.932962 50.8771 
L 243.342937 50.786032 
L 243.459093 50.588589 
L 243.594423 50.578151 
L 243.711712 49.573719 
L 246.076591 49.485677 
L 246.196133 49.084286 
L 246.383336 48.982175 
L 246.520923 48.550589 
L 248.795597 48.460188 
L 248.937693 47.689535 
L 249.148582 47.602522 
L 249.277144 47.078386 
L 251.661195 46.986774 
L 251.77961 46.848509 
L 251.935238 46.739259 
L 252.048016 46.643079 
L 254.306893 46.566655 
L 254.432073 45.979105 
L 254.694839 45.892425 
L 254.823402 45.30427 
L 257.104818 45.255257 
L 257.224359 44.668614 
L 257.475843 44.58496 
L 257.598766 43.835818 
L 259.854258 43.727808 
L 260.085447 42.824034 
L 260.235435 42.764734 
L 260.357228 42.111229 
L 262.634147 42.111229 
L 262.634147 42.111229 
" clip-path="url(#p2cf5faa618)" style="fill: none; stroke: #ff7f0e; stroke-width: 1.5; stroke-linecap: square"/>
   </g>
   <g id="patch_3">
    <path d="M 63.56 174.04 
L 63.56 10.8 
" style="fill: none; stroke: #000000; stroke-width: 0.8; stroke-linejoin: miter; stroke-linecap: square"/>
   </g>
   <g id="patch_4">
    <path d="M 277.2 174.04 
L 277.2 10.8 
" style="fill: none; stroke: #000000; stroke-width: 0.8; stroke-linejoin: miter; stroke-linecap: square"/>
   </g>
   <g id="patch_5">
    <path d="M 63.56 174.04 
L 277.2 174.04 
" style="fill: none; stroke: #000000; stroke-width: 0.8; stroke-linejoin: miter; stroke-linecap: square"/>
   </g>
   <g id="patch_6">
    <path d="M 63.56 10.8 
L 277.2 10.8 
" style="fill: none; stroke: #000000; stroke-width: 0.8; stroke-linejoin: miter; stroke-linecap: square"/>
   </g>
  </g>
 </g>
 <defs>
  <clipPath id="p2cf5faa618">
   <rect x="63.56" y="10.8" width="213.64" height="163.24"/>
  </clipPath>
 </defs>
</svg>
